<?xml version="1.0" standalone="no"?>
<!DOCTYPE svg PUBLIC "-//W3C//DTD SVG 1.1//EN" "http://www.w3.org/Graphics/SVG/1.1/DTD/svg11.dtd" >
<svg xmlns="http://www.w3.org/2000/svg" xmlns:xlink="http://www.w3.org/1999/xlink" version="1.1">
<metadata>
Created by FontForge 20200427 at Tue May  1 08:09:29 2018
 By www
(c) 2015-2017 Apple Inc. All rights reserved.
</metadata>
<defs>
<font id="SFProText-Bold" horiz-adv-x="1800" >
  <font-face 
    font-family="SF Pro Text"
    font-weight="700"
    font-stretch="normal"
    units-per-em="2048"
    panose-1="0 0 8 0 0 0 0 0 0 0"
    ascent="1638"
    descent="-410"
    x-height="1103"
    cap-height="1443"
    bbox="-513 -539 2846 2229"
    underline-thickness="197"
    underline-position="-375"
    unicode-range="U+0020-1F189"
  />
<missing-glyph horiz-adv-x="2048" 
d="M99 -494v198h1848v-198h-1848zM99 -45v198h1848v-198h-1848zM99 404v199h1848v-199h-1848zM99 853v199h1848v-199h-1848zM99 1303v198h1848v-198h-1848zM99 1752v198h1848v-198h-1848z" />
    <glyph glyph-name="uni2780" unicode="&#x31;&#x20dd;" 
d="M1034 382h-201v510h-10l-157 -106v177l167 111h201v-692zM899 125q100 0 189 30t162.5 85t127 129t83 163.5t29.5 187.5t-29.5 187.5t-83 163.5t-127 129t-162.5 85t-189 30t-189 -30t-162 -85t-127 -129t-83 -163.5t-29 -187.5t29 -187.5t83 -163.5t127 -129t162 -85
t189 -30zM899 -55q-129 0 -245.5 39t-213.5 109.5t-167.5 167.5t-109.5 213.5t-39 245.5q0 130 39 246.5t109.5 213t167.5 167.5t213.5 110t245.5 39t245.5 -39t213.5 -110t167.5 -167.5t109.5 -213t39 -246.5q0 -129 -39 -245.5t-109.5 -213.5t-167.5 -167.5t-213.5 -109.5
t-245.5 -39z" />
    <glyph glyph-name="uni2781" unicode="&#x32;&#x20dd;" 
d="M815 845h-186v3q0 67 32 120.5t92.5 85t147.5 31.5q79 0 138 -26.5t92 -73t33 -106.5q0 -59 -35 -108.5t-96 -106.5l-121 -114v-8h263v-161h-534v127l249 235q36 35 56.5 61.5t20.5 56.5q0 29 -21 47t-53 18q-38 0 -58.5 -22t-19.5 -56v-2v-1zM899 125q100 0 189 30
t162.5 85t127 129t83 163.5t29.5 187.5t-29.5 187.5t-83 163.5t-127 129t-162.5 85t-189 30t-189 -30t-162 -85t-127 -129t-83 -163.5t-29 -187.5t29 -187.5t83 -163.5t127 -129t162 -85t189 -30zM899 -55q-129 0 -245.5 39t-213.5 109.5t-167.5 167.5t-109.5 213.5
t-39 245.5q0 130 39 246.5t109.5 213t167.5 167.5t213.5 110t245.5 39t245.5 -39t213.5 -110t167.5 -167.5t109.5 -213t39 -246.5q0 -129 -39 -245.5t-109.5 -213.5t-167.5 -167.5t-213.5 -109.5t-245.5 -39z" />
    <glyph glyph-name="uni2782" unicode="&#x33;&#x20dd;" 
d="M824 659v149h70q37 0 60.5 19t23.5 50q0 28 -23.5 45t-60.5 17q-41 0 -65 -21.5t-26 -53.5h-183q4 103 74.5 162t202.5 59q82 0 143 -23.5t94.5 -65t34.5 -96.5q0 -40 -20 -72t-50.5 -52t-61.5 -25v-10q37 -3 71 -23t56.5 -55.5t22.5 -84.5q0 -64 -37 -110.5t-103 -71.5
t-152 -25q-87 0 -150 28.5t-97.5 78.5t-35.5 115h183q2 -32 29 -52t70 -21q45 0 72 19.5t27 50.5q-1 31 -26.5 50t-70.5 19h-72zM899 125q100 0 189 30t162.5 85t127 129t83 163.5t29.5 187.5t-29.5 187.5t-83 163.5t-127 129t-162.5 85t-189 30t-189 -30t-162 -85
t-127 -129t-83 -163.5t-29 -187.5t29 -187.5t83 -163.5t127 -129t162 -85t189 -30zM899 -55q-129 0 -245.5 39t-213.5 109.5t-167.5 167.5t-109.5 213.5t-39 245.5q0 130 39 246.5t109.5 213t167.5 167.5t213.5 110t245.5 39t245.5 -39t213.5 -110t167.5 -167.5t109.5 -213
t39 -246.5q0 -129 -39 -245.5t-109.5 -213.5t-167.5 -167.5t-213.5 -109.5t-245.5 -39z" />
    <glyph glyph-name="uni2783" unicode="&#x34;&#x20dd;" 
d="M823 1074h271v-428h95v-152h-95v-112h-168v112h-346v155q56 109 115.5 211t127.5 214zM752 646h174v287h-14q-47 -81 -86 -148.5t-74 -136.5v-2zM899 125q100 0 189 30t162.5 85t127 129t83 163.5t29.5 187.5t-29.5 187.5t-83 163.5t-127 129t-162.5 85t-189 30t-189 -30
t-162 -85t-127 -129t-83 -163.5t-29 -187.5t29 -187.5t83 -163.5t127 -129t162 -85t189 -30zM899 -55q-129 0 -245.5 39t-213.5 109.5t-167.5 167.5t-109.5 213.5t-39 245.5q0 130 39 246.5t109.5 213t167.5 167.5t213.5 110t245.5 39t245.5 -39t213.5 -110t167.5 -167.5
t109.5 -213t39 -246.5q0 -129 -39 -245.5t-109.5 -213.5t-167.5 -167.5t-213.5 -109.5t-245.5 -39z" />
    <glyph glyph-name="uni2784" unicode="&#x35;&#x20dd;" 
d="M630 591h185q6 -31 33.5 -47t61.5 -16q38 0 67.5 26t29.5 69q0 40 -29 65t-69 25q-33 0 -55.5 -14.5t-32.5 -32.5h-177l27 414h481v-147h-330l-12 -147h9q14 25 53.5 45t96.5 20q66 0 117.5 -26.5t81.5 -76.5t30 -119q0 -77 -35.5 -134t-100.5 -88t-154 -31
q-81 0 -143.5 27.5t-98 76t-36.5 111.5zM899 125q100 0 189 30t162.5 85t127 129t83 163.5t29.5 187.5t-29.5 187.5t-83 163.5t-127 129t-162.5 85t-189 30t-189 -30t-162 -85t-127 -129t-83 -163.5t-29 -187.5t29 -187.5t83 -163.5t127 -129t162 -85t189 -30zM899 -55
q-129 0 -245.5 39t-213.5 109.5t-167.5 167.5t-109.5 213.5t-39 245.5q0 130 39 246.5t109.5 213t167.5 167.5t213.5 110t245.5 39t245.5 -39t213.5 -110t167.5 -167.5t109.5 -213t39 -246.5q0 -129 -39 -245.5t-109.5 -213.5t-167.5 -167.5t-213.5 -109.5t-245.5 -39z" />
    <glyph glyph-name="uni2785" unicode="&#x36;&#x20dd;" 
d="M910 370q-91 0 -161.5 39t-111 118.5t-40.5 199.5q0 109 38 189t107.5 124t164.5 44q74 0 135 -26t100 -72.5t47 -106.5h-201q-5 24 -27 39.5t-53 15.5q-57 0 -87 -52.5t-29 -138.5h10q22 46 65.5 70t102.5 24q65 0 117 -28.5t81.5 -78.5t29.5 -114q0 -72 -37 -127.5
t-101.5 -87t-149.5 -31.5zM908 521q41 0 66.5 27t25.5 65q0 39 -25 65t-67 26q-41 0 -66.5 -26t-25.5 -64q0 -39 26 -66t66 -27zM899 125q100 0 189 30t162.5 85t127 129t83 163.5t29.5 187.5t-29.5 187.5t-83 163.5t-127 129t-162.5 85t-189 30t-189 -30t-162 -85
t-127 -129t-83 -163.5t-29 -187.5t29 -187.5t83 -163.5t127 -129t162 -85t189 -30zM899 -55q-129 0 -245.5 39t-213.5 109.5t-167.5 167.5t-109.5 213.5t-39 245.5q0 130 39 246.5t109.5 213t167.5 167.5t213.5 110t245.5 39t245.5 -39t213.5 -110t167.5 -167.5t109.5 -213
t39 -246.5q0 -129 -39 -245.5t-109.5 -213.5t-167.5 -167.5t-213.5 -109.5t-245.5 -39z" />
    <glyph glyph-name="uni2786" unicode="&#x37;&#x20dd;" 
d="M637 1070h543v-162l-274 -531h-213l284 525v7h-340v161zM899 125q100 0 189 30t162.5 85t127 129t83 163.5t29.5 187.5t-29.5 187.5t-83 163.5t-127 129t-162.5 85t-189 30t-189 -30t-162 -85t-127 -129t-83 -163.5t-29 -187.5t29 -187.5t83 -163.5t127 -129t162 -85
t189 -30zM899 -55q-129 0 -245.5 39t-213.5 109.5t-167.5 167.5t-109.5 213.5t-39 245.5q0 130 39 246.5t109.5 213t167.5 167.5t213.5 110t245.5 39t245.5 -39t213.5 -110t167.5 -167.5t109.5 -213t39 -246.5q0 -129 -39 -245.5t-109.5 -213.5t-167.5 -167.5t-213.5 -109.5
t-245.5 -39z" />
    <glyph glyph-name="uni2787" unicode="&#x38;&#x20dd;" 
d="M899 506q44 0 73 24t29 62t-28.5 63t-73.5 25q-44 0 -73 -25t-29 -63t29 -62t73 -24zM899 803q37 0 60.5 21t23.5 53q0 31 -24 52t-60 21t-60 -21t-24 -52q0 -32 24 -53t60 -21zM898 370q-93 0 -161 25.5t-105.5 72t-37.5 109.5q0 66 42.5 110.5t113.5 55.5v9
q-127 37 -127 147q0 56 34 98t96 65t146 23t146 -23t96 -65t34 -98q0 -112 -127 -147v-9q71 -11 113.5 -55.5t42.5 -110.5q0 -63 -37.5 -109.5t-106.5 -72t-162 -25.5zM899 125q100 0 189 30t162.5 85t127 129t83 163.5t29.5 187.5t-29.5 187.5t-83 163.5t-127 129
t-162.5 85t-189 30t-189 -30t-162 -85t-127 -129t-83 -163.5t-29 -187.5t29 -187.5t83 -163.5t127 -129t162 -85t189 -30zM899 -55q-129 0 -245.5 39t-213.5 109.5t-167.5 167.5t-109.5 213.5t-39 245.5q0 130 39 246.5t109.5 213t167.5 167.5t213.5 110t245.5 39t245.5 -39
t213.5 -110t167.5 -167.5t109.5 -213t39 -246.5q0 -129 -39 -245.5t-109.5 -213.5t-167.5 -167.5t-213.5 -109.5t-245.5 -39z" />
    <glyph glyph-name="uni2788" unicode="&#x39;&#x20dd;" 
d="M888 370q-73 0 -133.5 26t-100 71.5t-47.5 104.5h201q5 -22 28.5 -36.5t54.5 -14.5q56 0 87 52.5t26 137.5h-9q-22 -46 -66 -70t-103 -24q-65 0 -116.5 28.5t-81 78.5t-29.5 113q0 73 37 128.5t102 87t149 31.5q102 0 171.5 -45.5t105.5 -126t36 -185.5
q0 -109 -38 -189.5t-108.5 -124t-165.5 -43.5zM889 754q40 0 65.5 25t25.5 63t-25.5 64.5t-65.5 26.5q-41 0 -67 -26.5t-26 -63.5q0 -39 26 -64t67 -25zM899 125q100 0 189 30t162.5 85t127 129t83 163.5t29.5 187.5t-29.5 187.5t-83 163.5t-127 129t-162.5 85t-189 30
t-189 -30t-162 -85t-127 -129t-83 -163.5t-29 -187.5t29 -187.5t83 -163.5t127 -129t162 -85t189 -30zM899 -55q-129 0 -245.5 39t-213.5 109.5t-167.5 167.5t-109.5 213.5t-39 245.5q0 130 39 246.5t109.5 213t167.5 167.5t213.5 110t245.5 39t245.5 -39t213.5 -110
t167.5 -167.5t109.5 -213t39 -246.5q0 -129 -39 -245.5t-109.5 -213.5t-167.5 -167.5t-213.5 -109.5t-245.5 -39z" />
    <glyph glyph-name="uni24B6" unicode="A&#x20dd;" 
d="M823 687h153l-69 240h-15zM750 407h-197l226 693h241l225 -693h-196l-40 135h-220zM899 125q100 0 189 30t162.5 85t127 129t83 163.5t29.5 187.5t-29.5 187.5t-83 163.5t-127 129t-162.5 85t-189 30t-189 -30t-162 -85t-127 -129t-83 -163.5t-29 -187.5t29 -187.5
t83 -163.5t127 -129t162 -85t189 -30zM899 -55q-129 0 -245.5 39t-213.5 109.5t-167.5 167.5t-109.5 213.5t-39 245.5q0 130 39 246.5t109.5 213t167.5 167.5t213.5 110t245.5 39t245.5 -39t213.5 -110t167.5 -167.5t109.5 -213t39 -246.5q0 -129 -39 -245.5t-109.5 -213.5
t-167.5 -167.5t-213.5 -109.5t-245.5 -39z" />
    <glyph glyph-name="uni24B7" unicode="B&#x20dd;" 
d="M630 382v692h343q100 0 158 -45t58 -125q0 -60 -37 -100t-95 -50v-9q74 -8 118.5 -52.5t44.5 -119.5q0 -57 -30.5 -100t-84.5 -67t-125 -24h-350zM816 944v-148h79q109 0 109 76q0 34 -24 53t-65 19h-99zM816 683v-164h87q64 0 93 21t29 61q0 37 -27 59.5t-77 22.5h-105z
M899 125q100 0 189 30t162.5 85t127 129t83 163.5t29.5 187.5t-29.5 187.5t-83 163.5t-127 129t-162.5 85t-189 30t-189 -30t-162 -85t-127 -129t-83 -163.5t-29 -187.5t29 -187.5t83 -163.5t127 -129t162 -85t189 -30zM899 -55q-129 0 -245.5 39t-213.5 109.5t-167.5 167.5
t-109.5 213.5t-39 245.5q0 130 39 246.5t109.5 213t167.5 167.5t213.5 110t245.5 39t245.5 -39t213.5 -110t167.5 -167.5t109.5 -213t39 -246.5q0 -129 -39 -245.5t-109.5 -213.5t-167.5 -167.5t-213.5 -109.5t-245.5 -39z" />
    <glyph glyph-name="uni24B8" unicode="C&#x20dd;" 
d="M1029 636h186q-6 -78 -47 -138t-110 -94t-159 -34q-97 0 -173.5 43t-120.5 123t-44 191t44 191.5t120.5 123.5t173.5 43q91 0 160.5 -34t110.5 -94.5t46 -140.5h-185q-4 45 -40.5 74.5t-88.5 29.5q-65 0 -104 -51t-39 -142t39 -141.5t104 -50.5q50 0 86.5 28.5t40.5 72.5
zM899 125q100 0 189 30t162.5 85t127 129t83 163.5t29.5 187.5t-29.5 187.5t-83 163.5t-127 129t-162.5 85t-189 30t-189 -30t-162 -85t-127 -129t-83 -163.5t-29 -187.5t29 -187.5t83 -163.5t127 -129t162 -85t189 -30zM899 -55q-129 0 -245.5 39t-213.5 109.5
t-167.5 167.5t-109.5 213.5t-39 245.5q0 130 39 246.5t109.5 213t167.5 167.5t213.5 110t245.5 39t245.5 -39t213.5 -110t167.5 -167.5t109.5 -213t39 -246.5q0 -129 -39 -245.5t-109.5 -213.5t-167.5 -167.5t-213.5 -109.5t-245.5 -39z" />
    <glyph glyph-name="uni24B9" unicode="D&#x20dd;" 
d="M629 1074h298q160 0 242 -89.5t82 -256.5q0 -166 -82 -256t-242 -90h-298v692zM821 918v-380h74q81 0 118 46t37 143q0 98 -37 144.5t-118 46.5h-74zM899 125q100 0 189 30t162.5 85t127 129t83 163.5t29.5 187.5t-29.5 187.5t-83 163.5t-127 129t-162.5 85t-189 30
t-189 -30t-162 -85t-127 -129t-83 -163.5t-29 -187.5t29 -187.5t83 -163.5t127 -129t162 -85t189 -30zM899 -55q-129 0 -245.5 39t-213.5 109.5t-167.5 167.5t-109.5 213.5t-39 245.5q0 130 39 246.5t109.5 213t167.5 167.5t213.5 110t245.5 39t245.5 -39t213.5 -110
t167.5 -167.5t109.5 -213t39 -246.5q0 -129 -39 -245.5t-109.5 -213.5t-167.5 -167.5t-213.5 -109.5t-245.5 -39z" />
    <glyph glyph-name="uni24BA" unicode="E&#x20dd;" 
d="M1157 536v-154h-495v692h495v-154h-306v-123h287v-133h-287v-128h306zM899 125q100 0 189 30t162.5 85t127 129t83 163.5t29.5 187.5t-29.5 187.5t-83 163.5t-127 129t-162.5 85t-189 30t-189 -30t-162 -85t-127 -129t-83 -163.5t-29 -187.5t29 -187.5t83 -163.5
t127 -129t162 -85t189 -30zM899 -55q-129 0 -245.5 39t-213.5 109.5t-167.5 167.5t-109.5 213.5t-39 245.5q0 130 39 246.5t109.5 213t167.5 167.5t213.5 110t245.5 39t245.5 -39t213.5 -110t167.5 -167.5t109.5 -213t39 -246.5q0 -129 -39 -245.5t-109.5 -213.5
t-167.5 -167.5t-213.5 -109.5t-245.5 -39z" />
    <glyph glyph-name="uni24BB" unicode="F&#x20dd;" 
d="M877 382h-198v692h493v-156h-295v-133h268v-156h-268v-247zM899 125q100 0 189 30t162.5 85t127 129t83 163.5t29.5 187.5t-29.5 187.5t-83 163.5t-127 129t-162.5 85t-189 30t-189 -30t-162 -85t-127 -129t-83 -163.5t-29 -187.5t29 -187.5t83 -163.5t127 -129t162 -85
t189 -30zM899 -55q-129 0 -245.5 39t-213.5 109.5t-167.5 167.5t-109.5 213.5t-39 245.5q0 130 39 246.5t109.5 213t167.5 167.5t213.5 110t245.5 39t245.5 -39t213.5 -110t167.5 -167.5t109.5 -213t39 -246.5q0 -129 -39 -245.5t-109.5 -213.5t-167.5 -167.5t-213.5 -109.5
t-245.5 -39z" />
    <glyph glyph-name="uni24BC" unicode="G&#x20dd;" 
d="M1032 613v28h-127v125h309v-121q0 -78 -37.5 -140.5t-107.5 -98.5t-169 -36q-101 0 -177.5 44.5t-119 125t-42.5 187.5t42.5 187.5t119 125.5t177.5 45q85 0 153 -30.5t111 -85.5t52 -129h-190q-5 40 -39 65.5t-84 25.5q-65 0 -104.5 -55.5t-39.5 -148.5t40 -150.5
t104 -57.5q63 0 96 26.5t33 67.5zM899 125q100 0 189 30t162.5 85t127 129t83 163.5t29.5 187.5t-29.5 187.5t-83 163.5t-127 129t-162.5 85t-189 30t-189 -30t-162 -85t-127 -129t-83 -163.5t-29 -187.5t29 -187.5t83 -163.5t127 -129t162 -85t189 -30zM899 -55
q-129 0 -245.5 39t-213.5 109.5t-167.5 167.5t-109.5 213.5t-39 245.5q0 130 39 246.5t109.5 213t167.5 167.5t213.5 110t245.5 39t245.5 -39t213.5 -110t167.5 -167.5t109.5 -213t39 -246.5q0 -129 -39 -245.5t-109.5 -213.5t-167.5 -167.5t-213.5 -109.5t-245.5 -39z" />
    <glyph glyph-name="uni24BD" unicode="H&#x20dd;" 
d="M1209 382h-187v265h-245v-265h-187v692h187v-263h245v263h187v-692zM899 125q100 0 189 30t162.5 85t127 129t83 163.5t29.5 187.5t-29.5 187.5t-83 163.5t-127 129t-162.5 85t-189 30t-189 -30t-162 -85t-127 -129t-83 -163.5t-29 -187.5t29 -187.5t83 -163.5t127 -129
t162 -85t189 -30zM899 -55q-129 0 -245.5 39t-213.5 109.5t-167.5 167.5t-109.5 213.5t-39 245.5q0 130 39 246.5t109.5 213t167.5 167.5t213.5 110t245.5 39t245.5 -39t213.5 -110t167.5 -167.5t109.5 -213t39 -246.5q0 -129 -39 -245.5t-109.5 -213.5t-167.5 -167.5
t-213.5 -109.5t-245.5 -39z" />
    <glyph glyph-name="uni24BE" unicode="I&#x20dd;" 
d="M1006 382h-214v692h214v-692zM899 125q100 0 189 30t162.5 85t127 129t83 163.5t29.5 187.5t-29.5 187.5t-83 163.5t-127 129t-162.5 85t-189 30t-189 -30t-162 -85t-127 -129t-83 -163.5t-29 -187.5t29 -187.5t83 -163.5t127 -129t162 -85t189 -30zM899 -55
q-129 0 -245.5 39t-213.5 109.5t-167.5 167.5t-109.5 213.5t-39 245.5q0 130 39 246.5t109.5 213t167.5 167.5t213.5 110t245.5 39t245.5 -39t213.5 -110t167.5 -167.5t109.5 -213t39 -246.5q0 -129 -39 -245.5t-109.5 -213.5t-167.5 -167.5t-213.5 -109.5t-245.5 -39z" />
    <glyph glyph-name="uni24BF" unicode="J&#x20dd;" 
d="M601 621h194q0 -39 19.5 -59.5t54.5 -20.5q73 0 73 89v433h201v-437q0 -125 -72.5 -196t-197.5 -71q-86 0 -146.5 33t-93 92.5t-32.5 136.5zM899 125q100 0 189 30t162.5 85t127 129t83 163.5t29.5 187.5t-29.5 187.5t-83 163.5t-127 129t-162.5 85t-189 30t-189 -30
t-162 -85t-127 -129t-83 -163.5t-29 -187.5t29 -187.5t83 -163.5t127 -129t162 -85t189 -30zM899 -55q-129 0 -245.5 39t-213.5 109.5t-167.5 167.5t-109.5 213.5t-39 245.5q0 130 39 246.5t109.5 213t167.5 167.5t213.5 110t245.5 39t245.5 -39t213.5 -110t167.5 -167.5
t109.5 -213t39 -246.5q0 -129 -39 -245.5t-109.5 -213.5t-167.5 -167.5t-213.5 -109.5t-245.5 -39z" />
    <glyph glyph-name="uni24C0" unicode="&#x212a;&#x20dd;" 
d="M1233 1074l-229 -314l235 -378h-225l-158 254l-64 -74v-180h-182v692h182v-274h14l214 274h213zM899 125q100 0 189 30t162.5 85t127 129t83 163.5t29.5 187.5t-29.5 187.5t-83 163.5t-127 129t-162.5 85t-189 30t-189 -30t-162 -85t-127 -129t-83 -163.5t-29 -187.5
t29 -187.5t83 -163.5t127 -129t162 -85t189 -30zM899 -55q-129 0 -245.5 39t-213.5 109.5t-167.5 167.5t-109.5 213.5t-39 245.5q0 130 39 246.5t109.5 213t167.5 167.5t213.5 110t245.5 39t245.5 -39t213.5 -110t167.5 -167.5t109.5 -213t39 -246.5q0 -129 -39 -245.5
t-109.5 -213.5t-167.5 -167.5t-213.5 -109.5t-245.5 -39z" />
    <glyph glyph-name="uni24C1" unicode="L&#x20dd;" 
d="M1181 563v-170h-488v692h204v-522h284zM899 125q100 0 189 30t162.5 85t127 129t83 163.5t29.5 187.5t-29.5 187.5t-83 163.5t-127 129t-162.5 85t-189 30t-189 -30t-162 -85t-127 -129t-83 -163.5t-29 -187.5t29 -187.5t83 -163.5t127 -129t162 -85t189 -30zM899 -55
q-129 0 -245.5 39t-213.5 109.5t-167.5 167.5t-109.5 213.5t-39 245.5q0 130 39 246.5t109.5 213t167.5 167.5t213.5 110t245.5 39t245.5 -39t213.5 -110t167.5 -167.5t109.5 -213t39 -246.5q0 -129 -39 -245.5t-109.5 -213.5t-167.5 -167.5t-213.5 -109.5t-245.5 -39z" />
    <glyph glyph-name="uni24C2" unicode="M&#x20dd;" 
d="M697 382h-151v692h190l162 -448h5l162 448h189v-692h-152v420h-15l-140 -381h-96l-139 381h-15v-420zM899 125q100 0 189 30t162.5 85t127 129t83 163.5t29.5 187.5t-29.5 187.5t-83 163.5t-127 129t-162.5 85t-189 30t-189 -30t-162 -85t-127 -129t-83 -163.5
t-29 -187.5t29 -187.5t83 -163.5t127 -129t162 -85t189 -30zM899 -55q-129 0 -245.5 39t-213.5 109.5t-167.5 167.5t-109.5 213.5t-39 245.5q0 130 39 246.5t109.5 213t167.5 167.5t213.5 110t245.5 39t245.5 -39t213.5 -110t167.5 -167.5t109.5 -213t39 -246.5
q0 -129 -39 -245.5t-109.5 -213.5t-167.5 -167.5t-213.5 -109.5t-245.5 -39z" />
    <glyph glyph-name="uni24C3" unicode="N&#x20dd;" 
d="M768 382h-171v692h144l276 -379h14v379h170v-692h-142l-278 384h-13v-384zM899 125q100 0 189 30t162.5 85t127 129t83 163.5t29.5 187.5t-29.5 187.5t-83 163.5t-127 129t-162.5 85t-189 30t-189 -30t-162 -85t-127 -129t-83 -163.5t-29 -187.5t29 -187.5t83 -163.5
t127 -129t162 -85t189 -30zM899 -55q-129 0 -245.5 39t-213.5 109.5t-167.5 167.5t-109.5 213.5t-39 245.5q0 130 39 246.5t109.5 213t167.5 167.5t213.5 110t245.5 39t245.5 -39t213.5 -110t167.5 -167.5t109.5 -213t39 -246.5q0 -129 -39 -245.5t-109.5 -213.5
t-167.5 -167.5t-213.5 -109.5t-245.5 -39z" />
    <glyph glyph-name="uni24C4" unicode="O&#x20dd;" 
d="M899 535q58 0 99.5 48t41.5 144q0 97 -41.5 145t-99.5 48t-99.5 -48t-41.5 -145q0 -96 41.5 -144t99.5 -48zM899 370q-95 0 -172 41.5t-122 121.5t-45 194q0 115 45 194.5t122 121.5t172 42t172 -42t122 -121.5t45 -194.5q0 -114 -45 -194t-122 -121.5t-172 -41.5z
M899 125q100 0 189 30t162.5 85t127 129t83 163.5t29.5 187.5t-29.5 187.5t-83 163.5t-127 129t-162.5 85t-189 30t-189 -30t-162 -85t-127 -129t-83 -163.5t-29 -187.5t29 -187.5t83 -163.5t127 -129t162 -85t189 -30zM899 -55q-129 0 -245.5 39t-213.5 109.5t-167.5 167.5
t-109.5 213.5t-39 245.5q0 130 39 246.5t109.5 213t167.5 167.5t213.5 110t245.5 39t245.5 -39t213.5 -110t167.5 -167.5t109.5 -213t39 -246.5q0 -129 -39 -245.5t-109.5 -213.5t-167.5 -167.5t-213.5 -109.5t-245.5 -39z" />
    <glyph glyph-name="uni24C5" unicode="P&#x20dd;" 
d="M971 1074q80 0 137.5 -32t89 -89t31.5 -132t-31.5 -131t-90 -87t-138.5 -31h-111v-190h-202v692h315zM1034 821q0 100 -98 100h-89v-199h89q98 0 98 99zM899 125q100 0 189 30t162.5 85t127 129t83 163.5t29.5 187.5t-29.5 187.5t-83 163.5t-127 129t-162.5 85t-189 30
t-189 -30t-162 -85t-127 -129t-83 -163.5t-29 -187.5t29 -187.5t83 -163.5t127 -129t162 -85t189 -30zM899 -55q-129 0 -245.5 39t-213.5 109.5t-167.5 167.5t-109.5 213.5t-39 245.5q0 130 39 246.5t109.5 213t167.5 167.5t213.5 110t245.5 39t245.5 -39t213.5 -110
t167.5 -167.5t109.5 -213t39 -246.5q0 -129 -39 -245.5t-109.5 -213.5t-167.5 -167.5t-213.5 -109.5t-245.5 -39z" />
    <glyph glyph-name="uni24C6" unicode="Q&#x20dd;" 
d="M1218 322h-190l-35 60q-44 -12 -94 -12q-95 0 -172 41.5t-122 121.5t-45 194q0 115 45 194.5t122 121.5t172 42t172 -42t122 -121.5t45 -194.5q0 -91 -29.5 -160t-81.5 -115zM899 535q18 0 31 4l-54 96h110l22 -27q15 22 23.5 52t8.5 67q0 97 -41.5 145t-99.5 48
t-99.5 -48t-41.5 -145q0 -96 41.5 -144t99.5 -48zM899 125q100 0 189 30t162.5 85t127 129t83 163.5t29.5 187.5t-29.5 187.5t-83 163.5t-127 129t-162.5 85t-189 30t-189 -30t-162 -85t-127 -129t-83 -163.5t-29 -187.5t29 -187.5t83 -163.5t127 -129t162 -85t189 -30z
M899 -55q-129 0 -245.5 39t-213.5 109.5t-167.5 167.5t-109.5 213.5t-39 245.5q0 130 39 246.5t109.5 213t167.5 167.5t213.5 110t245.5 39t245.5 -39t213.5 -110t167.5 -167.5t109.5 -213t39 -246.5q0 -129 -39 -245.5t-109.5 -213.5t-167.5 -167.5t-213.5 -109.5
t-245.5 -39z" />
    <glyph glyph-name="uni24C7" unicode="R&#x20dd;" 
d="M935 1074q131 0 203 -59t72 -166q0 -73 -38 -123t-97 -70l149 -274h-208l-117 238h-93v-238h-183v692h312zM806 754h105q46 0 73 21.5t27 62.5q0 42 -26 64.5t-72 22.5h-107v-171zM899 125q100 0 189 30t162.5 85t127 129t83 163.5t29.5 187.5t-29.5 187.5t-83 163.5
t-127 129t-162.5 85t-189 30t-189 -30t-162 -85t-127 -129t-83 -163.5t-29 -187.5t29 -187.5t83 -163.5t127 -129t162 -85t189 -30zM899 -55q-129 0 -245.5 39t-213.5 109.5t-167.5 167.5t-109.5 213.5t-39 245.5q0 130 39 246.5t109.5 213t167.5 167.5t213.5 110t245.5 39
t245.5 -39t213.5 -110t167.5 -167.5t109.5 -213t39 -246.5q0 -129 -39 -245.5t-109.5 -213.5t-167.5 -167.5t-213.5 -109.5t-245.5 -39z" />
    <glyph glyph-name="uni24C8" unicode="S&#x20dd;" 
d="M600 585h190q5 -31 35.5 -50t78.5 -19q49 0 78 18.5t29 49.5q0 25 -23.5 39t-85.5 25l-90 16q-97 16 -148 67.5t-51 131.5q0 67 35.5 117t100 77.5t151.5 27.5q81 0 144 -26t100 -72.5t41 -110.5h-184q-4 31 -31 48.5t-70 17.5t-69 -17.5t-26 -46.5q0 -23 22.5 -38
t76.5 -23l97 -17q198 -34 198 -199q0 -71 -37 -122.5t-105 -79.5t-160 -28q-134 0 -213 57t-84 157zM899 125q100 0 189 30t162.5 85t127 129t83 163.5t29.5 187.5t-29.5 187.5t-83 163.5t-127 129t-162.5 85t-189 30t-189 -30t-162 -85t-127 -129t-83 -163.5t-29 -187.5
t29 -187.5t83 -163.5t127 -129t162 -85t189 -30zM899 -55q-129 0 -245.5 39t-213.5 109.5t-167.5 167.5t-109.5 213.5t-39 245.5q0 130 39 246.5t109.5 213t167.5 167.5t213.5 110t245.5 39t245.5 -39t213.5 -110t167.5 -167.5t109.5 -213t39 -246.5q0 -129 -39 -245.5
t-109.5 -213.5t-167.5 -167.5t-213.5 -109.5t-245.5 -39z" />
    <glyph glyph-name="uni24C9" unicode="T&#x20dd;" 
d="M1001 359h-204v526h-195v167h594v-167h-195v-526zM899 125q100 0 189 30t162.5 85t127 129t83 163.5t29.5 187.5t-29.5 187.5t-83 163.5t-127 129t-162.5 85t-189 30t-189 -30t-162 -85t-127 -129t-83 -163.5t-29 -187.5t29 -187.5t83 -163.5t127 -129t162 -85t189 -30z
M899 -55q-129 0 -245.5 39t-213.5 109.5t-167.5 167.5t-109.5 213.5t-39 245.5q0 130 39 246.5t109.5 213t167.5 167.5t213.5 110t245.5 39t245.5 -39t213.5 -110t167.5 -167.5t109.5 -213t39 -246.5q0 -129 -39 -245.5t-109.5 -213.5t-167.5 -167.5t-213.5 -109.5
t-245.5 -39z" />
    <glyph glyph-name="uni24CA" unicode="U&#x20dd;" 
d="M899 512q50 0 80.5 27.5t30.5 76.5v436h196v-454q0 -72 -38 -129t-107 -89.5t-162 -32.5q-92 0 -161 32.5t-107 89.5t-38 129v454h195v-436q0 -49 30.5 -76.5t80.5 -27.5zM899 125q100 0 189 30t162.5 85t127 129t83 163.5t29.5 187.5t-29.5 187.5t-83 163.5t-127 129
t-162.5 85t-189 30t-189 -30t-162 -85t-127 -129t-83 -163.5t-29 -187.5t29 -187.5t83 -163.5t127 -129t162 -85t189 -30zM899 -55q-129 0 -245.5 39t-213.5 109.5t-167.5 167.5t-109.5 213.5t-39 245.5q0 130 39 246.5t109.5 213t167.5 167.5t213.5 110t245.5 39t245.5 -39
t213.5 -110t167.5 -167.5t109.5 -213t39 -246.5q0 -129 -39 -245.5t-109.5 -213.5t-167.5 -167.5t-213.5 -109.5t-245.5 -39z" />
    <glyph glyph-name="uni24CB" unicode="V&#x20dd;" 
d="M766 354l-213 692h221l120 -496h11l120 496h220l-213 -692h-266zM899 125q100 0 189 30t162.5 85t127 129t83 163.5t29.5 187.5t-29.5 187.5t-83 163.5t-127 129t-162.5 85t-189 30t-189 -30t-162 -85t-127 -129t-83 -163.5t-29 -187.5t29 -187.5t83 -163.5t127 -129
t162 -85t189 -30zM899 -55q-129 0 -245.5 39t-213.5 109.5t-167.5 167.5t-109.5 213.5t-39 245.5q0 130 39 246.5t109.5 213t167.5 167.5t213.5 110t245.5 39t245.5 -39t213.5 -110t167.5 -167.5t109.5 -213t39 -246.5q0 -129 -39 -245.5t-109.5 -213.5t-167.5 -167.5
t-213.5 -109.5t-245.5 -39z" />
    <glyph glyph-name="uni24CC" unicode="W&#x20dd;" 
d="M896 783l-104 -424h-169l-162 693h179l81 -462h9l101 462h137l101 -462h9l81 462h178l-161 -693h-169l-105 424h-6zM899 125q100 0 189 30t162.5 85t127 129t83 163.5t29.5 187.5t-29.5 187.5t-83 163.5t-127 129t-162.5 85t-189 30t-189 -30t-162 -85t-127 -129
t-83 -163.5t-29 -187.5t29 -187.5t83 -163.5t127 -129t162 -85t189 -30zM899 -55q-129 0 -245.5 39t-213.5 109.5t-167.5 167.5t-109.5 213.5t-39 245.5q0 130 39 246.5t109.5 213t167.5 167.5t213.5 110t245.5 39t245.5 -39t213.5 -110t167.5 -167.5t109.5 -213t39 -246.5
q0 -129 -39 -245.5t-109.5 -213.5t-167.5 -167.5t-213.5 -109.5t-245.5 -39z" />
    <glyph glyph-name="uni24CD" unicode="X&#x20dd;" 
d="M1233 1074l-216 -346l215 -346h-212l-120 222h-10l-119 -222h-216l219 347l-218 345h222l117 -222h10l118 222h210zM899 125q100 0 189 30t162.5 85t127 129t83 163.5t29.5 187.5t-29.5 187.5t-83 163.5t-127 129t-162.5 85t-189 30t-189 -30t-162 -85t-127 -129
t-83 -163.5t-29 -187.5t29 -187.5t83 -163.5t127 -129t162 -85t189 -30zM899 -55q-129 0 -245.5 39t-213.5 109.5t-167.5 167.5t-109.5 213.5t-39 245.5q0 130 39 246.5t109.5 213t167.5 167.5t213.5 110t245.5 39t245.5 -39t213.5 -110t167.5 -167.5t109.5 -213t39 -246.5
q0 -129 -39 -245.5t-109.5 -213.5t-167.5 -167.5t-213.5 -109.5t-245.5 -39z" />
    <glyph glyph-name="uni24CE" unicode="Y&#x20dd;" 
d="M1004 366h-209v224l-238 468h220l120 -273h6l120 273h218l-237 -467v-225zM899 125q100 0 189 30t162.5 85t127 129t83 163.5t29.5 187.5t-29.5 187.5t-83 163.5t-127 129t-162.5 85t-189 30t-189 -30t-162 -85t-127 -129t-83 -163.5t-29 -187.5t29 -187.5t83 -163.5
t127 -129t162 -85t189 -30zM899 -55q-129 0 -245.5 39t-213.5 109.5t-167.5 167.5t-109.5 213.5t-39 245.5q0 130 39 246.5t109.5 213t167.5 167.5t213.5 110t245.5 39t245.5 -39t213.5 -110t167.5 -167.5t109.5 -213t39 -246.5q0 -129 -39 -245.5t-109.5 -213.5
t-167.5 -167.5t-213.5 -109.5t-245.5 -39z" />
    <glyph glyph-name="uni24CF" unicode="Z&#x20dd;" 
d="M626 382v130l298 391v10h-297v161h540v-130l-298 -391v-10h309v-161h-552zM899 125q100 0 189 30t162.5 85t127 129t83 163.5t29.5 187.5t-29.5 187.5t-83 163.5t-127 129t-162.5 85t-189 30t-189 -30t-162 -85t-127 -129t-83 -163.5t-29 -187.5t29 -187.5t83 -163.5
t127 -129t162 -85t189 -30zM899 -55q-129 0 -245.5 39t-213.5 109.5t-167.5 167.5t-109.5 213.5t-39 245.5q0 130 39 246.5t109.5 213t167.5 167.5t213.5 110t245.5 39t245.5 -39t213.5 -110t167.5 -167.5t109.5 -213t39 -246.5q0 -129 -39 -245.5t-109.5 -213.5
t-167.5 -167.5t-213.5 -109.5t-245.5 -39z" />
    <glyph glyph-name="u1F10B" unicode="&#x23;&#x20dd;" 
d="M899 529q46 0 74.5 47.5t28.5 150.5t-28.5 150t-74.5 47t-74 -47t-28 -150t28 -150.5t74 -47.5zM897 370q-87 0 -152.5 42.5t-101.5 122.5t-36 192t36 192t101.5 122.5t152.5 42.5t153.5 -42.5t103.5 -122.5t37 -192t-37 -192t-103.5 -122.5t-153.5 -42.5zM899 125
q100 0 189 30t162.5 85t127 129t83 163.5t29.5 187.5t-29.5 187.5t-83 163.5t-127 129t-162.5 85t-189 30t-189 -30t-162 -85t-127 -129t-83 -163.5t-29 -187.5t29 -187.5t83 -163.5t127 -129t162 -85t189 -30zM899 -55q-129 0 -245.5 39t-213.5 109.5t-167.5 167.5
t-109.5 213.5t-39 245.5q0 130 39 246.5t109.5 213t167.5 167.5t213.5 110t245.5 39t245.5 -39t213.5 -110t167.5 -167.5t109.5 -213t39 -246.5q0 -129 -39 -245.5t-109.5 -213.5t-167.5 -167.5t-213.5 -109.5t-245.5 -39z" />
    <glyph glyph-name="u1F10C" unicode="&#x30;&#x20dd;&#x25cf;" 
d="M897 506q-50 0 -77.5 54t-27.5 167t27.5 166.5t77.5 53.5q51 0 78 -53.5t27 -166.5t-27 -167t-78 -54zM895 338q98 0 170 46.5t112 134t40 208.5t-40 208.5t-112 134t-170 46.5q-97 0 -168 -46.5t-110 -134t-39 -208.5t39 -208.5t110 -134t168 -46.5zM899 -53
q-128 0 -244 39t-212.5 110.5t-168 168.5t-110.5 213t-39 244t39 244t110.5 212.5t168 168t212.5 110.5t244 39t244 -39t213 -110.5t168 -168t110.5 -212.5t39.5 -244t-39.5 -244t-110.5 -213t-168 -168.5t-213 -110.5t-244 -39z" />
    <glyph glyph-name="uni278A" unicode="&#x31;&#x20dd;&#x25cf;" 
d="M1048 351v752h-221l-183 -121v-200l176 117h5v-548h223zM899 -53q-128 0 -244 39t-212.5 110.5t-168 168.5t-110.5 213t-39 244t39 244t110.5 212.5t168 168t212.5 110.5t244 39t244 -39t213 -110.5t168 -168t110.5 -212.5t39.5 -244t-39.5 -244t-110.5 -213t-168 -168.5
t-213 -110.5t-244 -39z" />
    <glyph glyph-name="uni278B" unicode="&#x32;&#x20dd;&#x25cf;" 
d="M801 849v5q0 41 22.5 67.5t65.5 26.5q36 0 59.5 -20t23.5 -51q0 -37 -24.5 -69t-71.5 -77l-263 -240v-141h583v180h-294v3l139 127q65 60 102 114t37 121q0 62 -36 112t-98.5 79t-144.5 29q-96 0 -163 -34.5t-102.5 -93.5t-35.5 -133v-5h201zM899 -53q-128 0 -244 39
t-212.5 110.5t-168 168.5t-110.5 213t-39 244t39 244t110.5 212.5t168 168t212.5 110.5t244 39t244 -39t213 -110.5t168 -168t110.5 -212.5t39.5 -244t-39.5 -244t-110.5 -213t-168 -168.5t-213 -110.5t-244 -39z" />
    <glyph glyph-name="uni278C" unicode="&#x33;&#x20dd;&#x25cf;" 
d="M811 657h82q47 0 75.5 -21.5t29.5 -55.5q0 -34 -28.5 -55.5t-77.5 -21.5q-47 1 -76.5 23t-32.5 57h-201q1 -70 39.5 -125t107.5 -87t163 -32q93 0 165 27.5t113 78.5t40 122q-1 51 -24.5 89.5t-60 61t-76.5 26.5v6q33 5 65.5 26.5t53.5 56.5t21 79q-1 60 -38 106
t-102.5 71.5t-154.5 25.5q-145 0 -222 -65t-82 -178h203q2 36 27 58.5t70 22.5q39 0 64 -19.5t26 -50.5q0 -32 -25.5 -52t-66.5 -20h-77v-154zM899 -53q-128 0 -244 39t-212.5 110.5t-168 168.5t-110.5 213t-39 244t39 244t110.5 212.5t168 168t212.5 110.5t244 39t244 -39
t213 -110.5t168 -168t110.5 -212.5t39.5 -244t-39.5 -244t-110.5 -213t-168 -168.5t-213 -110.5t-244 -39z" />
    <glyph glyph-name="uni278D" unicode="&#x34;&#x20dd;&#x25cf;" 
d="M812 1103q-62 -101 -108.5 -179t-83.5 -146t-71 -136v-170h372v-121h189v121h102v170h-102v461h-298zM921 642h-179v1q37 72 78.5 141.5t91.5 157.5h9v-300zM899 -53q-128 0 -244 39t-212.5 110.5t-168 168.5t-110.5 213t-39 244t39 244t110.5 212.5t168 168t212.5 110.5
t244 39t244 -39t213 -110.5t168 -168t110.5 -212.5t39.5 -244t-39.5 -244t-110.5 -213t-168 -168.5t-213 -110.5t-244 -39z" />
    <glyph glyph-name="uni278E" unicode="&#x35;&#x20dd;&#x25cf;" 
d="M601 579q2 -70 40 -123t106 -82.5t157 -29.5q96 0 167 34t110 96t39 147q0 75 -32.5 129.5t-89.5 83.5t-129 29q-61 0 -103.5 -20.5t-58.5 -48.5h-5l12 156h356v159h-525l-29 -448h189q11 22 37.5 38.5t63.5 16.5q46 0 77 -28t31 -75q0 -49 -32.5 -77.5t-74.5 -28.5
q-40 0 -70.5 18.5t-37.5 53.5h-198zM899 -53q-128 0 -244 39t-212.5 110.5t-168 168.5t-110.5 213t-39 244t39 244t110.5 212.5t168 168t212.5 110.5t244 39t244 -39t213 -110.5t168 -168t110.5 -212.5t39.5 -244t-39.5 -244t-110.5 -213t-168 -168.5t-213 -110.5t-244 -39z
" />
    <glyph glyph-name="uni278F" unicode="&#x36;&#x20dd;&#x25cf;" 
d="M913 340q93 0 164.5 34t112 94.5t40.5 138.5q0 69 -33 123t-90.5 85.5t-129.5 31.5q-66 0 -114.5 -26.5t-73.5 -76.5h-10q-2 97 33 154.5t100 57.5q35 0 60.5 -17t32.5 -45h215q-9 64 -52 114t-110 78.5t-148 28.5q-105 0 -181.5 -47.5t-118 -134.5t-41.5 -206
q0 -130 44.5 -216t122 -128.5t177.5 -42.5zM911 499q-46 0 -76 30.5t-30 74.5q0 43 29 72.5t77 29.5t77.5 -29.5t29.5 -73.5q0 -43 -30.5 -73.5t-76.5 -30.5zM899 -53q-128 0 -244 39t-212.5 110.5t-168 168.5t-110.5 213t-39 244t39 244t110.5 212.5t168 168t212.5 110.5
t244 39t244 -39t213 -110.5t168 -168t110.5 -212.5t39.5 -244t-39.5 -244t-110.5 -213t-168 -168.5t-213 -110.5t-244 -39z" />
    <glyph glyph-name="uni2790" unicode="&#x37;&#x20dd;&#x25cf;" 
d="M609 1099v-181h366v-2l-309 -569h237l297 573v179h-591zM899 -53q-128 0 -244 39t-212.5 110.5t-168 168.5t-110.5 213t-39 244t39 244t110.5 212.5t168 168t212.5 110.5t244 39t244 -39t213 -110.5t168 -168t110.5 -212.5t39.5 -244t-39.5 -244t-110.5 -213t-168 -168.5
t-213 -110.5t-244 -39z" />
    <glyph glyph-name="uni2791" unicode="&#x38;&#x20dd;&#x25cf;" 
d="M897 801q-41 0 -67.5 23.5t-26.5 61.5t26 62.5t68 24.5q43 0 69 -24.5t26 -62.5t-26.5 -61.5t-68.5 -23.5zM897 482q-50 0 -82 28t-32 71t32 71t82 28t82.5 -28t32.5 -71t-32.5 -71t-82.5 -28zM897 338q102 0 176.5 27.5t115 78.5t40.5 121q0 71 -44.5 119t-122.5 61v3
q135 40 135 163q0 62 -37 108t-104.5 71t-158.5 25t-158 -25t-104 -71t-37 -108q0 -123 135 -163v-3q-78 -13 -122.5 -61t-44.5 -119q0 -70 40.5 -120.5t115 -78.5t175.5 -28zM899 -53q-128 0 -244 39t-212.5 110.5t-168 168.5t-110.5 213t-39 244t39 244t110.5 212.5
t168 168t212.5 110.5t244 39t244 -39t213 -110.5t168 -168t110.5 -212.5t39.5 -244t-39.5 -244t-110.5 -213t-168 -168.5t-213 -110.5t-244 -39z" />
    <glyph glyph-name="uni2792" unicode="&#x39;&#x20dd;&#x25cf;" 
d="M886 340q105 0 182.5 47.5t119.5 134.5t42 206q0 115 -40 202t-116.5 136t-188.5 49q-92 0 -163.5 -34.5t-112 -94.5t-40.5 -138q0 -69 33 -123.5t90 -85.5t130 -31q65 0 114 26.5t74 77.5h10q5 -96 -31 -154.5t-100 -58.5q-35 0 -61.5 17t-33.5 43h-216q9 -64 52 -113.5
t109.5 -77.5t146.5 -28zM887 753q-47 0 -76.5 28.5t-29.5 72.5q0 43 29.5 72.5t77.5 29.5q47 0 76 -30t29 -73q0 -42 -29.5 -71t-76.5 -29zM899 -53q-128 0 -244 39t-212.5 110.5t-168 168.5t-110.5 213t-39 244t39 244t110.5 212.5t168 168t212.5 110.5t244 39t244 -39
t213 -110.5t168 -168t110.5 -212.5t39.5 -244t-39.5 -244t-110.5 -213t-168 -168.5t-213 -110.5t-244 -39z" />
    <glyph glyph-name="u1F130" unicode="A&#x20de;" 
d="M823 678h153l-69 240h-15zM750 398h-197l226 693h241l225 -693h-196l-40 135h-220zM412 1472h975q72 0 131 -34.5t94 -93t35 -129.5v-986q0 -71 -35 -129.5t-94 -93t-131 -34.5h-975q-72 0 -131.5 34.5t-94.5 93t-35 129.5v986q0 71 35 129.5t94.5 93t131.5 34.5z
M1467 1174q0 36 -18 64.5t-48 45.5t-67 17h-870q-37 0 -67 -16.5t-48 -45.5t-18 -65v-904q0 -35 18 -64t48.5 -46t66.5 -17h870q37 0 67 17t48 46t18 64v904z" />
    <glyph glyph-name="u1F131" unicode="B&#x20de;" 
d="M630 382v692h343q100 0 158 -45t58 -125q0 -60 -37 -100t-95 -50v-9q74 -8 118.5 -52.5t44.5 -119.5q0 -57 -30.5 -100t-84.5 -67t-125 -24h-350zM816 944v-148h79q109 0 109 76q0 34 -24 53t-65 19h-99zM816 683v-164h87q64 0 93 21t29 61q0 37 -27 59.5t-77 22.5h-105z
M412 1472h975q72 0 131 -34.5t94 -93t35 -129.5v-986q0 -71 -35 -129.5t-94 -93t-131 -34.5h-975q-72 0 -131.5 34.5t-94.5 93t-35 129.5v986q0 71 35 129.5t94.5 93t131.5 34.5zM1467 1174q0 36 -18 64.5t-48 45.5t-67 17h-870q-37 0 -67 -16.5t-48 -45.5t-18 -65v-904
q0 -35 18 -64t48.5 -46t66.5 -17h870q37 0 67 17t48 46t18 64v904z" />
    <glyph glyph-name="u1F132" unicode="C&#x20de;" 
d="M1029 636h186q-6 -78 -47 -138t-110 -94t-159 -34q-97 0 -173.5 43t-120.5 123t-44 191t44 191.5t120.5 123.5t173.5 43q91 0 160.5 -34t110.5 -94.5t46 -140.5h-185q-4 45 -40.5 74.5t-88.5 29.5q-65 0 -104 -51t-39 -142t39 -141.5t104 -50.5q50 0 86.5 28.5t40.5 72.5
zM412 1472h975q72 0 131 -34.5t94 -93t35 -129.5v-986q0 -71 -35 -129.5t-94 -93t-131 -34.5h-975q-72 0 -131.5 34.5t-94.5 93t-35 129.5v986q0 71 35 129.5t94.5 93t131.5 34.5zM1467 1174q0 36 -18 64.5t-48 45.5t-67 17h-870q-37 0 -67 -16.5t-48 -45.5t-18 -65v-904
q0 -35 18 -64t48.5 -46t66.5 -17h870q37 0 67 17t48 46t18 64v904z" />
    <glyph glyph-name="u1F133" unicode="D&#x20de;" 
d="M617 1074h298q160 0 242 -89.5t82 -256.5q0 -166 -82 -256t-242 -90h-298v692zM809 918v-380h75q80 0 117 46t37 143q0 98 -37 144.5t-117 46.5h-75zM412 1472h975q72 0 131 -34.5t94 -93t35 -129.5v-986q0 -71 -35 -129.5t-94 -93t-131 -34.5h-975q-72 0 -131.5 34.5
t-94.5 93t-35 129.5v986q0 71 35 129.5t94.5 93t131.5 34.5zM1467 1174q0 36 -18 64.5t-48 45.5t-67 17h-870q-37 0 -67 -16.5t-48 -45.5t-18 -65v-904q0 -35 18 -64t48.5 -46t66.5 -17h870q37 0 67 17t48 46t18 64v904z" />
    <glyph glyph-name="u1F134" unicode="E&#x20de;" 
d="M1157 536v-154h-495v692h495v-154h-306v-123h287v-133h-287v-128h306zM412 1472h975q72 0 131 -34.5t94 -93t35 -129.5v-986q0 -71 -35 -129.5t-94 -93t-131 -34.5h-975q-72 0 -131.5 34.5t-94.5 93t-35 129.5v986q0 71 35 129.5t94.5 93t131.5 34.5zM1467 1174
q0 36 -18 64.5t-48 45.5t-67 17h-870q-37 0 -67 -16.5t-48 -45.5t-18 -65v-904q0 -35 18 -64t48.5 -46t66.5 -17h870q37 0 67 17t48 46t18 64v904z" />
    <glyph glyph-name="u1F135" unicode="F&#x20de;" 
d="M877 382h-198v692h493v-156h-295v-133h268v-156h-268v-247zM412 1472h975q72 0 131 -34.5t94 -93t35 -129.5v-986q0 -71 -35 -129.5t-94 -93t-131 -34.5h-975q-72 0 -131.5 34.5t-94.5 93t-35 129.5v986q0 71 35 129.5t94.5 93t131.5 34.5zM1467 1174q0 36 -18 64.5
t-48 45.5t-67 17h-870q-37 0 -67 -16.5t-48 -45.5t-18 -65v-904q0 -35 18 -64t48.5 -46t66.5 -17h870q37 0 67 17t48 46t18 64v904z" />
    <glyph glyph-name="u1F136" unicode="G&#x20de;" 
d="M1032 613v28h-127v125h309v-121q0 -78 -37.5 -140.5t-107.5 -98.5t-169 -36q-101 0 -177.5 44.5t-119 125t-42.5 187.5t42.5 187.5t119 125.5t177.5 45q85 0 153 -30.5t111 -85.5t52 -129h-190q-5 40 -39 65.5t-84 25.5q-65 0 -104.5 -55.5t-39.5 -148.5t40 -150.5
t104 -57.5q63 0 96 26.5t33 67.5zM412 1472h975q72 0 131 -34.5t94 -93t35 -129.5v-986q0 -71 -35 -129.5t-94 -93t-131 -34.5h-975q-72 0 -131.5 34.5t-94.5 93t-35 129.5v986q0 71 35 129.5t94.5 93t131.5 34.5zM1467 1174q0 36 -18 64.5t-48 45.5t-67 17h-870
q-37 0 -67 -16.5t-48 -45.5t-18 -65v-904q0 -35 18 -64t48.5 -46t66.5 -17h870q37 0 67 17t48 46t18 64v904z" />
    <glyph glyph-name="u1F137" unicode="H&#x20de;" 
d="M1209 382h-187v265h-245v-265h-187v692h187v-263h245v263h187v-692zM412 1472h975q72 0 131 -34.5t94 -93t35 -129.5v-986q0 -71 -35 -129.5t-94 -93t-131 -34.5h-975q-72 0 -131.5 34.5t-94.5 93t-35 129.5v986q0 71 35 129.5t94.5 93t131.5 34.5zM1467 1174
q0 36 -18 64.5t-48 45.5t-67 17h-870q-37 0 -67 -16.5t-48 -45.5t-18 -65v-904q0 -35 18 -64t48.5 -46t66.5 -17h870q37 0 67 17t48 46t18 64v904z" />
    <glyph glyph-name="u1F138" unicode="I&#x20de;" 
d="M1006 382h-214v692h214v-692zM412 1472h975q72 0 131 -34.5t94 -93t35 -129.5v-986q0 -71 -35 -129.5t-94 -93t-131 -34.5h-975q-72 0 -131.5 34.5t-94.5 93t-35 129.5v986q0 71 35 129.5t94.5 93t131.5 34.5zM1467 1174q0 36 -18 64.5t-48 45.5t-67 17h-870
q-37 0 -67 -16.5t-48 -45.5t-18 -65v-904q0 -35 18 -64t48.5 -46t66.5 -17h870q37 0 67 17t48 46t18 64v904z" />
    <glyph glyph-name="u1F139" unicode="J&#x20de;" 
d="M601 621h194q0 -39 19.5 -59.5t54.5 -20.5q73 0 73 89v433h201v-437q0 -125 -72.5 -196t-197.5 -71q-86 0 -146.5 33t-93 92.5t-32.5 136.5zM412 1472h975q72 0 131 -34.5t94 -93t35 -129.5v-986q0 -71 -35 -129.5t-94 -93t-131 -34.5h-975q-72 0 -131.5 34.5t-94.5 93
t-35 129.5v986q0 71 35 129.5t94.5 93t131.5 34.5zM1467 1174q0 36 -18 64.5t-48 45.5t-67 17h-870q-37 0 -67 -16.5t-48 -45.5t-18 -65v-904q0 -35 18 -64t48.5 -46t66.5 -17h870q37 0 67 17t48 46t18 64v904z" />
    <glyph glyph-name="u1F13A" unicode="&#x212a;&#x20de;" 
d="M1233 1074l-229 -314l235 -378h-225l-158 254l-64 -74v-180h-182v692h182v-274h14l214 274h213zM412 1472h975q72 0 131 -34.5t94 -93t35 -129.5v-986q0 -71 -35 -129.5t-94 -93t-131 -34.5h-975q-72 0 -131.5 34.5t-94.5 93t-35 129.5v986q0 71 35 129.5t94.5 93
t131.5 34.5zM1467 1174q0 36 -18 64.5t-48 45.5t-67 17h-870q-37 0 -67 -16.5t-48 -45.5t-18 -65v-904q0 -35 18 -64t48.5 -46t66.5 -17h870q37 0 67 17t48 46t18 64v904z" />
    <glyph glyph-name="u1F13B" unicode="L&#x20de;" 
d="M1186 563v-170h-488v692h204v-522h284zM412 1472h975q72 0 131 -34.5t94 -93t35 -129.5v-986q0 -71 -35 -129.5t-94 -93t-131 -34.5h-975q-72 0 -131.5 34.5t-94.5 93t-35 129.5v986q0 71 35 129.5t94.5 93t131.5 34.5zM1467 1174q0 36 -18 64.5t-48 45.5t-67 17h-870
q-37 0 -67 -16.5t-48 -45.5t-18 -65v-904q0 -35 18 -64t48.5 -46t66.5 -17h870q37 0 67 17t48 46t18 64v904z" />
    <glyph glyph-name="u1F13C" unicode="M&#x20de;" 
d="M697 382h-151v692h190l162 -448h5l162 448h189v-692h-152v420h-15l-140 -381h-96l-139 381h-15v-420zM412 1472h975q72 0 131 -34.5t94 -93t35 -129.5v-986q0 -71 -35 -129.5t-94 -93t-131 -34.5h-975q-72 0 -131.5 34.5t-94.5 93t-35 129.5v986q0 71 35 129.5t94.5 93
t131.5 34.5zM1467 1174q0 36 -18 64.5t-48 45.5t-67 17h-870q-37 0 -67 -16.5t-48 -45.5t-18 -65v-904q0 -35 18 -64t48.5 -46t66.5 -17h870q37 0 67 17t48 46t18 64v904z" />
    <glyph glyph-name="u1F13D" unicode="N&#x20de;" 
d="M768 382h-171v692h144l276 -379h14v379h170v-692h-142l-278 384h-13v-384zM412 1472h975q72 0 131 -34.5t94 -93t35 -129.5v-986q0 -71 -35 -129.5t-94 -93t-131 -34.5h-975q-72 0 -131.5 34.5t-94.5 93t-35 129.5v986q0 71 35 129.5t94.5 93t131.5 34.5zM1467 1174
q0 36 -18 64.5t-48 45.5t-67 17h-870q-37 0 -67 -16.5t-48 -45.5t-18 -65v-904q0 -35 18 -64t48.5 -46t66.5 -17h870q37 0 67 17t48 46t18 64v904z" />
    <glyph glyph-name="u1F13E" unicode="O&#x20de;" 
d="M899 535q58 0 99.5 48t41.5 144q0 97 -41.5 145t-99.5 48t-99.5 -48t-41.5 -145q0 -96 41.5 -144t99.5 -48zM899 370q-95 0 -172 41.5t-122 121.5t-45 194q0 115 45 194.5t122 121.5t172 42t172 -42t122 -121.5t45 -194.5q0 -114 -45 -194t-122 -121.5t-172 -41.5z
M412 1472h975q72 0 131 -34.5t94 -93t35 -129.5v-986q0 -71 -35 -129.5t-94 -93t-131 -34.5h-975q-72 0 -131.5 34.5t-94.5 93t-35 129.5v986q0 71 35 129.5t94.5 93t131.5 34.5zM1467 1174q0 36 -18 64.5t-48 45.5t-67 17h-870q-37 0 -67 -16.5t-48 -45.5t-18 -65v-904
q0 -35 18 -64t48.5 -46t66.5 -17h870q37 0 67 17t48 46t18 64v904z" />
    <glyph glyph-name="u1F13F" unicode="P&#x20de;" 
d="M971 1074q80 0 137.5 -32t89 -89t31.5 -132t-31.5 -131t-90 -87t-138.5 -31h-111v-190h-202v692h315zM1034 821q0 100 -98 100h-89v-199h89q98 0 98 99zM412 1472h975q72 0 131 -34.5t94 -93t35 -129.5v-986q0 -71 -35 -129.5t-94 -93t-131 -34.5h-975q-72 0 -131.5 34.5
t-94.5 93t-35 129.5v986q0 71 35 129.5t94.5 93t131.5 34.5zM1467 1174q0 36 -18 64.5t-48 45.5t-67 17h-870q-37 0 -67 -16.5t-48 -45.5t-18 -65v-904q0 -35 18 -64t48.5 -46t66.5 -17h870q37 0 67 17t48 46t18 64v904z" />
    <glyph glyph-name="u1F140" unicode="Q&#x20de;" 
d="M1218 322h-190l-35 60q-44 -12 -94 -12q-95 0 -172 41.5t-122 121.5t-45 194q0 115 45 194.5t122 121.5t172 42t172 -42t122 -121.5t45 -194.5q0 -91 -29.5 -160t-81.5 -115zM899 535q18 0 31 4l-54 96h110l22 -27q15 22 23.5 52t8.5 67q0 97 -41.5 145t-99.5 48
t-99.5 -48t-41.5 -145q0 -96 41.5 -144t99.5 -48zM412 1472h975q72 0 131 -34.5t94 -93t35 -129.5v-986q0 -71 -35 -129.5t-94 -93t-131 -34.5h-975q-72 0 -131.5 34.5t-94.5 93t-35 129.5v986q0 71 35 129.5t94.5 93t131.5 34.5zM1467 1174q0 36 -18 64.5t-48 45.5t-67 17
h-870q-37 0 -67 -16.5t-48 -45.5t-18 -65v-904q0 -35 18 -64t48.5 -46t66.5 -17h870q37 0 67 17t48 46t18 64v904z" />
    <glyph glyph-name="u1F141" unicode="R&#x20de;" 
d="M935 1074q131 0 203 -59t72 -166q0 -73 -38 -123t-97 -70l149 -274h-208l-117 238h-93v-238h-183v692h312zM806 754h105q46 0 73 21.5t27 62.5q0 42 -26 64.5t-72 22.5h-107v-171zM412 1472h975q72 0 131 -34.5t94 -93t35 -129.5v-986q0 -71 -35 -129.5t-94 -93
t-131 -34.5h-975q-72 0 -131.5 34.5t-94.5 93t-35 129.5v986q0 71 35 129.5t94.5 93t131.5 34.5zM1467 1174q0 36 -18 64.5t-48 45.5t-67 17h-870q-37 0 -67 -16.5t-48 -45.5t-18 -65v-904q0 -35 18 -64t48.5 -46t66.5 -17h870q37 0 67 17t48 46t18 64v904z" />
    <glyph glyph-name="u1F142" unicode="S&#x20de;" 
d="M600 585h190q5 -31 35.5 -50t78.5 -19q49 0 78 18.5t29 49.5q0 25 -23.5 39t-85.5 25l-90 16q-97 16 -148 67.5t-51 131.5q0 67 35.5 117t100 77.5t151.5 27.5q81 0 144 -26t100 -72.5t41 -110.5h-184q-4 31 -31 48.5t-70 17.5t-69 -17.5t-26 -46.5q0 -23 22.5 -38
t76.5 -23l97 -17q198 -34 198 -199q0 -71 -37 -122.5t-105 -79.5t-160 -28q-134 0 -213 57t-84 157zM412 1472h975q72 0 131 -34.5t94 -93t35 -129.5v-986q0 -71 -35 -129.5t-94 -93t-131 -34.5h-975q-72 0 -131.5 34.5t-94.5 93t-35 129.5v986q0 71 35 129.5t94.5 93
t131.5 34.5zM1467 1174q0 36 -18 64.5t-48 45.5t-67 17h-870q-37 0 -67 -16.5t-48 -45.5t-18 -65v-904q0 -35 18 -64t48.5 -46t66.5 -17h870q37 0 67 17t48 46t18 64v904z" />
    <glyph glyph-name="u1F143" unicode="T&#x20de;" 
d="M1001 368h-204v526h-195v167h594v-167h-195v-526zM412 1472h975q72 0 131 -34.5t94 -93t35 -129.5v-986q0 -71 -35 -129.5t-94 -93t-131 -34.5h-975q-72 0 -131.5 34.5t-94.5 93t-35 129.5v986q0 71 35 129.5t94.5 93t131.5 34.5zM1467 1174q0 36 -18 64.5t-48 45.5
t-67 17h-870q-37 0 -67 -16.5t-48 -45.5t-18 -65v-904q0 -35 18 -64t48.5 -46t66.5 -17h870q37 0 67 17t48 46t18 64v904z" />
    <glyph glyph-name="u1F144" unicode="U&#x20de;" 
d="M899 521q50 0 80.5 27.5t30.5 76.5v436h196v-454q0 -72 -38 -128.5t-107 -89.5t-162 -33q-92 0 -161 33t-107 89.5t-38 128.5v454h195v-436q0 -49 30.5 -76.5t80.5 -27.5zM412 1472h975q72 0 131 -34.5t94 -93t35 -129.5v-986q0 -71 -35 -129.5t-94 -93t-131 -34.5h-975
q-72 0 -131.5 34.5t-94.5 93t-35 129.5v986q0 71 35 129.5t94.5 93t131.5 34.5zM1467 1174q0 36 -18 64.5t-48 45.5t-67 17h-870q-37 0 -67 -16.5t-48 -45.5t-18 -65v-904q0 -35 18 -64t48.5 -46t66.5 -17h870q37 0 67 17t48 46t18 64v904z" />
    <glyph glyph-name="u1F145" unicode="V&#x20de;" 
d="M766 363l-213 692h221l120 -496h11l120 496h220l-213 -692h-266zM412 1472h975q72 0 131 -34.5t94 -93t35 -129.5v-986q0 -71 -35 -129.5t-94 -93t-131 -34.5h-975q-72 0 -131.5 34.5t-94.5 93t-35 129.5v986q0 71 35 129.5t94.5 93t131.5 34.5zM1467 1174q0 36 -18 64.5
t-48 45.5t-67 17h-870q-37 0 -67 -16.5t-48 -45.5t-18 -65v-904q0 -35 18 -64t48.5 -46t66.5 -17h870q37 0 67 17t48 46t18 64v904z" />
    <glyph glyph-name="u1F146" unicode="W&#x20de;" 
d="M896 792l-104 -424h-169l-162 693h179l81 -462h9l101 462h137l101 -462h9l81 462h178l-161 -693h-169l-105 424h-6zM412 1472h975q72 0 131 -34.5t94 -93t35 -129.5v-986q0 -71 -35 -129.5t-94 -93t-131 -34.5h-975q-72 0 -131.5 34.5t-94.5 93t-35 129.5v986
q0 71 35 129.5t94.5 93t131.5 34.5zM1467 1174q0 36 -18 64.5t-48 45.5t-67 17h-870q-37 0 -67 -16.5t-48 -45.5t-18 -65v-904q0 -35 18 -64t48.5 -46t66.5 -17h870q37 0 67 17t48 46t18 64v904z" />
    <glyph glyph-name="u1F147" unicode="X&#x20de;" 
d="M1233 1074l-216 -346l215 -346h-212l-120 222h-10l-119 -222h-216l219 347l-218 345h222l117 -222h10l118 222h210zM412 1472h975q72 0 131 -34.5t94 -93t35 -129.5v-986q0 -71 -35 -129.5t-94 -93t-131 -34.5h-975q-72 0 -131.5 34.5t-94.5 93t-35 129.5v986
q0 71 35 129.5t94.5 93t131.5 34.5zM1467 1174q0 36 -18 64.5t-48 45.5t-67 17h-870q-37 0 -67 -16.5t-48 -45.5t-18 -65v-904q0 -35 18 -64t48.5 -46t66.5 -17h870q37 0 67 17t48 46t18 64v904z" />
    <glyph glyph-name="u1F148" unicode="Y&#x20de;" 
d="M1004 368h-209v224l-238 469h220l120 -274h6l120 274h218l-237 -468v-225zM412 1472h975q72 0 131 -34.5t94 -93t35 -129.5v-986q0 -71 -35 -129.5t-94 -93t-131 -34.5h-975q-72 0 -131.5 34.5t-94.5 93t-35 129.5v986q0 71 35 129.5t94.5 93t131.5 34.5zM1467 1174
q0 36 -18 64.5t-48 45.5t-67 17h-870q-37 0 -67 -16.5t-48 -45.5t-18 -65v-904q0 -35 18 -64t48.5 -46t66.5 -17h870q37 0 67 17t48 46t18 64v904z" />
    <glyph glyph-name="u1F149" unicode="Z&#x20de;" 
d="M626 382v130l298 391v10h-297v161h540v-130l-298 -391v-10h309v-161h-552zM412 1472h975q72 0 131 -34.5t94 -93t35 -129.5v-986q0 -71 -35 -129.5t-94 -93t-131 -34.5h-975q-72 0 -131.5 34.5t-94.5 93t-35 129.5v986q0 71 35 129.5t94.5 93t131.5 34.5zM1467 1174
q0 36 -18 64.5t-48 45.5t-67 17h-870q-37 0 -67 -16.5t-48 -45.5t-18 -65v-904q0 -35 18 -64t48.5 -46t66.5 -17h870q37 0 67 17t48 46t18 64v904z" />
    <glyph glyph-name="u1F150" unicode="A&#x20dd;&#x25cf;" 
d="M984 669h-169l79 282h10zM742 377l43 145h229l43 -145h220l-245 753h-265l-245 -753h220zM899 -53q-128 0 -244 39t-212.5 110.5t-168 168.5t-110.5 213t-39 244t39 244t110.5 212.5t168 168t212.5 110.5t244 39t244 -39t213 -110.5t168 -168t110.5 -212.5t39.5 -244
t-39.5 -244t-110.5 -213t-168 -168.5t-213 -110.5t-244 -39z" />
    <glyph glyph-name="u1F151" unicode="B&#x20dd;&#x25cf;" 
d="M600 352h380q78 0 137.5 26.5t93 74t33.5 109.5q0 77 -45.5 126t-127.5 61v4q64 14 101 58t37 106q0 87 -63 137t-173 50h-373v-752zM804 960h106q44 0 70 -21t26 -57q0 -80 -117 -80h-85v158zM803 678h113q54 0 83.5 -23.5t29.5 -64.5q0 -87 -132 -87h-94v175zM899 -53
q-128 0 -244 39t-212.5 110.5t-168 168.5t-110.5 213t-39 244t39 244t110.5 212.5t168 168t212.5 110.5t244 39t244 -39t213 -110.5t168 -168t110.5 -212.5t39.5 -244t-39.5 -244t-110.5 -213t-168 -168.5t-213 -110.5t-244 -39z" />
    <glyph glyph-name="u1F152" unicode="C&#x20dd;&#x25cf;" 
d="M1036 626q-5 -44 -43 -73t-90 -29q-68 0 -109 53t-41 149t41 149t109 53q53 0 91.5 -31t43.5 -76h206q-5 87 -50 153t-120 103t-174 37q-105 0 -188 -47t-131 -134t-48 -207q0 -121 48 -208t131 -133.5t188 -46.5q97 0 172 37t120 102t51 149h-207zM899 -53
q-128 0 -244 39t-212.5 110.5t-168 168.5t-110.5 213t-39 244t39 244t110.5 212.5t168 168t212.5 110.5t244 39t244 -39t213 -110.5t168 -168t110.5 -212.5t39.5 -244t-39.5 -244t-110.5 -213t-168 -168.5t-213 -110.5t-244 -39z" />
    <glyph glyph-name="u1F153" unicode="D&#x20dd;&#x25cf;" 
d="M597 1104v-752h325q173 0 263 96t90 280q0 185 -90 280.5t-263 95.5h-325zM807 938h79q89 0 129 -50t40 -161q0 -110 -40 -159.5t-129 -49.5h-79v420zM899 -53q-128 0 -244 39t-212.5 110.5t-168 168.5t-110.5 213t-39 244t39 244t110.5 212.5t168 168t212.5 110.5
t244 39t244 -39t213 -110.5t168 -168t110.5 -212.5t39.5 -244t-39.5 -244t-110.5 -213t-168 -168.5t-213 -110.5t-244 -39z" />
    <glyph glyph-name="u1F154" unicode="E&#x20dd;&#x25cf;" 
d="M1178 513h-336v144h314v146h-314v139h336v162h-544v-752h544v161zM899 -53q-128 0 -244 39t-212.5 110.5t-168 168.5t-110.5 213t-39 244t39 244t110.5 212.5t168 168t212.5 110.5t244 39t244 -39t213 -110.5t168 -168t110.5 -212.5t39.5 -244t-39.5 -244t-110.5 -213
t-168 -168.5t-213 -110.5t-244 -39z" />
    <glyph glyph-name="u1F155" unicode="F&#x20dd;&#x25cf;" 
d="M872 352v266h290v172h-290v144h320v170h-540v-752h220zM899 -53q-128 0 -244 39t-212.5 110.5t-168 168.5t-110.5 213t-39 244t39 244t110.5 212.5t168 168t212.5 110.5t244 39t244 -39t213 -110.5t168 -168t110.5 -212.5t39.5 -244t-39.5 -244t-110.5 -213t-168 -168.5
t-213 -110.5t-244 -39z" />
    <glyph glyph-name="u1F156" unicode="G&#x20dd;&#x25cf;" 
d="M1038 615q0 -43 -34 -74.5t-100 -31.5q-67 0 -109 59.5t-42 157.5q0 97 41.5 154t109.5 57q55 0 89 -23.5t39 -61.5h212q-11 78 -57 137t-119.5 92t-165.5 33q-110 0 -193 -48.5t-129.5 -136t-46.5 -203.5t46 -203.5t129 -136t193 -48.5q104 0 181 41t118.5 110t41.5 154
v132h-335v-146h131v-14zM899 -53q-128 0 -244 39t-212.5 110.5t-168 168.5t-110.5 213t-39 244t39 244t110.5 212.5t168 168t212.5 110.5t244 39t244 -39t213 -110.5t168 -168t110.5 -212.5t39.5 -244t-39.5 -244t-110.5 -213t-168 -168.5t-213 -110.5t-244 -39z" />
    <glyph glyph-name="u1F157" unicode="H&#x20dd;&#x25cf;" 
d="M1236 352v752h-208v-283h-257v283h-208v-752h208v284h257v-284h208zM899 -53q-128 0 -244 39t-212.5 110.5t-168 168.5t-110.5 213t-39 244t39 244t110.5 212.5t168 168t212.5 110.5t244 39t244 -39t213 -110.5t168 -168t110.5 -212.5t39.5 -244t-39.5 -244t-110.5 -213
t-168 -168.5t-213 -110.5t-244 -39z" />
    <glyph glyph-name="u1F158" unicode="I&#x20dd;&#x25cf;" 
d="M1018 352v752h-237v-752h237zM899 -53q-128 0 -244 39t-212.5 110.5t-168 168.5t-110.5 213t-39 244t39 244t110.5 212.5t168 168t212.5 110.5t244 39t244 -39t213 -110.5t168 -168t110.5 -212.5t39.5 -244t-39.5 -244t-110.5 -213t-168 -168.5t-213 -110.5t-244 -39z
" />
    <glyph glyph-name="u1F159" unicode="J&#x20dd;&#x25cf;" 
d="M572 617q0 -89 37 -153.5t103.5 -100t157.5 -35.5q92 0 158 35t101.5 100t35.5 156v475h-224v-472q0 -90 -76 -90q-75 0 -75 85h-218zM899 -53q-128 0 -244 39t-212.5 110.5t-168 168.5t-110.5 213t-39 244t39 244t110.5 212.5t168 168t212.5 110.5t244 39t244 -39
t213 -110.5t168 -168t110.5 -212.5t39.5 -244t-39.5 -244t-110.5 -213t-168 -168.5t-213 -110.5t-244 -39z" />
    <glyph glyph-name="u1F15A" unicode="&#x212a;&#x20dd;&#x25cf;" 
d="M1261 1104h-239l-231 -293h-9v293h-203v-752h203v197l64 73l170 -270h251l-257 409zM899 -53q-128 0 -244 39t-212.5 110.5t-168 168.5t-110.5 213t-39 244t39 244t110.5 212.5t168 168t212.5 110.5t244 39t244 -39t213 -110.5t168 -168t110.5 -212.5t39.5 -244
t-39.5 -244t-110.5 -213t-168 -168.5t-213 -110.5t-244 -39z" />
    <glyph glyph-name="u1F15B" unicode="L&#x20dd;&#x25cf;" 
d="M1200 553h-307v562h-226v-752h533v190zM899 -53q-128 0 -244 39t-212.5 110.5t-168 168.5t-110.5 213t-39 244t39 244t110.5 212.5t168 168t212.5 110.5t244 39t244 -39t213 -110.5t168 -168t110.5 -212.5t39.5 -244t-39.5 -244t-110.5 -213t-168 -168.5t-213 -110.5
t-244 -39z" />
    <glyph glyph-name="u1F15C" unicode="M&#x20dd;&#x25cf;" 
d="M682 352v456h13l149 -412h109l151 410h13v-454h169v752h-208l-177 -485h-3l-176 485h-209v-752h169zM899 -53q-128 0 -244 39t-212.5 110.5t-168 168.5t-110.5 213t-39 244t39 244t110.5 212.5t168 168t212.5 110.5t244 39t244 -39t213 -110.5t168 -168t110.5 -212.5
t39.5 -244t-39.5 -244t-110.5 -213t-168 -168.5t-213 -110.5t-244 -39z" />
    <glyph glyph-name="u1F15D" unicode="N&#x20dd;&#x25cf;" 
d="M761 352v412h9l299 -412h160v752h-191v-408h-9l-299 408h-160v-752h191zM899 -53q-128 0 -244 39t-212.5 110.5t-168 168.5t-110.5 213t-39 244t39 244t110.5 212.5t168 168t212.5 110.5t244 39t244 -39t213 -110.5t168 -168t110.5 -212.5t39.5 -244t-39.5 -244
t-110.5 -213t-168 -168.5t-213 -110.5t-244 -39z" />
    <glyph glyph-name="u1F15E" unicode="O&#x20dd;&#x25cf;" 
d="M899 521q-41 0 -75 22.5t-54.5 68.5t-20.5 114t20.5 114t54.5 68.5t75 22.5q62 0 106 -51t44 -154t-44 -154t-106 -51zM899 338q104 0 187.5 45.5t132.5 132t49 210.5t-49 210.5t-132.5 132t-187.5 45.5q-103 0 -186.5 -45.5t-132.5 -132t-49 -210.5t49 -210.5
t132.5 -132t186.5 -45.5zM899 -53q-128 0 -244 39t-212.5 110.5t-168 168.5t-110.5 213t-39 244t39 244t110.5 212.5t168 168t212.5 110.5t244 39t244 -39t213 -110.5t168 -168t110.5 -212.5t39.5 -244t-39.5 -244t-110.5 -213t-168 -168.5t-213 -110.5t-244 -39z" />
    <glyph glyph-name="u1F15F" unicode="P&#x20dd;&#x25cf;" 
d="M970 1104h-344v-752h225v205h116q86 0 150.5 33.5t99.5 94t35 142.5q0 84 -35 146.5t-98.5 96.5t-148.5 34zM1039 827q0 -52 -28 -80t-80 -28h-96v218h96q52 0 80 -28.5t28 -81.5zM899 -53q-128 0 -244 39t-212.5 110.5t-168 168.5t-110.5 213t-39 244t39 244
t110.5 212.5t168 168t212.5 110.5t244 39t244 -39t213 -110.5t168 -168t110.5 -212.5t39.5 -244t-39.5 -244t-110.5 -213t-168 -168.5t-213 -110.5t-244 -39z" />
    <glyph glyph-name="u1F160" unicode="Q&#x20dd;&#x25cf;" 
d="M1250 288l-100 142q55 50 86.5 124t31.5 172q0 124 -49 210.5t-132.5 132t-187.5 45.5q-103 0 -186.5 -45.5t-132.5 -132t-49 -210.5t49 -210.5t132.5 -132t186.5 -45.5q56 0 102 13l35 -63h214zM899 521q-41 0 -75 22.5t-54.5 68.5t-20.5 114t20.5 114t54.5 68.5
t75 22.5q62 0 106 -51t44 -154q0 -39 -8.5 -70t-23.5 -54l-23 28h-126l59 -106q-14 -3 -28 -3zM899 -53q-128 0 -244 39t-212.5 110.5t-168 168.5t-110.5 213t-39 244t39 244t110.5 212.5t168 168t212.5 110.5t244 39t244 -39t213 -110.5t168 -168t110.5 -212.5t39.5 -244
t-39.5 -244t-110.5 -213t-168 -168.5t-213 -110.5t-244 -39z" />
    <glyph glyph-name="u1F161" unicode="R&#x20dd;&#x25cf;" 
d="M791 754v186h118q52 0 79.5 -24t27.5 -70q0 -43 -28.5 -67.5t-80.5 -24.5h-116zM932 1104h-340v-752h205v256h95l125 -256h234l-162 295q68 25 105.5 80t37.5 131q0 118 -78.5 182t-221.5 64zM899 -53q-128 0 -244 39t-212.5 110.5t-168 168.5t-110.5 213t-39 244t39 244
t110.5 212.5t168 168t212.5 110.5t244 39t244 -39t213 -110.5t168 -168t110.5 -212.5t39.5 -244t-39.5 -244t-110.5 -213t-168 -168.5t-213 -110.5t-244 -39z" />
    <glyph glyph-name="u1F162" unicode="S&#x20dd;&#x25cf;" 
d="M573 577q5 -110 91.5 -173t232.5 -63q100 0 174 31t114.5 87t40.5 132q0 182 -217 218l-105 18q-57 9 -81 24.5t-24 40.5q0 31 27 49t74 18q45 0 73.5 -19.5t33.5 -51.5h203q-5 70 -44.5 121t-108 79.5t-157.5 28.5q-94 0 -164.5 -30t-109.5 -84.5t-39 -127.5
q0 -88 56 -143.5t161 -73.5l98 -18q66 -11 90.5 -26t24.5 -41q0 -32 -30 -51.5t-83 -19.5q-51 0 -83.5 20.5t-36.5 54.5h-211zM899 -53q-128 0 -244 39t-212.5 110.5t-168 168.5t-110.5 213t-39 244t39 244t110.5 212.5t168 168t212.5 110.5t244 39t244 -39t213 -110.5
t168 -168t110.5 -212.5t39.5 -244t-39.5 -244t-110.5 -213t-168 -168.5t-213 -110.5t-244 -39z" />
    <glyph glyph-name="u1F163" unicode="T&#x20dd;&#x25cf;" 
d="M1012 329v567h211v185h-647v-185h211v-567h225zM899 -53q-128 0 -244 39t-212.5 110.5t-168 168.5t-110.5 213t-39 244t39 244t110.5 212.5t168 168t212.5 110.5t244 39t244 -39t213 -110.5t168 -168t110.5 -212.5t39.5 -244t-39.5 -244t-110.5 -213t-168 -168.5
t-213 -110.5t-244 -39z" />
    <glyph glyph-name="u1F164" unicode="U&#x20dd;&#x25cf;" 
d="M899 501q-53 0 -84 29.5t-31 78.5v473h-219v-504q0 -79 41.5 -137.5t116.5 -91t176 -32.5t176.5 32.5t117 91.5t41.5 137v504h-219v-473q0 -49 -31.5 -78.5t-84.5 -29.5zM899 -53q-128 0 -244 39t-212.5 110.5t-168 168.5t-110.5 213t-39 244t39 244t110.5 212.5t168 168
t212.5 110.5t244 39t244 -39t213 -110.5t168 -168t110.5 -212.5t39.5 -244t-39.5 -244t-110.5 -213t-168 -168.5t-213 -110.5t-244 -39z" />
    <glyph glyph-name="u1F165" unicode="V&#x20dd;&#x25cf;" 
d="M1043 324l232 752h-242l-128 -537h-11l-128 537h-243l233 -752h287zM899 -53q-128 0 -244 39t-212.5 110.5t-168 168.5t-110.5 213t-39 244t39 244t110.5 212.5t168 168t212.5 110.5t244 39t244 -39t213 -110.5t168 -168t110.5 -212.5t39.5 -244t-39.5 -244t-110.5 -213
t-168 -168.5t-213 -110.5t-244 -39z" />
    <glyph glyph-name="u1F166" unicode="W&#x20dd;&#x25cf;" 
d="M898 783h3l112 -454h189l177 752h-202l-85 -497h-5l-109 497h-157l-109 -497h-5l-85 497h-202l178 -752h188zM899 -53q-128 0 -244 39t-212.5 110.5t-168 168.5t-110.5 213t-39 244t39 244t110.5 212.5t168 168t212.5 110.5t244 39t244 -39t213 -110.5t168 -168
t110.5 -212.5t39.5 -244t-39.5 -244t-110.5 -213t-168 -168.5t-213 -110.5t-244 -39z" />
    <glyph glyph-name="u1F167" unicode="X&#x20dd;&#x25cf;" 
d="M1265 1104h-233l-125 -240h-10l-126 240h-246l236 -374l-237 -378h239l128 239h9l129 -239h234l-233 375zM899 -53q-128 0 -244 39t-212.5 110.5t-168 168.5t-110.5 213t-39 244t39 244t110.5 212.5t168 168t212.5 110.5t244 39t244 -39t213 -110.5t168 -168
t110.5 -212.5t39.5 -244t-39.5 -244t-110.5 -213t-168 -168.5t-213 -110.5t-244 -39z" />
    <glyph glyph-name="u1F168" unicode="Y&#x20dd;&#x25cf;" 
d="M783 336h233v245l260 507h-245l-130 -294h-4l-129 294h-245l260 -507v-245zM899 -53q-128 0 -244 39t-212.5 110.5t-168 168.5t-110.5 213t-39 244t39 244t110.5 212.5t168 168t212.5 110.5t244 39t244 -39t213 -110.5t168 -168t110.5 -212.5t39.5 -244t-39.5 -244
t-110.5 -213t-168 -168.5t-213 -110.5t-244 -39z" />
    <glyph glyph-name="u1F169" unicode="Z&#x20dd;&#x25cf;" 
d="M601 352h602v181h-328v5l317 422v144h-590v-182h316v-3l-317 -423v-144zM899 -53q-128 0 -244 39t-212.5 110.5t-168 168.5t-110.5 213t-39 244t39 244t110.5 212.5t168 168t212.5 110.5t244 39t244 -39t213 -110.5t168 -168t110.5 -212.5t39.5 -244t-39.5 -244
t-110.5 -213t-168 -168.5t-213 -110.5t-244 -39z" />
    <glyph glyph-name="u1F170" unicode="A&#x20de;&#x25a0;" 
d="M984 660h-169l79 282h10zM742 368l43 145h229l43 -145h220l-245 753h-265l-245 -753h220zM412 1472h975q72 0 131 -34.5t94 -93t35 -129.5v-986q0 -71 -35 -129.5t-94 -93t-131 -34.5h-975q-72 0 -131.5 34.5t-94.5 93t-35 129.5v986q0 71 35 129.5t94.5 93t131.5 34.5z
" />
    <glyph glyph-name="u1F171" unicode="B&#x20de;&#x25a0;" 
d="M600 352h380q77 0 136.5 26t93.5 73.5t34 110.5q0 80 -47 128t-126 59v4q62 13 100 56t38 108q0 88 -63 137.5t-173 49.5h-373v-752zM804 960h106q45 0 70.5 -21t25.5 -57q0 -80 -117 -80h-85v158zM803 678h113q55 0 84 -23.5t29 -64.5q0 -43 -32 -65t-100 -22h-94v175z
M412 1472h975q72 0 131 -34.5t94 -93t35 -129.5v-986q0 -71 -35 -129.5t-94 -93t-131 -34.5h-975q-72 0 -131.5 34.5t-94.5 93t-35 129.5v986q0 71 35 129.5t94.5 93t131.5 34.5z" />
    <glyph glyph-name="u1F172" unicode="C&#x20de;&#x25a0;" 
d="M1036 626q-5 -44 -43 -73t-90 -29q-68 0 -109 53t-41 149t41 149t109 53q53 0 91.5 -31t43.5 -76h206q-5 87 -50 153t-120 103t-174 37q-105 0 -188 -47t-131 -134t-48 -207q0 -121 48 -208t131 -133.5t188 -46.5q97 0 172 37t120 102t51 149h-207zM412 1472h975
q72 0 131 -34.5t94 -93t35 -129.5v-986q0 -71 -35 -129.5t-94 -93t-131 -34.5h-975q-72 0 -131.5 34.5t-94.5 93t-35 129.5v986q0 71 35 129.5t94.5 93t131.5 34.5z" />
    <glyph glyph-name="u1F173" unicode="D&#x20de;&#x25a0;" 
d="M586 1104v-752h324q176 0 265 97t89 279q0 183 -89 279.5t-265 96.5h-324zM795 938h80q88 0 128 -50.5t40 -160.5q0 -109 -40 -159t-128 -50h-80v420zM412 1472h975q72 0 131 -34.5t94 -93t35 -129.5v-986q0 -71 -35 -129.5t-94 -93t-131 -34.5h-975q-72 0 -131.5 34.5
t-94.5 93t-35 129.5v986q0 71 35 129.5t94.5 93t131.5 34.5z" />
    <glyph glyph-name="u1F174" unicode="E&#x20de;&#x25a0;" 
d="M1178 513h-336v144h314v146h-314v139h336v162h-544v-752h544v161zM412 1472h975q72 0 131 -34.5t94 -93t35 -129.5v-986q0 -71 -35 -129.5t-94 -93t-131 -34.5h-975q-72 0 -131.5 34.5t-94.5 93t-35 129.5v986q0 71 35 129.5t94.5 93t131.5 34.5z" />
    <glyph glyph-name="u1F175" unicode="F&#x20de;&#x25a0;" 
d="M872 352v266h290v172h-290v144h320v170h-540v-752h220zM412 1472h975q72 0 131 -34.5t94 -93t35 -129.5v-986q0 -71 -35 -129.5t-94 -93t-131 -34.5h-975q-72 0 -131.5 34.5t-94.5 93t-35 129.5v986q0 71 35 129.5t94.5 93t131.5 34.5z" />
    <glyph glyph-name="u1F176" unicode="G&#x20de;&#x25a0;" 
d="M1038 615q0 -43 -34 -74.5t-100 -31.5q-67 0 -109 59.5t-42 157.5q0 97 41.5 154t109.5 57q55 0 89 -23.5t39 -61.5h212q-11 78 -57 137t-119.5 92t-165.5 33q-110 0 -193 -48.5t-129.5 -136t-46.5 -203.5t46 -203.5t129 -136t193 -48.5q104 0 181 41t118.5 110t41.5 154
v132h-335v-146h131v-14zM412 1472h975q72 0 131 -34.5t94 -93t35 -129.5v-986q0 -71 -35 -129.5t-94 -93t-131 -34.5h-975q-72 0 -131.5 34.5t-94.5 93t-35 129.5v986q0 71 35 129.5t94.5 93t131.5 34.5z" />
    <glyph glyph-name="u1F177" unicode="H&#x20de;&#x25a0;" 
d="M1236 352v752h-208v-283h-257v283h-208v-752h208v284h257v-284h208zM412 1472h975q72 0 131 -34.5t94 -93t35 -129.5v-986q0 -71 -35 -129.5t-94 -93t-131 -34.5h-975q-72 0 -131.5 34.5t-94.5 93t-35 129.5v986q0 71 35 129.5t94.5 93t131.5 34.5z" />
    <glyph glyph-name="u1F178" unicode="I&#x20de;&#x25a0;" 
d="M1018 352v752h-237v-752h237zM412 1472h975q72 0 131 -34.5t94 -93t35 -129.5v-986q0 -71 -35 -129.5t-94 -93t-131 -34.5h-975q-72 0 -131.5 34.5t-94.5 93t-35 129.5v986q0 71 35 129.5t94.5 93t131.5 34.5z" />
    <glyph glyph-name="u1F179" unicode="J&#x20de;&#x25a0;" 
d="M572 617q0 -86 35.5 -151t102.5 -101.5t160 -36.5q91 0 157 34.5t102 100t36 156.5v475h-224v-472q0 -90 -76 -90q-75 0 -75 85h-218zM412 1472h975q72 0 131 -34.5t94 -93t35 -129.5v-986q0 -71 -35 -129.5t-94 -93t-131 -34.5h-975q-72 0 -131.5 34.5t-94.5 93
t-35 129.5v986q0 71 35 129.5t94.5 93t131.5 34.5z" />
    <glyph glyph-name="u1F17A" unicode="&#x212a;&#x20de;&#x25a0;" 
d="M1261 1104h-239l-231 -293h-9v293h-203v-752h203v197l64 73l170 -270h251q-15 19 -40.5 60t-56.5 92.5t-62 103.5t-57 93t-41 60zM412 1472h975q72 0 131 -34.5t94 -93t35 -129.5v-986q0 -71 -35 -129.5t-94 -93t-131 -34.5h-975q-72 0 -131.5 34.5t-94.5 93t-35 129.5
v986q0 71 35 129.5t94.5 93t131.5 34.5z" />
    <glyph glyph-name="u1F17B" unicode="L&#x20de;&#x25a0;" 
d="M1205 553h-307v562h-226v-752h533v190zM412 1472h975q72 0 131 -34.5t94 -93t35 -129.5v-986q0 -71 -35 -129.5t-94 -93t-131 -34.5h-975q-72 0 -131.5 34.5t-94.5 93t-35 129.5v986q0 71 35 129.5t94.5 93t131.5 34.5z" />
    <glyph glyph-name="u1F17C" unicode="M&#x20de;&#x25a0;" 
d="M682 352v456h13l149 -412h109l151 410h13v-454h169v752h-208l-177 -485h-3l-176 485h-209v-752h169zM412 1472h975q72 0 131 -34.5t94 -93t35 -129.5v-986q0 -71 -35 -129.5t-94 -93t-131 -34.5h-975q-72 0 -131.5 34.5t-94.5 93t-35 129.5v986q0 71 35 129.5t94.5 93
t131.5 34.5z" />
    <glyph glyph-name="u1F17D" unicode="N&#x20de;&#x25a0;" 
d="M761 352v412h9l299 -412h160v752h-191v-408h-9l-299 408h-160v-752h191zM412 1472h975q72 0 131 -34.5t94 -93t35 -129.5v-986q0 -71 -35 -129.5t-94 -93t-131 -34.5h-975q-72 0 -131.5 34.5t-94.5 93t-35 129.5v986q0 71 35 129.5t94.5 93t131.5 34.5z" />
    <glyph glyph-name="u1F17E" unicode="O&#x20de;&#x25a0;" 
d="M899 521q-41 0 -75 22.5t-54.5 68.5t-20.5 114t20.5 114t54.5 68.5t75 22.5q62 0 106 -51t44 -154t-44 -154t-106 -51zM899 338q104 0 187.5 45.5t132.5 132t49 210.5t-49 210.5t-132.5 132t-187.5 45.5q-103 0 -186.5 -45.5t-132.5 -132t-49 -210.5t49 -210.5
t132.5 -132t186.5 -45.5zM412 1472h975q72 0 131 -34.5t94 -93t35 -129.5v-986q0 -71 -35 -129.5t-94 -93t-131 -34.5h-975q-72 0 -131.5 34.5t-94.5 93t-35 129.5v986q0 71 35 129.5t94.5 93t131.5 34.5z" />
    <glyph glyph-name="u1F17F" unicode="P&#x20de;&#x25a0;" 
d="M970 1104h-344v-752h225v205h116q88 0 152 34t98.5 94.5t34.5 141.5q0 83 -34.5 145t-97.5 97t-150 35zM1039 827q0 -52 -28 -80t-80 -28h-96v218h96q51 0 79.5 -28.5t28.5 -81.5zM412 1472h975q72 0 131 -34.5t94 -93t35 -129.5v-986q0 -71 -35 -129.5t-94 -93
t-131 -34.5h-975q-72 0 -131.5 34.5t-94.5 93t-35 129.5v986q0 71 35 129.5t94.5 93t131.5 34.5z" />
    <glyph glyph-name="u1F180" unicode="Q&#x20de;&#x25a0;" 
d="M1250 288l-100 142q55 50 86.5 124t31.5 172q0 124 -49 210.5t-132.5 132t-187.5 45.5q-103 0 -186.5 -45.5t-132.5 -132t-49 -210.5t49 -210.5t132.5 -132t186.5 -45.5q56 0 102 13l35 -63h214zM899 521q-41 0 -75 22.5t-54.5 68.5t-20.5 114t20.5 114t54.5 68.5
t75 22.5q62 0 106 -51t44 -154q0 -39 -8.5 -70t-23.5 -54l-23 28h-126l59 -106q-14 -3 -28 -3zM412 1472h975q72 0 131 -34.5t94 -93t35 -129.5v-986q0 -71 -35 -129.5t-94 -93t-131 -34.5h-975q-72 0 -131.5 34.5t-94.5 93t-35 129.5v986q0 71 35 129.5t94.5 93t131.5 34.5
z" />
    <glyph glyph-name="u1F181" unicode="R&#x20de;&#x25a0;" 
d="M791 754v186h118q50 0 78.5 -24t28.5 -70q0 -44 -29 -68t-80 -24h-116zM932 1104h-340v-752h205v256h95l125 -256h234l-162 295q64 23 103.5 77.5t39.5 133.5q0 117 -78 181.5t-222 64.5zM412 1472h975q72 0 131 -34.5t94 -93t35 -129.5v-986q0 -71 -35 -129.5t-94 -93
t-131 -34.5h-975q-72 0 -131.5 34.5t-94.5 93t-35 129.5v986q0 71 35 129.5t94.5 93t131.5 34.5z" />
    <glyph glyph-name="u1F182" unicode="S&#x20de;&#x25a0;" 
d="M573 577q5 -110 91.5 -173t232.5 -63q100 0 174 31t114.5 87t40.5 132q0 182 -217 218l-105 18q-57 9 -81 24.5t-24 40.5q0 31 27 49t74 18q45 0 73.5 -19.5t33.5 -51.5h203q-5 70 -44.5 121t-108 79.5t-157.5 28.5q-94 0 -164.5 -30t-109.5 -84.5t-39 -127.5
q0 -88 56 -143.5t161 -73.5l98 -18q66 -11 90.5 -26t24.5 -41q0 -32 -30 -51.5t-83 -19.5q-51 0 -83.5 20.5t-36.5 54.5h-211zM412 1472h975q72 0 131 -34.5t94 -93t35 -129.5v-986q0 -71 -35 -129.5t-94 -93t-131 -34.5h-975q-72 0 -131.5 34.5t-94.5 93t-35 129.5v986
q0 71 35 129.5t94.5 93t131.5 34.5z" />
    <glyph glyph-name="u1F183" unicode="T&#x20de;&#x25a0;" 
d="M1012 338v567h211v185h-647v-185h211v-567h225zM412 1472h975q72 0 131 -34.5t94 -93t35 -129.5v-986q0 -71 -35 -129.5t-94 -93t-131 -34.5h-975q-72 0 -131.5 34.5t-94.5 93t-35 129.5v986q0 71 35 129.5t94.5 93t131.5 34.5z" />
    <glyph glyph-name="u1F184" unicode="U&#x20de;&#x25a0;" 
d="M899 510q-53 0 -84 29t-31 79v473h-219v-504q0 -79 41.5 -137.5t116.5 -91t176 -32.5t176.5 33t117 91.5t41.5 136.5v504h-219v-473q0 -50 -31.5 -79t-84.5 -29zM412 1472h975q72 0 131 -34.5t94 -93t35 -129.5v-986q0 -71 -35 -129.5t-94 -93t-131 -34.5h-975
q-72 0 -131.5 34.5t-94.5 93t-35 129.5v986q0 71 35 129.5t94.5 93t131.5 34.5z" />
    <glyph glyph-name="u1F185" unicode="V&#x20de;&#x25a0;" 
d="M1043 333l232 752h-242l-128 -537h-11l-128 537h-243l233 -752h287zM412 1472h975q72 0 131 -34.5t94 -93t35 -129.5v-986q0 -71 -35 -129.5t-94 -93t-131 -34.5h-975q-72 0 -131.5 34.5t-94.5 93t-35 129.5v986q0 71 35 129.5t94.5 93t131.5 34.5z" />
    <glyph glyph-name="u1F186" unicode="W&#x20de;&#x25a0;" 
d="M898 792h3l112 -454h189l177 752h-202l-85 -497h-5l-109 497h-157l-109 -497h-5l-85 497h-202l178 -752h188zM412 1472h975q72 0 131 -34.5t94 -93t35 -129.5v-986q0 -71 -35 -129.5t-94 -93t-131 -34.5h-975q-72 0 -131.5 34.5t-94.5 93t-35 129.5v986q0 71 35 129.5
t94.5 93t131.5 34.5z" />
    <glyph glyph-name="u1F187" unicode="X&#x20de;&#x25a0;" 
d="M1265 1104h-233l-125 -240h-10l-126 240h-246l236 -374l-237 -378h239l128 239h9l129 -239h234l-233 375zM412 1472h975q72 0 131 -34.5t94 -93t35 -129.5v-986q0 -71 -35 -129.5t-94 -93t-131 -34.5h-975q-72 0 -131.5 34.5t-94.5 93t-35 129.5v986q0 71 35 129.5
t94.5 93t131.5 34.5z" />
    <glyph glyph-name="u1F188" unicode="Y&#x20de;&#x25a0;" 
d="M783 338h233v245l260 507h-245l-130 -294h-4l-129 294h-245l260 -507v-245zM412 1472h975q72 0 131 -34.5t94 -93t35 -129.5v-986q0 -71 -35 -129.5t-94 -93t-131 -34.5h-975q-72 0 -131.5 34.5t-94.5 93t-35 129.5v986q0 71 35 129.5t94.5 93t131.5 34.5z" />
    <glyph glyph-name="u1F189" unicode="Z&#x20de;&#x25a0;" 
d="M601 352h602v181h-328v5l317 422v144h-590v-182h316v-3l-317 -423v-144zM412 1472h975q72 0 131 -34.5t94 -93t35 -129.5v-986q0 -71 -35 -129.5t-94 -93t-131 -34.5h-975q-72 0 -131.5 34.5t-94.5 93t-35 129.5v986q0 71 35 129.5t94.5 93t131.5 34.5z" />
    <glyph glyph-name="plus_uni20DD.liga" unicode="&#x2b;&#x20dd;" 
d="M986 641v-210h-173v210h-206v171h206v207h173v-207h205v-171h-205zM899 125q100 0 189 30t162.5 85t127 129t83 163.5t29.5 187.5t-29.5 187.5t-83 163.5t-127 129t-162.5 85t-189 30t-189 -30t-162 -85t-127 -129t-83 -163.5t-29 -187.5t29 -187.5t83 -163.5t127 -129
t162 -85t189 -30zM899 -55q-129 0 -245.5 39t-213.5 109.5t-167.5 167.5t-109.5 213.5t-39 245.5q0 130 39 246.5t109.5 213t167.5 167.5t213.5 110t245.5 39t245.5 -39t213.5 -110t167.5 -167.5t109.5 -213t39 -246.5q0 -129 -39 -245.5t-109.5 -213.5t-167.5 -167.5
t-213.5 -109.5t-245.5 -39z" />
    <glyph glyph-name="minus_uni20DD.liga" unicode="&#x2212;&#x20dd;" 
d="M1164 636h-530v178h530v-178zM899 125q100 0 189 30t162.5 85t127 129t83 163.5t29.5 187.5t-29.5 187.5t-83 163.5t-127 129t-162.5 85t-189 30t-189 -30t-162 -85t-127 -129t-83 -163.5t-29 -187.5t29 -187.5t83 -163.5t127 -129t162 -85t189 -30zM899 -55
q-129 0 -245.5 39t-213.5 109.5t-167.5 167.5t-109.5 213.5t-39 245.5q0 130 39 246.5t109.5 213t167.5 167.5t213.5 110t245.5 39t245.5 -39t213.5 -110t167.5 -167.5t109.5 -213t39 -246.5q0 -129 -39 -245.5t-109.5 -213.5t-167.5 -167.5t-213.5 -109.5t-245.5 -39z" />
    <glyph glyph-name="multiply_uni20DD.liga" unicode="&#xd7;&#x20dd;" 
d="M899 851l159 155l123 -126l-159 -155l159 -156l-123 -124l-159 155l-160 -155l-121 124l159 156l-160 156l122 125zM899 125q100 0 189 30t162.5 85t127 129t83 163.5t29.5 187.5t-29.5 187.5t-83 163.5t-127 129t-162.5 85t-189 30t-189 -30t-162 -85t-127 -129
t-83 -163.5t-29 -187.5t29 -187.5t83 -163.5t127 -129t162 -85t189 -30zM899 -55q-129 0 -245.5 39t-213.5 109.5t-167.5 167.5t-109.5 213.5t-39 245.5q0 130 39 246.5t109.5 213t167.5 167.5t213.5 110t245.5 39t245.5 -39t213.5 -110t167.5 -167.5t109.5 -213t39 -246.5
q0 -129 -39 -245.5t-109.5 -213.5t-167.5 -167.5t-213.5 -109.5t-245.5 -39z" />
    <glyph glyph-name="divide_uni20DD.liga" unicode="&#xf7;&#x20dd;" 
d="M1164 656h-530v138h530v-138zM802 949q0 40 28 65t69 25q42 0 70.5 -25t28.5 -65q0 -37 -28.5 -62t-70.5 -25q-41 0 -69 25t-28 62zM802 502q0 39 28 64t69 25q42 0 70.5 -25t28.5 -64q0 -38 -28.5 -63t-70.5 -25q-41 0 -69 25t-28 63zM899 125q100 0 189 30t162.5 85
t127 129t83 163.5t29.5 187.5t-29.5 187.5t-83 163.5t-127 129t-162.5 85t-189 30t-189 -30t-162 -85t-127 -129t-83 -163.5t-29 -187.5t29 -187.5t83 -163.5t127 -129t162 -85t189 -30zM899 -55q-129 0 -245.5 39t-213.5 109.5t-167.5 167.5t-109.5 213.5t-39 245.5
q0 130 39 246.5t109.5 213t167.5 167.5t213.5 110t245.5 39t245.5 -39t213.5 -110t167.5 -167.5t109.5 -213t39 -246.5q0 -129 -39 -245.5t-109.5 -213.5t-167.5 -167.5t-213.5 -109.5t-245.5 -39z" />
    <glyph glyph-name="equal_uni20DD.liga" unicode="&#x3d;&#x20dd;" 
d="M1172 514h-545v156h545v-156zM1172 779h-545v155h545v-155zM899 125q100 0 189 30t162.5 85t127 129t83 163.5t29.5 187.5t-29.5 187.5t-83 163.5t-127 129t-162.5 85t-189 30t-189 -30t-162 -85t-127 -129t-83 -163.5t-29 -187.5t29 -187.5t83 -163.5t127 -129t162 -85
t189 -30zM899 -55q-129 0 -245.5 39t-213.5 109.5t-167.5 167.5t-109.5 213.5t-39 245.5q0 130 39 246.5t109.5 213t167.5 167.5t213.5 110t245.5 39t245.5 -39t213.5 -110t167.5 -167.5t109.5 -213t39 -246.5q0 -129 -39 -245.5t-109.5 -213.5t-167.5 -167.5t-213.5 -109.5
t-245.5 -39z" />
    <glyph glyph-name="greater_uni20DD.liga" unicode="&#x3e;&#x20dd;" 
d="M1186 778v-112l-521 -252v189l284 118v8l-284 114v194zM899 125q100 0 189 30t162.5 85t127 129t83 163.5t29.5 187.5t-29.5 187.5t-83 163.5t-127 129t-162.5 85t-189 30t-189 -30t-162 -85t-127 -129t-83 -163.5t-29 -187.5t29 -187.5t83 -163.5t127 -129t162 -85
t189 -30zM899 -55q-129 0 -245.5 39t-213.5 109.5t-167.5 167.5t-109.5 213.5t-39 245.5q0 130 39 246.5t109.5 213t167.5 167.5t213.5 110t245.5 39t245.5 -39t213.5 -110t167.5 -167.5t109.5 -213t39 -246.5q0 -129 -39 -245.5t-109.5 -213.5t-167.5 -167.5t-213.5 -109.5
t-245.5 -39z" />
    <glyph glyph-name="less_uni20DD.liga" unicode="&#x3c;&#x20dd;" 
d="M613 666v112l521 259v-194l-285 -114v-8l285 -118v-189zM899 125q100 0 189 30t162.5 85t127 129t83 163.5t29.5 187.5t-29.5 187.5t-83 163.5t-127 129t-162.5 85t-189 30t-189 -30t-162 -85t-127 -129t-83 -163.5t-29 -187.5t29 -187.5t83 -163.5t127 -129t162 -85
t189 -30zM899 -55q-129 0 -245.5 39t-213.5 109.5t-167.5 167.5t-109.5 213.5t-39 245.5q0 130 39 246.5t109.5 213t167.5 167.5t213.5 110t245.5 39t245.5 -39t213.5 -110t167.5 -167.5t109.5 -213t39 -246.5q0 -129 -39 -245.5t-109.5 -213.5t-167.5 -167.5t-213.5 -109.5
t-245.5 -39z" />
    <glyph glyph-name="zero_uni20DD.liga" unicode="&#x30;&#x20dd;" 
d="M1193 777h-99l-20 -94h99l-26 -133h-100l-35 -170h-139l35 170h-93l-35 -170h-139l36 170h-97l26 133h97l20 94h-97l25 134h97l33 161h139l-34 -161h94l32 161h139l-32 -161h99zM852 788l-26 -125h119l25 125h-118zM899 125q100 0 189 30t162.5 85t127 129t83 163.5
t29.5 187.5t-29.5 187.5t-83 163.5t-127 129t-162.5 85t-189 30t-189 -30t-162 -85t-127 -129t-83 -163.5t-29 -187.5t29 -187.5t83 -163.5t127 -129t162 -85t189 -30zM899 -55q-129 0 -245.5 39t-213.5 109.5t-167.5 167.5t-109.5 213.5t-39 245.5q0 130 39 246.5
t109.5 213t167.5 167.5t213.5 110t245.5 39t245.5 -39t213.5 -110t167.5 -167.5t109.5 -213t39 -246.5q0 -129 -39 -245.5t-109.5 -213.5t-167.5 -167.5t-213.5 -109.5t-245.5 -39z" />
    <glyph glyph-name="triagdn_uni20DD.liga" unicode="&#x25bc;&#x20dd;" 
d="M1227 947l-328 -571l-327 571h655zM899 125q100 0 189 30t162.5 85t127 129t83 163.5t29.5 187.5t-29.5 187.5t-83 163.5t-127 129t-162.5 85t-189 30t-189 -30t-162 -85t-127 -129t-83 -163.5t-29 -187.5t29 -187.5t83 -163.5t127 -129t162 -85t189 -30zM899 -55
q-129 0 -245.5 39t-213.5 109.5t-167.5 167.5t-109.5 213.5t-39 245.5q0 130 39 246.5t109.5 213t167.5 167.5t213.5 110t245.5 39t245.5 -39t213.5 -110t167.5 -167.5t109.5 -213t39 -246.5q0 -129 -39 -245.5t-109.5 -213.5t-167.5 -167.5t-213.5 -109.5t-245.5 -39z" />
    <glyph glyph-name="triagup_uni20DD.liga" unicode="&#x25b2;&#x20dd;" 
d="M1227 504h-655l327 570zM899 125q100 0 189 30t162.5 85t127 129t83 163.5t29.5 187.5t-29.5 187.5t-83 163.5t-127 129t-162.5 85t-189 30t-189 -30t-162 -85t-127 -129t-83 -163.5t-29 -187.5t29 -187.5t83 -163.5t127 -129t162 -85t189 -30zM899 -55q-129 0 -245.5 39
t-213.5 109.5t-167.5 167.5t-109.5 213.5t-39 245.5q0 130 39 246.5t109.5 213t167.5 167.5t213.5 110t245.5 39t245.5 -39t213.5 -110t167.5 -167.5t109.5 -213t39 -246.5q0 -129 -39 -245.5t-109.5 -213.5t-167.5 -167.5t-213.5 -109.5t-245.5 -39z" />
    <glyph glyph-name="uni25C0_uni20DD.liga" unicode="&#x25c0;&#x20dd;" 
d="M1118 399l-568 329l568 328v-657zM899 125q100 0 189 30t162.5 85t127 129t83 163.5t29.5 187.5t-29.5 187.5t-83 163.5t-127 129t-162.5 85t-189 30t-189 -30t-162 -85t-127 -129t-83 -163.5t-29 -187.5t29 -187.5t83 -163.5t127 -129t162 -85t189 -30zM899 -55
q-129 0 -245.5 39t-213.5 109.5t-167.5 167.5t-109.5 213.5t-39 245.5q0 130 39 246.5t109.5 213t167.5 167.5t213.5 110t245.5 39t245.5 -39t213.5 -110t167.5 -167.5t109.5 -213t39 -246.5q0 -129 -39 -245.5t-109.5 -213.5t-167.5 -167.5t-213.5 -109.5t-245.5 -39z" />
    <glyph glyph-name="uni25B6_uni20DD.liga" unicode="&#x25b6;&#x20dd;" 
d="M681 399v657l568 -328zM899 125q100 0 189 30t162.5 85t127 129t83 163.5t29.5 187.5t-29.5 187.5t-83 163.5t-127 129t-162.5 85t-189 30t-189 -30t-162 -85t-127 -129t-83 -163.5t-29 -187.5t29 -187.5t83 -163.5t127 -129t162 -85t189 -30zM899 -55q-129 0 -245.5 39
t-213.5 109.5t-167.5 167.5t-109.5 213.5t-39 245.5q0 130 39 246.5t109.5 213t167.5 167.5t213.5 110t245.5 39t245.5 -39t213.5 -110t167.5 -167.5t109.5 -213t39 -246.5q0 -129 -39 -245.5t-109.5 -213.5t-167.5 -167.5t-213.5 -109.5t-245.5 -39z" />
    <glyph glyph-name="question_uni20DD.liga" unicode="&#x3f;&#x20dd;" 
d="M776 461q0 43 31 67t84 24q52 0 83 -24t31 -67q0 -41 -30.5 -65.5t-83.5 -24.5t-84 24.5t-31 65.5zM799 605q-2 4 -2 15.5v15.5q-2 50 22 86.5t65 62.5q42 28 62 47.5t20 44.5q0 30 -20.5 44.5t-48.5 14.5q-33 0 -52 -20t-20 -49h-175q-1 75 33 123t94 71.5t136 23.5
q71 0 127.5 -23.5t89 -68.5t32.5 -108q0 -60 -28.5 -97.5t-73.5 -66.5q-37 -25 -57 -40.5t-27.5 -29t-7.5 -34.5v-12h-169zM899 125q100 0 189 30t162.5 85t127 129t83 163.5t29.5 187.5t-29.5 187.5t-83 163.5t-127 129t-162.5 85t-189 30t-189 -30t-162 -85t-127 -129
t-83 -163.5t-29 -187.5t29 -187.5t83 -163.5t127 -129t162 -85t189 -30zM899 -55q-129 0 -245.5 39t-213.5 109.5t-167.5 167.5t-109.5 213.5t-39 245.5q0 130 39 246.5t109.5 213t167.5 167.5t213.5 110t245.5 39t245.5 -39t213.5 -110t167.5 -167.5t109.5 -213t39 -246.5
q0 -129 -39 -245.5t-109.5 -213.5t-167.5 -167.5t-213.5 -109.5t-245.5 -39z" />
    <glyph glyph-name="exclam_uni20DD.liga" unicode="&#x21;&#x20dd;" 
d="M788 461q0 43 31 67.5t84 24.5t83.5 -24.5t30.5 -67.5q0 -41 -30.5 -65.5t-83.5 -24.5t-84 24.5t-31 65.5zM797 1074h213l-23 -456h-168zM899 125q100 0 189 30t162.5 85t127 129t83 163.5t29.5 187.5t-29.5 187.5t-83 163.5t-127 129t-162.5 85t-189 30t-189 -30
t-162 -85t-127 -129t-83 -163.5t-29 -187.5t29 -187.5t83 -163.5t127 -129t162 -85t189 -30zM899 -55q-129 0 -245.5 39t-213.5 109.5t-167.5 167.5t-109.5 213.5t-39 245.5q0 130 39 246.5t109.5 213t167.5 167.5t213.5 110t245.5 39t245.5 -39t213.5 -110t167.5 -167.5
t109.5 -213t39 -246.5q0 -129 -39 -245.5t-109.5 -213.5t-167.5 -167.5t-213.5 -109.5t-245.5 -39z" />
    <glyph glyph-name="uni2717_uni20DD.liga" unicode="&#x2717;&#x20dd;" 
d="M903 846l226 222l119 -122l-225 -223l225 -222l-119 -123l-226 221l-227 -222l-119 123l226 223l-225 223l118 123zM899 125q100 0 189 30t162.5 85t127 129t83 163.5t29.5 187.5t-29.5 187.5t-83 163.5t-127 129t-162.5 85t-189 30t-189 -30t-162 -85t-127 -129
t-83 -163.5t-29 -187.5t29 -187.5t83 -163.5t127 -129t162 -85t189 -30zM899 -55q-129 0 -245.5 39t-213.5 109.5t-167.5 167.5t-109.5 213.5t-39 245.5q0 130 39 246.5t109.5 213t167.5 167.5t213.5 110t245.5 39t245.5 -39t213.5 -110t167.5 -167.5t109.5 -213t39 -246.5
q0 -129 -39 -245.5t-109.5 -213.5t-167.5 -167.5t-213.5 -109.5t-245.5 -39z" />
    <glyph glyph-name="uni2713_uni20DD.liga" unicode="&#x2713;&#x20dd;" 
d="M1327 907l-543 -532l-311 308l125 126l188 -187l419 415zM899 125q100 0 189 30t162.5 85t127 129t83 163.5t29.5 187.5t-29.5 187.5t-83 163.5t-127 129t-162.5 85t-189 30t-189 -30t-162 -85t-127 -129t-83 -163.5t-29 -187.5t29 -187.5t83 -163.5t127 -129t162 -85
t189 -30zM899 -55q-129 0 -245.5 39t-213.5 109.5t-167.5 167.5t-109.5 213.5t-39 245.5q0 130 39 246.5t109.5 213t167.5 167.5t213.5 110t245.5 39t245.5 -39t213.5 -110t167.5 -167.5t109.5 -213t39 -246.5q0 -129 -39 -245.5t-109.5 -213.5t-167.5 -167.5t-213.5 -109.5
t-245.5 -39z" />
    <glyph glyph-name="zero_uni20DE.liga" unicode="&#x30;&#x20de;" 
d="M899 529q46 0 74.5 47.5t28.5 150.5t-28.5 150t-74.5 47t-74 -47t-28 -150t28 -150.5t74 -47.5zM897 370q-87 0 -152.5 42.5t-101.5 122.5t-36 192t36 192t101.5 122.5t152.5 42.5t153.5 -42.5t103.5 -122.5t37 -192t-37 -192t-103.5 -122.5t-153.5 -42.5zM412 1472h975
q72 0 131 -34.5t94 -93t35 -129.5v-986q0 -71 -35 -129.5t-94 -93t-131 -34.5h-975q-72 0 -131.5 34.5t-94.5 93t-35 129.5v986q0 71 35 129.5t94.5 93t131.5 34.5zM1467 1174q0 36 -18 64.5t-48 45.5t-67 17h-870q-37 0 -67 -16.5t-48 -45.5t-18 -65v-904q0 -35 18 -64
t48.5 -46t66.5 -17h870q37 0 67 17t48 46t18 64v904z" />
    <glyph glyph-name="one_uni20DE.liga" unicode="&#x31;&#x20de;" 
d="M1039 382h-201v510h-10l-157 -106v177l167 111h201v-692zM412 1472h975q72 0 131 -34.5t94 -93t35 -129.5v-986q0 -71 -35 -129.5t-94 -93t-131 -34.5h-975q-72 0 -131.5 34.5t-94.5 93t-35 129.5v986q0 71 35 129.5t94.5 93t131.5 34.5zM1467 1174q0 36 -18 64.5
t-48 45.5t-67 17h-870q-37 0 -67 -16.5t-48 -45.5t-18 -65v-904q0 -35 18 -64t48.5 -46t66.5 -17h870q37 0 67 17t48 46t18 64v904z" />
    <glyph glyph-name="two_uni20DE.liga" unicode="&#x32;&#x20de;" 
d="M815 845h-186v3q0 67 32 120.5t92.5 85t147.5 31.5q79 0 138 -26.5t92 -73t33 -106.5q0 -59 -35 -108.5t-96 -106.5l-121 -114v-8h263v-161h-534v127l249 235q36 35 56.5 61.5t20.5 56.5q0 29 -21 47t-53 18q-38 0 -58.5 -22t-19.5 -56v-2v-1zM412 1472h975
q72 0 131 -34.5t94 -93t35 -129.5v-986q0 -71 -35 -129.5t-94 -93t-131 -34.5h-975q-72 0 -131.5 34.5t-94.5 93t-35 129.5v986q0 71 35 129.5t94.5 93t131.5 34.5zM1467 1174q0 36 -18 64.5t-48 45.5t-67 17h-870q-37 0 -67 -16.5t-48 -45.5t-18 -65v-904q0 -35 18 -64
t48.5 -46t66.5 -17h870q37 0 67 17t48 46t18 64v904z" />
    <glyph glyph-name="three_uni20DE.liga" unicode="&#x33;&#x20de;" 
d="M824 659v149h70q37 0 60.5 19t23.5 50q0 28 -23.5 45t-60.5 17q-41 0 -65 -21.5t-26 -53.5h-183q4 103 74.5 162t202.5 59q82 0 143 -23.5t94.5 -65t34.5 -96.5q0 -40 -20 -72t-50.5 -52t-61.5 -25v-10q37 -3 71 -23t56.5 -55.5t22.5 -84.5q0 -64 -37 -110.5t-103 -71.5
t-152 -25q-87 0 -150 28.5t-97.5 78.5t-35.5 115h183q2 -32 29 -52t70 -21q45 0 72 19.5t27 50.5q-1 31 -26.5 50t-70.5 19h-72zM412 1472h975q72 0 131 -34.5t94 -93t35 -129.5v-986q0 -71 -35 -129.5t-94 -93t-131 -34.5h-975q-72 0 -131.5 34.5t-94.5 93t-35 129.5v986
q0 71 35 129.5t94.5 93t131.5 34.5zM1467 1174q0 36 -18 64.5t-48 45.5t-67 17h-870q-37 0 -67 -16.5t-48 -45.5t-18 -65v-904q0 -35 18 -64t48.5 -46t66.5 -17h870q37 0 67 17t48 46t18 64v904z" />
    <glyph glyph-name="four_uni20DE.liga" unicode="&#x34;&#x20de;" 
d="M833 1074h271v-428h95v-152h-95v-112h-168v112h-346v155q56 109 115.5 211t127.5 214zM762 646h174v287h-14q-47 -81 -86 -148.5t-74 -136.5v-2zM412 1472h975q72 0 131 -34.5t94 -93t35 -129.5v-986q0 -71 -35 -129.5t-94 -93t-131 -34.5h-975q-72 0 -131.5 34.5
t-94.5 93t-35 129.5v986q0 71 35 129.5t94.5 93t131.5 34.5zM1467 1174q0 36 -18 64.5t-48 45.5t-67 17h-870q-37 0 -67 -16.5t-48 -45.5t-18 -65v-904q0 -35 18 -64t48.5 -46t66.5 -17h870q37 0 67 17t48 46t18 64v904z" />
    <glyph glyph-name="five_uni20DE.liga" unicode="&#x35;&#x20de;" 
d="M630 591h185q6 -31 33.5 -47t61.5 -16q38 0 67.5 26t29.5 69q0 40 -29 65t-69 25q-33 0 -55.5 -14.5t-32.5 -32.5h-177l27 414h481v-147h-330l-12 -147h9q14 25 53.5 45t96.5 20q66 0 117.5 -26.5t81.5 -76.5t30 -119q0 -77 -35.5 -134t-100.5 -88t-154 -31
q-81 0 -143.5 27.5t-98 76t-36.5 111.5zM412 1472h975q72 0 131 -34.5t94 -93t35 -129.5v-986q0 -71 -35 -129.5t-94 -93t-131 -34.5h-975q-72 0 -131.5 34.5t-94.5 93t-35 129.5v986q0 71 35 129.5t94.5 93t131.5 34.5zM1467 1174q0 36 -18 64.5t-48 45.5t-67 17h-870
q-37 0 -67 -16.5t-48 -45.5t-18 -65v-904q0 -35 18 -64t48.5 -46t66.5 -17h870q37 0 67 17t48 46t18 64v904z" />
    <glyph glyph-name="six_uni20DE.liga" unicode="&#x36;&#x20de;" 
d="M933 370q-97 0 -172.5 39.5t-118.5 119t-43 199.5q0 110 40.5 190.5t115 124.5t176.5 44q78 0 143 -26.5t106.5 -72.5t49.5 -106h-201q-7 24 -33.5 39t-63.5 15q-67 0 -103 -52.5t-35 -139.5h11q24 46 73 70.5t113 24.5q72 0 128 -29t88.5 -79t32.5 -114
q0 -72 -39.5 -127.5t-108.5 -87.5t-159 -32zM931 521q48 0 79.5 27t31.5 66t-30.5 65.5t-80.5 26.5t-80.5 -27t-30.5 -64q0 -40 31.5 -67t79.5 -27zM412 1472h975q72 0 131 -34.5t94 -93t35 -129.5v-986q0 -71 -35 -129.5t-94 -93t-131 -34.5h-975q-72 0 -131.5 34.5
t-94.5 93t-35 129.5v986q0 71 35 129.5t94.5 93t131.5 34.5zM1467 1174q0 36 -18 64.5t-48 45.5t-67 17h-870q-37 0 -67 -16.5t-48 -45.5t-18 -65v-904q0 -35 18 -64t48.5 -46t66.5 -17h870q37 0 67 17t48 46t18 64v904z" />
    <glyph glyph-name="seven_uni20DE.liga" unicode="&#x37;&#x20de;" 
d="M632 1074h543v-162l-274 -530h-213l284 524v8h-340v160zM412 1472h975q72 0 131 -34.5t94 -93t35 -129.5v-986q0 -71 -35 -129.5t-94 -93t-131 -34.5h-975q-72 0 -131.5 34.5t-94.5 93t-35 129.5v986q0 71 35 129.5t94.5 93t131.5 34.5zM1467 1174q0 36 -18 64.5
t-48 45.5t-67 17h-870q-37 0 -67 -16.5t-48 -45.5t-18 -65v-904q0 -35 18 -64t48.5 -46t66.5 -17h870q37 0 67 17t48 46t18 64v904z" />
    <glyph glyph-name="eight_uni20DE.liga" unicode="&#x38;&#x20de;" 
d="M899 506q44 0 73 24t29 62t-28.5 63t-73.5 25q-44 0 -73 -25t-29 -63t29 -62t73 -24zM899 803q37 0 60.5 21t23.5 53q0 31 -24 52t-60 21t-60 -21t-24 -52q0 -32 24 -53t60 -21zM898 370q-93 0 -161 25.5t-105.5 72t-37.5 109.5q0 66 42.5 110.5t113.5 55.5v9
q-127 37 -127 147q0 56 34 98t96 65t146 23t146 -23t96 -65t34 -98q0 -112 -127 -147v-9q71 -11 113.5 -55.5t42.5 -110.5q0 -63 -37.5 -109.5t-106.5 -72t-162 -25.5zM412 1472h975q72 0 131 -34.5t94 -93t35 -129.5v-986q0 -71 -35 -129.5t-94 -93t-131 -34.5h-975
q-72 0 -131.5 34.5t-94.5 93t-35 129.5v986q0 71 35 129.5t94.5 93t131.5 34.5zM1467 1174q0 36 -18 64.5t-48 45.5t-67 17h-870q-37 0 -67 -16.5t-48 -45.5t-18 -65v-904q0 -35 18 -64t48.5 -46t66.5 -17h870q37 0 67 17t48 46t18 64v904z" />
    <glyph glyph-name="nine_uni20DE.liga" unicode="&#x39;&#x20de;" 
d="M906 370q-77 0 -141.5 26t-106 72t-50.5 105h202q7 -23 34.5 -37.5t64.5 -14.5q65 0 102 53.5t33 138.5h-10q-24 -47 -72.5 -71t-113.5 -24q-72 0 -128.5 29t-88.5 79t-32 114q0 72 39 127.5t108.5 87.5t159.5 32q107 0 181.5 -45.5t113.5 -126t39 -186.5
q0 -110 -40.5 -190.5t-115.5 -124.5t-178 -44zM908 755q49 0 80 25.5t31 62.5q0 39 -31 66t-80 27t-80 -27t-31 -64q0 -39 31 -64.5t80 -25.5zM412 1472h975q72 0 131 -34.5t94 -93t35 -129.5v-986q0 -71 -35 -129.5t-94 -93t-131 -34.5h-975q-72 0 -131.5 34.5t-94.5 93
t-35 129.5v986q0 71 35 129.5t94.5 93t131.5 34.5zM1467 1174q0 36 -18 64.5t-48 45.5t-67 17h-870q-37 0 -67 -16.5t-48 -45.5t-18 -65v-904q0 -35 18 -64t48.5 -46t66.5 -17h870q37 0 67 17t48 46t18 64v904z" />
    <glyph glyph-name="plus_uni20DE.liga" unicode="&#x2b;&#x20de;" 
d="M986 641v-210h-173v210h-206v171h206v207h173v-207h205v-171h-205zM412 1472h975q72 0 131 -34.5t94 -93t35 -129.5v-986q0 -71 -35 -129.5t-94 -93t-131 -34.5h-975q-72 0 -131.5 34.5t-94.5 93t-35 129.5v986q0 71 35 129.5t94.5 93t131.5 34.5zM1467 1174
q0 36 -18 64.5t-48 45.5t-67 17h-870q-37 0 -67 -16.5t-48 -45.5t-18 -65v-904q0 -35 18 -64t48.5 -46t66.5 -17h870q37 0 67 17t48 46t18 64v904z" />
    <glyph glyph-name="minus_uni20DE.liga" unicode="&#x2212;&#x20de;" 
d="M1164 636h-530v178h530v-178zM412 1472h975q72 0 131 -34.5t94 -93t35 -129.5v-986q0 -71 -35 -129.5t-94 -93t-131 -34.5h-975q-72 0 -131.5 34.5t-94.5 93t-35 129.5v986q0 71 35 129.5t94.5 93t131.5 34.5zM1467 1174q0 36 -18 64.5t-48 45.5t-67 17h-870
q-37 0 -67 -16.5t-48 -45.5t-18 -65v-904q0 -35 18 -64t48.5 -46t66.5 -17h870q37 0 67 17t48 46t18 64v904z" />
    <glyph glyph-name="multiply_uni20DE.liga" unicode="&#xd7;&#x20de;" 
d="M899 851l159 156l123 -125l-160 -156l160 -156l-123 -126l-159 156l-160 -156l-122 126l159 156l-159 156l122 125zM412 1472h975q72 0 131 -34.5t94 -93t35 -129.5v-986q0 -71 -35 -129.5t-94 -93t-131 -34.5h-975q-72 0 -131.5 34.5t-94.5 93t-35 129.5v986
q0 71 35 129.5t94.5 93t131.5 34.5zM1467 1174q0 36 -18 64.5t-48 45.5t-67 17h-870q-37 0 -67 -16.5t-48 -45.5t-18 -65v-904q0 -35 18 -64t48.5 -46t66.5 -17h870q37 0 67 17t48 46t18 64v904z" />
    <glyph glyph-name="divide_uni20DE.liga" unicode="&#xf7;&#x20de;" 
d="M1164 656h-530v138h530v-138zM802 949q0 40 28 65t69 25q42 0 70.5 -25t28.5 -65q0 -37 -28.5 -62t-70.5 -25q-41 0 -69 25t-28 62zM802 502q0 39 28 64t69 25q42 0 70.5 -25t28.5 -64q0 -38 -28.5 -63t-70.5 -25q-41 0 -69 25t-28 63zM412 1472h975q72 0 131 -34.5
t94 -93t35 -129.5v-986q0 -71 -35 -129.5t-94 -93t-131 -34.5h-975q-72 0 -131.5 34.5t-94.5 93t-35 129.5v986q0 71 35 129.5t94.5 93t131.5 34.5zM1467 1174q0 36 -18 64.5t-48 45.5t-67 17h-870q-37 0 -67 -16.5t-48 -45.5t-18 -65v-904q0 -35 18 -64t48.5 -46t66.5 -17
h870q37 0 67 17t48 46t18 64v904z" />
    <glyph glyph-name="equal_uni20DE.liga" unicode="&#x3d;&#x20de;" 
d="M1172 514h-545v156h545v-156zM1172 779h-545v155h545v-155zM412 1472h975q72 0 131 -34.5t94 -93t35 -129.5v-986q0 -71 -35 -129.5t-94 -93t-131 -34.5h-975q-72 0 -131.5 34.5t-94.5 93t-35 129.5v986q0 71 35 129.5t94.5 93t131.5 34.5zM1467 1174q0 36 -18 64.5
t-48 45.5t-67 17h-870q-37 0 -67 -16.5t-48 -45.5t-18 -65v-904q0 -35 18 -64t48.5 -46t66.5 -17h870q37 0 67 17t48 46t18 64v904z" />
    <glyph glyph-name="greater_uni20DE.liga" unicode="&#x3e;&#x20de;" 
d="M1186 778v-112l-521 -252v189l284 118v8l-284 114v194zM412 1472h975q72 0 131 -34.5t94 -93t35 -129.5v-986q0 -71 -35 -129.5t-94 -93t-131 -34.5h-975q-72 0 -131.5 34.5t-94.5 93t-35 129.5v986q0 71 35 129.5t94.5 93t131.5 34.5zM1467 1174q0 36 -18 64.5t-48 45.5
t-67 17h-870q-37 0 -67 -16.5t-48 -45.5t-18 -65v-904q0 -35 18 -64t48.5 -46t66.5 -17h870q37 0 67 17t48 46t18 64v904z" />
    <glyph glyph-name="less_uni20DE.liga" unicode="&#x3c;&#x20de;" 
d="M613 666v112l521 259v-194l-285 -114v-8l285 -118v-189zM412 1472h975q72 0 131 -34.5t94 -93t35 -129.5v-986q0 -71 -35 -129.5t-94 -93t-131 -34.5h-975q-72 0 -131.5 34.5t-94.5 93t-35 129.5v986q0 71 35 129.5t94.5 93t131.5 34.5zM1467 1174q0 36 -18 64.5
t-48 45.5t-67 17h-870q-37 0 -67 -16.5t-48 -45.5t-18 -65v-904q0 -35 18 -64t48.5 -46t66.5 -17h870q37 0 67 17t48 46t18 64v904z" />
    <glyph glyph-name="numbersign_uni20DE.liga" unicode="&#x23;&#x20de;" 
d="M1193 777h-99l-20 -94h99l-26 -133h-100l-35 -170h-139l35 170h-93l-35 -170h-139l36 170h-97l26 133h97l20 94h-97l25 134h97l33 161h139l-34 -161h94l32 161h139l-32 -161h99zM852 788l-26 -125h119l25 125h-118zM412 1472h975q72 0 131 -34.5t94 -93t35 -129.5v-986
q0 -71 -35 -129.5t-94 -93t-131 -34.5h-975q-72 0 -131.5 34.5t-94.5 93t-35 129.5v986q0 71 35 129.5t94.5 93t131.5 34.5zM1467 1174q0 36 -18 64.5t-48 45.5t-67 17h-870q-37 0 -67 -16.5t-48 -45.5t-18 -65v-904q0 -35 18 -64t48.5 -46t66.5 -17h870q37 0 67 17t48 46
t18 64v904z" />
    <glyph glyph-name="triagdn_uni20DE.liga" unicode="&#x25bc;&#x20de;" 
d="M1228 947l-328 -571l-328 571h656zM412 1472h975q72 0 131 -34.5t94 -93t35 -129.5v-986q0 -71 -35 -129.5t-94 -93t-131 -34.5h-975q-72 0 -131.5 34.5t-94.5 93t-35 129.5v986q0 71 35 129.5t94.5 93t131.5 34.5zM1467 1174q0 36 -18 64.5t-48 45.5t-67 17h-870
q-37 0 -67 -16.5t-48 -45.5t-18 -65v-904q0 -35 18 -64t48.5 -46t66.5 -17h870q37 0 67 17t48 46t18 64v904z" />
    <glyph glyph-name="triagup_uni20DE.liga" unicode="&#x25b2;&#x20de;" 
d="M1227 504h-655l327 570zM412 1472h975q72 0 131 -34.5t94 -93t35 -129.5v-986q0 -71 -35 -129.5t-94 -93t-131 -34.5h-975q-72 0 -131.5 34.5t-94.5 93t-35 129.5v986q0 71 35 129.5t94.5 93t131.5 34.5zM1467 1174q0 36 -18 64.5t-48 45.5t-67 17h-870q-37 0 -67 -16.5
t-48 -45.5t-18 -65v-904q0 -35 18 -64t48.5 -46t66.5 -17h870q37 0 67 17t48 46t18 64v904z" />
    <glyph glyph-name="uni25C0_uni20DE.liga" unicode="&#x25c0;&#x20de;" 
d="M1118 399l-568 329l568 328v-657zM412 1472h975q72 0 131 -34.5t94 -93t35 -129.5v-986q0 -71 -35 -129.5t-94 -93t-131 -34.5h-975q-72 0 -131.5 34.5t-94.5 93t-35 129.5v986q0 71 35 129.5t94.5 93t131.5 34.5zM1467 1174q0 36 -18 64.5t-48 45.5t-67 17h-870
q-37 0 -67 -16.5t-48 -45.5t-18 -65v-904q0 -35 18 -64t48.5 -46t66.5 -17h870q37 0 67 17t48 46t18 64v904z" />
    <glyph glyph-name="uni25B6_uni20DE.liga" unicode="&#x25b6;&#x20de;" 
d="M681 399v657l568 -328zM412 1472h975q72 0 131 -34.5t94 -93t35 -129.5v-986q0 -71 -35 -129.5t-94 -93t-131 -34.5h-975q-72 0 -131.5 34.5t-94.5 93t-35 129.5v986q0 71 35 129.5t94.5 93t131.5 34.5zM1467 1174q0 36 -18 64.5t-48 45.5t-67 17h-870q-37 0 -67 -16.5
t-48 -45.5t-18 -65v-904q0 -35 18 -64t48.5 -46t66.5 -17h870q37 0 67 17t48 46t18 64v904z" />
    <glyph glyph-name="question_uni20DE.liga" unicode="&#x3f;&#x20de;" 
d="M776 461q0 43 31 67t84 24q52 0 83 -24t31 -67q0 -41 -30.5 -65.5t-83.5 -24.5t-84 24.5t-31 65.5zM650 867q-1 75 33 123t94 71.5t136 23.5q71 0 127.5 -23.5t89 -68.5t32.5 -108q0 -60 -28.5 -97.5t-73.5 -66.5q-37 -25 -57 -40.5t-27.5 -29t-7.5 -34.5v-12h-169
q-2 4 -2 15.5v15.5q-2 50 22 86.5t65 62.5q42 28 62 47.5t20 44.5q0 30 -20.5 44.5t-48.5 14.5q-33 0 -52 -20t-20 -49h-175zM412 1472h975q72 0 131 -34.5t94 -93t35 -129.5v-986q0 -71 -35 -129.5t-94 -93t-131 -34.5h-975q-72 0 -131.5 34.5t-94.5 93t-35 129.5v986
q0 71 35 129.5t94.5 93t131.5 34.5zM1467 1174q0 36 -18 64.5t-48 45.5t-67 17h-870q-37 0 -67 -16.5t-48 -45.5t-18 -65v-904q0 -35 18 -64t48.5 -46t66.5 -17h870q37 0 67 17t48 46t18 64v904z" />
    <glyph glyph-name="exclam_uni20DE.liga" unicode="&#x21;&#x20de;" 
d="M788 461q0 43 31 67.5t84 24.5t83.5 -24.5t30.5 -67.5q0 -41 -30.5 -65.5t-83.5 -24.5t-84 24.5t-31 65.5zM797 1074h213l-23 -456h-168zM412 1472h975q72 0 131 -34.5t94 -93t35 -129.5v-986q0 -71 -35 -129.5t-94 -93t-131 -34.5h-975q-72 0 -131.5 34.5t-94.5 93
t-35 129.5v986q0 71 35 129.5t94.5 93t131.5 34.5zM1467 1174q0 36 -18 64.5t-48 45.5t-67 17h-870q-37 0 -67 -16.5t-48 -45.5t-18 -65v-904q0 -35 18 -64t48.5 -46t66.5 -17h870q37 0 67 17t48 46t18 64v904z" />
    <glyph glyph-name="uni2717_uni20DE.liga" unicode="&#x2717;&#x20de;" 
d="M903 846l226 222l119 -122l-225 -223l225 -222l-119 -123l-226 221l-227 -222l-119 123l226 223l-225 223l118 123zM412 1472h975q72 0 131 -34.5t94 -93t35 -129.5v-986q0 -71 -35 -129.5t-94 -93t-131 -34.5h-975q-72 0 -131.5 34.5t-94.5 93t-35 129.5v986
q0 71 35 129.5t94.5 93t131.5 34.5zM1467 1174q0 36 -18 64.5t-48 45.5t-67 17h-870q-37 0 -67 -16.5t-48 -45.5t-18 -65v-904q0 -35 18 -64t48.5 -46t66.5 -17h870q37 0 67 17t48 46t18 64v904z" />
    <glyph glyph-name="uni2713_uni20DE.liga" unicode="&#x2713;&#x20de;" 
d="M1327 907l-543 -532l-311 308l125 126l188 -187l419 415zM412 1472h975q72 0 131 -34.5t94 -93t35 -129.5v-986q0 -71 -35 -129.5t-94 -93t-131 -34.5h-975q-72 0 -131.5 34.5t-94.5 93t-35 129.5v986q0 71 35 129.5t94.5 93t131.5 34.5zM1467 1174q0 36 -18 64.5
t-48 45.5t-67 17h-870q-37 0 -67 -16.5t-48 -45.5t-18 -65v-904q0 -35 18 -64t48.5 -46t66.5 -17h870q37 0 67 17t48 46t18 64v904z" />
    <glyph glyph-name="plus_uni20DD_H18533.liga" unicode="&#x2b;&#x20dd;&#x25cf;" 
d="M995 632h222v188h-222v223h-192v-223h-222v-188h222v-226h192v226zM899 -53q-128 0 -244 39t-212.5 110.5t-168 168.5t-110.5 213t-39 244t39 244t110.5 212.5t168 168t212.5 110.5t244 39t244 -39t213 -110.5t168 -168t110.5 -212.5t39.5 -244t-39.5 -244t-110.5 -213
t-168 -168.5t-213 -110.5t-244 -39z" />
    <glyph glyph-name="minus_uni20DD_H18533.liga" unicode="&#x2212;&#x20dd;&#x25cf;" 
d="M1188 626v196h-578v-196h578zM899 -53q-128 0 -244 39t-212.5 110.5t-168 168.5t-110.5 213t-39 244t39 244t110.5 212.5t168 168t212.5 110.5t244 39t244 -39t213 -110.5t168 -168t110.5 -212.5t39.5 -244t-39.5 -244t-110.5 -213t-168 -168.5t-213 -110.5t-244 -39z
" />
    <glyph glyph-name="multiply_uni20DD_H18533.liga" unicode="&#xd7;&#x20dd;&#x25cf;" 
d="M899 863l-173 169l-135 -139l172 -168l-172 -168l135 -138l173 167l172 -167l136 138l-173 168l173 168l-136 139zM899 -53q-128 0 -244 39t-212.5 110.5t-168 168.5t-110.5 213t-39 244t39 244t110.5 212.5t168 168t212.5 110.5t244 39t244 -39t213 -110.5t168 -168
t110.5 -212.5t39.5 -244t-39.5 -244t-110.5 -213t-168 -168.5t-213 -110.5t-244 -39z" />
    <glyph glyph-name="divide_uni20DD_H18533.liga" unicode="&#xf7;&#x20dd;&#x25cf;" 
d="M791 966q0 -42 31 -69.5t77 -27.5t77.5 27.5t31.5 69.5q0 44 -31.5 71.5t-77.5 27.5t-77 -27.5t-31 -71.5zM1188 648v153h-578v-153h578zM791 484q0 -42 31 -69.5t77 -27.5t77.5 27.5t31.5 69.5q0 44 -31.5 71.5t-77.5 27.5t-77 -27.5t-31 -71.5zM899 -53q-128 0 -244 39
t-212.5 110.5t-168 168.5t-110.5 213t-39 244t39 244t110.5 212.5t168 168t212.5 110.5t244 39t244 -39t213 -110.5t168 -168t110.5 -212.5t39.5 -244t-39.5 -244t-110.5 -213t-168 -168.5t-213 -110.5t-244 -39z" />
    <glyph glyph-name="equal_uni20DD_H18533.liga" unicode="&#x3d;&#x20dd;&#x25cf;" 
d="M1195 783v170h-592v-170h592zM1195 494v169h-592v-169h592zM899 -53q-128 0 -244 39t-212.5 110.5t-168 168.5t-110.5 213t-39 244t39 244t110.5 212.5t168 168t212.5 110.5t244 39t244 -39t213 -110.5t168 -168t110.5 -212.5t39.5 -244t-39.5 -244t-110.5 -213
t-168 -168.5t-213 -110.5t-244 -39z" />
    <glyph glyph-name="greater_uni20DD_H18533.liga" unicode="&#x3e;&#x20dd;&#x25cf;" 
d="M1206 783l-569 283v-205l308 -136v-3l-308 -140v-198l569 275v124zM899 -53q-128 0 -244 39t-212.5 110.5t-168 168.5t-110.5 213t-39 244t39 244t110.5 212.5t168 168t212.5 110.5t244 39t244 -39t213 -110.5t168 -168t110.5 -212.5t39.5 -244t-39.5 -244t-110.5 -213
t-168 -168.5t-213 -110.5t-244 -39z" />
    <glyph glyph-name="less_uni20DD_H18533.liga" unicode="&#x3c;&#x20dd;&#x25cf;" 
d="M589 659l568 -275v198l-307 140v3l307 136v205l-568 -283v-124zM899 -53q-128 0 -244 39t-212.5 110.5t-168 168.5t-110.5 213t-39 244t39 244t110.5 212.5t168 168t212.5 110.5t244 39t244 -39t213 -110.5t168 -168t110.5 -212.5t39.5 -244t-39.5 -244t-110.5 -213
t-168 -168.5t-213 -110.5t-244 -39z" />
    <glyph glyph-name="numbersign_uni20DD_H18533.liga" unicode="&#x23;&#x20dd;&#x25cf;" 
d="M843 798h135l-29 -144h-135zM1217 778l29 150h-108l35 174h-158l-34 -174h-93l37 174h-159l-34 -174h-105l-29 -150h105l-20 -93h-105l-29 -152h103l-37 -183h157l39 183h91l-38 -183h158l37 183h109l29 152h-106q0 5 4.5 25.5l9 41t5.5 26.5h107zM899 -53
q-128 0 -244 39t-212.5 110.5t-168 168.5t-110.5 213t-39 244t39 244t110.5 212.5t168 168t212.5 110.5t244 39t244 -39t213 -110.5t168 -168t110.5 -212.5t39.5 -244t-39.5 -244t-110.5 -213t-168 -168.5t-213 -110.5t-244 -39z" />
    <glyph glyph-name="triagdn_uni20DD_H18533.liga" unicode="&#x25bc;&#x20dd;&#x25cf;" 
d="M1249 981h-698l348 -604zM899 -53q-128 0 -244 39t-212.5 110.5t-168 168.5t-110.5 213t-39 244t39 244t110.5 212.5t168 168t212.5 110.5t244 39t244 -39t213 -110.5t168 -168t110.5 -212.5t39.5 -244t-39.5 -244t-110.5 -213t-168 -168.5t-213 -110.5t-244 -39z" />
    <glyph glyph-name="triagup_uni20DD_H18533.liga" unicode="&#x25b2;&#x20dd;&#x25cf;" 
d="M1249 488l-350 604l-348 -604h698zM899 -53q-128 0 -244 39t-212.5 110.5t-168 168.5t-110.5 213t-39 244t39 244t110.5 212.5t168 168t212.5 110.5t244 39t244 -39t213 -110.5t168 -168t110.5 -212.5t39.5 -244t-39.5 -244t-110.5 -213t-168 -168.5t-213 -110.5
t-244 -39z" />
    <glyph glyph-name="uni25C0_uni20DD_H18533.liga" unicode="&#x25c0;&#x20dd;&#x25cf;" 
d="M1136 386v697l-605 -348zM899 -53q-128 0 -244 39t-212.5 110.5t-168 168.5t-110.5 213t-39 244t39 244t110.5 212.5t168 168t212.5 110.5t244 39t244 -39t213 -110.5t168 -168t110.5 -212.5t39.5 -244t-39.5 -244t-110.5 -213t-168 -168.5t-213 -110.5t-244 -39z" />
    <glyph glyph-name="uni25B6_uni20DD_H18533.liga" unicode="&#x25b6;&#x20dd;&#x25cf;" 
d="M662 386l605 349l-605 348v-697zM899 -53q-128 0 -244 39t-212.5 110.5t-168 168.5t-110.5 213t-39 244t39 244t110.5 212.5t168 168t212.5 110.5t244 39t244 -39t213 -110.5t168 -168t110.5 -212.5t39.5 -244t-39.5 -244t-110.5 -213t-168 -168.5t-213 -110.5t-244 -39z
" />
    <glyph glyph-name="question_uni20DD_H18533.liga" unicode="&#x3f;&#x20dd;&#x25cf;" 
d="M759 429q0 -48 34 -75t93 -27q60 0 93.5 27.5t33.5 74.5t-34 74.5t-93 27.5t-93 -27t-34 -75zM783 592h190v15q0 23 7 37t26 28t53 36q41 28 68 52.5t40.5 56t13.5 79.5q0 69 -36 118t-97 75.5t-138 26.5q-83 0 -148.5 -25.5t-102.5 -78.5t-37 -136v-2l199 3
q0 35 19.5 57.5t54.5 22.5q30 0 51.5 -16t21.5 -50q0 -27 -18.5 -45t-45 -35.5t-51.5 -43.5q-34 -27 -54 -60t-18 -78v-20t2 -17zM900 -53q-128 0 -244 39t-212.5 110.5t-168 168.5t-110.5 213t-39 244t39 244t110.5 212.5t168 168t212.5 110.5t244 39t244 -39t213 -110.5
t168 -168t110.5 -212.5t39.5 -244t-39.5 -244t-110.5 -213t-168 -168.5t-213 -110.5t-244 -39z" />
    <glyph glyph-name="exclam_uni20DD_H18533.liga" unicode="&#x21;&#x20dd;&#x25cf;" 
d="M782 1105l24 -500h189l25 500h-238zM775 429q0 -47 34 -74t93 -27t92.5 27t33.5 74t-33.5 74.5t-92.5 27.5t-93 -27t-34 -75zM899 -53q-128 0 -244 39t-212.5 110.5t-168 168.5t-110.5 213t-39 244t39 244t110.5 212.5t168 168t212.5 110.5t244 39t244 -39t213 -110.5
t168 -168t110.5 -212.5t39.5 -244t-39.5 -244t-110.5 -213t-168 -168.5t-213 -110.5t-244 -39z" />
    <glyph glyph-name="uni2717_uni20DD_H18533.liga" unicode="&#x2717;&#x20dd;&#x25cf;" 
d="M900 855l-244 241l-130 -133l245 -241l-245 -241l130 -134l244 240l244 -239l130 134l-244 240l244 240l-130 133zM899 -53q-128 0 -244 39t-212.5 110.5t-168 168.5t-110.5 213t-39 244t39 244t110.5 212.5t168 168t212.5 110.5t244 39t244 -39t213 -110.5t168 -168
t110.5 -212.5t39.5 -244t-39.5 -244t-110.5 -213t-168 -168.5t-213 -110.5t-244 -39z" />
    <glyph glyph-name="uni2713_uni20DD_H18533.liga" unicode="&#x2713;&#x20dd;&#x25cf;" 
d="M771 358l593 582l-135 143l-456 -451l-205 203l-137 -139zM899 -53q-128 0 -244 39t-212.5 110.5t-168 168.5t-110.5 213t-39 244t39 244t110.5 212.5t168 168t212.5 110.5t244 39t244 -39t213 -110.5t168 -168t110.5 -212.5t39.5 -244t-39.5 -244t-110.5 -213
t-168 -168.5t-213 -110.5t-244 -39z" />
    <glyph glyph-name="zero_uni20DE_filledbox.liga" unicode="&#x30;&#x20de;&#x25a0;" 
d="M897 506q-50 0 -77.5 54t-27.5 167t27.5 166.5t77.5 53.5q51 0 78 -53.5t27 -166.5t-27 -167t-78 -54zM895 338q98 0 170 46.5t112 134t40 208.5t-40 208.5t-112 134t-170 46.5q-97 0 -168 -46.5t-110 -134t-39 -208.5t39 -208.5t110 -134t168 -46.5zM412 1472h975
q72 0 131 -34.5t94 -93t35 -129.5v-986q0 -71 -35 -129.5t-94 -93t-131 -34.5h-975q-72 0 -131.5 34.5t-94.5 93t-35 129.5v986q0 71 35 129.5t94.5 93t131.5 34.5z" />
    <glyph glyph-name="one_uni20DE_filledbox.liga" unicode="&#x31;&#x20de;&#x25a0;" 
d="M1053 351v752h-221l-183 -121v-200l176 117h5v-548h223zM412 1472h975q72 0 131 -34.5t94 -93t35 -129.5v-986q0 -71 -35 -129.5t-94 -93t-131 -34.5h-975q-72 0 -131.5 34.5t-94.5 93t-35 129.5v986q0 71 35 129.5t94.5 93t131.5 34.5z" />
    <glyph glyph-name="two_uni20DE_filledbox.liga" unicode="&#x32;&#x20de;&#x25a0;" 
d="M801 849v5q0 41 22.5 67.5t65.5 26.5q36 0 59.5 -20t23.5 -51q0 -37 -24.5 -69t-71.5 -77l-263 -240v-141h583v180h-294v3l139 127q65 60 102 114t37 121q0 62 -36 112t-98.5 79t-144.5 29q-96 0 -163 -34.5t-102.5 -93.5t-35.5 -133v-5h201zM412 1472h975
q72 0 131 -34.5t94 -93t35 -129.5v-986q0 -71 -35 -129.5t-94 -93t-131 -34.5h-975q-72 0 -131.5 34.5t-94.5 93t-35 129.5v986q0 71 35 129.5t94.5 93t131.5 34.5z" />
    <glyph glyph-name="three_uni20DE_filledbox.liga" unicode="&#x33;&#x20de;&#x25a0;" 
d="M811 657h82q47 0 75.5 -21.5t29.5 -55.5q0 -34 -28.5 -55.5t-77.5 -21.5q-47 1 -76.5 23t-32.5 57h-201q1 -70 39.5 -125t107.5 -87t163 -32q93 0 165 27.5t113 78.5t40 122q-1 51 -24.5 89.5t-60 61t-76.5 26.5v6q33 5 65.5 26.5t53.5 56.5t21 79q-1 60 -38 106
t-102.5 71.5t-154.5 25.5q-145 0 -222 -65t-82 -178h203q2 36 27 58.5t70 22.5q39 0 64 -19.5t26 -50.5q0 -32 -25.5 -52t-66.5 -20h-77v-154zM412 1472h975q72 0 131 -34.5t94 -93t35 -129.5v-986q0 -71 -35 -129.5t-94 -93t-131 -34.5h-975q-72 0 -131.5 34.5t-94.5 93
t-35 129.5v986q0 71 35 129.5t94.5 93t131.5 34.5z" />
    <glyph glyph-name="four_uni20DE_filledbox.liga" unicode="&#x34;&#x20de;&#x25a0;" 
d="M822 1103q-62 -101 -108.5 -179t-83.5 -146t-71 -136v-170h372v-121h189v121h102v170h-102v461h-298zM931 642h-179v1q37 72 78.5 141.5t91.5 157.5h9v-300zM412 1472h975q72 0 131 -34.5t94 -93t35 -129.5v-986q0 -71 -35 -129.5t-94 -93t-131 -34.5h-975
q-72 0 -131.5 34.5t-94.5 93t-35 129.5v986q0 71 35 129.5t94.5 93t131.5 34.5z" />
    <glyph glyph-name="five_uni20DE_filledbox.liga" unicode="&#x35;&#x20de;&#x25a0;" 
d="M601 582q2 -70 40 -123.5t106 -84t157 -30.5q96 0 167 34t110 96t39 147q0 75 -32.5 129.5t-89.5 83.5t-129 29q-61 0 -103.5 -20.5t-58.5 -48.5h-5q1 11 2.5 32.5t3.5 45.5t3.5 45.5t2.5 32.5h356v159h-525l-29 -451h189q11 22 37.5 40t63.5 18q46 0 77 -28t31 -75
q0 -49 -32.5 -77.5t-74.5 -28.5q-40 0 -70.5 19.5t-37.5 55.5h-198zM412 1472h975q72 0 131 -34.5t94 -93t35 -129.5v-986q0 -71 -35 -129.5t-94 -93t-131 -34.5h-975q-72 0 -131.5 34.5t-94.5 93t-35 129.5v986q0 71 35 129.5t94.5 93t131.5 34.5z" />
    <glyph glyph-name="six_uni20DE_filledbox.liga" unicode="&#x36;&#x20de;&#x25a0;" 
d="M913 340q93 0 164.5 34t112 94.5t40.5 138.5q0 69 -33 123t-90.5 85.5t-129.5 31.5q-66 0 -114.5 -26.5t-73.5 -76.5h-10q-2 97 33 154.5t100 57.5q35 0 60.5 -17t32.5 -45h215q-9 64 -52 114t-110 78.5t-148 28.5q-105 0 -181.5 -47.5t-118 -134.5t-41.5 -206
q0 -130 44.5 -216t122 -128.5t177.5 -42.5zM911 499q-46 0 -76 30.5t-30 74.5q0 43 29 72.5t77 29.5t77.5 -29.5t29.5 -73.5q0 -43 -30.5 -73.5t-76.5 -30.5zM412 1472h975q72 0 131 -34.5t94 -93t35 -129.5v-986q0 -71 -35 -129.5t-94 -93t-131 -34.5h-975
q-72 0 -131.5 34.5t-94.5 93t-35 129.5v986q0 71 35 129.5t94.5 93t131.5 34.5z" />
    <glyph glyph-name="seven_uni20DE_filledbox.liga" unicode="&#x37;&#x20de;&#x25a0;" 
d="M604 1103v-180h366v-3l-309 -569h237l297 573v179h-591zM412 1472h975q72 0 131 -34.5t94 -93t35 -129.5v-986q0 -71 -35 -129.5t-94 -93t-131 -34.5h-975q-72 0 -131.5 34.5t-94.5 93t-35 129.5v986q0 71 35 129.5t94.5 93t131.5 34.5z" />
    <glyph glyph-name="eight_uni20DE_filledbox.liga" unicode="&#x38;&#x20de;&#x25a0;" 
d="M897 801q-41 0 -67.5 23.5t-26.5 61.5t26 62.5t68 24.5q43 0 69 -24.5t26 -62.5t-26.5 -61.5t-68.5 -23.5zM897 482q-50 0 -82 28t-32 71t32 71t82 28t82.5 -28t32.5 -71t-32.5 -71t-82.5 -28zM897 338q102 0 176.5 27.5t115 78.5t40.5 121q0 71 -44.5 119t-122.5 61v3
q135 40 135 163q0 62 -37 108t-104.5 71t-158.5 25t-158 -25t-104 -71t-37 -108q0 -123 135 -163v-3q-78 -13 -122.5 -61t-44.5 -119q0 -70 40.5 -120.5t115 -78.5t175.5 -28zM412 1472h975q72 0 131 -34.5t94 -93t35 -129.5v-986q0 -71 -35 -129.5t-94 -93t-131 -34.5h-975
q-72 0 -131.5 34.5t-94.5 93t-35 129.5v986q0 71 35 129.5t94.5 93t131.5 34.5z" />
    <glyph glyph-name="nine_uni20DE_filledbox.liga" unicode="&#x39;&#x20de;&#x25a0;" 
d="M886 340q105 0 182.5 47.5t119.5 134.5t42 206q0 115 -40 202t-116.5 136t-188.5 49q-92 0 -163.5 -34.5t-112 -94.5t-40.5 -138q0 -69 33 -123.5t90 -85.5t130 -31q65 0 114 26.5t74 77.5h10q5 -96 -31 -154.5t-100 -58.5q-35 0 -61.5 17t-33.5 43h-216q9 -64 52 -113.5
t109.5 -77.5t146.5 -28zM887 753q-47 0 -76.5 28.5t-29.5 72.5q0 43 29.5 72.5t77.5 29.5q47 0 76 -30t29 -73q0 -42 -29.5 -71t-76.5 -29zM412 1472h975q72 0 131 -34.5t94 -93t35 -129.5v-986q0 -71 -35 -129.5t-94 -93t-131 -34.5h-975q-72 0 -131.5 34.5t-94.5 93
t-35 129.5v986q0 71 35 129.5t94.5 93t131.5 34.5z" />
    <glyph glyph-name="plus_uni20DE_filledbox.liga" unicode="&#x2b;&#x20de;&#x25a0;" 
d="M995 632h222v188h-222v223h-192v-223h-222v-188h222v-226h192v226zM412 1472h975q72 0 131 -34.5t94 -93t35 -129.5v-986q0 -71 -35 -129.5t-94 -93t-131 -34.5h-975q-72 0 -131.5 34.5t-94.5 93t-35 129.5v986q0 71 35 129.5t94.5 93t131.5 34.5z" />
    <glyph glyph-name="minus_uni20DE_filledbox.liga" unicode="&#x2212;&#x20de;&#x25a0;" 
d="M1188 626v196h-578v-196h578zM412 1472h975q72 0 131 -34.5t94 -93t35 -129.5v-986q0 -71 -35 -129.5t-94 -93t-131 -34.5h-975q-72 0 -131.5 34.5t-94.5 93t-35 129.5v986q0 71 35 129.5t94.5 93t131.5 34.5z" />
    <glyph glyph-name="multiply_uni20DE_filledbox.liga" unicode="&#xd7;&#x20de;&#x25a0;" 
d="M899 863l-173 169l-135 -139l172 -168l-172 -168l135 -138l173 167l172 -167l136 138l-173 168l173 168l-136 139zM412 1472h975q72 0 131 -34.5t94 -93t35 -129.5v-986q0 -71 -35 -129.5t-94 -93t-131 -34.5h-975q-72 0 -131.5 34.5t-94.5 93t-35 129.5v986
q0 71 35 129.5t94.5 93t131.5 34.5z" />
    <glyph glyph-name="divide_uni20DE_filledbox.liga" unicode="&#xf7;&#x20de;&#x25a0;" 
d="M791 966q0 -42 31 -69.5t77 -27.5t77.5 27.5t31.5 69.5q0 44 -31.5 71.5t-77.5 27.5t-77 -27.5t-31 -71.5zM1188 648v153h-578v-153h578zM791 484q0 -42 31 -69.5t77 -27.5t77.5 27.5t31.5 69.5q0 44 -31.5 71.5t-77.5 27.5t-77 -27.5t-31 -71.5zM412 1472h975
q72 0 131 -34.5t94 -93t35 -129.5v-986q0 -71 -35 -129.5t-94 -93t-131 -34.5h-975q-72 0 -131.5 34.5t-94.5 93t-35 129.5v986q0 71 35 129.5t94.5 93t131.5 34.5z" />
    <glyph glyph-name="equal_uni20DE_filledbox.liga" unicode="&#x3d;&#x20de;&#x25a0;" 
d="M1195 783v170h-592v-170h592zM1195 494v169h-592v-169h592zM412 1472h975q72 0 131 -34.5t94 -93t35 -129.5v-986q0 -71 -35 -129.5t-94 -93t-131 -34.5h-975q-72 0 -131.5 34.5t-94.5 93t-35 129.5v986q0 71 35 129.5t94.5 93t131.5 34.5z" />
    <glyph glyph-name="greater_uni20DE_filledbox.liga" unicode="&#x3e;&#x20de;&#x25a0;" 
d="M1206 783l-569 283v-205l308 -136v-3l-308 -140v-198l569 275v124zM412 1472h975q72 0 131 -34.5t94 -93t35 -129.5v-986q0 -71 -35 -129.5t-94 -93t-131 -34.5h-975q-72 0 -131.5 34.5t-94.5 93t-35 129.5v986q0 71 35 129.5t94.5 93t131.5 34.5z" />
    <glyph glyph-name="less_uni20DE_filledbox.liga" unicode="&#x3c;&#x20de;&#x25a0;" 
d="M589 659l568 -275v198q-18 8 -49 22t-68 31t-73.5 34t-67.5 31t-49 22v3l307 136v205l-568 -283v-124zM412 1472h975q72 0 131 -34.5t94 -93t35 -129.5v-986q0 -71 -35 -129.5t-94 -93t-131 -34.5h-975q-72 0 -131.5 34.5t-94.5 93t-35 129.5v986q0 71 35 129.5t94.5 93
t131.5 34.5z" />
    <glyph glyph-name="numbersign_uni20DE_filledbox.liga" unicode="&#x23;&#x20de;&#x25a0;" 
d="M843 798h135l-29 -144h-135zM1217 778l29 150h-108l35 174h-158l-34 -174h-93l37 174h-159l-34 -174h-105l-29 -150h105l-20 -93h-105l-29 -152h103l-37 -183h157l39 183h91l-38 -183h158l37 183h109l29 152h-106q0 5 4.5 25.5l9 41t5.5 26.5h107zM412 1472h975
q72 0 131 -34.5t94 -93t35 -129.5v-986q0 -71 -35 -129.5t-94 -93t-131 -34.5h-975q-72 0 -131.5 34.5t-94.5 93t-35 129.5v986q0 71 35 129.5t94.5 93t131.5 34.5z" />
    <glyph glyph-name="triagdn_uni20DE_filledbox.liga" unicode="&#x25bc;&#x20de;&#x25a0;" 
d="M1249 979h-698l348 -605zM412 1472h975q72 0 131 -34.5t94 -93t35 -129.5v-986q0 -71 -35 -129.5t-94 -93t-131 -34.5h-975q-72 0 -131.5 34.5t-94.5 93t-35 129.5v986q0 71 35 129.5t94.5 93t131.5 34.5z" />
    <glyph glyph-name="triagup_uni20DE_filledbox.liga" unicode="&#x25b2;&#x20de;&#x25a0;" 
d="M1249 488l-350 604l-348 -604h698zM412 1472h975q72 0 131 -34.5t94 -93t35 -129.5v-986q0 -71 -35 -129.5t-94 -93t-131 -34.5h-975q-72 0 -131.5 34.5t-94.5 93t-35 129.5v986q0 71 35 129.5t94.5 93t131.5 34.5z" />
    <glyph glyph-name="uni25C0_uni20DE_filledbox.liga" unicode="&#x25c0;&#x20de;&#x25a0;" 
d="M1136 386v697l-605 -348zM412 1472h975q72 0 131 -34.5t94 -93t35 -129.5v-986q0 -71 -35 -129.5t-94 -93t-131 -34.5h-975q-72 0 -131.5 34.5t-94.5 93t-35 129.5v986q0 71 35 129.5t94.5 93t131.5 34.5z" />
    <glyph glyph-name="uni25B6_uni20DE_filledbox.liga" unicode="&#x25b6;&#x20de;&#x25a0;" 
d="M662 386l605 349l-605 348v-697zM412 1472h975q72 0 131 -34.5t94 -93t35 -129.5v-986q0 -71 -35 -129.5t-94 -93t-131 -34.5h-975q-72 0 -131.5 34.5t-94.5 93t-35 129.5v986q0 71 35 129.5t94.5 93t131.5 34.5z" />
    <glyph glyph-name="question_uni20DE_filledbox.liga" unicode="&#x3f;&#x20de;&#x25a0;" 
d="M759 429q0 -48 34 -75t93 -27q60 0 93.5 27.5t33.5 74.5t-34 74.5t-93 27.5t-93 -27t-34 -75zM910 1116q-83 0 -148.5 -25.5t-102.5 -78.5t-37 -136v-2l199 3q0 35 19.5 57.5t54.5 22.5q30 0 51.5 -16t21.5 -50q0 -27 -18.5 -45t-45 -35.5t-51.5 -43.5q-34 -27 -54 -60
t-18 -78v-20t2 -17h190v15q0 23 7 37t26 28t53 36q41 28 68 52.5t40.5 56t13.5 79.5q0 69 -36 118t-97 75.5t-138 26.5zM412 1472h975q72 0 131 -34.5t94 -93t35 -129.5v-986q0 -71 -35 -129.5t-94 -93t-131 -34.5h-975q-72 0 -131.5 34.5t-94.5 93t-35 129.5v986
q0 71 35 129.5t94.5 93t131.5 34.5z" />
    <glyph glyph-name="exclam_uni20DE_filledbox.liga" unicode="&#x21;&#x20de;&#x25a0;" 
d="M782 1105l24 -500h189l25 500h-238zM775 429q0 -47 34 -74t93 -27t92.5 27t33.5 74t-33.5 74.5t-92.5 27.5t-93 -27t-34 -75zM412 1472h975q72 0 131 -34.5t94 -93t35 -129.5v-986q0 -71 -35 -129.5t-94 -93t-131 -34.5h-975q-72 0 -131.5 34.5t-94.5 93t-35 129.5v986
q0 71 35 129.5t94.5 93t131.5 34.5z" />
    <glyph glyph-name="uni2717_uni20DE_filledbox.liga" unicode="&#x2717;&#x20de;&#x25a0;" 
d="M526 963l245 -241l-245 -241l130 -134l244 240l244 -239l130 134l-244 240l244 240l-130 133l-244 -240l-244 241zM412 1472h975q72 0 131 -34.5t94 -93t35 -129.5v-986q0 -71 -35 -129.5t-94 -93t-131 -34.5h-975q-72 0 -131.5 34.5t-94.5 93t-35 129.5v986
q0 71 35 129.5t94.5 93t131.5 34.5z" />
    <glyph glyph-name="uni2713_uni20DE_filledbox.liga" unicode="&#x2713;&#x20de;&#x25a0;" 
d="M771 358l593 582l-135 143l-456 -451l-205 203l-137 -139zM412 1472h975q72 0 131 -34.5t94 -93t35 -129.5v-986q0 -71 -35 -129.5t-94 -93t-131 -34.5h-975q-72 0 -131.5 34.5t-94.5 93t-35 129.5v986q0 71 35 129.5t94.5 93t131.5 34.5z" />
    <glyph glyph-name=".notdef" horiz-adv-x="2048" 
d="M99 -494v198h1848v-198h-1848zM99 -45v198h1848v-198h-1848zM99 404v199h1848v-199h-1848zM99 853v199h1848v-199h-1848zM99 1303v198h1848v-198h-1848zM99 1752v198h1848v-198h-1848z" />
    <glyph glyph-name="glyph1" horiz-adv-x="0" 
 />
    <glyph glyph-name="glyph2" horiz-adv-x="0" 
 />
    <glyph glyph-name="space" unicode=" " horiz-adv-x="528" 
 />
    <glyph glyph-name="exclam" unicode="!" horiz-adv-x="730" 
d="M204 1443h320l-27 -968h-267zM364 -30q-84 0 -133 45.5t-49 124.5q0 80 49 125.5t133 45.5q85 0 133.5 -45.5t48.5 -125.5q0 -79 -48.5 -124.5t-133.5 -45.5z" />
    <glyph glyph-name="quotedbl" unicode="&#x22;" horiz-adv-x="1016" 
d="M401 831h-250v612h250v-612zM863 831h-250v612h250v-612z" />
    <glyph glyph-name="numbersign" unicode="#" horiz-adv-x="1360" 
d="M660 0l77 378h-260l-76 -378h-221l76 378h-225l41 222h227l54 262h-231l42 220h231l74 362h221l-72 -362h258l74 362h222l-73 -362h236l-41 -220h-239l-54 -262h241l-41 -222h-243l-76 -378h-222zM502 580h287l63 301h-288z" />
    <glyph glyph-name="dollar" unicode="$" horiz-adv-x="1415" 
d="M771 577v-329q104 9 156 52t52 110q0 42 -19.5 72.5t-65 53t-123.5 41.5zM656 876v319q-95 -11 -143.5 -54t-48.5 -101t45.5 -97.5t146.5 -66.5zM771 850l71 -16q137 -30 229.5 -80t139.5 -126t47 -186q0 -126 -62.5 -218t-172.5 -145t-252 -63v-158h-115v157
q-141 9 -250.5 59.5t-173.5 140.5t-68 215h268q13 -74 67.5 -123t156.5 -59v355l-67 15q-196 44 -300.5 138t-104.5 257q0 90 35 163.5t98 127t149.5 85.5t189.5 38v161h115v-161q139 -11 242.5 -64.5t162.5 -143t63 -208.5h-267q-11 79 -64 125t-137 58v-344z" />
    <glyph glyph-name="percent" unicode="%" horiz-adv-x="1819" 
d="M397 767q-108 0 -185 42t-117.5 121t-40.5 190q0 108 41.5 187t118.5 121.5t183 42.5t183 -42.5t118.5 -121t41.5 -187.5q0 -167 -90.5 -260t-252.5 -93zM397 946q55 0 84.5 45.5t29.5 127.5q0 80 -30.5 126t-83.5 46q-54 0 -84.5 -46t-30.5 -126q0 -83 30 -128t85 -45z
M545 0h-231l959 1443h231zM1421 -17q-108 0 -184.5 42t-117.5 121t-41 190q0 108 41.5 186.5t118.5 121t183 42.5t183 -42t118.5 -120.5t41.5 -187.5q0 -167 -90.5 -260t-252.5 -93zM1421 162q55 0 85 45.5t30 127.5q0 80 -30.5 126t-84.5 46t-84 -46t-30 -126
q0 -83 29.5 -128t84.5 -45z" />
    <glyph glyph-name="ampersand" unicode="&#x26;" horiz-adv-x="1525" 
d="M1171 0l-111 117q-80 -68 -198 -106.5t-251 -38.5q-154 0 -267 50t-175.5 141t-62.5 214q0 124 64.5 216.5t204.5 168.5q3 1 17 9t28.5 16t18.5 10q-66 67 -105 122.5t-56.5 105.5t-17.5 103q0 73 30.5 134.5t86 107t130.5 70.5t164 25q118 0 209 -42t142.5 -116.5
t51.5 -172.5q0 -112 -71.5 -204t-222.5 -174l277 -287q26 45 38.5 109t12.5 154v71h245v-90q0 -130 -32 -241t-91 -190l268 -282h-327zM534 618q-155 -84 -155 -216q0 -63 33 -110.5t92 -74t137 -26.5q79 0 151 26.5t115 71.5l-331 349q-8 -3 -21 -9.5zM645 897
q99 49 142.5 100t43.5 115q0 68 -44 110.5t-115 42.5t-116 -42.5t-45 -110.5q0 -33 13 -64.5t42 -67.5t79 -83z" />
    <glyph glyph-name="quotesingle" unicode="'" horiz-adv-x="553" 
d="M401 831h-250v612h250v-612z" />
    <glyph glyph-name="parenleft" unicode="(" horiz-adv-x="878" 
d="M222 607q0 277 74 507.5t223 409.5h268q-55 -70 -103 -172t-84 -225t-56.5 -255.5t-20.5 -263.5t20.5 -263.5t56.5 -255.5t84 -226t103 -173h-268q-149 181 -223 411.5t-74 505.5z" />
    <glyph glyph-name="parenright" unicode=")" horiz-adv-x="878" 
d="M654 607q0 -275 -73.5 -505.5t-222.5 -411.5h-269q56 70 103.5 173t84 226t56.5 255.5t20 263.5t-20.5 263.5t-56.5 255.5t-84 225t-103 172h269q149 -179 222.5 -409.5t73.5 -507.5z" />
    <glyph glyph-name="asterisk" unicode="*" horiz-adv-x="990" 
d="M784 761l-228 180l39 -286h-201l39 286l-228 -180l-100 179l269 108l-269 109l100 179l229 -184l-40 291h201l-41 -291l230 184l100 -179l-269 -109l269 -108z" />
    <glyph glyph-name="plus" unicode="+" horiz-adv-x="1415" 
d="M837 447v-407h-261v407h-388v265h388v407h261v-407h389v-265h-389z" />
    <glyph glyph-name="comma" unicode="," horiz-adv-x="712" 
d="M335 -391h-195l92 625h285z" />
    <glyph glyph-name="uni2011" unicode="&#x2011;" horiz-adv-x="992" 
d="M824 446h-657v273h657v-273z" />
    <glyph glyph-name="uni2011" unicode="-" horiz-adv-x="992" 
d="M824 446h-657v273h657v-273z" />
    <glyph glyph-name="period" unicode="." horiz-adv-x="712" 
d="M355 -27q-54 0 -93.5 22.5t-61.5 61.5t-22 90t22 90t61.5 61t93.5 22q81 0 129 -48.5t48 -124.5q0 -51 -22 -90t-61.5 -61.5t-93.5 -22.5z" />
    <glyph glyph-name="slash" unicode="/" horiz-adv-x="793" 
d="M272 -310h-268l517 1834h268z" />
    <glyph glyph-name="zero" unicode="0" horiz-adv-x="1402" 
d="M700 -37q-179 0 -307 90.5t-197 261t-69 409.5t69.5 408t198 258.5t305.5 89.5t305.5 -89.5t198 -259t69.5 -408.5t-69 -409t-197 -260.5t-307 -90.5zM700 209q125 0 196 129.5t71 385.5q0 255 -71.5 382t-195.5 127q-123 0 -195 -127.5t-72 -381.5q0 -256 71.5 -385.5
t195.5 -129.5z" />
    <glyph glyph-name="one" unicode="1" horiz-adv-x="1051" 
d="M494 0v1149h-18l-354 -244v281l373 257h301v-1443h-302z" />
    <glyph glyph-name="two" unicode="2" horiz-adv-x="1318" 
d="M128 1002q0 106 39 193.5t110.5 151.5t169.5 98.5t217 34.5q115 0 207.5 -31t158.5 -88t101 -134t35 -168q0 -63 -15.5 -119.5t-51.5 -114.5t-96.5 -125t-150.5 -151l-300 -280v-18h634v-251h-1041v211l506 484q68 65 110.5 112.5t66.5 84t33 70t9 69.5q0 57 -26.5 104
t-76.5 74.5t-120 27.5q-74 0 -127.5 -30t-82.5 -83t-29 -122h-280z" />
    <glyph glyph-name="three" unicode="3" horiz-adv-x="1370" 
d="M493 629v221h180q68 0 120 25t81 70t29 104q0 54 -27 97t-78 68t-121 25q-110 0 -174 -53.5t-72 -150.5h-279q5 133 72 233t186 156t282 56q120 0 212.5 -30.5t156 -84.5t96 -124t32.5 -149q0 -87 -34.5 -154t-94 -111t-137.5 -63v-19q100 -15 172.5 -61t111.5 -119
t39 -170q0 -95 -42 -174t-118 -137t-179 -89.5t-225 -31.5t-223 32t-175 91.5t-116 142.5t-47 185h289q5 -61 39 -106t93 -69.5t136 -24.5t135.5 26t91.5 73t33 109q0 96 -70.5 151.5t-191.5 55.5h-183z" />
    <glyph glyph-name="four" unicode="4" horiz-adv-x="1410" 
d="M819 0v261h-706v245q136 243 281 479t290 458h423v-931h189v-251h-189v-261h-288zM384 519v-17h442v706h-16q-71 -106 -144 -221.5t-145 -234t-137 -233.5z" />
    <glyph glyph-name="five" unicode="5" horiz-adv-x="1359" 
d="M694 -37q-117 0 -214 33.5t-167.5 94t-110.5 142t-43 178.5h279q8 -61 42.5 -106t89 -70t121.5 -25q76 0 134 33t90.5 92t32.5 139q0 78 -32 136t-88.5 90t-130.5 32q-86 0 -149.5 -37t-97.5 -101h-270l77 849h901v-248h-667l-37 -388h18q45 68 124 106.5t192 38.5
q93 0 174.5 -33t143 -95t96 -149.5t34.5 -197.5q0 -115 -38.5 -209t-110.5 -162.5t-171.5 -105.5t-221.5 -37z" />
    <glyph glyph-name="six" unicode="6" horiz-adv-x="1401" 
d="M721 -37q-130 0 -239 46.5t-189.5 139.5t-124.5 233.5t-44 328.5q0 180 41.5 322t120 242t189.5 152.5t249 52.5q107 0 197.5 -29.5t160.5 -83.5t114.5 -128.5t57.5 -164.5h-299q-17 74 -78 116t-149 42q-100 0 -170.5 -57.5t-108 -167t-37.5 -265.5h18q49 101 145.5 156
t222.5 55q103 0 189.5 -35.5t150.5 -100t99.5 -151.5t35.5 -190q0 -112 -40.5 -206t-114.5 -163t-175 -106.5t-222 -37.5zM718 211q75 0 134 34t93.5 92.5t34.5 131.5q0 75 -33 133t-91.5 91t-136.5 33t-137 -33t-92 -90t-33 -130q0 -74 34 -133.5t93 -94t134 -34.5z" />
    <glyph glyph-name="seven" unicode="7" horiz-adv-x="1239" 
d="M209 0l615 1178v17h-728v249h1032v-252l-603 -1192h-316z" />
    <glyph glyph-name="eight" unicode="8" horiz-adv-x="1421" 
d="M709 -37q-130 0 -237 30.5t-184 86.5t-119 133.5t-42 171.5q0 91 39.5 166.5t111 128t167.5 74.5v18q-78 18 -136.5 63t-91 110t-32.5 141q0 86 38.5 158t109 125t166.5 82t211 29t211 -29t166 -82t108.5 -125t38.5 -158q0 -77 -32 -141.5t-90.5 -109.5t-137.5 -63v-18
q96 -18 167.5 -69.5t111.5 -128t40 -168.5q0 -95 -42 -173t-120 -134.5t-185 -87t-237 -30.5zM709 191q80 0 140.5 28t94.5 78.5t34 115.5q0 66 -34 116.5t-94.5 78.5t-140.5 28q-79 0 -139.5 -28t-94.5 -78.5t-34 -116.5q0 -65 34 -115.5t94.5 -78.5t139.5 -28zM709 859
q67 0 118 25.5t80 70t29 102.5q0 59 -29 103.5t-80 70t-118 25.5t-118 -25.5t-79.5 -70t-28.5 -103.5q0 -58 29 -102.5t80 -70t117 -25.5z" />
    <glyph glyph-name="nine" unicode="9" horiz-adv-x="1401" 
d="M673 -37q-103 0 -192.5 29t-159.5 82.5t-115.5 128t-60.5 164.5h299q19 -71 83 -113.5t150 -42.5q98 0 167.5 59t106 169t36.5 263h-18q-50 -101 -146 -156t-222 -55q-103 0 -189.5 35.5t-150.5 99.5t-99.5 151t-35.5 190q0 113 40.5 206.5t114.5 162.5t175 106.5
t222 37.5q137 0 247.5 -50.5t188.5 -147t119.5 -235t41.5 -314.5q0 -240 -72 -412.5t-207 -265t-323 -92.5zM680 722q77 0 136 32.5t92.5 89t33.5 128.5q0 74 -34 133t-92.5 93.5t-134.5 34.5t-135 -34t-93 -92t-34 -130q0 -75 33 -132.5t92 -90t136 -32.5z" />
    <glyph glyph-name="colon" unicode=":" horiz-adv-x="712" 
d="M355 -27q-54 0 -93.5 22.5t-61.5 61.5t-22 90t22 90t61.5 61t93.5 22q81 0 129 -48.5t48 -124.5q0 -51 -22 -90t-61.5 -61.5t-93.5 -22.5zM355 677q-54 0 -93.5 22.5t-61.5 61.5t-22 90t22 90t61.5 61t93.5 22q81 0 129 -48.5t48 -124.5q0 -51 -22 -90t-61.5 -61.5
t-93.5 -22.5z" />
    <glyph glyph-name="semicolon" unicode=";" horiz-adv-x="712" 
d="M355 677q-54 0 -93.5 22.5t-61.5 61.5t-22 90t22 90t61.5 61t93.5 22q81 0 129 -48.5t48 -124.5q0 -51 -22 -90t-61.5 -61.5t-93.5 -22.5zM335 -391h-195l92 625h285z" />
    <glyph glyph-name="less" unicode="&#x3c;" horiz-adv-x="1415" 
d="M1226 838l-712 -249v-10l712 -253v-301l-1038 421v266l1038 422v-296z" />
    <glyph glyph-name="equal" unicode="=" horiz-adv-x="1415" 
d="M1216 208h-1018v250h1018v-250zM1216 701h-1018v250h1018v-250z" />
    <glyph glyph-name="greater" unicode="&#x3e;" horiz-adv-x="1415" 
d="M188 838v296l1038 -422v-266l-1038 -421v301l711 253v10z" />
    <glyph glyph-name="question" unicode="?" horiz-adv-x="1141" 
d="M77 1035q2 125 59.5 219.5t165 148t261.5 53.5q143 0 250 -49.5t166 -137t59 -203.5q0 -112 -54 -194t-160 -144q-67 -38 -103.5 -70.5t-51.5 -68t-15 -83.5v-53h-265l-2 55q-6 80 10.5 139t58.5 105t111 87q64 39 101 70.5t52 66t15 81.5t-24 82.5t-66.5 56t-99.5 20.5
q-86 0 -139 -49t-58 -132h-271zM532 -30q-84 0 -133 45.5t-49 124.5q0 80 49 125.5t133 45.5t132.5 -45.5t48.5 -125.5q0 -79 -48.5 -124.5t-132.5 -45.5z" />
    <glyph glyph-name="at" unicode="@" horiz-adv-x="1899" 
d="M939 837q-80 0 -124.5 -60.5t-44.5 -167.5t44.5 -167.5t123.5 -60.5q80 0 127 61t47 167t-46.5 167t-126.5 61zM971 1450q180 0 328 -53.5t255 -152.5t165.5 -235.5t58.5 -301.5q0 -159 -48 -275t-136 -179t-209 -63q-94 0 -158 42t-80 114h-18q-64 -153 -240 -153
q-104 0 -182 52.5t-121 147.5t-43 222q0 121 42.5 213t118 143.5t175.5 51.5q80 0 142 -37t92 -104h18v119h202v-530q0 -53 25 -82.5t71 -29.5q50 0 87.5 40.5t58 114.5t20.5 176q0 136 -44.5 246t-128 189t-199.5 121t-258 42q-145 0 -265.5 -49.5t-208 -139.5t-135 -214
t-47.5 -274q0 -152 48.5 -274.5t139 -209t219 -132.5t287.5 -46q54 0 105.5 4t95 11.5t71.5 17.5v-163q-58 -17 -133 -26.5t-154 -9.5q-195 0 -354 59t-272.5 169t-174.5 263.5t-61 341.5q0 185 61 338t174 264t267.5 171.5t342.5 60.5z" />
    <glyph glyph-name="A" unicode="A" horiz-adv-x="1500" 
d="M1101 0l-109 344h-507l-111 -344h-303l501 1443h355l501 -1443h-327zM731 1143l-181 -566h378l-179 566h-18z" />
    <glyph glyph-name="B" unicode="B" horiz-adv-x="1420" 
d="M822 0h-648v1443h631q140 0 240 -43.5t153.5 -124.5t53.5 -192q0 -77 -34.5 -143t-93.5 -110t-133 -55v-18q96 -7 170.5 -53.5t117 -122t42.5 -168.5q0 -127 -60.5 -219.5t-172.5 -143t-266 -50.5zM476 1212v-367h227q122 0 187 48t65 135q0 86 -59.5 135t-167.5 49h-252
zM476 231h269q130 0 199 53.5t69 154.5q0 99 -71 150.5t-204 51.5h-262v-410z" />
    <glyph glyph-name="C" unicode="C" horiz-adv-x="1518" 
d="M787 -37q-157 0 -282 52t-213.5 151t-135 239.5t-46.5 316.5t46.5 316t135 239t213.5 151t282 52q128 0 238.5 -40t194.5 -112.5t134.5 -171.5t58.5 -217h-294q-14 83 -60 145t-116 96t-156 34q-114 0 -196.5 -59.5t-127 -170t-44.5 -262.5t45 -262.5t127.5 -170.5
t196.5 -60q87 0 156.5 32t115 90.5t60.5 138.5h294q-9 -117 -59 -213.5t-133.5 -167t-194 -108.5t-240.5 -38z" />
    <glyph glyph-name="D" unicode="D" horiz-adv-x="1531" 
d="M174 1443h568q215 0 366 -83.5t231 -242.5t80 -385q0 -235 -79 -398t-230.5 -248.5t-367.5 -85.5h-568v1443zM476 1185v-927h218q200 0 308.5 120t108.5 349q0 146 -49.5 248.5t-143 156t-224.5 53.5h-218z" />
    <glyph glyph-name="E" unicode="E" horiz-adv-x="1274" 
d="M1130 258v-258h-956v1443h956v-258h-654v-337h617v-239h-617v-351h654z" />
    <glyph glyph-name="F" unicode="F" horiz-adv-x="1224" 
d="M476 0h-302v1443h945v-258h-643v-376h587v-247h-587v-562z" />
    <glyph glyph-name="G" unicode="G" horiz-adv-x="1557" 
d="M1442 589q0 -145 -44.5 -260.5t-128 -197t-201.5 -125t-266 -43.5q-161 0 -289 52t-218 151t-137.5 239.5t-47.5 317.5q0 174 47.5 314t137.5 239t216 151.5t284 52.5q128 0 237 -35t192.5 -101t136 -157t68.5 -204h-300q-34 109 -121 170t-213 61q-116 0 -200.5 -59
t-130 -168t-45.5 -261q0 -154 47.5 -265.5t134.5 -171.5t206 -60q99 0 174.5 36.5t119.5 102t47 152.5l1 26h-313v227h606v-184z" />
    <glyph glyph-name="H" unicode="H" horiz-adv-x="1604" 
d="M1428 0h-302v603h-650v-603h-302v1443h302v-582h650v582h302v-1443z" />
    <glyph glyph-name="I" unicode="I" horiz-adv-x="652" 
d="M476 0h-302v1443h302v-1443z" />
    <glyph glyph-name="J" unicode="J" horiz-adv-x="1231" 
d="M75 424h292q2 -87 54.5 -139t139.5 -52q93 0 142.5 55.5t49.5 161.5v993h302v-995q0 -156 -59 -264t-168.5 -164.5t-262.5 -56.5q-148 0 -258 56.5t-171 159.5t-61 245z" />
    <glyph glyph-name="uni212A" unicode="&#x212a;" horiz-adv-x="1453" 
d="M476 0h-302v1443h302v-643h18l533 643h336l-526 -633l563 -810h-362l-419 604l-143 -169v-435z" />
    <glyph glyph-name="uni212A" unicode="K" horiz-adv-x="1453" 
d="M476 0h-302v1443h302v-643h18l533 643h336l-526 -633l563 -810h-362l-419 604l-143 -169v-435z" />
    <glyph glyph-name="L" unicode="L" horiz-adv-x="1218" 
d="M1118 263v-263h-944v1443h302v-1180h642z" />
    <glyph glyph-name="M" unicode="M" horiz-adv-x="1878" 
d="M1702 0h-280v965h-16l-367 -887h-201l-368 887h-16v-965h-280v1443h356l399 -974h18l400 974h355v-1443z" />
    <glyph glyph-name="N" unicode="N" horiz-adv-x="1573" 
d="M463 0h-289v1443h252l664 -899h18v899h289v-1443h-250l-666 903h-18v-903z" />
    <glyph glyph-name="O" unicode="O" horiz-adv-x="1611" 
d="M805 1480q159 0 287.5 -52.5t219 -151.5t139 -239t48.5 -315q0 -176 -48 -316t-139 -239t-219 -151.5t-288 -52.5q-161 0 -289.5 52.5t-219 151.5t-138.5 239t-48 316t48.5 316t139.5 238.5t219.5 151t287.5 52.5zM805 1215q-118 0 -204.5 -60.5t-134 -171t-47.5 -261.5
q0 -150 47 -261t133.5 -172t205.5 -61q118 0 204 61t133.5 172t47.5 261q0 151 -47.5 261.5t-134 171t-203.5 60.5z" />
    <glyph glyph-name="P" unicode="P" horiz-adv-x="1380" 
d="M174 1443h602q111 0 203 -35.5t158.5 -101.5t102.5 -158t36 -204q0 -111 -37.5 -202.5t-106 -157t-163 -101t-208.5 -35.5h-285v-448h-302v1443zM476 1195v-502h219q130 0 202 64.5t72 185.5q0 123 -71 187.5t-202 64.5h-220z" />
    <glyph glyph-name="Q" unicode="Q" horiz-adv-x="1610" 
d="M805 -37q-160 0 -288.5 52t-219 151t-139 239t-48.5 317q0 176 48.5 316t140 238.5t219.5 151t287 52.5t287 -52.5t218.5 -151t139 -238.5t48.5 -316q0 -202 -62.5 -357t-177.5 -249l192 -257h-281l-110 143q-114 -39 -254 -39zM806 216q23 0 45 2.5t44 8.5l-192 254h282
l97 -123q55 59 85 152.5t30 211.5q0 154 -48.5 267.5t-136.5 175.5t-207 62q-120 0 -208.5 -62t-137 -175.5t-48.5 -267.5q0 -156 49 -269.5t137.5 -175t208.5 -61.5z" />
    <glyph glyph-name="R" unicode="R" horiz-adv-x="1422" 
d="M476 1199v-444h265q114 0 177.5 58.5t63.5 162.5q0 103 -65.5 163t-178.5 60h-262zM476 523v-523h-302v1443h606q159 0 273.5 -56t176.5 -159.5t62 -247.5q0 -92 -31 -173t-89.5 -142.5t-141.5 -94.5l304 -570h-342l-269 523v0h-247z" />
    <glyph glyph-name="S" unicode="S" horiz-adv-x="1383" 
d="M109 401h292q7 -59 46.5 -102t105 -66.5t150.5 -23.5q78 0 138.5 23.5t95 65.5t34.5 96q0 69 -58 111.5t-191 71.5l-188 40q-392 82 -392 412q0 102 39 185t112 142.5t174.5 91.5t226.5 32q119 0 218.5 -31.5t173 -89.5t115.5 -138t45 -176h-284q-7 57 -42.5 99.5
t-93 66.5t-130.5 24q-75 0 -131.5 -22t-88 -62.5t-31.5 -95.5q0 -67 55.5 -108t182.5 -68l174 -37q218 -46 316.5 -144t98.5 -266q0 -146 -71 -251t-202 -161.5t-312 -56.5q-172 0 -300 53.5t-200 151.5t-78 233z" />
    <glyph glyph-name="T" unicode="T" horiz-adv-x="1352" 
d="M826 0h-302v1185h-433v258h1168v-258h-433v-1185z" />
    <glyph glyph-name="U" unicode="U" horiz-adv-x="1557" 
d="M475 1443v-914q0 -91 35.5 -158t103 -103.5t164.5 -36.5t164 36.5t102.5 103.5t35.5 158v914h302v-945q0 -120 -42 -218.5t-121.5 -169t-191 -109t-249.5 -38.5t-249.5 38.5t-191 109t-122 169t-42.5 218.5v945h302z" />
    <glyph glyph-name="V" unicode="V" horiz-adv-x="1477" 
d="M924 0h-365l-488 1443h341l328 -1103h18l322 1103h325z" />
    <glyph glyph-name="W" unicode="W" horiz-adv-x="2067" 
d="M1024 955l-270 -955h-285l-382 1443h314l225 -1017h16l263 1017h255l268 -1017h16l223 1017h312l-383 -1443h-283l-273 955h-16z" />
    <glyph glyph-name="X" unicode="X" horiz-adv-x="1494" 
d="M87 0l461 727v0l-458 716h355l301 -505h18l304 505h338l-475 -721v0l468 -722h-344l-310 489h-18l-314 -489h-326z" />
    <glyph glyph-name="Y" unicode="Y" horiz-adv-x="1451" 
d="M876 0h-302v531l-503 912h327l318 -604h18l317 604h327l-502 -912v-531z" />
    <glyph glyph-name="Z" unicode="Z" horiz-adv-x="1384" 
d="M134 0v204l726 963v18h-709v258h1077v-203l-724 -964v-18h744v-258h-1114z" />
    <glyph glyph-name="bracketleft" unicode="[" horiz-adv-x="878" 
d="M251 1524h554v-223h-274v-1388h274v-223h-554v1834z" />
    <glyph glyph-name="backslash" unicode="\" horiz-adv-x="793" 
d="M517 -310l-517 1834h276l517 -1834h-276z" />
    <glyph glyph-name="bracketright" unicode="]" horiz-adv-x="878" 
d="M626 1524v-1834h-554v223h273v1388h-273v223h554z" />
    <glyph glyph-name="asciicircum" unicode="^" horiz-adv-x="990" 
d="M485 1148l-187 -426h-237l297 652h273l297 -652h-237l-188 426h-18z" />
    <glyph glyph-name="underscore" unicode="_" horiz-adv-x="945" 
d="M947 -334h-949v227h949v-227z" />
    <glyph glyph-name="grave" unicode="`" horiz-adv-x="1024" 
d="M526 1251l-236 354h276l167 -354h-207z" />
    <glyph glyph-name="a" unicode="a" horiz-adv-x="1208" 
d="M543 202q68 0 121.5 26t84.5 71t31 101v81l-223 -14q-186 -13 -186 -133q0 -62 48 -97t124 -35zM447 -17q-106 0 -187.5 41t-127.5 115.5t-46 175.5q0 150 110.5 235t316.5 97l267 16v90q0 69 -48 106.5t-138 37.5q-79 0 -130 -26.5t-69 -75.5h-268q10 102 72 176.5
t167 115t244 40.5q146 0 248 -44.5t155.5 -128t53.5 -201.5v-753h-282v144h-18q-43 -76 -128 -118.5t-192 -42.5z" />
    <glyph glyph-name="b" unicode="b" horiz-adv-x="1334" 
d="M795 -17q-117 0 -206.5 50t-133.5 140h-18v-173h-282v1524h291v-597h18q42 91 130 142.5t201 51.5q140 0 240 -68t153.5 -195.5t53.5 -305.5q0 -177 -54 -304.5t-154.5 -196t-238.5 -68.5zM694 877q-77 0 -133 -39.5t-87 -112.5t-31 -174q0 -100 31 -173t87 -112.5
t133 -39.5t133 39.5t86 112.5t30 174q0 100 -30 173t-86 112.5t-133 39.5z" />
    <glyph glyph-name="c" unicode="c" horiz-adv-x="1203" 
d="M1121 714h-272q-15 79 -70.5 126.5t-148.5 47.5q-118 0 -181.5 -85.5t-63.5 -248.5q0 -165 64 -252t181 -87q89 0 146 42.5t73 124.5h272q-12 -124 -74 -215t-168 -141t-249 -50q-172 0 -292.5 67.5t-183.5 196.5t-63 314q0 183 63 311t183 195t293 67q146 0 251.5 -51
t166.5 -143.5t73 -218.5z" />
    <glyph glyph-name="d" unicode="d" horiz-adv-x="1334" 
d="M540 -17q-139 0 -239.5 69t-155 197t-54.5 304q0 175 54.5 302.5t155 196.5t239.5 69q112 0 199 -51.5t130 -142.5h17v597h291v-1524h-282v173h-18q-44 -89 -133 -139.5t-204 -50.5zM639 877q-78 0 -133.5 -39t-85.5 -112t-30 -174q0 -153 66 -239.5t183 -86.5
q78 0 134 39t86 112t30 174t-30 174t-86 112.5t-134 39.5z" />
    <glyph glyph-name="e" unicode="e" horiz-adv-x="1231" 
d="M622 904q-67 0 -119.5 -29.5t-84 -83t-36.5 -124.5h470q-5 109 -66.5 173t-163.5 64zM858 314h271q-22 -104 -89.5 -179.5t-173.5 -117t-241 -41.5q-168 0 -287.5 68t-183 195.5t-63.5 306.5q0 180 64 310t183 200.5t283 70.5q162 0 278 -66.5t177.5 -191t61.5 -299.5
v-89h-757v-15q3 -123 70.5 -194.5t181.5 -71.5q86 0 144 29.5t81 84.5z" />
    <glyph glyph-name="f" unicode="f" horiz-adv-x="836" 
d="M230 0v863h-178v229h178v112q0 164 89.5 247t288.5 83q44 0 81.5 -3t68.5 -8v-206q-14 1 -36.5 3t-50.5 2q-86 0 -121 -34t-35 -105v-91h234v-229h-228v-863h-291z" />
    <glyph glyph-name="g" unicode="g" horiz-adv-x="1322" 
d="M635 246q79 0 135.5 38.5t86.5 109t30 167.5t-30.5 168t-87 109.5t-134.5 38.5t-133.5 -38.5t-85 -109.5t-29.5 -167q0 -146 65 -231t183 -85zM631 -418q-146 0 -256.5 40.5t-175 113t-73.5 169.5h288q11 -51 70 -81t153 -30q117 0 182 51.5t65 144.5v204h-18
q-46 -87 -131 -132.5t-201 -45.5q-137 0 -237.5 67t-154.5 189.5t-54 288.5q0 171 54.5 297t156 194.5t241.5 68.5q112 0 201.5 -52t133.5 -143h18v177h282v-1099q0 -130 -66.5 -224.5t-189 -146t-288.5 -51.5z" />
    <glyph glyph-name="h" unicode="h" horiz-adv-x="1307" 
d="M155 0v1524h286v-602h18q38 94 125 148t208 54q119 0 203.5 -48.5t129.5 -141t45 -224.5v-710h-291v641q0 115 -52 173.5t-151 58.5q-73 0 -124.5 -30t-78.5 -84.5t-27 -125.5v-633h-291z" />
    <glyph glyph-name="i" unicode="i" horiz-adv-x="587" 
d="M147 0v1103h291v-1103h-291zM293 1268q-45 0 -82.5 22.5t-60 60t-22.5 84.5t22.5 84.5t60 59.5t82.5 22q46 0 83 -22t59.5 -59.5t22.5 -84.5t-22.5 -84.5t-59.5 -60t-83 -22.5z" />
    <glyph glyph-name="j" unicode="j" horiz-adv-x="587" 
d="M439 1103v-1137q0 -170 -99.5 -256t-290.5 -86q-11 0 -27 0.5t-30.5 1.5t-20.5 2v223q5 -1 17.5 -1h19.5q76 0 108 29t32 95v1129h291zM295 1268q-45 0 -82.5 22.5t-60 60t-22.5 84.5t22.5 84.5t60 59.5t82.5 22t82.5 -22t60 -59.5t22.5 -84.5t-22.5 -84.5t-60 -60
t-82.5 -22.5z" />
    <glyph glyph-name="k" unicode="k" horiz-adv-x="1232" 
d="M464 672l369 431h331l-420 -473l449 -630h-345l-322 448l-80 -82v-366h-291v1524h291v-852h18z" />
    <glyph glyph-name="l" unicode="l" horiz-adv-x="603" 
d="M155 0v1524h291v-1524h-291z" />
    <glyph glyph-name="m" unicode="m" horiz-adv-x="1899" 
d="M145 0v1103h282v-180h18q34 95 115 149.5t190 54.5q116 0 194 -54t111 -150h18q26 61 74.5 107t114.5 71.5t143 25.5q110 0 190 -45t123.5 -128.5t43.5 -196.5v-757h-291v680q0 196 -184 196q-59 0 -102.5 -26t-67.5 -71t-24 -104v-675h-280v692q0 88 -48 136t-134 48
q-57 0 -101 -27.5t-69 -75t-25 -109.5v-664h-291z" />
    <glyph glyph-name="n" unicode="n" horiz-adv-x="1285" 
d="M145 0v1103h282v-177h18q38 93 121 147t205 54q184 0 280.5 -108t96.5 -306v-713h-291v644q0 114 -50 173t-153 59q-67 0 -116 -30t-75.5 -84t-26.5 -126v-636h-291z" />
    <glyph glyph-name="o" unicode="o" horiz-adv-x="1269" 
d="M634 -24q-169 0 -291 69t-187 198t-65 309q0 178 65.5 307t187.5 198.5t290 69.5t289.5 -69t187.5 -198t66 -308q0 -180 -65 -309t-187 -198t-291 -69zM634 214q116 0 180 89t64 249q0 159 -64.5 248t-179.5 89q-116 0 -180 -89t-64 -248q0 -161 63.5 -249.5t180.5 -88.5
z" />
    <glyph glyph-name="p" unicode="p" horiz-adv-x="1324" 
d="M782 1121q139 0 240 -68t155.5 -195.5t54.5 -305.5t-54 -305.5t-153.5 -195.5t-237.5 -68q-118 0 -205 49t-128 137h-18v-535h-291v1469h282v-181h18q45 93 134 146t203 53zM683 226q118 0 184 86.5t66 239.5q0 101 -30 174t-86 112t-133 39t-133.5 -39.5t-87 -112.5
t-30.5 -174t30.5 -174t86.5 -112t133 -39z" />
    <glyph glyph-name="q" unicode="q" horiz-adv-x="1324" 
d="M542 1121q75 0 140 -24.5t115 -69t79 -105.5h18v181h283v-1469h-292v535h-18q-44 -89 -129 -137.5t-202 -48.5q-139 0 -238.5 69t-153 196.5t-53.5 304.5q0 175 55 302.5t156 196.5t240 69zM637 226q78 0 134.5 39t87 112t30.5 174t-30.5 174t-87 112.5t-133.5 39.5
q-116 0 -182 -86.5t-66 -238.5q0 -153 65.5 -239.5t181.5 -86.5z" />
    <glyph glyph-name="r" unicode="r" horiz-adv-x="891" 
d="M145 0v1103h282v-176h18q14 55 54.5 99t99.5 69.5t129 25.5q30 0 62.5 -3.5t51.5 -10.5v-265q-11 4 -35 8.5t-52 7t-51 2.5q-79 0 -139.5 -30t-94.5 -86t-34 -133v-611h-291z" />
    <glyph glyph-name="s" unicode="s" horiz-adv-x="1160" 
d="M120 779q0 105 57.5 183t160.5 121.5t241 43.5q210 0 329.5 -85t131.5 -243h-269q-11 53 -60 84t-130 31q-52 0 -93 -14.5t-64.5 -41t-23.5 -61.5q0 -41 36.5 -67t112.5 -43l207 -45q161 -35 235.5 -106.5t74.5 -195.5q0 -110 -61.5 -192t-170.5 -127t-254 -45
q-218 0 -345 86t-142 245h284q16 -56 69 -87t140 -31q85 0 138 32.5t53 85.5q0 41 -33 66.5t-106 41.5l-200 45q-161 35 -239.5 113.5t-78.5 205.5z" />
    <glyph glyph-name="t" unicode="t" horiz-adv-x="845" 
d="M228 1365h291v-273h229v-229h-229v-496q0 -72 34.5 -106t108.5 -34q29 0 47 1t39 3v-222q-27 -5 -65.5 -9t-80.5 -4q-134 0 -216.5 30.5t-120 97t-37.5 174.5v565h-172v229h172v273z" />
    <glyph glyph-name="u" unicode="u" horiz-adv-x="1290" 
d="M1143 1103v-1103h-282v177h-18q-39 -96 -118 -148.5t-204 -52.5q-119 0 -205.5 48.5t-133.5 140t-47 219.5v719h291v-644q0 -230 203 -230q109 0 166 64t57 174v636h291z" />
    <glyph glyph-name="v" unicode="v" horiz-adv-x="1194" 
d="M1142 1103l-381 -1103h-328l-383 1103h313l228 -822h18l226 822h307z" />
    <glyph glyph-name="w" unicode="w" horiz-adv-x="1735" 
d="M1673 1103l-293 -1103h-310l-197 761h-18l-195 -761h-306l-294 1103h295l164 -791h18l193 791h278l194 -791h18l164 791h289z" />
    <glyph glyph-name="x" unicode="x" horiz-adv-x="1190" 
d="M597 360h-18l-205 -360h-309l346 545l-348 558h334l195 -362h18l195 362h318l-346 -545l349 -558h-324z" />
    <glyph glyph-name="y" unicode="y" horiz-adv-x="1223" 
d="M282 -401h-20t-35.5 0.5t-35.5 1t-20 1.5v234q5 -1 18.5 -1.5t27.5 -0.5h20q82 0 129.5 28t65.5 91l10 40l-387 1110h321l232 -836h18l232 836h308l-380 -1120q-35 -107 -80 -180.5t-104.5 -118t-138 -65t-181.5 -20.5z" />
    <glyph glyph-name="z" unicode="z" horiz-adv-x="1160" 
d="M120 0v172l558 681v18h-550v232h898v-192l-526 -661v-18h539v-232h-919z" />
    <glyph glyph-name="braceleft" unicode="{" horiz-adv-x="878" 
d="M325 593q128 -14 195 -78t67 -173v-242q0 -104 40 -147.5t134 -43.5h44v-219h-74q-148 0 -241.5 39.5t-137.5 124t-44 217.5v192q0 73 -23 117t-75 64.5t-138 21.5v287q128 1 182 47t54 156v192q0 132 44 215t137.5 122t241.5 39h74v-220h-44q-95 0 -134.5 -43.5
t-39.5 -147.5v-237q0 -108 -67 -172t-195 -78v-33z" />
    <glyph glyph-name="bar" unicode="|" horiz-adv-x="793" 
d="M532 -310h-273v1834h273v-1834z" />
    <glyph glyph-name="braceright" unicode="}" horiz-adv-x="878" 
d="M552 593v33q-127 14 -194.5 78t-67.5 172v237q0 104 -39.5 147.5t-134.5 43.5h-44v220h74q149 0 242 -39t136.5 -122t43.5 -215v-192q0 -73 23.5 -117.5t75.5 -64.5t138 -21v-287q-86 -1 -138 -21.5t-75.5 -64.5t-23.5 -117v-192q0 -133 -44 -217.5t-137 -124t-241 -39.5
h-74v219h44q95 0 134.5 43.5t39.5 147.5v242q0 109 67.5 173t194.5 78z" />
    <glyph glyph-name="asciitilde" unicode="~" horiz-adv-x="1415" 
d="M930 351q-50 0 -93 13.5t-86.5 43.5t-96.5 77q-44 39 -74 55t-62 16q-53 0 -82 -45t-32 -131h-223q-5 140 35 235.5t113 145t166 49.5q74 0 136.5 -33t137.5 -101q47 -41 76.5 -56t60.5 -15q55 0 83 45t31 131h223q5 -139 -34.5 -235t-112.5 -145.5t-166 -49.5z" />
    <glyph glyph-name="uni00A0" unicode="&#xa0;" horiz-adv-x="528" 
 />
    <glyph glyph-name="exclamdown" unicode="&#xa1;" horiz-adv-x="730" 
d="M204 -322l26 969h267l27 -969h-320zM364 811q-84 0 -133 45.5t-49 125.5q0 79 49 124.5t133 45.5q85 0 133.5 -45.5t48.5 -124.5q0 -80 -48.5 -125.5t-133.5 -45.5z" />
    <glyph glyph-name="cent" unicode="&#xa2;" horiz-adv-x="1415" 
d="M676 399v646q-91 -19 -141.5 -99.5t-50.5 -222.5q0 -145 50.5 -225t141.5 -99zM968 583h270q-7 -122 -64 -214t-155 -146.5t-228 -64.5v-158h-115v158q-149 12 -257 83.5t-167 193.5t-59 288q0 163 59 285.5t167 194t257 83.5v157h115v-157q134 -11 231.5 -69t153 -151.5
t61.5 -210.5h-269q-11 76 -56 126.5t-121 64.5v-649q74 13 119.5 60.5t57.5 125.5z" />
    <glyph glyph-name="sterling" unicode="&#xa3;" horiz-adv-x="1415" 
d="M540 266h712v-249h-1100v232q80 15 140 59.5t93 110.5t33 147q0 44 -9 87h-265v160h221q-18 56 -32.5 113t-14.5 115q0 127 65.5 222.5t189 148.5t298.5 53q65 0 126.5 -7t110.5 -19t79 -27v-238q-43 21 -116.5 34.5t-156.5 13.5q-147 0 -224 -59.5t-77 -161.5
q0 -47 12 -94t28 -94h453v-160h-408q6 -36 6 -73q0 -98 -44 -177.5t-120 -123.5v-13z" />
    <glyph glyph-name="currency" unicode="&#xa4;" horiz-adv-x="1415" 
d="M473 648q0 -63 32 -115.5t85 -84.5t117 -32t117.5 32t85.5 84.5t32 115.5q0 64 -32 116.5t-85.5 84.5t-117.5 32t-117 -32t-85 -84.5t-32 -116.5zM1247 1021l-147 -149q28 -50 43 -106.5t15 -117.5t-15.5 -117.5t-43.5 -106.5l148 -149l-166 -172l-149 150
q-49 -29 -106 -45t-119 -16t-119 16t-106 45l-149 -150l-166 172l148 149q-28 50 -43 106.5t-15 117.5t15 117.5t43 106.5l-148 149l166 172l148 -150q50 30 107 46t119 16t119 -16t106 -45l149 149z" />
    <glyph glyph-name="yen" unicode="&#xa5;" horiz-adv-x="1415" 
d="M1339 1407l-430 -775h285v-114h-342v-141h342v-115h-342v-257h-292v257h-341v115h341v141h-341v114h284l-430 775h319l310 -611h13l311 611h313z" />
    <glyph glyph-name="brokenbar" unicode="&#xa6;" horiz-adv-x="793" 
d="M532 791h-273v733h273v-733zM532 -310h-273v732h273v-732z" />
    <glyph glyph-name="section" unicode="&#xa7;" horiz-adv-x="1377" 
d="M632 467l118 -37q43 6 78 27t55.5 52t20.5 67q0 50 -40.5 88t-114.5 57l-118 37q-44 -6 -79.5 -27t-56.5 -52t-21 -66q0 -49 41.5 -88t116.5 -58zM687 -284q-136 0 -242 43t-167.5 119.5t-66.5 177.5h274q6 -39 34 -68.5t72.5 -46.5t99.5 -17q56 0 99.5 17.5t68 48.5
t24.5 72q0 44 -40 75t-125 55l-190 59q-174 52 -252 124.5t-78 181.5q0 95 63.5 168t176.5 104v18q-118 51 -172 117.5t-54 161.5q0 104 59.5 181t167 120t251.5 43q134 0 237 -41.5t164 -116t69 -175.5h-273q-8 56 -62.5 90.5t-135.5 34.5q-85 0 -137 -37t-52 -97
q0 -44 37.5 -75t125.5 -56l184 -59q175 -54 253 -126.5t78 -176.5q0 -65 -32 -122.5t-89 -99t-133 -60.5v-18q127 -44 186 -108.5t59 -163.5q0 -103 -60.5 -181.5t-169 -122t-252.5 -43.5z" />
    <glyph glyph-name="dieresis" unicode="&#xa8;" horiz-adv-x="1024" 
d="M271 1276q-43 0 -78.5 20.5t-56.5 56t-21 79.5t21 79.5t56.5 56.5t78.5 21t78 -21t56 -56.5t21 -79.5t-21 -79.5t-56 -56t-78 -20.5zM752 1276q-43 0 -78.5 20.5t-56.5 56t-21 79.5t21 79.5t56.5 56.5t78.5 21t78 -21t56 -56.5t21 -79.5t-21 -79.5t-56 -56t-78 -20.5z
" />
    <glyph glyph-name="copyright" unicode="&#xa9;" horiz-adv-x="1742" 
d="M870 -136q-132 0 -250.5 39.5t-216.5 111.5t-170 170t-111.5 216.5t-39.5 250.5t39.5 250.5t111 217t170 170.5t217 111.5t250.5 39.5t251 -39.5t217 -111.5t170 -170.5t111.5 -217t39.5 -250.5t-39.5 -250.5t-111.5 -216.5t-170.5 -170t-217 -111.5t-250.5 -39.5z
M870 30q105 0 199 31t172 88t135 134.5t88 171t31 197.5q0 105 -31 198.5t-88 171.5t-135 134.5t-172 87.5t-199 31t-199 -31t-171.5 -88t-134.5 -134.5t-88 -171.5t-31 -198t31 -197.5t88 -171t134.5 -134.5t171.5 -88t199 -31zM1237 759h-188q-11 59 -55 92.5t-107 33.5
q-85 0 -133.5 -61.5t-48.5 -169.5q0 -110 48.5 -172t133.5 -62q66 0 108.5 31.5t53.5 88.5h188q-10 -88 -55.5 -151.5t-121 -98t-174.5 -34.5q-118 0 -203.5 48.5t-132 138t-46.5 211.5q0 121 46.5 209.5t132 137t202.5 48.5q97 0 173 -36t122.5 -101t56.5 -153z" />
    <glyph glyph-name="ordfeminine" unicode="&#xaa;" horiz-adv-x="873" 
d="M396 861q43 0 77 15t54 41.5t20 58.5v50l-143 -9q-120 -8 -120 -78q0 -37 31 -57.5t81 -20.5zM314 700q-75 0 -132 27.5t-89 78t-32 117.5q0 101 79.5 158t228.5 65l178 10v58q0 39 -31 61t-87 22q-105 0 -131 -62h-209q6 71 51 122.5t122 79.5t180 28q159 0 246 -66
t87 -185v-503h-226v92h-12q-28 -47 -88 -75t-135 -28z" />
    <glyph glyph-name="guillemotleft" unicode="&#xab;" horiz-adv-x="1463" 
d="M430 572v-11l347 -410h-276l-344 411v8l349 411h271zM958 572v-11l346 -410h-275l-344 411v8l348 411h271z" />
    <glyph glyph-name="logicalnot" unicode="&#xac;" horiz-adv-x="1415" 
d="M1206 712v-672h-261v408h-738v264h999z" />
    <glyph glyph-name="registered" unicode="&#xae;" horiz-adv-x="1260" 
d="M629 438q-110 0 -206 41t-169 114t-114 169.5t-41 206.5t41 206.5t114 169.5t169 114t206 41t206.5 -41t169 -114t113.5 -169.5t41 -206.5t-41 -206.5t-113.5 -169.5t-169 -114t-206.5 -41zM629 574q83 0 155 30.5t126.5 85t85 126t30.5 153.5q0 83 -30.5 154.5
t-85 125.5t-126.5 84.5t-155 30.5q-82 0 -154 -30.5t-127 -84.5t-85.5 -125.5t-30.5 -154.5q0 -82 30.5 -153.5t85.5 -126t127 -85t154 -30.5zM545 733h-125v487h256q80 0 130 -43t50 -113q0 -56 -27 -95t-76 -53l127 -183h-149l-111 165h-75v-165zM545 1116v-121h99
q78 0 78 60q0 61 -76 61h-101z" />
    <glyph glyph-name="macron" unicode="&#xaf;" horiz-adv-x="1024" 
d="M874 1519v-181h-725v181h725z" />
    <glyph glyph-name="degree" unicode="&#xb0;" horiz-adv-x="990" 
d="M494 672q-81 0 -150 29t-120 80t-79.5 119.5t-28.5 147.5q0 80 28.5 148.5t79.5 119.5t120 80t150 29t150 -29t120 -80t79.5 -119.5t28.5 -148.5q0 -79 -28.5 -147.5t-79.5 -119.5t-120 -80t-150 -29zM494 878q49 0 86.5 22.5t58.5 61t21 86.5q0 49 -21.5 87.5t-58.5 61
t-86 22.5t-86 -22.5t-58 -61t-21 -87.5q0 -48 21 -86.5t58 -61t86 -22.5z" />
    <glyph glyph-name="plusminus" unicode="&#xb1;" horiz-adv-x="1415" 
d="M1231 40h-1048v246h1048v-246zM834 641v-248h-254v248h-397v230h397v248h254v-248h397v-230h-397z" />
    <glyph glyph-name="uni00B2" unicode="&#xb2;" horiz-adv-x="895" 
d="M82 1311q0 91 46.5 160t130 107.5t193.5 38.5q109 0 186.5 -34t118.5 -93.5t41 -136.5q0 -52 -18.5 -96t-61.5 -91t-117 -108l-184 -150v-12h392v-185h-713v159l335 282q58 48 86.5 79t38 54t9.5 48q0 43 -32 74t-93 31q-65 0 -101.5 -36t-36.5 -91h-220z" />
    <glyph glyph-name="uni00B3" unicode="&#xb3;" horiz-adv-x="927" 
d="M336 1083v159h120q59 0 94 28t35 72q0 43 -34 70.5t-94 27.5q-63 0 -99 -29t-39 -80h-219q2 87 47.5 151t127.5 99.5t194 35.5q110 0 186 -32.5t115 -86.5t38 -121q0 -80 -49 -131.5t-126 -67.5v-12q101 -14 157 -69.5t56 -142.5q0 -80 -49.5 -140t-136.5 -93.5
t-199 -33.5t-197 36t-133.5 101.5t-52.5 154.5h229q2 -49 42.5 -76.5t107.5 -27.5q64 0 104.5 28.5t40.5 74.5q0 50 -39 77.5t-107 27.5h-120z" />
    <glyph glyph-name="acute" unicode="&#xb4;" horiz-adv-x="1024" 
d="M497 1251h-207l167 354h276z" />
    <glyph glyph-name="mu" unicode="&#x3bc;" horiz-adv-x="1365" 
d="M145 -366v1469h291v-644q0 -112 50 -171t151 -59q64 0 112.5 29.5t75.5 82.5t27 124v638h291v-760q0 -71 20 -97t69 -26q12 0 28 3t26 5v-221q-28 -8 -62 -13t-68 -5q-115 0 -178 43.5t-88 144.5l-3 14h-19q-21 -102 -80.5 -158.5t-163.5 -56.5q-61 0 -104 20.5t-66 57.5
h-18v-420h-291z" />
    <glyph glyph-name="mu" unicode="&#xb5;" horiz-adv-x="1365" 
d="M145 -366v1469h291v-644q0 -112 50 -171t151 -59q64 0 112.5 29.5t75.5 82.5t27 124v638h291v-760q0 -71 20 -97t69 -26q12 0 28 3t26 5v-221q-28 -8 -62 -13t-68 -5q-115 0 -178 43.5t-88 144.5l-3 14h-19q-21 -102 -80.5 -158.5t-163.5 -56.5q-61 0 -104 20.5t-66 57.5
h-18v-420h-291z" />
    <glyph glyph-name="paragraph" unicode="&#xb6;" horiz-adv-x="1377" 
d="M801 -259h-230v824h-19q-100 0 -184.5 33.5t-147 93t-97 138.5t-34.5 171q0 95 34 176t96 140.5t147 92.5t187 33h248v-1702zM971 -259v1702h230v-1702h-230z" />
    <glyph glyph-name="periodcentered" unicode="&#xb7;" horiz-adv-x="712" 
d="M355 378q-54 0 -93.5 22.5t-61.5 62t-22 89.5t22 89.5t61.5 61.5t93.5 22q81 0 129 -48.5t48 -124.5q0 -50 -22 -89.5t-61.5 -62t-93.5 -22.5z" />
    <glyph glyph-name="cedilla" unicode="&#xb8;" horiz-adv-x="1024" 
d="M360 -239v118l92 149h166v-28l-67 -106q91 -6 148 -52t57 -127q0 -70 -36.5 -115.5t-100 -68t-144.5 -22.5q-40 0 -78 4.5t-69 12.5v138q11 -4 42.5 -8.5t67.5 -4.5q29 0 56 5t44.5 17.5t17.5 34.5q0 30 -32.5 41.5t-97.5 11.5h-66z" />
    <glyph glyph-name="uni00B9" unicode="&#xb9;" horiz-adv-x="721" 
d="M317 711v669h-13l-225 -142v205l237 150h240v-882h-239z" />
    <glyph glyph-name="ordmasculine" unicode="&#xba;" horiz-adv-x="914" 
d="M456 694q-123 0 -211 46t-134.5 132.5t-46.5 207.5q0 120 47.5 206t135.5 132.5t209 46.5q122 0 210 -46.5t135.5 -132.5t47.5 -206q0 -122 -47 -208t-135 -132t-211 -46zM456 869q74 0 114.5 55.5t40.5 154.5t-41 154.5t-114 55.5t-114 -55.5t-41 -154.5
q0 -100 40.5 -155t114.5 -55z" />
    <glyph glyph-name="guillemotright" unicode="&#xbb;" horiz-adv-x="1463" 
d="M504 572l-347 409h271l349 -411v-8l-344 -411h-276l347 410v11zM1031 572l-346 409h271l348 -411v-8l-344 -411h-275l346 410v11z" />
    <glyph glyph-name="onequarter" unicode="&#xbc;" horiz-adv-x="2082" 
d="M317 561v669h-13l-225 -142v205l237 150h240v-882h-239zM642 0h-231l959 1443h232zM1665 0v146h-459v178q85 148 173.5 286t179.5 272h333v-551h117v-185h-117v-146h-227zM1413 334v-12h258v392h-12q-62 -90 -125.5 -186.5t-120.5 -193.5z" />
    <glyph glyph-name="onehalf" unicode="&#xbd;" horiz-adv-x="2152" 
d="M317 561v669h-13l-225 -142v205l237 150h240v-882h-239zM642 0h-231l959 1443h232zM1339 600q0 92 46.5 160.5t130 107t193.5 38.5q109 0 186.5 -34t118.5 -94t41 -136q0 -52 -18.5 -96t-61.5 -91t-117 -108l-184 -150v-12h392v-185h-713v159l335 282q57 48 86 79
t38.5 54.5t9.5 47.5q0 43 -32 74t-93 31q-64 0 -101 -36t-37 -91h-220z" />
    <glyph glyph-name="threequarters" unicode="&#xbe;" horiz-adv-x="2288" 
d="M336 933v159h120q59 0 94 28t35 72q0 43 -34 70.5t-94 27.5q-63 0 -99 -29t-39 -80h-219q2 87 47.5 151t127.5 99.5t194 35.5q110 0 186 -32.5t115 -86.5t38 -121q0 -80 -49 -131.5t-126 -67.5v-12q101 -14 157 -69.5t56 -142.5q0 -80 -49.5 -140t-136.5 -93.5
t-199 -33.5t-197 36t-133.5 101.5t-52.5 154.5h229q2 -49 42.5 -76.5t107.5 -27.5q64 0 104.5 28.5t40.5 74.5q0 50 -39 77.5t-107 27.5h-120zM848 0h-231l959 1443h232zM1871 0v146h-459v178q85 148 173.5 286t179.5 272h333v-551h117v-185h-117v-146h-227zM1619 334v-12
h258v392h-12q-62 -90 -125.5 -186.5t-120.5 -193.5z" />
    <glyph glyph-name="questiondown" unicode="&#xbf;" horiz-adv-x="1141" 
d="M1063 87q-2 -125 -60 -220t-165 -148.5t-260 -53.5q-143 0 -250.5 49.5t-166.5 137.5t-59 204q0 112 54.5 193.5t159.5 143.5q67 39 103.5 71t51.5 67.5t15 83.5v53h264l2 -54q7 -80 -10 -139.5t-59 -105.5t-111 -87q-64 -39 -100.5 -70.5t-52 -66t-15.5 -80.5
q0 -47 24 -83t67 -56.5t100 -20.5q86 0 139 49.5t57 132.5h272zM608 811q-84 0 -133 45.5t-49 124.5t49 124.5t133 45.5q85 0 133.5 -45.5t48.5 -124.5t-48.5 -124.5t-133.5 -45.5z" />
    <glyph glyph-name="Agrave" unicode="&#xc0;" horiz-adv-x="1500" 
d="M1101 0l-109 344h-507l-111 -344h-303l501 1443h355l501 -1443h-327zM731 1143l-181 -566h378l-179 566h-18zM637 1590l-253 325h298l172 -325h-217z" />
    <glyph glyph-name="Aacute" unicode="&#xc1;" horiz-adv-x="1500" 
d="M1101 0l-109 344h-507l-111 -344h-303l501 1443h355l501 -1443h-327zM731 1143l-181 -566h378l-179 566h-18zM861 1590h-217l172 325h298z" />
    <glyph glyph-name="Acircumflex" unicode="&#xc2;" horiz-adv-x="1500" 
d="M1101 0l-109 344h-507l-111 -344h-303l501 1443h355l501 -1443h-327zM731 1143l-181 -566h378l-179 566h-18zM613 1915h272l284 -325h-265l-146 181h-18l-146 -181h-265z" />
    <glyph glyph-name="Atilde" unicode="&#xc3;" horiz-adv-x="1500" 
d="M1101 0l-109 344h-507l-111 -344h-303l501 1443h355l501 -1443h-327zM731 1143l-181 -566h378l-179 566h-18zM897 1578q-49 0 -83.5 14t-60 34.5t-46.5 41t-41.5 34.5t-46.5 14q-39 0 -58 -35t-19 -99h-181q0 100 31 171.5t86.5 109.5t128.5 38q49 0 83.5 -14.5t60 -36.5
t46.5 -43.5t42.5 -36t48.5 -14.5q41 0 59 38t18 102h181q0 -99 -31.5 -170.5t-87.5 -109.5t-130 -38z" />
    <glyph glyph-name="Adieresis" unicode="&#xc4;" horiz-adv-x="1500" 
d="M1101 0l-109 344h-507l-111 -344h-303l501 1443h355l501 -1443h-327zM731 1143l-181 -566h378l-179 566h-18zM508 1601q-43 0 -78 21t-56 56.5t-21 78.5q0 44 21 79.5t56 56.5t78 21t78.5 -21t56.5 -56.5t21 -79.5q0 -43 -21 -78.5t-56.5 -56.5t-78.5 -21zM990 1601
q-43 0 -78.5 21t-56.5 56.5t-21 78.5q0 44 21 79.5t56.5 56.5t78.5 21t78 -21t56 -56.5t21 -79.5q0 -43 -21 -78.5t-56 -56.5t-78 -21z" />
    <glyph glyph-name="uni212B" unicode="&#x212b;" horiz-adv-x="1500" 
d="M1101 0l-109 344h-507l-111 -344h-303l501 1443h355l501 -1443h-327zM731 1143l-181 -566h378l-179 566h-18zM749 1535q-58 0 -105.5 27t-76 73.5t-28.5 105.5q0 58 28.5 104.5t76 74t105.5 27.5t105.5 -27.5t76 -74t28.5 -104.5q0 -59 -28.5 -105.5t-76 -73.5
t-105.5 -27zM749 1651q39 0 66 25.5t27 64.5t-27 64t-66 25t-66 -25t-27 -64t27 -64.5t66 -25.5z" />
    <glyph glyph-name="uni212B" unicode="&#xc5;" horiz-adv-x="1500" 
d="M1101 0l-109 344h-507l-111 -344h-303l501 1443h355l501 -1443h-327zM731 1143l-181 -566h378l-179 566h-18zM749 1535q-58 0 -105.5 27t-76 73.5t-28.5 105.5q0 58 28.5 104.5t76 74t105.5 27.5t105.5 -27.5t76 -74t28.5 -104.5q0 -59 -28.5 -105.5t-76 -73.5
t-105.5 -27zM749 1651q39 0 66 25.5t27 64.5t-27 64t-66 25t-66 -25t-27 -64t27 -64.5t66 -25.5z" />
    <glyph glyph-name="AE" unicode="&#xc6;" horiz-adv-x="2059" 
d="M860 1202l-249 -604h378v604h-129zM989 0v364h-465l-154 -364h-299l595 1443h1250v-258h-651v-341h614v-239h-614v-347h651v-258h-927z" />
    <glyph glyph-name="Ccedilla" unicode="&#xc7;" horiz-adv-x="1518" 
d="M1120 490h294q-9 -107 -51.5 -197.5t-114 -159t-166.5 -111t-208 -54.5l-47 -74q91 -6 148 -52t57 -127q0 -70 -36.5 -115.5t-100.5 -68t-145 -22.5q-39 0 -77.5 4.5t-68.5 12.5v138q11 -4 42.5 -8.5t66.5 -4.5q30 0 57 5t44.5 17.5t17.5 34.5q0 30 -33 41.5t-98 11.5
h-66v118l56 89q-181 21 -311 117.5t-200 258t-70 378.5q0 176 46.5 316t135 239t213.5 151t282 52q128 0 238.5 -40t194.5 -112.5t134.5 -171.5t58.5 -217h-294q-14 83 -60 145t-116 96t-156 34q-114 0 -196.5 -59.5t-127 -170t-44.5 -262.5t45 -262.5t127.5 -170.5
t196.5 -60q87 0 156.5 32t115 90.5t60.5 138.5z" />
    <glyph glyph-name="Egrave" unicode="&#xc8;" horiz-adv-x="1274" 
d="M1130 258v-258h-956v1443h956v-258h-654v-337h617v-239h-617v-351h654zM540 1590l-253 325h298l172 -325h-217z" />
    <glyph glyph-name="Eacute" unicode="&#xc9;" horiz-adv-x="1274" 
d="M1130 258v-258h-956v1443h956v-258h-654v-337h617v-239h-617v-351h654zM764 1590h-217l172 325h298z" />
    <glyph glyph-name="Ecircumflex" unicode="&#xca;" horiz-adv-x="1274" 
d="M1130 258v-258h-956v1443h956v-258h-654v-337h617v-239h-617v-351h654zM516 1915h272l284 -325h-265l-146 181h-18l-146 -181h-265z" />
    <glyph glyph-name="Edieresis" unicode="&#xcb;" horiz-adv-x="1274" 
d="M1130 258v-258h-956v1443h956v-258h-654v-337h617v-239h-617v-351h654zM411 1601q-42 0 -77.5 21t-56.5 56.5t-21 78.5q0 44 21 79.5t56.5 56.5t77.5 21q43 0 78.5 -21t56.5 -56.5t21 -79.5q0 -43 -21 -78.5t-56.5 -56.5t-78.5 -21zM893 1601q-43 0 -78.5 21t-56.5 56.5
t-21 78.5q0 44 21 79.5t56.5 56.5t78.5 21t78 -21t56 -56.5t21 -79.5q0 -43 -21 -78.5t-56 -56.5t-78 -21z" />
    <glyph glyph-name="Igrave" unicode="&#xcc;" horiz-adv-x="652" 
d="M477 0h-302v1443h302v-1443zM214 1590l-253 325h298l172 -325h-217z" />
    <glyph glyph-name="Iacute" unicode="&#xcd;" horiz-adv-x="652" 
d="M476 0h-302v1443h302v-1443zM437 1590h-217l172 325h298z" />
    <glyph glyph-name="Icircumflex" unicode="&#xce;" horiz-adv-x="652" 
d="M477 0h-302v1443h302v-1443zM190 1915h272l284 -325h-265l-146 181h-18l-146 -181h-265z" />
    <glyph glyph-name="Idieresis" unicode="&#xcf;" horiz-adv-x="652" 
d="M477 0h-302v1443h302v-1443zM85 1601q-43 0 -78 21t-56 56.5t-21 78.5q0 44 21 79.5t56 56.5t78 21t78.5 -21t56.5 -56.5t21 -79.5q0 -43 -21 -78.5t-56.5 -56.5t-78.5 -21zM567 1601q-43 0 -78.5 21t-56.5 56.5t-21 78.5q0 44 21 79.5t56.5 56.5t78.5 21t78 -21
t56 -56.5t21 -79.5q0 -43 -21 -78.5t-56 -56.5t-78 -21z" />
    <glyph glyph-name="Eth" unicode="&#xd0;" horiz-adv-x="1531" 
d="M476 258h218q200 0 308.5 120t108.5 349q0 146 -49.5 248.5t-143 156t-224.5 53.5h-218v-339h258v-228h-258v-360zM174 1443h568q215 0 366 -83.5t231 -242.5t80 -385q0 -235 -79 -398t-230.5 -248.5t-367.5 -85.5h-568v618h-125v228h125v597z" />
    <glyph glyph-name="Ntilde" unicode="&#xd1;" horiz-adv-x="1573" 
d="M463 0h-289v1443h252l664 -899h18v899h289v-1443h-250l-666 903h-18v-903zM930 1578q-49 0 -83.5 14t-60 34.5t-46.5 41t-42 34.5t-46 14q-39 0 -58 -35t-19 -99h-181q0 100 31 171.5t86.5 109.5t128.5 38q49 0 83.5 -14.5t60 -36.5t46.5 -43.5t42.5 -36t48.5 -14.5
q40 0 58.5 38t18.5 102h181q0 -99 -31.5 -170.5t-87.5 -109.5t-130 -38z" />
    <glyph glyph-name="Ograve" unicode="&#xd2;" horiz-adv-x="1611" 
d="M805 1480q159 0 287.5 -52.5t219 -151.5t139 -239t48.5 -315q0 -176 -48 -316t-139 -239t-219 -151.5t-288 -52.5q-161 0 -289.5 52.5t-219 151.5t-138.5 239t-48 316t48.5 316t139.5 238.5t219.5 151t287.5 52.5zM805 1215q-118 0 -204.5 -60.5t-134 -171t-47.5 -261.5
q0 -150 47 -261t133.5 -172t205.5 -61q118 0 204 61t133.5 172t47.5 261q0 151 -47.5 261.5t-134 171t-203.5 60.5zM693 1590l-253 325h298l172 -325h-217z" />
    <glyph glyph-name="Oacute" unicode="&#xd3;" horiz-adv-x="1611" 
d="M805 1480q159 0 287.5 -52.5t219 -151.5t139 -239t48.5 -315q0 -176 -48 -316t-139 -239t-219 -151.5t-288 -52.5q-161 0 -289.5 52.5t-219 151.5t-138.5 239t-48 316t48.5 316t139.5 238.5t219.5 151t287.5 52.5zM805 1215q-118 0 -204.5 -60.5t-134 -171t-47.5 -261.5
q0 -150 47 -261t133.5 -172t205.5 -61q118 0 204 61t133.5 172t47.5 261q0 151 -47.5 261.5t-134 171t-203.5 60.5zM917 1590h-217l172 325h298z" />
    <glyph glyph-name="Ocircumflex" unicode="&#xd4;" horiz-adv-x="1611" 
d="M805 1480q159 0 287.5 -52.5t219 -151.5t139 -239t48.5 -315q0 -176 -48 -316t-139 -239t-219 -151.5t-288 -52.5q-161 0 -289.5 52.5t-219 151.5t-138.5 239t-48 316t48.5 316t139.5 238.5t219.5 151t287.5 52.5zM805 1215q-118 0 -204.5 -60.5t-134 -171t-47.5 -261.5
q0 -150 47 -261t133.5 -172t205.5 -61q118 0 204 61t133.5 172t47.5 261q0 151 -47.5 261.5t-134 171t-203.5 60.5zM669 1915h272l284 -325h-265l-146 181h-18l-146 -181h-265z" />
    <glyph glyph-name="Otilde" unicode="&#xd5;" horiz-adv-x="1611" 
d="M805 1480q159 0 287.5 -52.5t219 -151.5t139 -239t48.5 -315q0 -176 -48 -316t-139 -239t-219 -151.5t-288 -52.5q-161 0 -289.5 52.5t-219 151.5t-138.5 239t-48 316t48.5 316t139.5 238.5t219.5 151t287.5 52.5zM805 1215q-118 0 -204.5 -60.5t-134 -171t-47.5 -261.5
q0 -150 47 -261t133.5 -172t205.5 -61q118 0 204 61t133.5 172t47.5 261q0 151 -47.5 261.5t-134 171t-203.5 60.5zM953 1578q-49 0 -83.5 14t-60 34.5t-46.5 41t-41.5 34.5t-46.5 14q-39 0 -58 -35t-19 -99h-181q0 100 31 171.5t86.5 109.5t128.5 38q49 0 83.5 -14.5
t60 -36.5t46.5 -43.5t42.5 -36t48.5 -14.5q41 0 59 38t18 102h181q0 -99 -31.5 -170.5t-87.5 -109.5t-130 -38z" />
    <glyph glyph-name="Odieresis" unicode="&#xd6;" horiz-adv-x="1611" 
d="M805 1480q159 0 287.5 -52.5t219 -151.5t139 -239t48.5 -315q0 -176 -48 -316t-139 -239t-219 -151.5t-288 -52.5q-161 0 -289.5 52.5t-219 151.5t-138.5 239t-48 316t48.5 316t139.5 238.5t219.5 151t287.5 52.5zM805 1215q-118 0 -204.5 -60.5t-134 -171t-47.5 -261.5
q0 -150 47 -261t133.5 -172t205.5 -61q118 0 204 61t133.5 172t47.5 261q0 151 -47.5 261.5t-134 171t-203.5 60.5zM564 1601q-43 0 -78 21t-56 56.5t-21 78.5q0 44 21 79.5t56 56.5t78 21t78.5 -21t56.5 -56.5t21 -79.5q0 -43 -21 -78.5t-56.5 -56.5t-78.5 -21zM1046 1601
q-43 0 -78.5 21t-56.5 56.5t-21 78.5q0 44 21 79.5t56.5 56.5t78.5 21t78 -21t56 -56.5t21 -79.5q0 -43 -21 -78.5t-56 -56.5t-78 -21z" />
    <glyph glyph-name="multiply" unicode="&#xd7;" horiz-adv-x="1415" 
d="M707 397l-329 -322l-170 176l329 328l-329 329l170 176l329 -322l329 322l170 -176l-328 -329l328 -328l-170 -176z" />
    <glyph glyph-name="Oslash" unicode="&#xd8;" horiz-adv-x="1611" 
d="M1156 989l-602 -682q101 -92 251 -92q122 0 212 62.5t139 176.5t49 269q0 153 -49 266zM451 458l601 681q-49 43 -111 66.5t-136 23.5q-122 0 -212.5 -62t-139.5 -175.5t-49 -268.5q0 -151 47 -265zM1473 1348l-114 -129q68 -95 104 -220t36 -276q0 -175 -48 -315.5
t-139 -240t-219 -152t-288 -52.5q-130 0 -239.5 35t-194.5 101l-111 -126l-129 123l117 132q-67 95 -102.5 220t-35.5 275q0 175 48.5 315t139.5 239t219.5 151.5t287.5 52.5q128 0 236.5 -34.5t193.5 -99.5l109 123z" />
    <glyph glyph-name="Ugrave" unicode="&#xd9;" horiz-adv-x="1557" 
d="M475 1443v-914q0 -91 35.5 -158t103 -103.5t164.5 -36.5t164 36.5t102.5 103.5t35.5 158v914h302v-945q0 -120 -42 -218.5t-121.5 -169t-191 -109t-249.5 -38.5t-249.5 38.5t-191 109t-122 169t-42.5 218.5v945h302zM666 1590l-253 325h298l172 -325h-217z" />
    <glyph glyph-name="Uacute" unicode="&#xda;" horiz-adv-x="1557" 
d="M475 1443v-914q0 -91 35.5 -158t103 -103.5t164.5 -36.5t164 36.5t102.5 103.5t35.5 158v914h302v-945q0 -120 -42 -218.5t-121.5 -169t-191 -109t-249.5 -38.5t-249.5 38.5t-191 109t-122 169t-42.5 218.5v945h302zM890 1590h-217l172 325h298z" />
    <glyph glyph-name="Ucircumflex" unicode="&#xdb;" horiz-adv-x="1557" 
d="M475 1443v-914q0 -91 35.5 -158t103 -103.5t164.5 -36.5t164 36.5t102.5 103.5t35.5 158v914h302v-945q0 -120 -42 -218.5t-121.5 -169t-191 -109t-249.5 -38.5t-249.5 38.5t-191 109t-122 169t-42.5 218.5v945h302zM642 1915h272l284 -325h-265l-146 181h-18l-146 -181
h-265z" />
    <glyph glyph-name="Udieresis" unicode="&#xdc;" horiz-adv-x="1557" 
d="M475 1443v-914q0 -91 35.5 -158t103 -103.5t164.5 -36.5t164 36.5t102.5 103.5t35.5 158v914h302v-945q0 -120 -42 -218.5t-121.5 -169t-191 -109t-249.5 -38.5t-249.5 38.5t-191 109t-122 169t-42.5 218.5v945h302zM537 1601q-42 0 -77.5 21t-56.5 56.5t-21 78.5
q0 44 21 79.5t56.5 56.5t77.5 21q43 0 78.5 -21t56.5 -56.5t21 -79.5q0 -43 -21 -78.5t-56.5 -56.5t-78.5 -21zM1019 1601q-43 0 -78.5 21t-56.5 56.5t-21 78.5q0 44 21 79.5t56.5 56.5t78.5 21t78 -21t56 -56.5t21 -79.5q0 -43 -21 -78.5t-56 -56.5t-78 -21z" />
    <glyph glyph-name="Yacute" unicode="&#xdd;" horiz-adv-x="1451" 
d="M876 0h-302v531l-503 912h327l318 -604h18l317 604h327l-502 -912v-531zM837 1590h-217l172 325h298z" />
    <glyph glyph-name="Thorn" unicode="&#xde;" horiz-adv-x="1378" 
d="M174 1443h304v-232h307q102 0 188.5 -31.5t151 -91t100 -145.5t35.5 -194q0 -107 -37 -192.5t-103 -145.5t-155.5 -91.5t-194.5 -31.5h-294v-288h-302v1443zM476 963v-430h226q115 0 183 54.5t68 161.5t-68 160.5t-182 53.5h-227z" />
    <glyph glyph-name="germandbls" unicode="&#xdf;" horiz-adv-x="1402" 
d="M481 0h-290v1079q0 125 61.5 215t174 138.5t264.5 48.5q110 0 200.5 -27.5t156 -77.5t101.5 -119t36 -153q0 -80 -28 -146.5t-77 -112t-113 -63.5v-19q100 -7 175 -52.5t117.5 -124.5t42.5 -185q0 -124 -59.5 -217.5t-168.5 -146t-257 -52.5q-51 0 -100.5 4.5t-80.5 11.5
v241q54 -18 129 -18q116 0 178.5 53t62.5 142q0 91 -72 143.5t-202 52.5h-72v245h49q87 0 140 50.5t53 141.5q0 82 -54.5 133.5t-151.5 51.5q-103 0 -159 -56.5t-56 -163.5v-1017z" />
    <glyph glyph-name="agrave" unicode="&#xe0;" horiz-adv-x="1208" 
d="M543 202q68 0 121.5 26t84.5 71t31 101v81l-223 -14q-186 -13 -186 -133q0 -62 48 -97t124 -35zM447 -17q-106 0 -187.5 41t-127.5 115.5t-46 175.5q0 150 110.5 235t316.5 97l267 16v90q0 69 -48 106.5t-138 37.5q-79 0 -130 -26.5t-69 -75.5h-268q10 102 72 176.5
t167 115t244 40.5q146 0 248 -44.5t155.5 -128t53.5 -201.5v-753h-282v144h-18q-43 -76 -128 -118.5t-192 -42.5zM505 1251l-236 354h276l168 -354h-208z" />
    <glyph glyph-name="aacute" unicode="&#xe1;" horiz-adv-x="1208" 
d="M543 202q68 0 121.5 26t84.5 71t31 101v81l-223 -14q-186 -13 -186 -133q0 -62 48 -97t124 -35zM447 -17q-106 0 -187.5 41t-127.5 115.5t-46 175.5q0 150 110.5 235t316.5 97l267 16v90q0 69 -48 106.5t-138 37.5q-79 0 -130 -26.5t-69 -75.5h-268q10 102 72 176.5
t167 115t244 40.5q146 0 248 -44.5t155.5 -128t53.5 -201.5v-753h-282v144h-18q-43 -76 -128 -118.5t-192 -42.5zM715 1251h-208l168 354h276z" />
    <glyph glyph-name="acircumflex" unicode="&#xe2;" horiz-adv-x="1208" 
d="M543 202q68 0 121.5 26t84.5 71t31 101v81l-223 -14q-186 -13 -186 -133q0 -62 48 -97t124 -35zM447 -17q-106 0 -187.5 41t-127.5 115.5t-46 175.5q0 150 110.5 235t316.5 97l267 16v90q0 69 -48 106.5t-138 37.5q-79 0 -130 -26.5t-69 -75.5h-268q10 102 72 176.5
t167 115t244 40.5q146 0 248 -44.5t155.5 -128t53.5 -201.5v-753h-282v144h-18q-43 -76 -128 -118.5t-192 -42.5zM756 1605l255 -354h-258l-134 209h-18l-134 -209h-258l255 354h292z" />
    <glyph glyph-name="atilde" unicode="&#xe3;" horiz-adv-x="1208" 
d="M543 202q68 0 121.5 26t84.5 71t31 101v81l-223 -14q-186 -13 -186 -133q0 -62 48 -97t124 -35zM447 -17q-106 0 -187.5 41t-127.5 115.5t-46 175.5q0 150 110.5 235t316.5 97l267 16v90q0 69 -48 106.5t-138 37.5q-79 0 -130 -26.5t-69 -75.5h-268q10 102 72 176.5
t167 115t244 40.5q146 0 248 -44.5t155.5 -128t53.5 -201.5v-753h-282v144h-18q-43 -76 -128 -118.5t-192 -42.5zM758 1253q-49 0 -83.5 14t-60 34.5t-46.5 41t-42 34.5t-46 14q-39 0 -58 -34.5t-19 -99.5h-181q0 101 31 172t86.5 109t128.5 38q49 0 83.5 -14.5t60 -36
t46.5 -43.5t42.5 -36.5t48.5 -14.5q40 0 58.5 37.5t18.5 102.5h181q0 -99 -31.5 -170.5t-87.5 -109.5t-130 -38z" />
    <glyph glyph-name="adieresis" unicode="&#xe4;" horiz-adv-x="1208" 
d="M543 202q68 0 121.5 26t84.5 71t31 101v81l-223 -14q-186 -13 -186 -133q0 -62 48 -97t124 -35zM447 -17q-106 0 -187.5 41t-127.5 115.5t-46 175.5q0 150 110.5 235t316.5 97l267 16v90q0 69 -48 106.5t-138 37.5q-79 0 -130 -26.5t-69 -75.5h-268q10 102 72 176.5
t167 115t244 40.5q146 0 248 -44.5t155.5 -128t53.5 -201.5v-753h-282v144h-18q-43 -76 -128 -118.5t-192 -42.5zM369 1276q-42 0 -77.5 20.5t-56.5 56t-21 79.5t21 79.5t56.5 56.5t77.5 21q43 0 78.5 -21t56.5 -56.5t21 -79.5t-21 -79.5t-56.5 -56t-78.5 -20.5zM851 1276
q-43 0 -78.5 20.5t-56.5 56t-21 79.5t21 79.5t56.5 56.5t78.5 21t78 -21t56 -56.5t21 -79.5t-21 -79.5t-56 -56t-78 -20.5z" />
    <glyph glyph-name="aring" unicode="&#xe5;" horiz-adv-x="1208" 
d="M543 202q68 0 121.5 26t84.5 71t31 101v81l-223 -14q-186 -13 -186 -133q0 -62 48 -97t124 -35zM447 -17q-106 0 -187.5 41t-127.5 115.5t-46 175.5q0 150 110.5 235t316.5 97l267 16v90q0 69 -48 106.5t-138 37.5q-79 0 -130 -26.5t-69 -75.5h-268q10 102 72 176.5
t167 115t244 40.5q146 0 248 -44.5t155.5 -128t53.5 -201.5v-753h-282v144h-18q-43 -76 -128 -118.5t-192 -42.5zM610 1245q-67 0 -122.5 31t-89 84.5t-33.5 122.5t33.5 123.5t89 85.5t122.5 31t122.5 -31t89 -85.5t33.5 -123.5t-33.5 -122.5t-89 -84.5t-122.5 -31z
M610 1380q44 0 75.5 29.5t31.5 73.5q0 46 -31.5 75.5t-75.5 29.5t-75.5 -29.5t-31.5 -75.5q0 -44 31.5 -73.5t75.5 -29.5z" />
    <glyph glyph-name="ae" unicode="&#xe6;" horiz-adv-x="1894" 
d="M1314 -24q-87 0 -163.5 24.5t-135 69t-92.5 104.5h-18q-62 -91 -167 -144.5t-240 -53.5q-125 0 -218 43t-143.5 119.5t-50.5 176.5q0 150 110.5 235t316.5 97l267 16v73q0 82 -50.5 121.5t-135.5 39.5q-83 0 -132 -26.5t-67 -75.5h-268q6 73 42 134t96.5 105.5t140 68.5
t173.5 24q134 0 221.5 -43.5t135.5 -114.5h18q56 70 149 114t207 44q152 0 262.5 -67t170 -190.5t59.5 -291.5v-94h-747v-26q2 -78 35 -136t89.5 -90t131.5 -32q155 0 212 114h269q-22 -104 -87 -180t-165 -117t-226 -41zM1292 904q-68 0 -120 -29.5t-82.5 -82t-34.5 -123.5
h462q-3 70 -32.5 123t-79 82.5t-113.5 29.5zM548 199q71 0 123 27.5t80.5 72.5t28.5 98v84l-223 -14q-186 -13 -186 -135q0 -62 49 -97.5t128 -35.5z" />
    <glyph glyph-name="ccedilla" unicode="&#xe7;" horiz-adv-x="1203" 
d="M1121 714h-272q-15 79 -70.5 126.5t-148.5 47.5q-118 0 -181.5 -85.5t-63.5 -248.5q0 -165 64 -252t181 -87q89 0 146 42.5t73 124.5h272q-10 -108 -58.5 -191t-131 -136t-194.5 -71l-57 -90q91 -6 148 -52t57 -127q0 -70 -36.5 -115.5t-100 -68t-145.5 -22.5
q-39 0 -77.5 4.5t-68.5 12.5v138q11 -4 42.5 -8.5t66.5 -4.5q29 0 56.5 5t45 17.5t17.5 34.5q0 30 -33 41.5t-98 11.5h-66v118l63 101q-221 22 -340.5 170t-119.5 404q0 183 63 311t183 195t293 67q146 0 251.5 -51t166.5 -143.5t73 -218.5z" />
    <glyph glyph-name="egrave" unicode="&#xe8;" horiz-adv-x="1231" 
d="M622 904q-67 0 -119.5 -29.5t-84 -83t-36.5 -124.5h470q-5 109 -66.5 173t-163.5 64zM858 314h271q-22 -104 -89.5 -179.5t-173.5 -117t-241 -41.5q-168 0 -287.5 68t-183 195.5t-63.5 306.5q0 180 64 310t183 200.5t283 70.5q162 0 278 -66.5t177.5 -191t61.5 -299.5
v-89h-757v-15q3 -123 70.5 -194.5t181.5 -71.5q86 0 144 29.5t81 84.5zM519 1251l-236 354h276l168 -354h-208z" />
    <glyph glyph-name="eacute" unicode="&#xe9;" horiz-adv-x="1231" 
d="M622 904q-67 0 -119.5 -29.5t-84 -83t-36.5 -124.5h470q-5 109 -66.5 173t-163.5 64zM858 314h271q-22 -104 -89.5 -179.5t-173.5 -117t-241 -41.5q-168 0 -287.5 68t-183 195.5t-63.5 306.5q0 180 64 310t183 200.5t283 70.5q162 0 278 -66.5t177.5 -191t61.5 -299.5
v-89h-757v-15q3 -123 70.5 -194.5t181.5 -71.5q86 0 144 29.5t81 84.5zM729 1251h-208l168 354h276z" />
    <glyph glyph-name="ecircumflex" unicode="&#xea;" horiz-adv-x="1231" 
d="M622 904q-67 0 -119.5 -29.5t-84 -83t-36.5 -124.5h470q-5 109 -66.5 173t-163.5 64zM858 314h271q-22 -104 -89.5 -179.5t-173.5 -117t-241 -41.5q-168 0 -287.5 68t-183 195.5t-63.5 306.5q0 180 64 310t183 200.5t283 70.5q162 0 278 -66.5t177.5 -191t61.5 -299.5
v-89h-757v-15q3 -123 70.5 -194.5t181.5 -71.5q86 0 144 29.5t81 84.5zM770 1605l255 -354h-258l-134 209h-18l-134 -209h-258l255 354h292z" />
    <glyph glyph-name="edieresis" unicode="&#xeb;" horiz-adv-x="1231" 
d="M622 904q-67 0 -119.5 -29.5t-84 -83t-36.5 -124.5h470q-5 109 -66.5 173t-163.5 64zM858 314h271q-22 -104 -89.5 -179.5t-173.5 -117t-241 -41.5q-168 0 -287.5 68t-183 195.5t-63.5 306.5q0 180 64 310t183 200.5t283 70.5q162 0 278 -66.5t177.5 -191t61.5 -299.5
v-89h-757v-15q3 -123 70.5 -194.5t181.5 -71.5q86 0 144 29.5t81 84.5zM383 1276q-42 0 -77.5 20.5t-56.5 56t-21 79.5t21 79.5t56.5 56.5t77.5 21q43 0 78.5 -21t56.5 -56.5t21 -79.5t-21 -79.5t-56.5 -56t-78.5 -20.5zM865 1276q-43 0 -78.5 20.5t-56.5 56t-21 79.5
t21 79.5t56.5 56.5t78.5 21t78 -21t56 -56.5t21 -79.5t-21 -79.5t-56 -56t-78 -20.5z" />
    <glyph glyph-name="igrave" unicode="&#xec;" horiz-adv-x="587" 
d="M148 0v1103h291v-1103h-291zM189 1251l-236 354h276l168 -354h-208z" />
    <glyph glyph-name="iacute" unicode="&#xed;" horiz-adv-x="587" 
d="M147 0v1103h291v-1103h-291zM398 1251h-208l168 354h276z" />
    <glyph glyph-name="icircumflex" unicode="&#xee;" horiz-adv-x="587" 
d="M148 0v1103h291v-1103h-291zM440 1605l255 -354h-258l-134 209h-18l-134 -209h-258l255 354h292z" />
    <glyph glyph-name="idieresis" unicode="&#xef;" horiz-adv-x="587" 
d="M148 0v1103h291v-1103h-291zM53 1276q-43 0 -78 20.5t-56 56t-21 79.5t21 79.5t56 56.5t78 21t78.5 -21t56.5 -56.5t21 -79.5t-21 -79.5t-56.5 -56t-78.5 -20.5zM535 1276q-43 0 -78.5 20.5t-56.5 56t-21 79.5t21 79.5t56.5 56.5t78.5 21t78 -21t56 -56.5t21 -79.5
t-21 -79.5t-56 -56t-78 -20.5z" />
    <glyph glyph-name="eth" unicode="&#xf0;" horiz-adv-x="1279" 
d="M644 226q77 0 133.5 38t87 106t30.5 157q0 90 -30.5 158.5t-87 107.5t-134.5 39t-133.5 -39.5t-85.5 -108.5t-30 -158q0 -90 30.5 -157.5t86.5 -105t133 -37.5zM941 1416l-150 -81q132 -95 218.5 -215t129 -255.5t42.5 -278.5q0 -125 -35.5 -234t-104.5 -192t-170.5 -130
t-234.5 -47q-132 0 -233 41.5t-169 115t-103 170.5t-35 207q0 122 36 217.5t99.5 162t146.5 101t177 34.5q89 0 168.5 -38.5t125.5 -102.5h16q-37 92 -108.5 175.5t-174.5 154.5l-307 -166v155l172 93q-40 22 -84 42t-91 39v173q110 -24 206.5 -59.5t179.5 -79.5l282 153z
" />
    <glyph glyph-name="ntilde" unicode="&#xf1;" horiz-adv-x="1285" 
d="M145 0v1103h282v-177h18q38 93 121 147t205 54q184 0 280.5 -108t96.5 -306v-713h-291v644q0 114 -50 173t-153 59q-67 0 -116 -30t-75.5 -84t-26.5 -126v-636h-291zM802 1253q-49 0 -83.5 14t-60 34.5t-46.5 41t-42 34.5t-46 14q-39 0 -58 -34.5t-19 -99.5h-181
q0 101 31 172t86.5 109t128.5 38q49 0 83.5 -14.5t60 -36t46.5 -43.5t42.5 -36.5t48.5 -14.5q40 0 58.5 37.5t18.5 102.5h181q0 -99 -31.5 -170.5t-87.5 -109.5t-130 -38z" />
    <glyph glyph-name="ograve" unicode="&#xf2;" horiz-adv-x="1269" 
d="M634 -24q-169 0 -291 69t-187 198t-65 309q0 178 65.5 307t187.5 198.5t290 69.5t289.5 -69t187.5 -198t66 -308q0 -180 -65 -309t-187 -198t-291 -69zM634 214q116 0 180 89t64 249q0 159 -64.5 248t-179.5 89q-116 0 -180 -89t-64 -248q0 -161 63.5 -249.5t180.5 -88.5
zM529 1251l-236 354h276l168 -354h-208z" />
    <glyph glyph-name="oacute" unicode="&#xf3;" horiz-adv-x="1269" 
d="M634 -24q-169 0 -291 69t-187 198t-65 309q0 178 65.5 307t187.5 198.5t290 69.5t289.5 -69t187.5 -198t66 -308q0 -180 -65 -309t-187 -198t-291 -69zM634 214q116 0 180 89t64 249q0 159 -64.5 248t-179.5 89q-116 0 -180 -89t-64 -248q0 -161 63.5 -249.5t180.5 -88.5
zM739 1251h-208l168 354h276z" />
    <glyph glyph-name="ocircumflex" unicode="&#xf4;" horiz-adv-x="1269" 
d="M634 -24q-169 0 -291 69t-187 198t-65 309q0 178 65.5 307t187.5 198.5t290 69.5t289.5 -69t187.5 -198t66 -308q0 -180 -65 -309t-187 -198t-291 -69zM634 214q116 0 180 89t64 249q0 159 -64.5 248t-179.5 89q-116 0 -180 -89t-64 -248q0 -161 63.5 -249.5t180.5 -88.5
zM780 1605l255 -354h-258l-134 209h-18l-134 -209h-258l255 354h292z" />
    <glyph glyph-name="otilde" unicode="&#xf5;" horiz-adv-x="1269" 
d="M634 -24q-169 0 -291 69t-187 198t-65 309q0 178 65.5 307t187.5 198.5t290 69.5t289.5 -69t187.5 -198t66 -308q0 -180 -65 -309t-187 -198t-291 -69zM634 214q116 0 180 89t64 249q0 159 -64.5 248t-179.5 89q-116 0 -180 -89t-64 -248q0 -161 63.5 -249.5t180.5 -88.5
zM782 1253q-49 0 -83.5 14t-60 34.5t-46.5 41t-42 34.5t-46 14q-39 0 -58 -34.5t-19 -99.5h-181q0 101 31 172t86.5 109t128.5 38q49 0 83.5 -14.5t60 -36t46.5 -43.5t42.5 -36.5t48.5 -14.5q40 0 58.5 37.5t18.5 102.5h181q0 -99 -31.5 -170.5t-87.5 -109.5t-130 -38z" />
    <glyph glyph-name="odieresis" unicode="&#xf6;" horiz-adv-x="1269" 
d="M634 -24q-169 0 -291 69t-187 198t-65 309q0 178 65.5 307t187.5 198.5t290 69.5t289.5 -69t187.5 -198t66 -308q0 -180 -65 -309t-187 -198t-291 -69zM634 214q116 0 180 89t64 249q0 159 -64.5 248t-179.5 89q-116 0 -180 -89t-64 -248q0 -161 63.5 -249.5t180.5 -88.5
zM393 1276q-42 0 -77.5 20.5t-56.5 56t-21 79.5t21 79.5t56.5 56.5t77.5 21q43 0 78.5 -21t56.5 -56.5t21 -79.5t-21 -79.5t-56.5 -56t-78.5 -20.5zM875 1276q-43 0 -78.5 20.5t-56.5 56t-21 79.5t21 79.5t56.5 56.5t78.5 21t78 -21t56 -56.5t21 -79.5t-21 -79.5t-56 -56
t-78 -20.5z" />
    <glyph glyph-name="divide" unicode="&#xf7;" horiz-adv-x="1415" 
d="M707 824q-74 0 -120.5 45t-46.5 117t46.5 116.5t120.5 44.5t120.5 -44.5t46.5 -116.5t-46.5 -117t-120.5 -45zM707 11q-74 0 -120.5 45t-46.5 117q0 73 46.5 117.5t120.5 44.5t120.5 -44.5t46.5 -117.5q0 -72 -46.5 -117t-120.5 -45zM1226 461h-1038v237h1038v-237z" />
    <glyph glyph-name="oslash" unicode="&#xf8;" horiz-adv-x="1269" 
d="M886 698l-420 -450q66 -61 168 -61q128 0 198 96t70 269q0 40 -4 77t-12 69zM383 398l422 453q-66 66 -171 66q-128 0 -198.5 -96.5t-70.5 -268.5q0 -86 18 -154zM1176 1009l-93 -100q46 -70 70 -159.5t24 -196.5q0 -181 -65 -309.5t-187 -197.5t-291 -69
q-100 0 -183.5 24.5t-149.5 70.5l-96 -103l-113 118l96 102q-47 71 -72 162.5t-25 201.5q0 178 65.5 307t187.5 198.5t290 69.5q101 0 186 -25.5t151 -74.5l92 99z" />
    <glyph glyph-name="ugrave" unicode="&#xf9;" horiz-adv-x="1290" 
d="M1143 1103v-1103h-282v177h-18q-39 -96 -118 -148.5t-204 -52.5q-119 0 -205.5 48.5t-133.5 140t-47 219.5v719h291v-644q0 -230 203 -230q109 0 166 64t57 174v636h291zM534 1251l-236 354h276l168 -354h-208z" />
    <glyph glyph-name="uacute" unicode="&#xfa;" horiz-adv-x="1290" 
d="M1143 1103v-1103h-282v177h-18q-39 -96 -118 -148.5t-204 -52.5q-119 0 -205.5 48.5t-133.5 140t-47 219.5v719h291v-644q0 -230 203 -230q109 0 166 64t57 174v636h291zM744 1251h-208l168 354h276z" />
    <glyph glyph-name="ucircumflex" unicode="&#xfb;" horiz-adv-x="1290" 
d="M1143 1103v-1103h-282v177h-18q-39 -96 -118 -148.5t-204 -52.5q-119 0 -205.5 48.5t-133.5 140t-47 219.5v719h291v-644q0 -230 203 -230q109 0 166 64t57 174v636h291zM785 1605l255 -354h-258l-134 209h-18l-134 -209h-258l255 354h292z" />
    <glyph glyph-name="udieresis" unicode="&#xfc;" horiz-adv-x="1290" 
d="M1143 1103v-1103h-282v177h-18q-39 -96 -118 -148.5t-204 -52.5q-119 0 -205.5 48.5t-133.5 140t-47 219.5v719h291v-644q0 -230 203 -230q109 0 166 64t57 174v636h291zM398 1276q-43 0 -78 20.5t-56 56t-21 79.5t21 79.5t56 56.5t78 21t78.5 -21t56.5 -56.5t21 -79.5
t-21 -79.5t-56.5 -56t-78.5 -20.5zM880 1276q-43 0 -78.5 20.5t-56.5 56t-21 79.5t21 79.5t56.5 56.5t78.5 21t78 -21t56 -56.5t21 -79.5t-21 -79.5t-56 -56t-78 -20.5z" />
    <glyph glyph-name="yacute" unicode="&#xfd;" horiz-adv-x="1223" 
d="M282 -401h-20t-35.5 0.5t-35.5 1t-20 1.5v234q5 -1 18.5 -1.5t27.5 -0.5h20q82 0 129.5 28t65.5 91l10 40l-387 1110h321l232 -836h18l232 836h308l-380 -1120q-35 -107 -80 -180.5t-104.5 -118t-138 -65t-181.5 -20.5zM720 1251h-208l168 354h276z" />
    <glyph glyph-name="thorn" unicode="&#xfe;" horiz-adv-x="1339" 
d="M789 1121q140 0 240 -68t154 -195.5t54 -305.5t-54 -305.5t-153.5 -195.5t-237.5 -68q-119 0 -206 49t-127 137h-18v-514h-291v1852h287v-585h18q45 93 133 146t201 53zM688 226q118 0 184 86.5t66 239.5q0 101 -30 174t-85.5 112t-133.5 39t-134 -39.5t-86.5 -112.5
t-30.5 -174t30.5 -174t86.5 -112t133 -39z" />
    <glyph glyph-name="ydieresis" unicode="&#xff;" horiz-adv-x="1223" 
d="M282 -401h-20t-35.5 0.5t-35.5 1t-20 1.5v234q5 -1 18.5 -1.5t27.5 -0.5h20q82 0 129.5 28t65.5 91l10 40l-387 1110h321l232 -836h18l232 836h308l-380 -1120q-35 -107 -80 -180.5t-104.5 -118t-138 -65t-181.5 -20.5zM374 1276q-43 0 -78 20.5t-56 56t-21 79.5t21 79.5
t56 56.5t78 21t78.5 -21t56.5 -56.5t21 -79.5t-21 -79.5t-56.5 -56t-78.5 -20.5zM856 1276q-43 0 -78.5 20.5t-56.5 56t-21 79.5t21 79.5t56.5 56.5t78.5 21t78 -21t56 -56.5t21 -79.5t-21 -79.5t-56 -56t-78 -20.5z" />
    <glyph glyph-name="Amacron" unicode="&#x100;" horiz-adv-x="1500" 
d="M1101 0l-109 344h-507l-111 -344h-303l501 1443h355l501 -1443h-327zM731 1143l-181 -566h378l-179 566h-18zM1112 1844v-181h-726v181h726z" />
    <glyph glyph-name="amacron" unicode="&#x101;" horiz-adv-x="1208" 
d="M543 202q68 0 121.5 26t84.5 71t31 101v81l-223 -14q-186 -13 -186 -133q0 -62 48 -97t124 -35zM447 -17q-106 0 -187.5 41t-127.5 115.5t-46 175.5q0 150 110.5 235t316.5 97l267 16v90q0 69 -48 106.5t-138 37.5q-79 0 -130 -26.5t-69 -75.5h-268q10 102 72 176.5
t167 115t244 40.5q146 0 248 -44.5t155.5 -128t53.5 -201.5v-753h-282v144h-18q-43 -76 -128 -118.5t-192 -42.5zM973 1519v-181h-726v181h726z" />
    <glyph glyph-name="Abreve" unicode="&#x102;" horiz-adv-x="1500" 
d="M1101 0l-109 344h-507l-111 -344h-303l501 1443h355l501 -1443h-327zM731 1143l-181 -566h378l-179 566h-18zM354 1913h208q1 -71 50.5 -116t136.5 -45t136.5 45t50.5 116h208q0 -97 -47.5 -172t-135.5 -118t-212 -43t-212 43t-135.5 118t-47.5 172z" />
    <glyph glyph-name="abreve" unicode="&#x103;" horiz-adv-x="1208" 
d="M543 202q68 0 121.5 26t84.5 71t31 101v81l-223 -14q-186 -13 -186 -133q0 -62 48 -97t124 -35zM447 -17q-106 0 -187.5 41t-127.5 115.5t-46 175.5q0 150 110.5 235t316.5 97l267 16v90q0 69 -48 106.5t-138 37.5q-79 0 -130 -26.5t-69 -75.5h-268q10 102 72 176.5
t167 115t244 40.5q146 0 248 -44.5t155.5 -128t53.5 -201.5v-753h-282v144h-18q-43 -76 -128 -118.5t-192 -42.5zM218 1605h207q2 -84 49 -134t136 -50t136 50t49 134h207q0 -105 -46.5 -185.5t-134 -126t-211.5 -45.5t-211.5 45.5t-134 126t-46.5 185.5z" />
    <glyph glyph-name="Aogonek" unicode="&#x104;" horiz-adv-x="1500" 
d="M550 577h378l-179 566h-18zM1428 0h-31q-66 -12 -112.5 -39.5t-71.5 -65.5t-25 -79q0 -45 31.5 -74.5t95.5 -29.5q30 0 69 9v-167q-35 -10 -73 -15.5t-72 -5.5q-82 0 -144 29t-96.5 80.5t-34.5 118.5q0 62 34 126.5t102 116.5l-108 340h-507l-111 -344h-303l501 1443h355
z" />
    <glyph glyph-name="aogonek" unicode="&#x105;" horiz-adv-x="1208" 
d="M780 400v81l-223 -14q-186 -13 -186 -133q0 -62 48 -97t124 -35q68 0 121.5 26t84.5 71t31 101zM1067 753v-753q-66 -12 -113 -39.5t-71.5 -65.5t-24.5 -79q0 -45 31 -74.5t95 -29.5q31 0 70 9v-167q-35 -10 -73 -15.5t-73 -5.5q-82 0 -143.5 29t-96 80.5t-34.5 118.5
q0 65 37.5 133t113.5 122v128h-18q-43 -76 -128 -118.5t-192 -42.5q-106 0 -187.5 41t-127.5 115.5t-46 175.5q0 150 110.5 235t316.5 97l267 16v90q0 69 -48 106.5t-138 37.5q-79 0 -130 -26.5t-69 -75.5h-268q10 102 72 176.5t167 115t244 40.5q146 0 248 -44.5
t155.5 -128t53.5 -201.5z" />
    <glyph glyph-name="Cacute" unicode="&#x106;" horiz-adv-x="1518" 
d="M787 -37q-157 0 -282 52t-213.5 151t-135 239.5t-46.5 316.5t46.5 316t135 239t213.5 151t282 52q128 0 238.5 -40t194.5 -112.5t134.5 -171.5t58.5 -217h-294q-14 83 -60 145t-116 96t-156 34q-114 0 -196.5 -59.5t-127 -170t-44.5 -262.5t45 -262.5t127.5 -170.5
t196.5 -60q87 0 156.5 32t115 90.5t60.5 138.5h294q-9 -117 -59 -213.5t-133.5 -167t-194 -108.5t-240.5 -38zM899 1590h-217l172 325h298z" />
    <glyph glyph-name="cacute" unicode="&#x107;" horiz-adv-x="1203" 
d="M1121 714h-272q-15 79 -70.5 126.5t-148.5 47.5q-118 0 -181.5 -85.5t-63.5 -248.5q0 -165 64 -252t181 -87q89 0 146 42.5t73 124.5h272q-12 -124 -74 -215t-168 -141t-249 -50q-172 0 -292.5 67.5t-183.5 196.5t-63 314q0 183 63 311t183 195t293 67q146 0 251.5 -51
t166.5 -143.5t73 -218.5zM734 1251h-208l168 354h276z" />
    <glyph glyph-name="Ccircumflex" unicode="&#x108;" horiz-adv-x="1518" 
d="M787 -37q-157 0 -282 52t-213.5 151t-135 239.5t-46.5 316.5t46.5 316t135 239t213.5 151t282 52q128 0 238.5 -40t194.5 -112.5t134.5 -171.5t58.5 -217h-294q-14 83 -60 145t-116 96t-156 34q-114 0 -196.5 -59.5t-127 -170t-44.5 -262.5t45 -262.5t127.5 -170.5
t196.5 -60q87 0 156.5 32t115 90.5t60.5 138.5h294q-9 -117 -59 -213.5t-133.5 -167t-194 -108.5t-240.5 -38zM651 1915h272l284 -325h-265l-146 181h-18l-146 -181h-265z" />
    <glyph glyph-name="ccircumflex" unicode="&#x109;" horiz-adv-x="1203" 
d="M1121 714h-272q-15 79 -70.5 126.5t-148.5 47.5q-118 0 -181.5 -85.5t-63.5 -248.5q0 -165 64 -252t181 -87q89 0 146 42.5t73 124.5h272q-12 -124 -74 -215t-168 -141t-249 -50q-172 0 -292.5 67.5t-183.5 196.5t-63 314q0 183 63 311t183 195t293 67q146 0 251.5 -51
t166.5 -143.5t73 -218.5zM775 1605l255 -354h-258l-134 209h-18l-134 -209h-258l255 354h292z" />
    <glyph glyph-name="Cdotaccent" unicode="&#x10a;" horiz-adv-x="1518" 
d="M787 -37q-157 0 -282 52t-213.5 151t-135 239.5t-46.5 316.5t46.5 316t135 239t213.5 151t282 52q128 0 238.5 -40t194.5 -112.5t134.5 -171.5t58.5 -217h-294q-14 83 -60 145t-116 96t-156 34q-114 0 -196.5 -59.5t-127 -170t-44.5 -262.5t45 -262.5t127.5 -170.5
t196.5 -60q87 0 156.5 32t115 90.5t60.5 138.5h294q-9 -117 -59 -213.5t-133.5 -167t-194 -108.5t-240.5 -38zM787 1594q-45 0 -82.5 22t-60 60t-22.5 84t22.5 84t60 60.5t82.5 22.5q46 0 83 -22.5t59.5 -60.5t22.5 -84t-22.5 -84t-59.5 -60t-83 -22z" />
    <glyph glyph-name="cdotaccent" unicode="&#x10b;" horiz-adv-x="1203" 
d="M1121 714h-272q-15 79 -70.5 126.5t-148.5 47.5q-118 0 -181.5 -85.5t-63.5 -248.5q0 -165 64 -252t181 -87q89 0 146 42.5t73 124.5h272q-12 -124 -74 -215t-168 -141t-249 -50q-172 0 -292.5 67.5t-183.5 196.5t-63 314q0 183 63 311t183 195t293 67q146 0 251.5 -51
t166.5 -143.5t73 -218.5zM629 1268q-45 0 -82.5 22.5t-60 60t-22.5 84.5t22.5 84.5t60 59.5t82.5 22q46 0 83 -22t59.5 -59.5t22.5 -84.5t-22.5 -84.5t-59.5 -60t-83 -22.5z" />
    <glyph glyph-name="Ccaron" unicode="&#x10c;" horiz-adv-x="1518" 
d="M787 -37q-157 0 -282 52t-213.5 151t-135 239.5t-46.5 316.5t46.5 316t135 239t213.5 151t282 52q128 0 238.5 -40t194.5 -112.5t134.5 -171.5t58.5 -217h-294q-14 83 -60 145t-116 96t-156 34q-114 0 -196.5 -59.5t-127 -170t-44.5 -262.5t45 -262.5t127.5 -170.5
t196.5 -60q87 0 156.5 32t115 90.5t60.5 138.5h294q-9 -117 -59 -213.5t-133.5 -167t-194 -108.5t-240.5 -38zM651 1590l-284 325h265l146 -180h18l146 180h265l-284 -325h-272z" />
    <glyph glyph-name="ccaron" unicode="&#x10d;" horiz-adv-x="1203" 
d="M1121 714h-272q-15 79 -70.5 126.5t-148.5 47.5q-118 0 -181.5 -85.5t-63.5 -248.5q0 -165 64 -252t181 -87q89 0 146 42.5t73 124.5h272q-12 -124 -74 -215t-168 -141t-249 -50q-172 0 -292.5 67.5t-183.5 196.5t-63 314q0 183 63 311t183 195t293 67q146 0 251.5 -51
t166.5 -143.5t73 -218.5zM775 1251h-292l-255 354h258l134 -209h18l134 209h258z" />
    <glyph glyph-name="Dcaron" unicode="&#x10e;" horiz-adv-x="1531" 
d="M174 1443h568q215 0 366 -83.5t231 -242.5t80 -385q0 -235 -79 -398t-230.5 -248.5t-367.5 -85.5h-568v1443zM476 1185v-927h218q200 0 308.5 120t108.5 349q0 146 -49.5 248.5t-143 156t-224.5 53.5h-218zM512 1590l-284 325h265l146 -180h18l146 180h265l-284 -325
h-272z" />
    <glyph glyph-name="dcaron" unicode="&#x10f;" horiz-adv-x="1524" 
d="M1313 1605h240l-64 -528h-176v528zM540 -17q-139 0 -239.5 69t-155 197t-54.5 304q0 175 54.5 302.5t155 196.5t239.5 69q112 0 199 -51.5t130 -142.5h17v597h291v-1524h-282v173h-18q-44 -89 -133 -139.5t-204 -50.5zM639 877q-78 0 -133.5 -39t-85.5 -112t-30 -174
q0 -153 66 -239.5t183 -86.5q78 0 134 39t86 112t30 174t-30 174t-86 112.5t-134 39.5z" />
    <glyph glyph-name="Dcroat" unicode="&#x110;" horiz-adv-x="1531" 
d="M476 258h218q200 0 308.5 120t108.5 349q0 146 -49.5 248.5t-143 156t-224.5 53.5h-218v-339h258v-228h-258v-360zM174 1443h568q215 0 366 -83.5t231 -242.5t80 -385q0 -235 -79 -398t-230.5 -248.5t-367.5 -85.5h-568v618h-125v228h125v597z" />
    <glyph glyph-name="dcroat" unicode="&#x111;" horiz-adv-x="1334" 
d="M639 226q78 0 134 39t86 112t30 174t-30 174t-86 112.5t-134 39.5t-133.5 -39t-85.5 -112t-30 -174q0 -153 66 -239.5t183 -86.5zM1321 1408v-153h-144v-1255h-282v173h-18q-44 -89 -133 -139.5t-204 -50.5q-139 0 -239.5 69t-155 197t-54.5 304q0 175 54.5 302.5
t155 196.5t239.5 69q112 0 199 -51.5t130 -142.5h17v328h-233v153h233v116h291v-116h144z" />
    <glyph glyph-name="Emacron" unicode="&#x112;" horiz-adv-x="1274" 
d="M1130 258v-258h-956v1443h956v-258h-654v-337h617v-239h-617v-351h654zM1015 1844v-181h-726v181h726z" />
    <glyph glyph-name="emacron" unicode="&#x113;" horiz-adv-x="1231" 
d="M622 904q-67 0 -119.5 -29.5t-84 -83t-36.5 -124.5h470q-5 109 -66.5 173t-163.5 64zM858 314h271q-22 -104 -89.5 -179.5t-173.5 -117t-241 -41.5q-168 0 -287.5 68t-183 195.5t-63.5 306.5q0 180 64 310t183 200.5t283 70.5q162 0 278 -66.5t177.5 -191t61.5 -299.5
v-89h-757v-15q3 -123 70.5 -194.5t181.5 -71.5q86 0 144 29.5t81 84.5zM987 1519v-181h-726v181h726z" />
    <glyph glyph-name="Ebreve" unicode="&#x114;" horiz-adv-x="1274" 
d="M1130 258v-258h-956v1443h956v-258h-654v-337h617v-239h-617v-351h654zM257 1913h208q2 -71 51 -116t136 -45t136 45t51 116h208q0 -97 -47.5 -172t-136 -118t-211.5 -43t-211.5 43t-136 118t-47.5 172z" />
    <glyph glyph-name="ebreve" unicode="&#x115;" horiz-adv-x="1231" 
d="M622 904q-67 0 -119.5 -29.5t-84 -83t-36.5 -124.5h470q-5 109 -66.5 173t-163.5 64zM858 314h271q-22 -104 -89.5 -179.5t-173.5 -117t-241 -41.5q-168 0 -287.5 68t-183 195.5t-63.5 306.5q0 180 64 310t183 200.5t283 70.5q162 0 278 -66.5t177.5 -191t61.5 -299.5
v-89h-757v-15q3 -123 70.5 -194.5t181.5 -71.5q86 0 144 29.5t81 84.5zM232 1605h207q2 -84 49 -134t136 -50t136 50t49 134h207q0 -105 -46.5 -185.5t-134 -126t-211.5 -45.5t-211.5 45.5t-134 126t-46.5 185.5z" />
    <glyph glyph-name="Edotaccent" unicode="&#x116;" horiz-adv-x="1274" 
d="M1130 258v-258h-956v1443h956v-258h-654v-337h617v-239h-617v-351h654zM652 1594q-45 0 -82.5 22t-60 60t-22.5 84t22.5 84t60 60.5t82.5 22.5t82.5 -22.5t60 -60.5t22.5 -84t-22.5 -84t-60 -60t-82.5 -22z" />
    <glyph glyph-name="edotaccent" unicode="&#x117;" horiz-adv-x="1231" 
d="M622 904q-67 0 -119.5 -29.5t-84 -83t-36.5 -124.5h470q-5 109 -66.5 173t-163.5 64zM858 314h271q-22 -104 -89.5 -179.5t-173.5 -117t-241 -41.5q-168 0 -287.5 68t-183 195.5t-63.5 306.5q0 180 64 310t183 200.5t283 70.5q162 0 278 -66.5t177.5 -191t61.5 -299.5
v-89h-757v-15q3 -123 70.5 -194.5t181.5 -71.5q86 0 144 29.5t81 84.5zM624 1268q-45 0 -82.5 22.5t-60 60t-22.5 84.5t22.5 84.5t60 59.5t82.5 22t82.5 -22t60 -59.5t22.5 -84.5t-22.5 -84.5t-60 -60t-82.5 -22.5z" />
    <glyph glyph-name="Eogonek" unicode="&#x118;" horiz-adv-x="1274" 
d="M1130 1185h-654v-337h617v-239h-617v-351h654v-258q-65 -12 -112 -39.5t-72 -65.5t-25 -79q0 -45 31 -74.5t96 -29.5q30 0 69 9v-167q-34 -10 -72.5 -15.5t-72.5 -5.5q-83 0 -144.5 29t-96 80.5t-34.5 118.5q0 61 32.5 124t98.5 115h-654v1443h956v-258z" />
    <glyph glyph-name="eogonek" unicode="&#x119;" horiz-adv-x="1231" 
d="M382 667h470q-5 109 -66.5 173t-163.5 64q-67 0 -119.5 -29.5t-84 -83t-36.5 -124.5zM1138 481h-757v-15q3 -123 70.5 -194.5t181.5 -71.5q86 0 144 29.5t81 84.5h271q-26 -123 -116 -206h1q-60 -52 -114 -100t-88 -96t-34 -99q0 -37 27.5 -69t88.5 -32q15 0 33 2t40 7
v-167q-69 -21 -139 -21q-83 0 -144.5 25.5t-95.5 72.5t-34 111q0 65 35 126t102 111q-33 -3 -66 -3q-168 0 -287.5 68t-183 195.5t-63.5 306.5q0 180 64 310t183 200.5t283 70.5q162 0 278 -66.5t177.5 -191t61.5 -299.5v-89z" />
    <glyph glyph-name="Ecaron" unicode="&#x11a;" horiz-adv-x="1274" 
d="M1130 258v-258h-956v1443h956v-258h-654v-337h617v-239h-617v-351h654zM516 1590l-284 325h265l146 -180h18l146 180h265l-284 -325h-272z" />
    <glyph glyph-name="ecaron" unicode="&#x11b;" horiz-adv-x="1231" 
d="M622 904q-67 0 -119.5 -29.5t-84 -83t-36.5 -124.5h470q-5 109 -66.5 173t-163.5 64zM858 314h271q-22 -104 -89.5 -179.5t-173.5 -117t-241 -41.5q-168 0 -287.5 68t-183 195.5t-63.5 306.5q0 180 64 310t183 200.5t283 70.5q162 0 278 -66.5t177.5 -191t61.5 -299.5
v-89h-757v-15q3 -123 70.5 -194.5t181.5 -71.5q86 0 144 29.5t81 84.5zM770 1251h-292l-255 354h258l134 -209h18l134 209h258z" />
    <glyph glyph-name="Gcircumflex" unicode="&#x11c;" horiz-adv-x="1557" 
d="M1442 589q0 -145 -44.5 -260.5t-128 -197t-201.5 -125t-266 -43.5q-161 0 -289 52t-218 151t-137.5 239.5t-47.5 317.5q0 174 47.5 314t137.5 239t216 151.5t284 52.5q128 0 237 -35t192.5 -101t136 -157t68.5 -204h-300q-34 109 -121 170t-213 61q-116 0 -200.5 -59
t-130 -168t-45.5 -261q0 -154 47.5 -265.5t134.5 -171.5t206 -60q99 0 174.5 36.5t119.5 102t47 152.5l1 26h-313v227h606v-184zM659 1916h272l284 -325h-265l-146 181h-18l-146 -181h-265z" />
    <glyph glyph-name="gcircumflex" unicode="&#x11d;" horiz-adv-x="1322" 
d="M635 246q79 0 135.5 38.5t86.5 109t30 167.5t-30.5 168t-87 109.5t-134.5 38.5t-133.5 -38.5t-85 -109.5t-29.5 -167q0 -146 65 -231t183 -85zM631 -418q-146 0 -256.5 40.5t-175 113t-73.5 169.5h288q11 -51 70 -81t153 -30q117 0 182 51.5t65 144.5v204h-18
q-46 -87 -131 -132.5t-201 -45.5q-137 0 -237.5 67t-154.5 189.5t-54 288.5q0 171 54.5 297t156 194.5t241.5 68.5q112 0 201.5 -52t133.5 -143h18v177h282v-1099q0 -130 -66.5 -224.5t-189 -146t-288.5 -51.5zM786 1605l255 -354h-258l-134 209h-18l-134 -209h-258l255 354
h292z" />
    <glyph glyph-name="Gbreve" unicode="&#x11e;" horiz-adv-x="1557" 
d="M1442 589q0 -145 -44.5 -260.5t-128 -197t-201.5 -125t-266 -43.5q-161 0 -289 52t-218 151t-137.5 239.5t-47.5 317.5q0 174 47.5 314t137.5 239t216 151.5t284 52.5q128 0 237 -35t192.5 -101t136 -157t68.5 -204h-300q-34 109 -121 170t-213 61q-116 0 -200.5 -59
t-130 -168t-45.5 -261q0 -154 47.5 -265.5t134.5 -171.5t206 -60q99 0 174.5 36.5t119.5 102t47 152.5l1 26h-313v227h606v-184zM400 1914h208q1 -71 50.5 -116t136.5 -45t136.5 45t50.5 116h208q0 -97 -47.5 -172t-135.5 -118t-212 -43t-212 43t-135.5 118t-47.5 172z" />
    <glyph glyph-name="gbreve" unicode="&#x11f;" horiz-adv-x="1322" 
d="M635 246q79 0 135.5 38.5t86.5 109t30 167.5t-30.5 168t-87 109.5t-134.5 38.5t-133.5 -38.5t-85 -109.5t-29.5 -167q0 -146 65 -231t183 -85zM631 -418q-146 0 -256.5 40.5t-175 113t-73.5 169.5h288q11 -51 70 -81t153 -30q117 0 182 51.5t65 144.5v204h-18
q-46 -87 -131 -132.5t-201 -45.5q-137 0 -237.5 67t-154.5 189.5t-54 288.5q0 171 54.5 297t156 194.5t241.5 68.5q112 0 201.5 -52t133.5 -143h18v177h282v-1099q0 -130 -66.5 -224.5t-189 -146t-288.5 -51.5zM248 1605h207q2 -84 49 -134t136 -50t136 50t49 134h207
q0 -105 -46.5 -185.5t-134 -126t-211.5 -45.5t-211.5 45.5t-134 126t-46.5 185.5z" />
    <glyph glyph-name="Gdotaccent" unicode="&#x120;" horiz-adv-x="1557" 
d="M1442 589q0 -145 -44.5 -260.5t-128 -197t-201.5 -125t-266 -43.5q-161 0 -289 52t-218 151t-137.5 239.5t-47.5 317.5q0 174 47.5 314t137.5 239t216 151.5t284 52.5q128 0 237 -35t192.5 -101t136 -157t68.5 -204h-300q-34 109 -121 170t-213 61q-116 0 -200.5 -59
t-130 -168t-45.5 -261q0 -154 47.5 -265.5t134.5 -171.5t206 -60q99 0 174.5 36.5t119.5 102t47 152.5l1 26h-313v227h606v-184zM795 1595q-45 0 -82.5 22t-60 59.5t-22.5 84.5t22.5 84.5t60 60t82.5 22.5q46 0 83 -22.5t59.5 -60t22.5 -84.5t-22.5 -84.5t-59.5 -59.5
t-83 -22z" />
    <glyph glyph-name="gdotaccent" unicode="&#x121;" horiz-adv-x="1322" 
d="M635 246q79 0 135.5 38.5t86.5 109t30 167.5t-30.5 168t-87 109.5t-134.5 38.5t-133.5 -38.5t-85 -109.5t-29.5 -167q0 -146 65 -231t183 -85zM631 -418q-146 0 -256.5 40.5t-175 113t-73.5 169.5h288q11 -51 70 -81t153 -30q117 0 182 51.5t65 144.5v204h-18
q-46 -87 -131 -132.5t-201 -45.5q-137 0 -237.5 67t-154.5 189.5t-54 288.5q0 171 54.5 297t156 194.5t241.5 68.5q112 0 201.5 -52t133.5 -143h18v177h282v-1099q0 -130 -66.5 -224.5t-189 -146t-288.5 -51.5zM640 1268q-45 0 -82.5 22.5t-60 60t-22.5 84.5t22.5 84.5
t60 59.5t82.5 22t82.5 -22t60 -59.5t22.5 -84.5t-22.5 -84.5t-60 -60t-82.5 -22.5z" />
    <glyph glyph-name="Gcommaaccent" unicode="&#x122;" horiz-adv-x="1557" 
d="M1442 589q0 -145 -44.5 -260.5t-128 -197t-201.5 -125t-266 -43.5q-161 0 -289 52t-218 151t-137.5 239.5t-47.5 317.5q0 174 47.5 314t137.5 239t216 151.5t284 52.5q128 0 237 -35t192.5 -101t136 -157t68.5 -204h-300q-34 109 -121 170t-213 61q-116 0 -200.5 -59
t-130 -168t-45.5 -261q0 -154 47.5 -265.5t134.5 -171.5t206 -60q99 0 174.5 36.5t119.5 102t47 152.5l1 26h-313v227h606v-184zM777 -494h-213l97 365h282z" />
    <glyph glyph-name="gcommaaccent" unicode="&#x123;" horiz-adv-x="1322" 
d="M635 246q79 0 135.5 38.5t86.5 109t30 167.5t-30.5 168t-87 109.5t-134.5 38.5t-133.5 -38.5t-85 -109.5t-29.5 -167q0 -146 65 -231t183 -85zM631 -418q-146 0 -256.5 40.5t-175 113t-73.5 169.5h288q11 -51 70 -81t153 -30q117 0 182 51.5t65 144.5v204h-18
q-46 -87 -131 -132.5t-201 -45.5q-137 0 -237.5 67t-154.5 189.5t-54 288.5q0 171 54.5 297t156 194.5t241.5 68.5q112 0 201.5 -52t133.5 -143h18v177h282v-1099q0 -130 -66.5 -224.5t-189 -146t-288.5 -51.5zM665 1617h213l-97 -365h-282z" />
    <glyph glyph-name="Hcircumflex" unicode="&#x124;" horiz-adv-x="1604" 
d="M1428 0h-302v603h-650v-603h-302v1443h302v-582h650v582h302v-1443zM665 1915h272l284 -325h-265l-146 181h-18l-146 -181h-265z" />
    <glyph glyph-name="hcircumflex" unicode="&#x125;" horiz-adv-x="1307" 
d="M156 0v1524h286v-602h18q38 94 125 148t208 54q119 0 203.5 -48.5t129.5 -141t45 -224.5v-710h-291v641q0 115 -52 173.5t-151 58.5q-73 0 -124.5 -30t-78.5 -84.5t-27 -125.5v-633h-291zM163 1996h272l284 -325h-265l-146 181h-18l-146 -181h-265z" />
    <glyph glyph-name="Hbar" unicode="&#x126;" horiz-adv-x="1604" 
d="M1126 861v192h-650v-192h650zM1585 1261v-208h-157v-1053h-302v603h-650v-603h-302v1053h-157v208h157v182h302v-182h650v182h302v-182h157z" />
    <glyph glyph-name="hbar" unicode="&#x127;" horiz-adv-x="1307" 
d="M442 922h18q38 94 125 148t208 54q119 0 203.5 -48.5t129.5 -141t45 -224.5v-710h-291v641q0 115 -52 173.5t-151 58.5q-73 0 -124.5 -30t-78.5 -84.5t-27 -125.5v-633h-291v1255h-144v153h144v116h286v-116h238v-153h-238v-333z" />
    <glyph glyph-name="Itilde" unicode="&#x128;" horiz-adv-x="652" 
d="M477 0h-302v1443h302v-1443zM474 1578q-49 0 -83.5 14t-60 34.5t-46.5 41t-41.5 34.5t-46.5 14q-39 0 -58 -35t-19 -99h-181q0 100 31 171.5t86.5 109.5t128.5 38q49 0 83.5 -14.5t60 -36.5t46.5 -43.5t42.5 -36t48.5 -14.5q41 0 59 38t18 102h181q0 -99 -31.5 -170.5
t-87.5 -109.5t-130 -38z" />
    <glyph glyph-name="itilde" unicode="&#x129;" horiz-adv-x="587" 
d="M148 0v1103h291v-1103h-291zM442 1253q-49 0 -83.5 14t-60 34.5t-46.5 41t-41.5 34.5t-46.5 14q-39 0 -58 -34.5t-19 -99.5h-181q0 101 31 172t86.5 109t128.5 38q49 0 83.5 -14.5t60 -36t46.5 -43.5t42.5 -36.5t48.5 -14.5q41 0 59 37.5t18 102.5h181
q0 -99 -31.5 -170.5t-87.5 -109.5t-130 -38z" />
    <glyph glyph-name="Imacron" unicode="&#x12a;" horiz-adv-x="652" 
d="M477 0h-302v1443h302v-1443zM689 1844v-181h-726v181h726z" />
    <glyph glyph-name="imacron" unicode="&#x12b;" horiz-adv-x="587" 
d="M148 0v1103h291v-1103h-291zM603 1519v-181h-618v181h618z" />
    <glyph glyph-name="Ibreve" unicode="&#x12c;" horiz-adv-x="652" 
d="M477 0h-302v1443h302v-1443zM-69 1913h208q1 -71 50.5 -116t136.5 -45t136.5 45t50.5 116h208q0 -97 -47.5 -172t-135.5 -118t-212 -43t-212 43t-135.5 118t-47.5 172z" />
    <glyph glyph-name="ibreve" unicode="&#x12d;" horiz-adv-x="587" 
d="M148 0v1103h291v-1103h-291zM-98 1605h207q1 -84 48.5 -134t136.5 -50t136.5 50t48.5 134h207q0 -105 -46.5 -185.5t-134 -126t-211.5 -45.5t-211.5 45.5t-134 126t-46.5 185.5z" />
    <glyph glyph-name="Iogonek" unicode="&#x12e;" horiz-adv-x="652" 
d="M174 1443h302v-1443h-10q-65 -12 -112 -39.5t-72 -65.5t-25 -79q0 -45 31 -74.5t96 -29.5q30 0 69 9v-167q-34 -10 -72.5 -15.5t-72.5 -5.5q-83 0 -144.5 29t-96 80.5t-34.5 118.5q0 63 35 128.5t106 118.5v1435z" />
    <glyph glyph-name="iogonek" unicode="&#x12f;" horiz-adv-x="587" 
d="M294 1268q-45 0 -82.5 22.5t-60 60t-22.5 84.5t22.5 84.5t60 59.5t82.5 22q46 0 83 -22t59.5 -59.5t22.5 -84.5t-22.5 -84.5t-59.5 -60t-83 -22.5zM148 9v1094h291v-1103q-65 -12 -112 -39.5t-72 -65.5t-25 -79q0 -45 31 -74.5t96 -29.5q30 0 69 9v-167
q-34 -10 -72.5 -15.5t-72.5 -5.5q-83 0 -144.5 29t-96 80.5t-34.5 118.5q0 64 35.5 129.5t106.5 118.5z" />
    <glyph glyph-name="Idotaccent" unicode="&#x130;" horiz-adv-x="652" 
d="M476 0h-302v1443h302v-1443zM325 1594q-45 0 -82.5 22t-60 60t-22.5 84t22.5 84t60 60.5t82.5 22.5q46 0 83 -22.5t59.5 -60.5t22.5 -84t-22.5 -84t-59.5 -60t-83 -22z" />
    <glyph glyph-name="dotlessi" unicode="&#x131;" horiz-adv-x="587" 
d="M147 0v1103h291v-1103h-291z" />
    <glyph glyph-name="IJ" unicode="&#x132;" horiz-adv-x="1883" 
d="M476 0h-302v1443h302v-1443zM727 424h292q2 -87 54.5 -139t139.5 -52q93 0 142.5 55.5t49.5 161.5v993h302v-995q0 -156 -59 -264t-168.5 -164.5t-262.5 -56.5q-148 0 -258 56.5t-171 159.5t-61 245z" />
    <glyph glyph-name="ij" unicode="&#x133;" horiz-adv-x="1174" 
d="M147 0v1103h291v-1103h-291zM293 1268q-45 0 -82.5 22.5t-60 60t-22.5 84.5t22.5 84.5t60 59.5t82.5 22q46 0 83 -22t59.5 -59.5t22.5 -84.5t-22.5 -84.5t-59.5 -60t-83 -22.5zM1025 1103v-1137q0 -170 -99.5 -256t-290.5 -86q-10 0 -26.5 0.5t-31 1.5t-20.5 2v223
q4 -1 17 -1h20q77 0 108.5 29t31.5 95v1129h291zM881 1268q-45 0 -82.5 22.5t-60 60t-22.5 84.5t22.5 84.5t60 59.5t82.5 22q46 0 83 -22t59.5 -59.5t22.5 -84.5t-22.5 -84.5t-59.5 -60t-83 -22.5z" />
    <glyph glyph-name="Jcircumflex" unicode="&#x134;" horiz-adv-x="1231" 
d="M75 424h292q2 -87 54.5 -139t139.5 -52q93 0 142.5 55.5t49.5 161.5v993h302v-995q0 -156 -59 -264t-168.5 -164.5t-262.5 -56.5q-148 0 -258 56.5t-171 159.5t-61 245zM768 1915h272l284 -325h-265l-146 181h-18l-146 -181h-265z" />
    <glyph glyph-name="jcircumflex" unicode="&#x135;" horiz-adv-x="587" 
d="M439 1103v-1137q0 -170 -99.5 -256t-290.5 -86q-11 0 -27 0.5t-30.5 1.5t-20.5 2v223q5 -1 17.5 -1h19.5q76 0 108 29t32 95v1129h291zM441 1605l255 -354h-258l-134 209h-18l-134 -209h-258l255 354h292z" />
    <glyph glyph-name="Kcommaaccent" unicode="&#x136;" horiz-adv-x="1453" 
d="M476 0h-302v1443h302v-643h18l533 643h336l-526 -633l563 -810h-362l-419 604l-143 -169v-435zM676 -494h-213l97 365h282z" />
    <glyph glyph-name="kcommaaccent" unicode="&#x137;" horiz-adv-x="1232" 
d="M464 672l369 431h331l-420 -473l449 -630h-345l-322 448l-80 -82v-366h-291v1524h291v-852h18zM625 -494h-213l97 365h282z" />
    <glyph glyph-name="Lacute" unicode="&#x139;" horiz-adv-x="1218" 
d="M1118 263v-263h-944v1443h302v-1180h642zM437 1590h-217l172 325h298z" />
    <glyph glyph-name="lacute" unicode="&#x13a;" horiz-adv-x="603" 
d="M155 0v1524h291v-1524h-291zM413 1671h-217l172 325h298z" />
    <glyph glyph-name="Lcommaaccent" unicode="&#x13b;" horiz-adv-x="1218" 
d="M1118 263v-263h-944v1443h302v-1180h642zM616 -494h-213l97 365h282z" />
    <glyph glyph-name="lcommaaccent" unicode="&#x13c;" horiz-adv-x="603" 
d="M155 0v1524h291v-1524h-291zM276 -494h-213l97 365h282z" />
    <glyph glyph-name="Lcaron" unicode="&#x13d;" horiz-adv-x="1218" 
d="M1118 263v-263h-944v1443h302v-1180h642zM712 1605h238l-62 -541h-176v541z" />
    <glyph glyph-name="lcaron" unicode="&#x13e;" horiz-adv-x="793" 
d="M155 0v1524h291v-1524h-291zM582 1605h240l-64 -527h-176v527z" />
    <glyph glyph-name="Lslash" unicode="&#x141;" horiz-adv-x="1218" 
d="M476 263h642v-263h-944v658l-152 -78v205l152 78v580h302v-424l236 122v-205l-236 -122v-551z" />
    <glyph glyph-name="lslash" unicode="&#x142;" horiz-adv-x="603" 
d="M570 1089v-208l-124 -62v-819h-291v675l-124 -62v208l124 62v641h291v-497z" />
    <glyph glyph-name="Nacute" unicode="&#x143;" horiz-adv-x="1573" 
d="M463 0h-289v1443h252l664 -899h18v899h289v-1443h-250l-666 903h-18v-903zM894 1590h-217l172 325h298z" />
    <glyph glyph-name="nacute" unicode="&#x144;" horiz-adv-x="1285" 
d="M145 0v1103h282v-177h18q38 93 121 147t205 54q184 0 280.5 -108t96.5 -306v-713h-291v644q0 114 -50 173t-153 59q-67 0 -116 -30t-75.5 -84t-26.5 -126v-636h-291zM759 1251h-208l168 354h276z" />
    <glyph glyph-name="Ncommaaccent" unicode="&#x145;" horiz-adv-x="1573" 
d="M463 0h-289v1443h252l664 -899h18v899h289v-1443h-250l-666 903h-18v-903zM757 -494h-213l97 365h282z" />
    <glyph glyph-name="ncommaaccent" unicode="&#x146;" horiz-adv-x="1285" 
d="M145 0v1103h282v-177h18q38 93 121 147t205 54q184 0 280.5 -108t96.5 -306v-713h-291v644q0 114 -50 173t-153 59q-67 0 -116 -30t-75.5 -84t-26.5 -126v-636h-291zM629 -494h-213l97 365h282z" />
    <glyph glyph-name="Ncaron" unicode="&#x147;" horiz-adv-x="1573" 
d="M463 0h-289v1443h252l664 -899h18v899h289v-1443h-250l-666 903h-18v-903zM646 1590l-284 325h265l146 -180h18l146 180h265l-284 -325h-272z" />
    <glyph glyph-name="ncaron" unicode="&#x148;" horiz-adv-x="1285" 
d="M145 0v1103h282v-177h18q38 93 121 147t205 54q184 0 280.5 -108t96.5 -306v-713h-291v644q0 114 -50 173t-153 59q-67 0 -116 -30t-75.5 -84t-26.5 -126v-636h-291zM800 1251h-292l-255 354h258l134 -209h18l134 209h258z" />
    <glyph glyph-name="Omacron" unicode="&#x14c;" horiz-adv-x="1611" 
d="M805 1480q159 0 287.5 -52.5t219 -151.5t139 -239t48.5 -315q0 -176 -48 -316t-139 -239t-219 -151.5t-288 -52.5q-161 0 -289.5 52.5t-219 151.5t-138.5 239t-48 316t48.5 316t139.5 238.5t219.5 151t287.5 52.5zM805 1215q-118 0 -204.5 -60.5t-134 -171t-47.5 -261.5
q0 -150 47 -261t133.5 -172t205.5 -61q118 0 204 61t133.5 172t47.5 261q0 151 -47.5 261.5t-134 171t-203.5 60.5zM1168 1844v-181h-726v181h726z" />
    <glyph glyph-name="omacron" unicode="&#x14d;" horiz-adv-x="1269" 
d="M634 -24q-169 0 -291 69t-187 198t-65 309q0 178 65.5 307t187.5 198.5t290 69.5t289.5 -69t187.5 -198t66 -308q0 -180 -65 -309t-187 -198t-291 -69zM634 214q116 0 180 89t64 249q0 159 -64.5 248t-179.5 89q-116 0 -180 -89t-64 -248q0 -161 63.5 -249.5t180.5 -88.5
zM997 1519v-181h-726v181h726z" />
    <glyph glyph-name="Obreve" unicode="&#x14e;" horiz-adv-x="1611" 
d="M805 1480q159 0 287.5 -52.5t219 -151.5t139 -239t48.5 -315q0 -176 -48 -316t-139 -239t-219 -151.5t-288 -52.5q-161 0 -289.5 52.5t-219 151.5t-138.5 239t-48 316t48.5 316t139.5 238.5t219.5 151t287.5 52.5zM805 1215q-118 0 -204.5 -60.5t-134 -171t-47.5 -261.5
q0 -150 47 -261t133.5 -172t205.5 -61q118 0 204 61t133.5 172t47.5 261q0 151 -47.5 261.5t-134 171t-203.5 60.5zM410 1913h208q1 -71 50.5 -116t136.5 -45t136.5 45t50.5 116h208q0 -97 -47.5 -172t-135.5 -118t-212 -43t-212 43t-135.5 118t-47.5 172z" />
    <glyph glyph-name="obreve" unicode="&#x14f;" horiz-adv-x="1269" 
d="M634 -24q-169 0 -291 69t-187 198t-65 309q0 178 65.5 307t187.5 198.5t290 69.5t289.5 -69t187.5 -198t66 -308q0 -180 -65 -309t-187 -198t-291 -69zM634 214q116 0 180 89t64 249q0 159 -64.5 248t-179.5 89q-116 0 -180 -89t-64 -248q0 -161 63.5 -249.5t180.5 -88.5
zM242 1605h207q2 -84 49 -134t136 -50t136 50t49 134h207q0 -105 -46.5 -185.5t-134 -126t-211.5 -45.5t-211.5 45.5t-134 126t-46.5 185.5z" />
    <glyph glyph-name="Ohungarumlaut" unicode="&#x150;" horiz-adv-x="1611" 
d="M805 1480q159 0 287.5 -52.5t219 -151.5t139 -239t48.5 -315q0 -176 -48 -316t-139 -239t-219 -151.5t-288 -52.5q-161 0 -289.5 52.5t-219 151.5t-138.5 239t-48 316t48.5 316t139.5 238.5t219.5 151t287.5 52.5zM805 1215q-118 0 -204.5 -60.5t-134 -171t-47.5 -261.5
q0 -150 47 -261t133.5 -172t205.5 -61q118 0 204 61t133.5 172t47.5 261q0 151 -47.5 261.5t-134 171t-203.5 60.5zM1088 1590h-201l164 325h262zM702 1590h-201l123 325h244z" />
    <glyph glyph-name="ohungarumlaut" unicode="&#x151;" horiz-adv-x="1269" 
d="M634 -24q-169 0 -291 69t-187 198t-65 309q0 178 65.5 307t187.5 198.5t290 69.5t289.5 -69t187.5 -198t66 -308q0 -180 -65 -309t-187 -198t-291 -69zM634 214q116 0 180 89t64 249q0 159 -64.5 248t-179.5 89q-116 0 -180 -89t-64 -248q0 -161 63.5 -249.5t180.5 -88.5
zM901 1251h-198l177 354h267zM530 1251h-194l111 354h257z" />
    <glyph glyph-name="OE" unicode="&#x152;" horiz-adv-x="2303" 
d="M810 1215q-119 0 -207 -60.5t-136 -171.5t-48 -261q0 -152 47.5 -262.5t135.5 -171t208 -60.5q117 0 202.5 60.5t132 171.5t46.5 262t-46.5 261.5t-132 171t-202.5 60.5zM1243 0v232h-18q-36 -80 -106.5 -141t-163 -94.5t-195.5 -33.5q-203 0 -349 90.5t-223.5 260.5
t-77.5 408t77.5 407.5t223.5 260t349 90.5q76 0 148 -19.5t134.5 -54.5t109.5 -83t73 -105h18v225h916v-258h-663v-337h626v-239h-626v-351h663v-258h-916z" />
    <glyph glyph-name="oe" unicode="&#x153;" horiz-adv-x="2017" 
d="M1426 -24q-86 0 -161.5 22.5t-135 64t-96.5 99.5h-18q-55 -86 -157 -136t-233 -50q-164 0 -282.5 70t-182.5 198.5t-64 305.5q0 179 64 308.5t183 199t283 69.5q129 0 229.5 -49.5t160.5 -140.5h18q58 89 159.5 139.5t231.5 50.5q152 0 264.5 -68t174.5 -193.5t62 -295.5
v-88h-757v-16q2 -82 33.5 -141.5t87 -92t131.5 -32.5q86 0 144 29t81 85h269q-22 -104 -89.5 -180t-170 -117t-229.5 -41zM1640 667q-5 109 -66.5 173t-163.5 64q-67 0 -119.5 -29t-84 -82.5t-36.5 -125.5h470zM395 551q0 -161 64 -249t180 -88t180 88t64 249q0 160 -64 249
t-180 89t-180 -89t-64 -249z" />
    <glyph glyph-name="Racute" unicode="&#x154;" horiz-adv-x="1422" 
d="M476 1199v-444h265q114 0 177.5 58.5t63.5 162.5q0 103 -65.5 163t-178.5 60h-262zM476 523v-523h-302v1443h606q159 0 273.5 -56t176.5 -159.5t62 -247.5q0 -92 -31 -173t-89.5 -142.5t-141.5 -94.5l304 -570h-342l-269 523v0h-247zM763 1590h-217l172 325h298z" />
    <glyph glyph-name="racute" unicode="&#x155;" horiz-adv-x="891" 
d="M145 0v1103h282v-176h18q14 55 54.5 99t99.5 69.5t129 25.5q30 0 62.5 -3.5t51.5 -10.5v-265q-11 4 -35 8.5t-52 7t-51 2.5q-79 0 -139.5 -30t-94.5 -86t-34 -133v-611h-291zM555 1251h-208l168 354h276z" />
    <glyph glyph-name="Rcommaaccent" unicode="&#x156;" horiz-adv-x="1422" 
d="M476 1199v-444h265q114 0 177.5 58.5t63.5 162.5q0 103 -65.5 163t-178.5 60h-262zM476 523v-523h-302v1443h606q159 0 273.5 -56t176.5 -159.5t62 -247.5q0 -92 -31 -173t-89.5 -142.5t-141.5 -94.5l304 -570h-342l-269 523v0h-247zM626 -494h-213l97 365h282z" />
    <glyph glyph-name="rcommaaccent" unicode="&#x157;" horiz-adv-x="891" 
d="M145 0v1103h282v-176h18q14 55 54.5 99t99.5 69.5t129 25.5q30 0 62.5 -3.5t51.5 -10.5v-265q-11 4 -35 8.5t-52 7t-51 2.5q-79 0 -139.5 -30t-94.5 -86t-34 -133v-611h-291zM266 -494h-213l97 365h282z" />
    <glyph glyph-name="Rcaron" unicode="&#x158;" horiz-adv-x="1422" 
d="M476 1199v-444h265q114 0 177.5 58.5t63.5 162.5q0 103 -65.5 163t-178.5 60h-262zM476 523v-523h-302v1443h606q159 0 273.5 -56t176.5 -159.5t62 -247.5q0 -92 -31 -173t-89.5 -142.5t-141.5 -94.5l304 -570h-342l-269 523v0h-247zM515 1590l-284 325h265l146 -180h18
l146 180h265l-284 -325h-272z" />
    <glyph glyph-name="rcaron" unicode="&#x159;" horiz-adv-x="891" 
d="M145 0v1103h282v-176h18q14 55 54.5 99t99.5 69.5t129 25.5q30 0 62.5 -3.5t51.5 -10.5v-265q-11 4 -35 8.5t-52 7t-51 2.5q-79 0 -139.5 -30t-94.5 -86t-34 -133v-611h-291zM596 1251h-292l-255 354h258l134 -209h18l134 209h258z" />
    <glyph glyph-name="Sacute" unicode="&#x15a;" horiz-adv-x="1383" 
d="M109 401h292q7 -59 46.5 -102t105 -66.5t150.5 -23.5q78 0 138.5 23.5t95 65.5t34.5 96q0 69 -58 111.5t-191 71.5l-188 40q-392 82 -392 412q0 102 39 185t112 142.5t174.5 91.5t226.5 32q119 0 218.5 -31.5t173 -89.5t115.5 -138t45 -176h-284q-7 57 -42.5 99.5
t-93 66.5t-130.5 24q-75 0 -131.5 -22t-88 -62.5t-31.5 -95.5q0 -67 55.5 -108t182.5 -68l174 -37q218 -46 316.5 -144t98.5 -266q0 -146 -71 -251t-202 -161.5t-312 -56.5q-172 0 -300 53.5t-200 151.5t-78 233zM807 1590h-217l172 325h298z" />
    <glyph glyph-name="sacute" unicode="&#x15b;" horiz-adv-x="1160" 
d="M120 779q0 105 57.5 183t160.5 121.5t241 43.5q210 0 329.5 -85t131.5 -243h-269q-11 53 -60 84t-130 31q-52 0 -93 -14.5t-64.5 -41t-23.5 -61.5q0 -41 36.5 -67t112.5 -43l207 -45q161 -35 235.5 -106.5t74.5 -195.5q0 -110 -61.5 -192t-170.5 -127t-254 -45
q-218 0 -345 86t-142 245h284q16 -56 69 -87t140 -31q85 0 138 32.5t53 85.5q0 41 -33 66.5t-106 41.5l-200 45q-161 35 -239.5 113.5t-78.5 205.5zM684 1251h-208l168 354h276z" />
    </font>
</defs>
</svg>
