<?xml version="1.0" standalone="no"?>
<!DOCTYPE svg PUBLIC "-//W3C//DTD SVG 1.1//EN" "http://www.w3.org/Graphics/SVG/1.1/DTD/svg11.dtd" >
<svg xmlns="http://www.w3.org/2000/svg" xmlns:xlink="http://www.w3.org/1999/xlink" version="1.1">
<metadata>
Created by FontForge 20200427 at Fri Jun 15 01:16:47 2018
 By www
copyright missing
</metadata>
<defs>
<font id="SFProJP-Regular" horiz-adv-x="863" vert-adv-y="1000" >
  <font-face 
    font-family="SFProJPDisplay-Regular"
    font-weight="400"
    font-stretch="normal"
    units-per-em="1000"
    panose-1="2 11 5 3 3 4 3 2 2 4"
    ascent="800"
    descent="-200"
    bbox="-9 -233 991 897"
    underline-thickness="50"
    underline-position="-100"
    unicode-range="U+0009-20B9F"
  />
<missing-glyph horiz-adv-x="500" 
 />
    <glyph glyph-name=".notdef" horiz-adv-x="500" 
 />
    <glyph glyph-name=".null" horiz-adv-x="0" vert-adv-y="0" 
 />
    <glyph glyph-name="nonmarkingreturn" horiz-adv-x="333" 
 />
    <glyph glyph-name="HT" unicode="&#x9;" horiz-adv-x="259" vert-adv-y="799" 
 />
    <glyph glyph-name="LF" unicode="&#xa;" horiz-adv-x="259" vert-adv-y="799" 
 />
    <glyph glyph-name="CR" unicode="&#xd;" horiz-adv-x="259" vert-adv-y="799" 
 />
    <glyph glyph-name="uni00AD" unicode="&#xad;" horiz-adv-x="329" vert-adv-y="799" 
d="M54 238v79h321v-79h-321z" />
    <glyph glyph-name="uni00B5" unicode="&#xb5;" horiz-adv-x="575" 
d="M55 508h85v-308q0 -63 30 -96t86 -33q63 0 98.5 38t35.5 104v295h84v-374q0 -33 10.5 -47.5t33.5 -14.5q17 0 26 4l5 -72q-20 -5 -47 -5q-86 0 -106 73l-3 17h-1q-50 -94 -139 -94q-37 0 -68 17.5t-44 45.5h-1v-227h-85v677z" />
    <glyph glyph-name="uni02B9" unicode="&#x2b9;" horiz-adv-x="199" vert-adv-y="799" 
d="M76 456l62 249h85l-72 -249h-75z" />
    <glyph glyph-name="uni02BA" unicode="&#x2ba;" horiz-adv-x="362" vert-adv-y="799" 
d="M76 456l62 249h85l-72 -249h-75zM240 456l62 249h85l-72 -249h-75z" />
    <glyph glyph-name="uni02BB" unicode="&#x2bb;" horiz-adv-x="324" vert-adv-y="799" 
d="M128 580q-18 12 -30.5 34.5t-12.5 47.5q0 52 40 82t94 34l20 -45q-83 -14 -83 -70q0 -39 38 -67z" />
    <glyph glyph-name="uni02BD" unicode="&#x2bd;" horiz-adv-x="222" vert-adv-y="799" 
d="M192 468l-66 7q-24 42 -54.5 118.5t-49.5 146.5l106 -11q19 -128 64 -261z" />
    <glyph glyph-name="uni02BE" unicode="&#x2be;" horiz-adv-x="324" vert-adv-y="799" 
d="M102 579v41q28 0 46 17t18 42q0 27 -17.5 43.5t-46.5 16.5v41q59 0 89.5 -27.5t30.5 -73.5q0 -45 -33 -72.5t-87 -27.5z" />
    <glyph glyph-name="uni02BF" unicode="&#x2bf;" horiz-adv-x="324" vert-adv-y="799" 
d="M222 579q-56 0 -88 27.5t-32 72.5q0 46 31 73.5t89 27.5v-41q-29 0 -46.5 -16.5t-17.5 -43.5q0 -25 17.5 -42t46.5 -17v-41z" />
    <glyph glyph-name="uni02C8" unicode="&#x2c8;" horiz-adv-x="324" vert-adv-y="799" 
d="M128 595v168h68v-168h-68z" />
    <glyph glyph-name="uni02C9" unicode="&#x2c9;" horiz-adv-x="324" vert-adv-y="799" 
d="M399 645h-310v51h310v-51z" />
    <glyph glyph-name="uni02CA" unicode="&#x2ca;" horiz-adv-x="324" vert-adv-y="799" 
d="M146 610l103 147h97l-128 -147h-72z" />
    <glyph glyph-name="uni02CB" unicode="&#x2cb;" horiz-adv-x="324" vert-adv-y="799" 
d="M272 610l-127 147h96l103 -147h-72z" />
    <glyph glyph-name="uni02CC" unicode="&#x2cc;" horiz-adv-x="324" vert-adv-y="799" 
d="M128 -233v168h68v-168h-68z" />
    <glyph glyph-name="uni02CD" unicode="&#x2cd;" horiz-adv-x="324" vert-adv-y="799" 
d="M41 -157v60h242v-60h-242z" />
    <glyph glyph-name="uni02CE" unicode="&#x2ce;" horiz-adv-x="324" vert-adv-y="799" 
d="M147 -209l-129 155h104l94 -155h-69z" />
    <glyph glyph-name="uni02CF" unicode="&#x2cf;" horiz-adv-x="324" vert-adv-y="799" 
d="M109 -209l94 155h103l-130 -155h-67z" />
    <glyph glyph-name="uni02EE" unicode="&#x2ee;" horiz-adv-x="383" vert-adv-y="799" 
d="M76 456l62 249h85l-72 -249h-75zM265 456l62 249h86l-72 -249h-76z" />
    <glyph glyph-name="uni200C" unicode="&#x200c;" horiz-adv-x="0" vert-adv-y="799" 
 />
    <glyph glyph-name="uni200D" unicode="&#x200d;" horiz-adv-x="0" vert-adv-y="799" 
 />
    <glyph glyph-name="uni2010" unicode="&#x2010;" horiz-adv-x="329" vert-adv-y="799" 
d="M54 238v79h321v-79h-321z" />
    <glyph glyph-name="uni2015" unicode="&#x2015;" horiz-adv-x="810" vert-adv-y="799" 
d="M32 242v66h746v-66h-746z" />
    <glyph glyph-name="uni2016" unicode="&#x2016;" vert-adv-y="799" 
d="M316 775h66v-811h-66v811zM547 775v-811h-66v811h66z" />
    <glyph glyph-name="twodotenleader" unicode="&#x2025;" vert-adv-y="799" 
d="M216 417q21 0 35.5 -15t14.5 -36t-14.5 -36t-35.5 -15t-35.5 15t-14.5 36t14.5 36t35.5 15zM647 417q21 0 35.5 -15t14.5 -36t-14.5 -36t-35.5 -15q-20 0 -35 15t-15 36t14.5 36t35.5 15z" />
    <glyph glyph-name="ellipsis" unicode="&#x2026;" horiz-adv-x="739" 
d="M127 -5q-23 0 -39.5 16.5t-16.5 39.5q0 24 16 39.5t40 15.5t40 -15.5t16 -39.5q0 -23 -16 -39.5t-40 -16.5zM371 -5q-24 0 -40 16.5t-16 39.5q0 24 16 39.5t40 15.5q23 0 39 -15.5t16 -39.5q0 -23 -16 -39.5t-39 -16.5zM612 -5q-23 0 -39 16.5t-16 39.5q0 24 16 39.5
t39 15.5q24 0 40 -15.5t16 -39.5q0 -23 -16 -39.5t-40 -16.5z" />
    <glyph glyph-name="uni2027" unicode="&#x2027;" horiz-adv-x="281" vert-adv-y="799" 
d="M127 239q-24 0 -40.5 16.5t-16.5 39.5q0 25 16.5 41t40.5 16t40.5 -16t16.5 -41q0 -23 -16.5 -39.5t-40.5 -16.5z" />
    <glyph glyph-name="uni2035" unicode="&#x2035;" horiz-adv-x="199" vert-adv-y="799" 
d="M146 474l-55 6l-76 260l93 -7z" />
    <glyph glyph-name="uni2036" unicode="&#x2036;" horiz-adv-x="362" vert-adv-y="799" 
d="M146 474l-55 6l-76 260l93 -7zM310 474l-55 6l-76 260l93 -7z" />
    <glyph glyph-name="uni2037" unicode="&#x2037;" horiz-adv-x="526" vert-adv-y="799" 
d="M146 474l-55 6l-76 260l93 -7zM310 474l-55 6l-76 260l93 -7zM473 474l-55 6l-76 260l93 -7z" />
    <glyph glyph-name="uni203B" unicode="&#x203b;" vert-adv-y="799" 
d="M432 559q-25 0 -43.5 18.5t-18.5 43.5t18.5 43t43.5 18t43 -18t18 -43t-18 -43.5t-43 -18.5zM137 53l-18 18l295 294l-295 294l18 18l295 -294l294 294l18 -18l-295 -294l294 -294l-17 -18l-294 294zM176 304q-25 0 -43.5 18.5t-18.5 43.5t18.5 43.5t43.5 18.5
t43.5 -18.5t18.5 -43.5t-18.5 -43.5t-43.5 -18.5zM687 304q-25 0 -43.5 18t-18.5 44t18.5 44t43.5 18t43.5 -18.5t18.5 -43.5t-18.5 -43.5t-43.5 -18.5zM432 48q-25 0 -43.5 18.5t-18.5 43.5t18 43t44 18q25 0 43 -18t18 -43t-18 -43.5t-43 -18.5z" />
    <glyph glyph-name="uni203D" unicode="&#x203d;" horiz-adv-x="429" vert-adv-y="799" 
d="M149 207q-4 28 -4 49q0 28 8 45l-15 359q-34 -8 -62 -29l-26 66q62 43 155 43q89 0 135.5 -46t46.5 -114q0 -50 -22.5 -91.5t-67.5 -95.5q-35 -42 -51 -75t-16 -70q0 -2 0.5 -6.5t1 -14t0.5 -20.5h-83zM222 412h3q2 3 8.5 13t9.5 15q49 68 49 125q0 35 -15 60.5t-45 33.5
zM188 -12q-28 0 -46 19.5t-18 49.5q0 29 18.5 48.5t47.5 19.5q28 0 45.5 -19t17.5 -49t-17.5 -49.5t-47.5 -19.5z" />
    <glyph glyph-name="uni204B" unicode="&#x204b;" horiz-adv-x="546" vert-adv-y="799" 
d="M91 -54v774q37 10 125 10q83 0 143.5 -20.5t91.5 -56t45 -74.5t14 -85q0 -97 -64 -153t-143 -56v-339h-69v719h-75v-719h-68z" />
    <glyph glyph-name="uni2103" unicode="&#x2103;" horiz-adv-x="951" vert-adv-y="799" 
d="M698 -12q-146 0 -231.5 98.5t-85.5 266.5q0 166 86.5 264.5t230.5 98.5q115 0 195.5 -64t97.5 -170h-89q-16 70 -72 111.5t-132 41.5q-103 0 -165 -77t-62 -205q0 -130 62 -207t166 -77q77 0 130.5 36t72.5 100h89q-24 -104 -100 -160.5t-193 -56.5zM179 433
q-58 0 -98.5 40.5t-40.5 98.5t40.5 98.5t98.5 40.5t98.5 -40.5t40.5 -98.5t-40.5 -98.5t-98.5 -40.5zM179 496q32 0 54.5 22.5t22.5 53.5q0 32 -22.5 54.5t-54.5 22.5q-31 0 -54 -22.5t-23 -54.5q0 -31 23 -53.5t54 -22.5z" />
    <glyph glyph-name="uni2109" unicode="&#x2109;" horiz-adv-x="856" vert-adv-y="799" 
d="M179 433q-58 0 -98.5 40.5t-40.5 98.5t40.5 98.5t98.5 40.5t98.5 -40.5t40.5 -98.5t-40.5 -98.5t-98.5 -40.5zM408 0v705h428v-80h-340v-242h312v-78h-312v-305h-88zM179 496q32 0 54.5 22.5t22.5 53.5q0 32 -22.5 54.5t-54.5 22.5q-31 0 -54 -22.5t-23 -54.5
q0 -31 23 -53.5t54 -22.5z" />
    <glyph glyph-name="uni2126" unicode="&#x2126;" horiz-adv-x="746" 
d="M605 387q0 114 -62 181t-170 67t-170 -67t-62 -181q0 -94 40.5 -165t126.5 -128v-94h-257v79h152v4q-73 49 -112.5 129t-39.5 177q0 146 89 236.5t233 90.5t233 -90.5t89 -236.5q0 -97 -39.5 -177t-112.5 -129v-4h152v-79h-257v94q86 57 126.5 128t40.5 165z" />
    <glyph glyph-name="uni212B" unicode="&#x212b;" horiz-adv-x="649" vert-adv-y="799" 
d="M27 0l239 722q-50 23 -50 78q0 41 30.5 69t80.5 28q49 0 79.5 -27.5t30.5 -68.5q0 -53 -53 -79l241 -722h-102l-75 225h-251l-72 -225h-98zM326 747q25 0 40 15.5t15 40.5q0 24 -15 39.5t-40 15.5t-39.5 -16.5t-14.5 -41.5q0 -22 15 -37.5t39 -15.5zM216 300h213l-65 203
q-10 30 -24.5 87.5t-15.5 62.5h-2q-20 -91 -39 -149z" />
    <glyph glyph-name="estimated" unicode="&#x212e;" horiz-adv-x="882" vert-adv-y="799" 
d="M442 -12q-167 0 -285.5 106t-118.5 257t118.5 257t285.5 106t285 -106t118 -257v-10h-654q-5 0 -5 -4v-198q0 -11 9 -22q101 -107 248 -107q76 0 143.5 32t115.5 88h59q-56 -66 -140 -104t-179 -38zM191 362h501q6 0 6 5v199q0 11 -11 24q-104 102 -244 102
q-145 0 -246 -106q-11 -9 -11 -24v-195q0 -5 5 -5z" />
    <glyph glyph-name="uni2206" unicode="&#x2206;" horiz-adv-x="634" 
d="M27 0v62l246 643h87l247 -643v-62h-580zM125 79h384v4l-191 520h-3l-190 -520v-4z" />
    <glyph glyph-name="uni25B3" unicode="&#x25b3;" vert-adv-y="799" 
d="M841 29h-819l410 702zM66 54h731l-365 627z" />
    <glyph glyph-name="uni25C7" unicode="&#x25c7;" vert-adv-y="799" 
d="M432 -56l-422 422l422 421l421 -421zM432 -21l386 387l-386 386l-387 -386z" />
    <glyph glyph-name="uni25CE" unicode="&#x25ce;" vert-adv-y="799" 
d="M432 -14q-158 0 -269 111t-111 269t111 268.5t269 110.5t268.5 -110.5t110.5 -268.5t-111 -269t-268 -111zM432 11q147 0 250.5 103.5t103.5 251.5q0 147 -103.5 251.5t-250.5 104.5t-251 -104.5t-104 -251.5q0 -148 103.5 -251.5t251.5 -103.5zM432 113
q-105 0 -179.5 74t-74.5 179q0 104 74.5 178.5t179.5 74.5q104 0 178.5 -74.5t74.5 -178.5q0 -105 -74.5 -179t-178.5 -74zM432 138q94 0 160.5 67t66.5 161t-66.5 161t-160.5 67t-161.5 -67t-67.5 -161t67 -161t162 -67z" />
    <glyph glyph-name="uni25EF" unicode="&#x25ef;" vert-adv-y="799" 
d="M432 774q169 0 288.5 -119.5t119.5 -288.5t-119.5 -289t-288.5 -120q-170 0 -289.5 119.5t-119.5 289.5q0 169 119.5 288.5t289.5 119.5zM432 -11q155 0 265.5 110.5t110.5 266.5t-110.5 266.5t-265.5 110.5q-157 0 -267 -110.5t-110 -266.5t110 -266.5t267 -110.5z" />
    <glyph glyph-name="uni2601" unicode="&#x2601;" vert-adv-y="799" 
d="M681 515q64 0 101 -39.5t37 -109.5t-37 -110t-101 -40q-36 0 -66 18q-20 -52 -69.5 -82.5t-113.5 -30.5q-65 0 -114.5 30.5t-69.5 82.5q-30 -18 -67 -18q-63 0 -100 40t-37 110t37 109.5t100 39.5q37 0 67 -18q20 53 70 83.5t114 30.5t113.5 -31t69.5 -83q30 18 66 18z
" />
    <glyph glyph-name="uni2602" unicode="&#x2602;" vert-adv-y="799" 
d="M445 672q95 0 176.5 -36.5t136.5 -112t62 -177.5h-9q-13 48 -46.5 78.5t-75.5 30.5q-41 0 -75 -31.5t-45 -83.5h-8q-9 50 -41 78.5t-75 34.5v-376q0 -99 -73 -99q-78 0 -78 79v14q0 16 13 16q14 0 14 -16v-14q0 -28 11.5 -40t36.5 -12q27 0 38 15.5t11 56.5v376
q-43 -6 -75 -34.5t-41 -78.5h-8q-11 52 -45 83.5t-75 31.5q-42 0 -75.5 -30.5t-46.5 -78.5h-9q7 102 62 177.5t136.5 112t176.5 36.5l10 82h7z" />
    <glyph glyph-name="uni2603" unicode="&#x2603;" vert-adv-y="799" 
d="M522 704q-19 0 -31.5 12.5t-12.5 30.5t12.5 31t31.5 13q17 0 30 -13t13 -31t-13 -30.5t-30 -12.5zM522 717q12 0 21 9t9 21q0 13 -9 22t-21 9q-13 0 -22 -9t-9 -22q0 -12 9 -21t22 -9zM239 686q-19 0 -31.5 12.5t-12.5 30.5t12.5 30.5t31.5 12.5q17 0 29.5 -12.5
t12.5 -30.5t-12.5 -30.5t-29.5 -12.5zM239 699q12 0 20.5 9t8.5 21t-8.5 21t-20.5 9q-13 0 -22 -9t-9 -21t9 -21t22 -9zM754 656q-18 0 -30.5 12.5t-12.5 30.5t12.5 30.5t30.5 12.5q19 0 31 -12.5t12 -30.5t-12 -30.5t-31 -12.5zM754 669q13 0 21.5 9t8.5 21t-8.5 21
t-21.5 9q-12 0 -21 -9t-9 -21t9 -21t21 -9zM432 1q-135 0 -211 53t-76 139q0 131 139 208v1q-46 46 -46 111q0 79 52.5 123.5t141.5 44.5q88 0 140.5 -44.5t52.5 -123.5q0 -65 -46 -111v-1q139 -77 139 -208q0 -86 -76 -139t-210 -53zM99 591q-17 0 -30 12.5t-13 30.5
t13 30.5t30 12.5q18 0 31 -12.5t13 -30.5t-13 -30.5t-31 -12.5zM99 604q13 0 22 9t9 21t-9 21t-22 9q-12 0 -21 -9t-9 -21t9 -21t21 -9zM432 18q127 0 197.5 48.5t70.5 128.5q0 131 -148 201v4q56 43 56 113q0 71 -47 111t-129 40q-84 0 -130.5 -40t-46.5 -111
q0 -70 56 -113v-4q-149 -70 -149 -201q0 -80 71.5 -128.5t198.5 -48.5zM361 519q-11 0 -19.5 8t-8.5 19q0 12 8 19.5t20 7.5q11 0 19 -7.5t8 -19.5q0 -11 -8 -19t-19 -8zM502 519q-11 0 -19.5 8t-8.5 19q0 12 8 19.5t20 7.5q11 0 19 -7.5t8 -19.5q0 -11 -8 -19t-19 -8z
M741 450q-18 0 -30.5 13t-12.5 31q0 17 12.5 30t30.5 13t30.5 -12.5t12.5 -30.5t-12.5 -31t-30.5 -13zM741 463q13 0 21.5 9t8.5 22q0 12 -8.5 21t-21.5 9q-12 0 -21 -9t-9 -21q0 -13 9 -22t21 -9zM141 419q-17 0 -30 12.5t-13 30.5t13 30.5t30 12.5q18 0 31 -12.5t13 -30.5
t-13 -30.5t-31 -12.5zM141 432q13 0 22 9t9 21t-9 21t-22 9q-12 0 -21 -9t-9 -21t9 -21t21 -9zM432 422q-69 0 -110 43l13 15q28 -40 97 -40q67 0 95 40l14 -15q-41 -43 -109 -43zM780 276q-18 0 -30.5 12.5t-12.5 30.5t12.5 30.5t30.5 12.5q19 0 31 -12.5t12 -30.5
t-12 -30.5t-31 -12.5zM780 289q12 0 21 8.5t9 21.5t-9 21.5t-21 8.5t-21 -8.5t-9 -21.5t9 -21.5t21 -8.5zM76 208q-18 0 -31 13t-13 31t13 30.5t31 12.5t30.5 -12.5t12.5 -30.5t-12.5 -31t-30.5 -13zM76 221q12 0 21 9t9 22q0 12 -9 21t-21 9q-13 0 -22 -9t-9 -21
q0 -13 9 -22t22 -9z" />
    <glyph glyph-name="female" unicode="&#x2640;" vert-adv-y="799" 
d="M698 321v-64h-234v-298h-65v298h-234v64h234v89q-60 11 -99 57t-39 109q0 71 49.5 120.5t121.5 49.5q71 0 120.5 -49.5t49.5 -120.5q0 -62 -39 -108.5t-99 -57.5v-89h234zM432 465q45 0 77 32.5t32 78.5q0 45 -32 77t-77 32q-46 0 -78 -32t-32 -77q0 -46 32 -78.5
t78 -32.5z" />
    <glyph glyph-name="male" unicode="&#x2642;" vert-adv-y="799" 
d="M432 -35q-72 0 -121 49.5t-49 120.5q0 63 39 109.5t100 57.5v328l-132 -152l-40 37l199 227h10l198 -227l-40 -37l-133 153v-329q61 -11 100 -58t39 -109q0 -71 -49.5 -120.5t-120.5 -49.5zM432 26q45 0 77 31.5t32 77.5q0 45 -32 77.5t-77 32.5t-77 -32.5t-32 -77.5
q0 -46 31.5 -77.5t77.5 -31.5z" />
    <glyph glyph-name="uni2661" unicode="&#x2661;" 
d="M625 735q76 0 128.5 -52t52.5 -145q0 -166 -374 -544q-375 377 -375 544q0 93 52.5 145t128.5 52q136 0 193 -130h1q57 130 193 130zM82 538q0 -158 350 -508q349 351 349 508q0 84 -43.5 128.5t-113.5 44.5q-68 0 -114.5 -39t-76.5 -129h-3q-30 90 -76.5 129t-114.5 39
q-70 0 -113.5 -44.5t-43.5 -128.5z" />
    <glyph glyph-name="musicalnote" unicode="&#x266a;" vert-adv-y="799" 
d="M503 665q71 -60 109.5 -109.5t38.5 -106.5q0 -110 -112 -148l-26 37q53 22 53 77q0 56 -103 140v-309q0 -93 -45 -145.5t-116 -52.5q-36 0 -68 22t-32 70q0 107 196 107v492h62q3 -42 43 -74z" />
    <glyph glyph-name="uni3000" unicode="&#x3000;" vert-adv-y="799" 
 />
    <glyph glyph-name="uni3001" unicode="&#x3001;" horiz-adv-x="428" vert-adv-y="799" 
d="M82 191q100 -87 163 -173l-64 -50q-67 96 -156 176z" />
    <glyph glyph-name="uni3002" unicode="&#x3002;" horiz-adv-x="493" vert-adv-y="799" 
d="M136 194q47 0 80.5 -33t33.5 -80q0 -48 -33.5 -81t-80.5 -33t-80.5 33t-33.5 81q0 47 33.5 80t80.5 33zM136 7q30 0 52.5 22t22.5 52t-22.5 52t-52.5 22q-31 0 -52.5 -22t-21.5 -52t21.5 -52t52.5 -22z" />
    <glyph glyph-name="uni3005" unicode="&#x3005;" horiz-adv-x="769" vert-adv-y="799" 
d="M481 175q62 -50 100 -90l-60 -64q-94 109 -277 230l52 56q62 -39 122 -84q101 123 173 254h-253q-83 -141 -216 -268l-75 44q109 95 190 215t124 248l81 -22q-25 -72 -61 -141h283l54 -31q-95 -179 -237 -347z" />
    <glyph glyph-name="uni3006" unicode="&#x3006;" vert-adv-y="799" 
d="M149 -1l-66 51l13 17q17 59 48 243q23 139 60 190.5t96 51.5q81 0 178 -73q82 79 171 160q-48 4 -117 18l18 78q47 -12 113 -22t99 -10l26 -58q-129 -101 -250 -213q87 -76 174 -193l-69 -56q-79 119 -160 195q-194 -190 -334 -379zM199 187q108 122 226 240
q-67 49 -114 49q-36 0 -57.5 -38t-36.5 -135q-17 -110 -18 -116z" />
    <glyph glyph-name="uni3008" unicode="&#x3008;" vert-adv-y="799" 
d="M579 366l259 -377l-41 -25l-276 402l276 401l41 -25z" />
    <glyph glyph-name="uni3009" unicode="&#x3009;" vert-adv-y="799" 
d="M342 366l-276 -402l-41 25l259 377l-259 376l41 25z" />
    <glyph glyph-name="uni300A" unicode="&#x300a;" vert-adv-y="799" 
d="M694 -36l-194 402l194 401l43 -17l-184 -384l184 -385zM798 -36l-194 402l194 401l43 -17l-184 -384l184 -385z" />
    <glyph glyph-name="uni300B" unicode="&#x300b;" vert-adv-y="799" 
d="M65 -36l-43 17l184 385l-184 384l43 17l194 -401zM169 -36l-43 17l184 385l-184 384l43 17l194 -401z" />
    <glyph glyph-name="uni300C" unicode="&#x300c;" horiz-adv-x="459" vert-adv-y="799" 
d="M446 772v-50h-254v-505h-52v555h306z" />
    <glyph glyph-name="uni300D" unicode="&#x300d;" horiz-adv-x="467" vert-adv-y="799" 
d="M327 515v-556h-307v50h254v506h53z" />
    <glyph glyph-name="uni300E" unicode="&#x300e;" horiz-adv-x="552" vert-adv-y="799" 
d="M532 773v-108h-201v-439h-108v547h309zM510 753h-265v-506h64v441h201v65z" />
    <glyph glyph-name="uni300F" unicode="&#x300f;" horiz-adv-x="552" vert-adv-y="799" 
d="M330 506v-548h-308v109h201v439h107zM309 485h-64v-441h-202v-65h266v506z" />
    <glyph glyph-name="uni3012" unicode="&#x3012;" vert-adv-y="799" 
d="M129 602v71h604v-71h-604zM391 44v373h-262v71h604v-71h-261v-373h-81z" />
    <glyph glyph-name="uni3013" unicode="&#x3013;" vert-adv-y="799" 
d="M750 684v-226h-638v226h638zM112 272h638v-226h-638v226z" />
    <glyph glyph-name="uni3014" unicode="&#x3014;" vert-adv-y="799" 
d="M668 94l171 -86l-21 -43l-202 101v601l202 100l21 -43l-171 -86v-544z" />
    <glyph glyph-name="uni3015" unicode="&#x3015;" vert-adv-y="799" 
d="M247 667v-601l-202 -101l-21 43l171 86v544l-171 86l21 43z" />
    <glyph glyph-name="uni301C" unicode="&#x301c;" vert-adv-y="799" 
d="M802 407q-86 -141 -203 -141q-37 0 -74.5 12t-101.5 45q-66 34 -101 45.5t-67 11.5q-72 0 -139 -92l-54 37q85 141 203 141q37 0 74 -12t102 -46q106 -55 168 -55q72 0 139 92z" />
    <glyph glyph-name="uni3041" unicode="&#x3041;" horiz-adv-x="728" 
d="M516 369q64 -21 99.5 -67t35.5 -107q0 -81 -58 -136.5t-171 -73.5l-29 67q89 12 133.5 50t44.5 93q0 74 -73 105q-46 -142 -144 -222q6 -19 13 -35l-69 -34l-11 27q-51 -24 -96 -24q-113 0 -113 116q0 68 46.5 128t125.5 94q1 34 5 92h-159v69h166l11 76l80 -5l-12 -71
h271v-69h-280q-4 -47 -5 -67q37 8 89 8q18 0 27 -1l4 35l76 -9q-1 -6 -3.5 -19t-3.5 -20zM335 157q60 65 91 159h-15q-48 0 -85 -10v-6q0 -77 9 -143zM197 85q34 0 71 20q-18 80 -18 169q-45 -27 -71.5 -65t-26.5 -77q0 -47 45 -47z" />
    <glyph glyph-name="uni3042" unicode="&#x3042;" horiz-adv-x="852" 
d="M609 461q83 -23 127.5 -79t44.5 -135q0 -100 -73.5 -171t-209.5 -89l-31 72q113 12 171 63t58 124q0 48 -27 85.5t-78 56.5q-56 -180 -183 -285q9 -31 17 -49l-75 -36q-2 8 -8 21.5t-7 16.5q-60 -33 -130 -33q-131 0 -131 137q0 85 59 161t158 118q5 104 7 124h-205v74
h213q1 9 15 104l83 -6q-6 -32 -16 -98h346v-74h-353q-1 -17 -4 -49.5t-4 -48.5q54 12 114 12q16 0 42 -2l8 48l81 -9zM387 184q85 85 125 221q-15 3 -30 3q-55 0 -111 -16v-10q0 -117 16 -198zM212 99q50 0 103 28q-24 95 -24 233q-65 -34 -103 -86t-38 -109q0 -66 62 -66z
" />
    <glyph glyph-name="uni3043" unicode="&#x3043;" horiz-adv-x="680" 
d="M541 130q-1 117 -28.5 195t-94.5 141l62 40q76 -69 108 -156.5t37 -213.5zM228 14q-70 0 -118 86t-48 237q0 75 7 151l79 -6q-8 -82 -8 -144q0 -109 25.5 -175.5t60.5 -66.5q17 0 35.5 35t31.5 93l66 -34q-19 -84 -54 -130t-77 -46z" />
    <glyph glyph-name="uni3044" unicode="&#x3044;" horiz-adv-x="847" 
d="M689 178q-2 152 -36 249.5t-123 176.5l68 49q100 -91 139.5 -200t44.5 -269zM280 31q-84 0 -145 108.5t-61 299.5q0 101 8 196l89 -9q-11 -91 -11 -184q0 -141 35 -228t81 -87q25 0 51 45t42 116l73 -37q-26 -103 -69 -161.5t-93 -58.5z" />
    <glyph glyph-name="uni3045" unicode="&#x3045;" horiz-adv-x="576" 
d="M449 455q-160 23 -299 65l22 73q143 -46 290 -63zM332 408q92 0 142.5 -46.5t50.5 -132.5q0 -113 -90.5 -175t-276.5 -77l-23 74q160 13 233 54.5t73 120.5q0 53 -30 81t-85 28q-81 0 -263 -46l-20 76q183 43 289 43z" />
    <glyph glyph-name="uni3046" unicode="&#x3046;" horiz-adv-x="722" 
d="M534 587q-246 42 -366 82l27 80q125 -46 352 -82zM385 517q115 0 179 -57t64 -167q0 -268 -453 -308l-26 82q200 14 294.5 67.5t94.5 155.5q0 73 -41 110t-114 37q-123 0 -328 -57l-22 83q238 54 352 54z" />
    <glyph glyph-name="uni3047" unicode="&#x3047;" horiz-adv-x="651" 
d="M463 463q-176 25 -294 60l19 72q100 -33 287 -61zM98 -15l-58 57q63 57 163.5 154t145.5 146q-110 -10 -271 -15l-5 77q216 0 365 19l44 -55q-98 -92 -147 -142q17 6 33 6q41 0 49 -44q2 -11 3.5 -23.5t3 -28t2.5 -23.5q3 -28 16.5 -35t58.5 -7q61 0 109 7v-74
q-50 -5 -127 -5q-69 0 -96.5 13.5t-34.5 51.5q-2 9 -4 34t-4 37q-4 32 -24 32q-18 0 -43 -16q-25 -19 -36 -28q-77 -70 -143 -138z" />
    <glyph glyph-name="uni3048" unicode="&#x3048;" horiz-adv-x="799" 
d="M585 595q-224 34 -372 76l24 76q132 -46 362 -77zM115 -15l-65 62q75 64 215.5 200.5t207.5 207.5q-182 -18 -378 -24l-7 79q101 0 244 8t227 19l46 -59q-15 -14 -189 -192q23 9 39 9q51 0 61 -57q0 -4 4.5 -45t7.5 -59q4 -38 23 -47.5t81 -9.5q77 0 139 11v-80
q-82 -8 -160 -8q-84 0 -117.5 16.5t-43.5 63.5q-3 13 -6.5 50t-5.5 49q-2 21 -12 31.5t-24 10.5q-30 0 -59 -21q-1 -1 -47 -36q-108 -102 -181 -179z" />
    <glyph glyph-name="uni3049" unicode="&#x3049;" horiz-adv-x="687" 
d="M399 330q97 0 148 -48t51 -125t-51.5 -122t-147.5 -45q-31 0 -51 3v68q20 -2 51 -2q57 0 87.5 26.5t30.5 71.5q0 48 -31 76.5t-93 28.5q-41 0 -93 -14v-150q0 -112 -104 -112q-64 0 -103 35.5t-39 84.5q0 51 47 102.5t122 84.5v116h-155v70h155v101h77v-101h154v-70h-154
v-91q48 12 99 12zM524 512q73 -45 132 -114l-55 -52q-20 27 -57 61t-69 54zM223 217q-43 -24 -69.5 -52.5t-26.5 -52.5q0 -23 17 -38.5t43 -15.5q36 0 36 44v115z" />
    <glyph glyph-name="uni304A" unicode="&#x304a;" horiz-adv-x="841" 
d="M243 -5q-71 0 -119 42.5t-48 103.5q0 63 58 125t151 103v156h-198v77h198v136h85v-136h205v-77h-205v-127q74 19 135 19q116 0 179 -58.5t63 -154.5q0 -94 -62.5 -150.5t-177.5 -56.5q-32 0 -65 4v76q33 -4 62 -4q77 0 117.5 35.5t40.5 96.5q0 64 -41.5 101.5
t-124.5 37.5q-54 0 -126 -21v-195q0 -65 -32.5 -99t-94.5 -34zM761 449q-26 34 -70.5 75.5t-83.5 66.5l51 56q82 -52 162 -142zM232 72q28 0 40.5 13.5t12.5 43.5v159q-58 -30 -94 -68.5t-36 -71.5q0 -32 22.5 -54t54.5 -22z" />
    <glyph glyph-name="uni304B" unicode="&#x304b;" horiz-adv-x="852" 
d="M390 -8q-63 0 -127 16l6 77q54 -16 103 -16q25 0 37 5t24 21q46 68 46 253q0 69 -23 95t-79 26q-16 0 -62 -2q-72 -271 -189 -440l-74 40q110 147 178 392q-89 -9 -169 -26l-16 78q107 18 204 26q25 127 32 202l87 -10q-13 -88 -35 -185q18 1 49 1q92 0 136.5 -47.5
t44.5 -146.5q0 -201 -58 -298q-20 -33 -46.5 -47t-68.5 -14zM739 210q-20 222 -151 337l65 43q142 -124 171 -367z" />
    <glyph glyph-name="uni304C" unicode="&#x304c;" horiz-adv-x="852" 
d="M769 631q-27 73 -70 134l52 25q46 -64 76 -135zM647 605q-22 67 -67 133l52 25q42 -56 72 -134zM385 -8q-63 0 -127 16l6 77q54 -16 104 -16q25 0 36.5 5t23.5 21q46 68 46 253q0 68 -23 94.5t-78 26.5q-17 0 -63 -2q-72 -271 -189 -440l-74 40q113 151 178 392
q-89 -9 -169 -26l-16 78q106 17 204 26q21 100 32 202l87 -10q-11 -84 -34 -185q18 1 49 1q91 0 135 -47.5t44 -146.5q0 -207 -58 -298q-20 -33 -46 -47t-68 -14zM735 194q-19 221 -150 337l65 43q141 -125 170 -366z" />
    <glyph glyph-name="uni304D" unicode="&#x304d;" horiz-adv-x="818" 
d="M456 -8q-169 0 -257 42.5t-88 123.5q0 71 63.5 116.5t165.5 45.5q103 0 194 -22q-26 37 -60 106q-203 -15 -395 -17l-5 75q178 0 371 11q-10 28 -30 88q-205 -12 -306 -13l-4 74q143 0 290 9q-12 51 -21 99l90 11q6 -50 18 -103q125 11 216 26l10 -74q-93 -13 -209 -23
q20 -64 29 -88q142 12 219 26l9 -75q-87 -11 -197 -20q47 -95 109 -153l-42 -63q-133 57 -280 57q-69 0 -110 -26t-41 -65q0 -91 244 -91q64 0 152 8l-6 -80q-55 -5 -129 -5z" />
    <glyph glyph-name="uni304E" unicode="&#x304e;" horiz-adv-x="846" 
d="M778 646q-24 69 -66 129l49 21q49 -68 71 -127zM666 629q-20 59 -66 126l48 22q43 -55 72 -125zM452 -8q-169 0 -256.5 42.5t-87.5 123.5q0 72 63.5 117t165.5 45q105 0 194 -22q-31 43 -60 106q-205 -15 -396 -17l-4 75q176 0 371 11q-9 22 -30 86q-97 -7 -307 -11
l-3 72q124 0 291 9q-8 30 -23 101l91 11q7 -65 18 -106q119 13 155 18l12 -71q-52 -7 -150 -16q8 -34 29 -87q142 12 219 26l8 -75q-89 -11 -196 -20q47 -97 108 -153l-41 -63q-133 57 -281 57q-68 0 -109.5 -26t-41.5 -65q0 -91 245 -91q62 0 152 8l-6 -80q-55 -5 -130 -5z
" />
    <glyph glyph-name="uni304F" unicode="&#x304f;" horiz-adv-x="676" 
d="M187 347q251 -163 396 -306l-76 -66q-129 148 -423 342q-22 12 -22 39q0 26 28 47q87 61 207.5 170t180.5 182l70 -59q-63 -69 -172 -168t-187 -155q-9 -7 -9 -13q0 -8 7 -13z" />
    <glyph glyph-name="uni3050" unicode="&#x3050;" horiz-adv-x="796" 
d="M725 605q-31 64 -80 122l47 32q50 -53 85 -119zM509 -24q-134 152 -423 341q-22 14 -22 40q0 28 28 47q84 60 201.5 167t180.5 181l71 -57q-65 -72 -171.5 -169t-182.5 -152q-9 -7 -9 -13q0 -9 7 -12q257 -168 396 -307zM633 530q-34 72 -78 124l47 31q45 -50 82 -121z
" />
    <glyph glyph-name="uni3051" unicode="&#x3051;" horiz-adv-x="822" 
d="M461 -13l-69 58q90 59 123.5 146.5t33.5 240.5q0 5 -0.5 14.5t-0.5 13.5h-269v79h267q-4 71 -16 195l89 5q6 -68 10 -200h123v-79h-122v-32q0 -173 -36 -272t-133 -169zM124 33q-48 132 -48 332q0 195 32 366l86 -13q-35 -169 -35 -345q0 -187 50 -315z" />
    <glyph glyph-name="uni3052" unicode="&#x3052;" horiz-adv-x="826" 
d="M764 641q-35 67 -80 117l46 31q49 -54 81 -114zM452 -15l-68 57q89 59 121.5 147t32.5 244v19h-258v76h257q-5 101 -19 201l85 6q11 -105 15 -207h135v-76h-132v-20q0 -175 -35.5 -274t-133.5 -173zM124 27q-47 131 -47 332q0 192 31 367l85 -14q-34 -166 -34 -344
q0 -191 49 -315zM686 565q-32 68 -75 119l45 30q48 -54 79 -117z" />
    <glyph glyph-name="uni3053" unicode="&#x3053;" horiz-adv-x="738" 
d="M422 428l-58 53l136 93q-132 -3 -146 -3q-120 0 -248 20l14 80q107 -20 255 -20q143 0 236 9l32 -75q-34 -19 -104.5 -69.5t-116.5 -87.5zM409 12q-178 0 -261.5 34t-83.5 118q0 85 91 184l66 -44q-68 -74 -68 -128q0 -45 60.5 -62.5t201.5 -17.5q142 0 245 26l14 -86
q-129 -24 -265 -24z" />
    <glyph glyph-name="uni3054" unicode="&#x3054;" horiz-adv-x="821" 
d="M751 644q-31 77 -68 128l50 24q42 -53 74 -128zM633 624q-23 66 -64 128l50 24q48 -68 70 -126zM435 422l-58 51l137 95q-73 -5 -147 -5q-101 0 -248 21l15 79q111 -21 255 -21q97 0 199 5l48 -83q-90 -54 -201 -142zM423 12q-178 0 -261.5 34t-83.5 118q0 85 91 184
l66 -44q-68 -74 -68 -128q0 -45 60.5 -62.5t201.5 -17.5q142 0 246 26l13 -86q-130 -24 -265 -24z" />
    <glyph glyph-name="uni3055" unicode="&#x3055;" horiz-adv-x="834" 
d="M548 509q56 -147 146 -232l-53 -60q-123 59 -273 59q-71 0 -116 -29t-45 -75q0 -103 267 -103q47 0 131 7l-4 -79q-44 -4 -126 -4q-175 0 -264 45.5t-89 131.5q0 77 66.5 129t171.5 52q100 0 196 -24q-51 63 -94 176q-136 -10 -281 -10q-70 0 -101 1v77q54 -3 118 -3
q109 0 240 8q-23 72 -34 155l89 9q6 -73 30 -157q134 13 226 33l16 -76q-85 -18 -217 -31z" />
    <glyph glyph-name="uni3056" unicode="&#x3056;" horiz-adv-x="832" 
d="M759 644q-21 60 -69 128l52 24q45 -61 72 -127zM638 622q-26 67 -66 127l50 24q43 -57 72 -125zM457 -7q-175 0 -264 45.5t-89 131.5q0 77 66.5 129t171.5 52q99 0 195 -24q-49 63 -90 168q-160 -10 -285 -10q-69 0 -100 1v76q52 -3 118 -3q133 0 242 8q-27 95 -36 164
l88 9q11 -95 33 -166q130 13 218 33l17 -76q-81 -17 -210 -29q57 -143 143 -225l-52 -60q-125 59 -273 59q-72 0 -116.5 -29t-44.5 -75q0 -103 266 -103q48 0 132 7l-4 -79q-44 -4 -126 -4z" />
    <glyph glyph-name="uni3057" unicode="&#x3057;" horiz-adv-x="772" 
d="M702 286q-58 -161 -140 -226.5t-196 -65.5q-128 0 -188.5 72t-60.5 217q0 44 2.5 202.5t3.5 242.5h93q-13 -241 -13 -443q0 -112 38.5 -159t125.5 -47q89 0 150.5 55.5t103.5 190.5z" />
    <glyph glyph-name="uni3058" unicode="&#x3058;" horiz-adv-x="718" 
d="M317 -6q-127 0 -187 72t-60 217q0 37 1 104t2 169.5t2 171.5h94q-15 -252 -15 -443q0 -112 39 -159t127 -47t149 55.5t104 190.5l82 -39q-59 -161 -141 -226.5t-197 -65.5zM547 525q-30 80 -72 139l54 26q43 -59 78 -138zM431 477q-28 77 -70 140l54 26q46 -65 75 -138z
" />
    <glyph glyph-name="uni3059" unicode="&#x3059;" horiz-adv-x="782" 
d="M252 -29l-35 74q105 20 154 55t65 93q-39 -21 -91 -21q-75 0 -118 44t-43 116q0 70 46 117t120 47q55 0 96 -22q0 13 -0.5 41.5t-0.5 43.5h-393v77h392l-3 103h90v-103h225v-77h-225v-198q4 -19 4 -44q0 -72 -9 -120t-37.5 -95.5t-86.5 -79t-150 -51.5zM357 242
q38 0 63.5 28.5t25.5 63.5v10q-13 83 -94 83q-36 0 -61.5 -27.5t-25.5 -67.5q0 -41 25.5 -65.5t66.5 -24.5z" />
    <glyph glyph-name="uni305A" unicode="&#x305a;" horiz-adv-x="839" 
d="M769 648q-24 63 -66 124l51 24q42 -55 71 -123zM649 638q-20 59 -63 125l49 24q38 -52 70 -123zM260 -31l-35 74q104 19 153 54t65 93q-38 -22 -91 -22q-75 0 -117 43t-42 115q0 71 45 117.5t119 46.5q57 0 95 -22q0 13 -0.5 41.5t-0.5 42.5h-389v75h388q0 17 -0.5 52.5
t-1.5 52.5h89v-105h230v-75h-230v-199q4 -16 4 -42q0 -71 -9 -118t-37 -94t-86 -78.5t-149 -51.5zM363 237q38 0 63.5 28.5t25.5 64.5v9q-12 82 -93 82q-35 0 -60.5 -27.5t-25.5 -66.5q0 -41 25.5 -65.5t64.5 -24.5z" />
    <glyph glyph-name="uni305B" unicode="&#x305b;" horiz-adv-x="826" 
d="M500 76q82 0 176 11l1 -83q-100 -6 -173 -6q-165 0 -232 41.5t-76 156.5q-5 83 -5 225l-158 -17l-7 77l165 15q0 35 -0.5 104t-0.5 103h86q-3 -192 -3 -199l285 23v20q0 104 -5 191h86q0 -24 1 -88.5t1 -101.5v-14l145 12l4 -78l-150 -9q-2 -116 -11.5 -168t-33 -72
t-75.5 -20q-44 0 -98 6v73q35 -5 81 -5q25 0 34.5 10.5t14 46.5t5.5 122l-284 -24q0 -125 6 -223q5 -76 50 -103t171 -26z" />
    <glyph glyph-name="uni305C" unicode="&#x305c;" horiz-adv-x="922" 
d="M801 796q48 -66 73 -129l-52 -26q-28 70 -70 131zM762 643l-53 -25q-21 60 -67 129l48 24q42 -54 72 -128zM525 268q23 0 33 10t15 46t6 119q-138 -9 -276 -23q0 -158 5 -218q4 -75 49.5 -101.5t170.5 -25.5q88 0 173 10v-82q-78 -5 -171 -5q-163 0 -229.5 41t-73.5 154
q-6 72 -6 219l-155 -15l-6 76l161 14v208h83q-1 -64 -1 -201l277 22v22q0 82 -6 158h81q4 -72 4 -156v-16l150 13l6 -77l-156 -10q-1 -113 -10.5 -164.5t-33 -70.5t-74.5 -19q-43 0 -98 6v72q42 -6 82 -6z" />
    <glyph glyph-name="uni305D" unicode="&#x305d;" horiz-adv-x="811" 
d="M650 -10q-330 11 -330 173q0 58 39.5 114t107.5 98q-270 -32 -401 -55l-14 79q120 16 152 21q167 104 290 195q-118 -3 -323 -11l-5 78q262 0 464 18l30 -69q-48 -32 -151.5 -99.5t-146.5 -96.5q259 26 395 43l11 -77q-126 -9 -194 -42q-77 -36 -121.5 -86t-44.5 -98
q0 -53 60.5 -76.5t198.5 -27.5z" />
    <glyph glyph-name="uni305E" unicode="&#x305e;" horiz-adv-x="895" 
d="M810 635q-33 81 -71 136l52 24q46 -64 75 -134zM691 611q-27 77 -68 135l51 25q44 -62 73 -136zM659 -10q-330 11 -330 173q0 59 38.5 114.5t106.5 97.5q-268 -32 -400 -55l-14 79q110 14 153 21q166 104 290 195q-126 -4 -324 -11l-6 78q223 0 425 14l37 -85
q-74 -51 -264 -176q278 28 394 43l11 -77q-124 -9 -194 -42q-78 -36 -122 -86t-44 -98q0 -53 60 -76.5t199 -27.5z" />
    <glyph glyph-name="uni305F" unicode="&#x305f;" horiz-adv-x="835" 
d="M130 -6l-78 40q109 187 168 519h-151v77h163q10 71 12 107l88 -5q-2 -16 -7 -50t-7 -52h252v-77h-265q-28 -159 -74 -309t-101 -250zM422 388l-4 75q59 8 223 12q15 0 105 -3v-75q-64 4 -113 4q-123 0 -211 -13zM632 15q-260 0 -260 108q0 48 35 119l71 -15
q-26 -52 -26 -82q0 -55 180 -55q61 0 130 11v-80q-53 -6 -130 -6z" />
    <glyph glyph-name="uni3060" unicode="&#x3060;" horiz-adv-x="854" 
d="M760 617q-28 80 -71 138l53 26q40 -54 77 -138zM644 580q-30 81 -69 138l53 25q43 -60 74 -137zM125 -6l-78 40q109 187 168 519h-151v77h164q3 21 7 59t5 48l87 -5q-2 -15 -6.5 -49.5t-6.5 -52.5h251v-77h-264q-63 -349 -176 -559zM416 388l-3 75q59 7 224 12
q14 0 104 -3v-75q-62 4 -113 4q-121 0 -212 -13zM628 15q-261 0 -261 108q0 48 35 119l72 -15q-27 -48 -27 -82q0 -55 180 -55q60 0 131 11v-80q-54 -6 -130 -6z" />
    <glyph glyph-name="uni3061" unicode="&#x3061;" horiz-adv-x="797" 
d="M318 543q-27 -150 -64 -220q60 36 132 59t133 23q92 0 148 -53t56 -133q0 -105 -85 -165.5t-270 -60.5q-44 0 -109 5l-4 81q63 -8 124 -8q132 0 195.5 38.5t63.5 106.5q0 49 -36.5 81.5t-93.5 32.5q-144 0 -311 -132l-67 53q70 103 103 292h-166v78h178q5 53 7 118l88 -3
q-4 -71 -11 -115h393v-78h-404z" />
    <glyph glyph-name="uni3062" unicode="&#x3062;" horiz-adv-x="834" 
d="M761 643q-27 70 -69 128l52 25q40 -52 73 -129zM639 630q-25 63 -66 126l51 25q38 -51 71 -127zM373 -7q-42 0 -109 5l-3 81q61 -8 124 -8q131 0 194.5 38.5t63.5 106.5q0 49 -35.5 81.5t-93.5 32.5q-144 0 -312 -132l-67 53q70 103 102 284h-165v76h177q8 86 9 128
l86 -3q-1 -43 -9 -125h392v-76h-405q-26 -141 -63 -212q136 82 266 82q92 0 147.5 -53t55.5 -133q0 -105 -85 -165.5t-270 -60.5z" />
    <glyph glyph-name="uni3063" unicode="&#x3063;" horiz-adv-x="693" 
d="M395 480q111 0 173 -57t62 -155q0 -250 -385 -256l-19 77q317 3 317 175q0 65 -42 101.5t-120 36.5q-82 0 -303 -60l-25 80q252 58 342 58z" />
    <glyph glyph-name="uni3064" unicode="&#x3064;" horiz-adv-x="835" 
d="M467 634q135 0 214 -74.5t79 -200.5q0 -155 -116.5 -237t-371.5 -89l-20 85q416 3 416 237q0 90 -56.5 141.5t-161.5 51.5q-112 0 -395 -82l-28 90q16 4 78.5 17.5t85.5 18.5t74 15.5t79 14.5t63 8t60 4z" />
    <glyph glyph-name="uni3065" unicode="&#x3065;" horiz-adv-x="876" 
d="M785 631q-26 70 -70 130l53 26q43 -56 75 -130zM667 604q-32 79 -66 130l52 25q44 -60 73 -130zM286 26l-22 86q218 1 318 61t100 175q0 88 -57 139t-162 51q-125 0 -394 -81l-28 90q10 2 67 14.5t73.5 16.5t64.5 14t70.5 13.5t57.5 9t60 7.5t46 2q135 0 214.5 -73.5
t79.5 -198.5q0 -154 -116.5 -236.5t-371.5 -89.5z" />
    <glyph glyph-name="uni3066" unicode="&#x3066;" horiz-adv-x="763" 
d="M630 1q-184 7 -285.5 76.5t-101.5 196.5q0 84 46 160t128 135q-169 -14 -384 -26l-6 82q143 4 452 26q93 7 217 23l11 -85q-64 -3 -135 -15q-34 -6 -65 -29q-178 -115 -178 -267q0 -178 312 -193z" />
    <glyph glyph-name="uni3067" unicode="&#x3067;" horiz-adv-x="783" 
d="M619 1q-183 7 -284.5 76.5t-101.5 196.5q0 84 46 160t129 135q-172 -15 -386 -26l-6 82q146 4 454 26q91 7 216 23l10 -85q-64 -3 -134 -15q-27 -5 -66 -29q-176 -115 -176 -267q0 -178 311 -193zM704 366q-29 78 -71 138l52 25q47 -65 78 -136zM593 325q-28 80 -69 138
l52 25q41 -56 75 -136z" />
    <glyph glyph-name="uni3068" unicode="&#x3068;" horiz-adv-x="734" 
d="M678 14q-110 -15 -255 -15q-347 0 -347 185q0 125 197 229q-34 56 -44.5 127.5t-10.5 197.5h89q0 -121 7 -183t32 -105q96 42 252 95l30 -81q-97 -29 -171 -56t-145 -62t-109.5 -75.5t-38.5 -82.5q0 -109 259 -109q121 0 246 20z" />
    <glyph glyph-name="uni3069" unicode="&#x3069;" horiz-adv-x="767" 
d="M699 616q-22 63 -67 128l50 25q42 -53 75 -128zM410 -1q-346 0 -346 185q0 125 196 229q-33 56 -44 128t-11 197h88q0 -117 7.5 -180.5t32.5 -107.5q90 40 252 95l31 -81q-97 -29 -171.5 -56.5t-145 -62t-109 -75t-38.5 -82.5q0 -109 258 -109q123 0 246 20l10 -85
q-112 -15 -256 -15zM586 580q-30 75 -66 129l51 24q46 -64 72 -127z" />
    <glyph glyph-name="uni306A" unicode="&#x306a;" horiz-adv-x="843" 
d="M454 536h-157q-76 -256 -169 -395l-77 45q92 131 159 350h-132v77h153q20 75 25 129l87 -10q-12 -68 -25 -119h136v-77zM793 528l-42 -68q-103 75 -222 120l40 67q123 -49 224 -119zM614 389q0 -67 4 -161q82 -35 159 -95l-48 -64q-60 52 -110 80q-5 -72 -48 -113.5
t-120 -41.5q-76 0 -125.5 39t-49.5 96q0 56 49 95t131 39q39 0 81 -11q0 20 -1 67t-1 70q0 58 1 85h82q-4 -44 -4 -85zM539 162v21q-40 13 -85 13q-50 0 -78.5 -18t-28.5 -49q0 -28 27 -46.5t69 -18.5q96 0 96 98z" />
    <glyph glyph-name="uni306B" unicode="&#x306b;" horiz-adv-x="826" 
d="M143 -6q-46 129 -46 332q0 210 47 408l88 -16q-49 -179 -49 -391q0 -193 47 -308zM327 527l-5 79q124 9 283 9q99 0 126 -1l-2 -80q-70 5 -147 5q-142 0 -255 -12zM583 45q-270 0 -270 114q0 50 38 133l77 -14q-32 -63 -32 -94q0 -34 45 -47.5t140 -13.5q82 0 168 14v-84
q-108 -8 -166 -8z" />
    <glyph glyph-name="uni306C" unicode="&#x306c;" horiz-adv-x="909" 
d="M771 155q47 -29 77 -61l-50 -57q-39 39 -56 51q-56 -95 -161 -95q-67 0 -105 29.5t-38 78.5q0 51 39 84t106 33q52 0 114 -23q8 42 8 91q0 101 -51.5 160t-139.5 59q-33 -213 -114 -346q1 -1 8.5 -10t11.5 -13l-52 -66q-15 18 -19 21q-71 -74 -152 -74q-57 0 -92 44
t-35 119q0 80 34 155t98 131q-16 110 -17 201l76 4q2 -85 10 -154q86 51 172 61q7 69 7 141l83 -1q-2 -68 -9 -135h1q119 0 191 -81t72 -217q0 -76 -17 -130zM352 230q56 106 81 269q-82 -12 -149 -64q21 -114 68 -205zM209 98q50 0 96 57q-57 95 -87 220q-74 -87 -74 -186
q0 -43 17.5 -67t47.5 -24zM579 60q62 0 97 70q-55 25 -94 25q-34 0 -55 -14t-21 -35q0 -22 20 -34t53 -12z" />
    <glyph glyph-name="uni306D" unicode="&#x306d;" horiz-adv-x="916" 
d="M772 179q40 -27 81 -68l-50 -59q-28 31 -52 51q-45 -107 -172 -107q-77 0 -122 34t-45 86q0 51 47 87t123 36q59 0 114 -21q4 22 4 76q0 127 -29 178.5t-94 51.5q-50 0 -116.5 -45.5t-138.5 -127.5q-4 -291 -2 -358h-85q0 9 4 253q-30 -38 -105 -150l-65 51
q41 52 88 122.5t67 109.5q8 14 18 42l2 87l-153 -15l-11 79q82 4 166 13q2 128 2 153h84l-5 -148l32 -28q-28 -66 -37 -110q65 71 137.5 113t137.5 42q93 0 138.5 -72t45.5 -241q0 -66 -9 -115zM574 63q83 0 111 86q-53 25 -105 25q-47 0 -71.5 -15.5t-24.5 -40.5t24.5 -40
t65.5 -15z" />
    <glyph glyph-name="uni306E" unicode="&#x306e;" horiz-adv-x="838" 
d="M430 675q171 0 256 -90t85 -231q0 -133 -74 -223t-247 -128l-41 80q150 25 212 94t62 176q0 105 -58.5 169t-169.5 70q-8 -248 -69 -393t-163 -145q-69 0 -120 72t-51 177q0 153 107 262.5t271 109.5zM223 145q59 0 101 117.5t47 325.5q-109 -18 -173.5 -96.5
t-64.5 -183.5q0 -68 27.5 -115.5t62.5 -47.5z" />
    <glyph glyph-name="uni306F" unicode="&#x306f;" horiz-adv-x="858" 
d="M477 2q-80 0 -129 40.5t-49 96.5q0 57 49 94t127 37q41 0 91 -12l-7 229h-255v78h252q-3 92 -3 163h87q-1 -36 -1 -123v-40h135v-78h-133q1 -42 11 -258q58 -28 140 -88l-50 -64q-44 40 -92 69q-19 -144 -173 -144zM142 -3q-42 141 -42 351q0 205 35 378l86 -12
q-36 -164 -36 -362q0 -206 42 -333zM472 74q53 0 74 27t22 85q-50 15 -94 15q-46 0 -72.5 -17t-26.5 -45q0 -27 26.5 -46t70.5 -19z" />
    <glyph glyph-name="uni3070" unicode="&#x3070;" horiz-adv-x="823" 
d="M773 646q-30 60 -76 116l45 30q42 -46 81 -113zM122 -3q-42 141 -42 349q0 205 34 375l84 -11q-34 -161 -34 -359q0 -211 42 -334zM692 574q-27 62 -74 118l45 29q44 -49 80 -116zM453 2q-79 0 -127.5 40t-48.5 96t49 93.5t127 37.5q41 0 91 -13l-9 213h-254v75h251
q0 19 -1.5 80t-1.5 88h84v-111v-57h136v-75h-133q8 -165 11 -243q64 -28 140 -87l-50 -62q-48 41 -92 69q-17 -144 -172 -144zM449 73q52 0 73.5 27t22.5 84q-57 16 -94 16q-45 0 -72 -17t-27 -45q0 -27 26.5 -46t70.5 -19z" />
    <glyph glyph-name="uni3071" unicode="&#x3071;" horiz-adv-x="831" 
d="M715 595q-41 0 -70.5 29.5t-29.5 71.5t29.5 71t70.5 29q42 0 71.5 -29t29.5 -71t-29.5 -71.5t-71.5 -29.5zM715 639q24 0 40.5 16.5t16.5 40.5q0 23 -16.5 39.5t-40.5 16.5q-23 0 -39.5 -17t-16.5 -39q0 -24 16.5 -40.5t39.5 -16.5zM115 -3q-42 141 -42 349q0 197 34 375
l84 -11q-35 -158 -35 -359q0 -207 42 -334zM446 2q-80 0 -128.5 40t-48.5 96t49 93.5t126 37.5q44 0 91 -13l-9 213h-252v75h250q-4 120 -4 160h86v-103q0 -9 0.5 -28t0.5 -29h134v-75h-133q1 -27 3.5 -76.5t4.5 -90t4 -76.5q63 -28 139 -87l-50 -62q-44 38 -92 69
q-17 -144 -171 -144zM442 73q51 0 72 27t22 84q-53 16 -93 16q-46 0 -72.5 -17t-26.5 -45q0 -27 26.5 -46t71.5 -19z" />
    <glyph glyph-name="uni3072" unicode="&#x3072;" horiz-adv-x="864" 
d="M609 707q59 -185 235 -264l-39 -75q-100 47 -157 137q23 -103 23 -187q0 -153 -72.5 -236t-212.5 -83q-116 0 -182.5 64t-66.5 181q0 69 32 151.5t83 152.5q-63 -25 -191 -34l-9 84q67 1 134 14t102 30q41 20 61 42l58 -52q-89 -90 -138.5 -194.5t-49.5 -188.5
q0 -81 45.5 -124.5t124.5 -43.5q97 0 150 65t53 198q0 139 -63 341z" />
    <glyph glyph-name="uni3073" unicode="&#x3073;" horiz-adv-x="871" 
d="M798 650q-34 68 -78 116l44 30q44 -47 80 -113zM704 592q-30 67 -73 117l45 31q45 -52 76 -116zM367 -2q-115 0 -181 64.5t-66 179.5q0 69 31.5 152t82.5 152q-53 -23 -190 -35l-10 84q158 2 236 43q37 18 60 42l57 -52q-89 -89 -138 -193t-49 -188q0 -81 45.5 -124.5
t123.5 -43.5q97 0 149 65.5t52 197.5q0 142 -60 338l76 22q59 -185 237 -263l-40 -75q-94 47 -156 137q22 -97 22 -186q0 -152 -72 -234.5t-210 -82.5z" />
    <glyph glyph-name="uni3074" unicode="&#x3074;" horiz-adv-x="913" 
d="M773 593q-43 0 -72 29.5t-29 72.5q0 41 29 70.5t72 29.5q41 0 70.5 -29.5t29.5 -70.5q0 -42 -29.5 -72t-70.5 -30zM773 638q23 0 39 16.5t16 40.5q0 23 -16 39t-39 16q-24 0 -40.5 -16t-16.5 -39q0 -24 16.5 -40.5t40.5 -16.5zM391 -2q-115 0 -181 64.5t-66 179.5
q0 68 31.5 151t83.5 153q-56 -23 -191 -35l-8 84q67 1 133.5 13t100.5 30q41 20 62 42l55 -52q-89 -89 -138 -193t-49 -188q0 -80 45.5 -124t124.5 -44q96 0 149 65.5t53 197.5q0 139 -61 338l76 22q58 -185 236 -263l-40 -75q-95 47 -156 137q23 -101 23 -186
q0 -152 -72 -234.5t-211 -82.5z" />
    <glyph glyph-name="uni3075" unicode="&#x3075;" horiz-adv-x="865" 
d="M579 563q-51 25 -154 52.5t-181 39.5l25 77q78 -13 179.5 -40.5t159.5 -51.5zM391 -2q-70 0 -156 25l8 79q78 -26 147 -26q45 0 69 19t24 54q0 39 -19.5 74t-68.5 83q-50 48 -50 107q0 49 29 122l84 -20q-25 -55 -25 -94t37 -78q102 -106 102 -198q0 -67 -45.5 -107
t-135.5 -40zM750 67q-21 62 -62.5 136.5t-84.5 128.5l74 38q39 -50 85.5 -129t72.5 -138zM100 49l-70 45q43 45 92 125.5t66 129.5l76 -29q-21 -56 -71 -138t-93 -133z" />
    <glyph glyph-name="uni3076" unicode="&#x3076;" horiz-adv-x="860" 
d="M783 625q-30 80 -70 136l51 26q43 -58 76 -136zM671 585q-23 72 -67 138l51 24q38 -51 75 -135zM569 563q-50 24 -152.5 52t-179.5 40l24 77q77 -13 178.5 -40.5t160.5 -51.5zM382 -2q-71 0 -155 25l6 79q79 -26 148 -26q92 0 92 73q0 40 -19 75t-67 82q-50 47 -50 107
q0 48 28 122l85 -20q-26 -52 -26 -94q0 -38 38 -78q101 -107 101 -198q0 -67 -45.5 -107t-135.5 -40zM742 67q-23 63 -64.5 137.5t-83.5 127.5l74 38q39 -50 85.5 -128.5t73.5 -138.5zM92 49l-70 45q42 45 91 125t66 130l76 -29q-21 -55 -71 -137.5t-92 -133.5z" />
    <glyph glyph-name="uni3077" unicode="&#x3077;" horiz-adv-x="848" 
d="M569 563q-50 24 -152.5 52t-179.5 40l24 77q77 -13 178.5 -40.5t160.5 -51.5zM736 510q-42 0 -71 29t-29 71t29 71t71 29t72 -29t30 -71t-30 -71t-72 -29zM736 554q24 0 40.5 16.5t16.5 39.5t-16.5 40t-40.5 17q-23 0 -39 -17t-16 -40t16 -39.5t39 -16.5zM382 -2
q-71 0 -155 25l6 79q79 -26 148 -26q92 0 92 73q0 40 -19 75t-67 82q-50 47 -50 107q0 48 28 122l85 -20q-26 -52 -26 -94q0 -38 38 -78q101 -107 101 -198q0 -67 -45.5 -107t-135.5 -40zM742 67q-23 63 -64.5 137.5t-83.5 127.5l74 38q39 -50 85.5 -128.5t73.5 -138.5z
M92 49l-70 45q42 45 91 125t66 130l76 -29q-21 -55 -71 -137.5t-92 -133.5z" />
    <glyph glyph-name="uni3078" unicode="&#x3078;" horiz-adv-x="873" 
d="M786 65q-94 73 -197.5 175.5t-162.5 174.5q-39 49 -64 49q-24 0 -56 -38q-65 -72 -209 -248l-68 61q30 30 69 73.5t66.5 76t63.5 76t46 55.5q44 51 88 51q50 0 100 -67q63 -82 173 -191.5t208 -178.5z" />
    <glyph glyph-name="uni3079" unicode="&#x3079;" horiz-adv-x="856" 
d="M703 515q-31 83 -72 140l53 25q47 -61 79 -138zM587 468q-26 77 -70 139l55 27q43 -61 75 -140zM777 65q-94 73 -198.5 176.5t-160.5 173.5q-40 49 -64 49q-25 0 -57 -38q-49 -54 -210 -248l-66 61q38 39 85 92.5t98 114.5t62 74q44 51 86 51q51 0 101 -67
q64 -83 173.5 -192t208.5 -178z" />
    <glyph glyph-name="uni307A" unicode="&#x307a;" horiz-adv-x="856" 
d="M672 445q-41 0 -71 29.5t-30 71.5t29.5 71t71.5 29t71.5 -29t29.5 -71t-30 -71.5t-71 -29.5zM672 489q23 0 39.5 17t16.5 40t-16.5 40t-39.5 17q-24 0 -40 -16.5t-16 -40.5t16 -40.5t40 -16.5zM777 65q-94 73 -198.5 176.5t-160.5 173.5q-40 49 -64 49q-25 0 -57 -38
q-49 -54 -210 -248l-66 61q38 39 85 92.5t98 114.5t62 74q44 51 86 51q51 0 101 -67q64 -83 173.5 -192t208.5 -178z" />
    <glyph glyph-name="uni307B" unicode="&#x307b;" horiz-adv-x="831" 
d="M200 715q-39 -169 -39 -359q0 -203 44 -335l-84 -22q-43 135 -43 348q0 200 34 380zM625 232q71 -32 144 -90l-49 -63q-46 39 -98 72q-16 -147 -167 -147q-78 0 -128.5 38.5t-50.5 96.5t49 95.5t129 37.5q37 0 88 -11l-5 142h-254v76h250q-1 20 -2.5 60.5t-1.5 59.5h-232
v76h442v-76h-125v-75v-45h135v-76h-133zM447 76q55 0 75.5 26.5t21.5 84.5q-46 16 -92 16t-73.5 -18.5t-27.5 -47.5q0 -26 26.5 -43.5t69.5 -17.5z" />
    <glyph glyph-name="uni307C" unicode="&#x307c;" horiz-adv-x="866" 
d="M735 796q44 -46 76 -104l-49 -34q-24 51 -73 107zM679 690l-49 -33q-28 56 -72 106l46 31q44 -47 75 -104zM192 710q-37 -164 -37 -356q0 -206 43 -334l-84 -21q-41 136 -41 345q0 198 34 378zM607 391l7 -161q72 -32 145 -90l-48 -62q-54 44 -97 71q-17 -145 -167 -145
q-78 0 -127.5 37.5t-49.5 95.5t48.5 95t128.5 37q40 0 87 -10l-5 132h-252v73h248l-4 118h-232v71h430v-71h-116v-66q0 -33 2 -52h134v-73h-132zM438 74q56 0 77 27t21 85q-41 15 -92 15q-47 0 -74 -18t-27 -47q0 -26 26.5 -44t68.5 -18z" />
    <glyph glyph-name="uni307D" unicode="&#x307d;" horiz-adv-x="864" 
d="M676 580h-73v-64q0 -34 2 -52h134v-73h-132l7 -161q72 -32 145 -90l-48 -62q-54 44 -97 71q-17 -145 -167 -145q-78 0 -127.5 37.5t-49.5 95.5t48.5 95t128.5 37q40 0 87 -10l-5 132h-252v73h248l-4 116h-232v72h336q-10 22 -10 44q0 42 29.5 71t70.5 29q42 0 71.5 -29
t29.5 -71t-29.5 -71.5t-71.5 -29.5q-20 0 -39 8v-23zM715 752q-23 0 -39.5 -16.5t-16.5 -39.5q0 -24 16.5 -40.5t39.5 -16.5q24 0 40.5 16.5t16.5 40.5q0 23 -16.5 39.5t-40.5 16.5zM192 710q-37 -164 -37 -356q0 -206 43 -334l-84 -21q-41 136 -41 345q0 198 34 378z
M438 74q56 0 77.5 27.5t20.5 84.5q-41 15 -92 15q-47 0 -74 -18t-27 -47q0 -26 26.5 -44t68.5 -18z" />
    <glyph glyph-name="uni307E" unicode="&#x307e;" horiz-adv-x="778" 
d="M702 96l-54 -68q-102 84 -199 127q-12 -162 -184 -162q-88 0 -141 39.5t-53 96.5q0 61 54 100.5t143 39.5q40 0 96 -9l-3 115h-262v75h260l-3 115h-275v75h273v98h87v-98h260v-75h-260l3 -115h240v-75h-239l4 -139q117 -41 253 -140zM258 65q57 0 81.5 28t25.5 91
q-69 15 -96 15q-56 0 -89 -18.5t-33 -49.5q0 -30 29.5 -48t81.5 -18z" />
    <glyph glyph-name="uni307F" unicode="&#x307f;" horiz-adv-x="866" 
d="M450 -11l-52 63q92 43 139 107.5t64 158.5q-106 27 -205 33q-26 -79 -49 -134q-33 -81 -68.5 -116t-85.5 -35q-53 0 -86 41.5t-33 106.5q0 89 66.5 149.5t197.5 65.5q29 97 51 190q-132 -11 -247 -17l-8 80q156 0 300 18l59 -36q-71 -234 -72 -238q88 -6 191 -29
q4 47 6 148l84 -2q-2 -93 -10 -166q70 -19 122 -37l-31 -80q-58 23 -104 36q-23 -108 -76 -182.5t-153 -124.5zM193 148q21 0 39.5 20.5t39.5 71.5q18 44 42 110q-86 -8 -125.5 -44t-39.5 -89q0 -30 12 -49.5t32 -19.5z" />
    <glyph glyph-name="uni3080" unicode="&#x3080;" horiz-adv-x="889" 
d="M456 -7q-120 0 -180 27t-60 91q0 30 7 52q-21 -7 -44 -7q-49 0 -77.5 35.5t-28.5 97.5q0 77 41 123t105 46q26 0 46 -18q0 26 2 116h-193v77h195q3 103 3 104h86l-4 -104h193v-77h-196q-3 -107 -3 -178q0 -10 0.5 -29.5t0.5 -31.5q0 -67 -45 -114q-10 -40 -10 -59
q0 -41 39.5 -55.5t125.5 -14.5q113 0 164.5 25.5t51.5 91.5q0 54 -36 119l82 18q39 -74 39 -147q0 -104 -77 -146t-227 -42zM759 455q-24 37 -70 85.5t-85 79.5l58 52q96 -81 161 -167zM200 228q34 0 54.5 22.5t20.5 65.5q0 75 -55 75q-31 0 -54 -24t-23 -71q0 -32 16 -50
t41 -18z" />
    <glyph glyph-name="uni3081" unicode="&#x3081;" horiz-adv-x="858" 
d="M541 584q113 -15 179.5 -92t66.5 -184q0 -113 -70 -194t-220 -115l-39 74q126 24 185 86t59 146q0 77 -46.5 132.5t-124.5 70.5q-30 -221 -122 -339q13 -20 29 -36l-61 -58q-23 29 -27 34q-72 -57 -155 -57q-58 0 -94.5 45.5t-36.5 119.5q0 86 39.5 160.5t110.5 125.5
q-12 89 -15 189l80 3q0 -86 8 -150q80 37 171 41q5 52 5 139l83 -1q0 -68 -5 -140zM297 467q23 -132 68 -222q62 99 85 265q-83 -6 -153 -43zM202 136q56 0 106 43q-51 96 -80 239q-88 -82 -88 -196q0 -38 17.5 -62t44.5 -24z" />
    <glyph glyph-name="uni3082" unicode="&#x3082;" horiz-adv-x="826" 
d="M500 -7q-139 0 -201.5 53.5t-62.5 175.5q0 22 4 110h-176v76h181q8 70 12 135h-179v77h188l15 121l93 -9l-17 -112h256v-77h-266q-13 -122 -15 -135h263v-76h-268q-6 -66 -6 -107q0 -86 39 -118.5t140 -32.5q91 0 132.5 26t41.5 89q0 53 -32 110l83 15q33 -70 33 -132
q0 -189 -258 -189z" />
    <glyph glyph-name="uni3083" unicode="&#x3083;" horiz-adv-x="736" 
d="M498 456q80 0 126.5 -41t46.5 -116q0 -67 -43.5 -108.5t-123.5 -41.5q-40 0 -94 13l3 75q41 -15 87 -15q44 0 67.5 20.5t23.5 56.5q0 83 -102 83q-50 0 -186 -46q59 -184 83 -326l-82 -17q-28 160 -77 316q-94 -34 -136 -52l-26 79l138 46q-38 102 -58 142l74 28
q29 -59 60 -146q79 26 132 39q-37 73 -68 109l69 33q43 -52 79 -131h7z" />
    <glyph glyph-name="uni3084" unicode="&#x3084;" horiz-adv-x="827" 
d="M564 573q216 0 216 -192q0 -84 -50.5 -133.5t-147.5 -49.5q-59 0 -118 15l3 80q57 -19 109 -19q59 0 90.5 28t31.5 78q0 116 -135 116q-68 0 -250 -63q77 -228 109 -424l-86 -19q-36 209 -102 415q-91 -33 -179 -70l-27 86q89 28 180 59q-37 104 -78 190l81 33
q38 -85 77 -197q102 35 179 52q-45 93 -92 150l72 35q56 -69 101 -171q6 1 16 1z" />
    <glyph glyph-name="uni3085" unicode="&#x3085;" horiz-adv-x="695" 
d="M441 498q90 -6 140 -63.5t50 -151.5q0 -93 -60 -150t-152 -57q-17 0 -24 1q-32 -55 -81 -94l-65 44q46 34 71 72q-53 26 -95 82l43 56q40 -55 82 -73q21 58 21 178q0 26 -2 78q-127 -26 -185 -157q-14 -33 -14 -74q0 -25 5 -52l-73 -15q-23 87 -23 180q0 129 36 242
l78 -15q-37 -99 -37 -168v-18q68 128 205 151q-5 40 -12 80l81 9q3 -16 6.5 -46.5t4.5 -38.5zM426 150q58 2 93 37t35 97q0 61 -27.5 96.5t-80.5 43.5q2 -27 2 -79q0 -115 -22 -195z" />
    <glyph glyph-name="uni3086" unicode="&#x3086;" horiz-adv-x="826" 
d="M521 629q115 -6 176.5 -77t61.5 -190q0 -116 -72 -184t-187 -68q-23 0 -33 1q-42 -76 -108 -131l-72 49q64 47 99 104q-69 28 -132 106l50 59q51 -73 114 -97q29 83 29 238q0 60 -5 106q-179 -26 -255 -210q-15 -38 -15 -93q0 -39 8 -67l-76 -18q-28 99 -28 230
q0 165 45 305l85 -18q-47 -124 -47 -227v-22q86 173 276 200q-6 50 -17 109l88 11q9 -56 15 -116zM499 187q81 -1 129 45.5t48 130.5q0 83 -38.5 131t-110.5 55q3 -55 3 -108q0 -146 -32 -254h1z" />
    <glyph glyph-name="uni3087" unicode="&#x3087;" horiz-adv-x="640" 
d="M561 91l-54 -66q-72 61 -153 98q-4 -61 -42 -98t-107 -37q-79 0 -124 34t-45 86q0 55 48 89t135 34q30 0 51 -5q-12 237 -13 357h85q0 -9 -0.5 -28.5t-0.5 -30.5q0 -7 0.5 -21.5t0.5 -22.5h218v-75h-217q1 -34 3.5 -101t3.5 -99q107 -38 211 -114zM272 139v14
q-38 9 -61 9q-48 0 -75 -15t-27 -38q0 -21 23 -35.5t65 -14.5q75 0 75 80z" />
    <glyph glyph-name="uni3088" unicode="&#x3088;" horiz-adv-x="788" 
d="M713 599v-79h-284q1 -44 5 -133t5 -133q129 -43 269 -147l-56 -69q-109 87 -211 130q-4 -81 -47.5 -128t-125.5 -47q-94 0 -151 40t-57 103q0 66 58 107.5t163 41.5q34 0 74 -8q0 8 -7.5 194t-8.5 267h89q-2 -23 -2 -74v-65h287zM258 69q101 0 101 113q0 2 -0.5 7t-0.5 9
q-45 12 -88 12q-62 0 -97 -20.5t-35 -52.5q0 -30 31 -49t89 -19z" />
    <glyph glyph-name="uni3089" unicode="&#x3089;" horiz-adv-x="745" 
d="M546 574q-59 23 -180 51t-210 39l23 78q248 -39 389 -91zM291 -7q-6 0 -21 0.5t-23 0.5l-18 80q34 -3 70 -3q286 0 286 147q0 110 -147 110q-131 0 -281 -134l-68 30q0 142 18 221.5t67 150.5l79 -26q-44 -59 -60.5 -121t-16.5 -148q64 44 138.5 70.5t141.5 26.5
q101 0 158.5 -47t57.5 -131q0 -227 -381 -227z" />
    <glyph glyph-name="uni308A" unicode="&#x308a;" horiz-adv-x="743" 
d="M315 -18l-48 80q86 25 142.5 57.5t86.5 77.5t41.5 94.5t11.5 118.5q0 162 -32 293l91 16q29 -157 29 -307q0 -79 -14.5 -140t-49 -117t-99 -99.5t-159.5 -73.5zM136 223q-41 92 -41 235q0 130 33 249l85 -18q-38 -108 -38 -223q0 -71 13 -112q29 54 70 122l54 -46
q-25 -37 -57.5 -98t-45.5 -98z" />
    <glyph glyph-name="uni308B" unicode="&#x308b;" horiz-adv-x="792" 
d="M399 -2q-95 0 -148.5 35.5t-53.5 95.5q0 55 45 91.5t116 36.5q73 0 116 -43.5t55 -121.5q89 37 89 137q0 61 -42 103.5t-113 42.5q-77 0 -149 -31q-45 -19 -107.5 -63.5t-117.5 -95.5l-56 64q92 67 221.5 179t207.5 189q-122 -9 -337 -16l-5 80q255 0 453 23l42 -59
q-128 -107 -256 -224q64 25 128 25q100 0 158.5 -62.5t58.5 -153.5q0 -109 -80 -170.5t-225 -61.5zM391 70q26 0 68 4q-5 54 -30.5 85t-69.5 31q-39 0 -62.5 -16.5t-23.5 -42.5q0 -28 29.5 -44.5t88.5 -16.5z" />
    <glyph glyph-name="uni308C" unicode="&#x308c;" horiz-adv-x="874" 
d="M812 154l11 -84q-73 -46 -141 -46q-52 0 -78.5 30.5t-26.5 98.5q0 69 12 171q9 83 9 145q0 78 -48 78q-34 0 -81 -36q-89 -66 -171 -159q-3 -215 -3 -363h-86q1 15 6 264q-71 -94 -114 -158l-67 52q67 82 151 208q16 24 33 69q0 16 0.5 49t0.5 50l-158 -10l-7 79
q68 0 166 7q0 24 0.5 71.5t1.5 70.5h86l-5 -140l31 -24q-15 -28 -35 -114v-9q63 69 149 133q66 49 127 49q51 0 80 -37.5t29 -105.5q0 -66 -12 -159q-13 -147 -13 -177q0 -52 39 -52q58 0 114 49z" />
    <glyph glyph-name="uni308D" unicode="&#x308d;" horiz-adv-x="803" 
d="M498 434q93 0 149.5 -55.5t56.5 -142.5q0 -117 -90 -178.5t-287 -61.5q-44 0 -69 1l-16 84q42 -3 79 -3q168 0 232 39.5t64 120.5q0 55 -40 89t-104 34q-79 0 -161 -32q-103 -42 -218 -143l-53 62q95 71 230 186t200 183q-151 -9 -337 -18l-6 82q240 0 455 23l40 -63
q-245 -211 -269 -232q68 25 144 25z" />
    <glyph glyph-name="uni308E" unicode="&#x308e;" horiz-adv-x="678" 
d="M455 446q79 0 129 -58.5t50 -149.5q0 -96 -62 -154.5t-203 -80.5l-25 74q116 15 162.5 54t46.5 106q0 60 -30.5 95t-82.5 35q-84 0 -187 -98q-4 -148 -4 -278h-82q0 32 1.5 97.5t2.5 98.5q-5 -5 -87 -93l-58 53q82 79 126 140q14 22 23 43q0 12 0.5 35t0.5 33l-122 -9
l-6 73q50 0 130 7q0 74 1 108h82l-4 -114l17 -14q-12 -35 -19 -68v-21q99 86 200 86z" />
    <glyph glyph-name="uni308F" unicode="&#x308f;" horiz-adv-x="893" 
d="M607 561q98 0 157 -72t59 -187q0 -121 -76 -194.5t-250 -99.5l-29 80q152 18 211.5 71t59.5 141q0 81 -41 130t-110 49q-117 0 -251 -129q-3 -140 -3 -358h-87q2 47 4.5 139.5t3.5 134.5q-86 -91 -125 -136l-62 55q103 102 156 178q19 24 34 72q0 13 0.5 40t0.5 41
q-49 -5 -165 -13l-5 80q68 0 171 11q2 98 2 143h86q-1 -24 -2.5 -71.5t-2.5 -71.5l30 -23q-10 -25 -33 -103q0 -3 -0.5 -11t-0.5 -12q135 116 268 116z" />
    <glyph glyph-name="uni3090" unicode="&#x3090;" horiz-adv-x="834" 
d="M545 -3q-71 0 -112.5 30t-41.5 83q0 46 41 78.5t105 32.5q83 0 138 -63q18 47 18 92q0 95 -44 147.5t-128 52.5q-52 0 -99 -11q-41 -156 -68 -235q-30 -91 -71 -134t-104 -43q-51 0 -82.5 40t-31.5 108q0 102 80.5 191.5t208.5 130.5q17 67 26 129q-39 -5 -120 -14
t-122 -14l-10 79q152 9 287 30l68 -30q-7 -26 -20.5 -80.5t-20.5 -80.5q49 7 89 7q118 0 181.5 -74.5t63.5 -198.5q0 -120 -65 -186.5t-166 -66.5zM187 112q31 0 50 24.5t38 79.5q32 83 59 198q-87 -38 -138 -103t-51 -133q0 -31 11.5 -48.5t30.5 -17.5zM540 60q59 0 98 39
q-43 59 -101 59q-37 0 -58.5 -15.5t-21.5 -35.5q0 -47 83 -47z" />
    <glyph glyph-name="uni3091" unicode="&#x3091;" horiz-adv-x="887" 
d="M654 233q76 0 120.5 -55t63.5 -169l-84 -16q-13 97 -37 136t-72 39q-71 0 -131 -106q-12 -24 -29 -66l-73 14q13 42 13 79q0 70 -54 70q-53 0 -122 -46q-62 -42 -130 -120l-62 53q83 82 150 133q37 27 129 84q-77 23 -77 78q0 43 43 72t113 29q112 0 112 -68
q0 -31 -35 -63q76 6 120 35.5t44 75.5q0 36 -37 58.5t-96 22.5q-105 0 -215 -45q-55 -22 -147 -88l-40 61q150 82 366 221q-14 -2 -280 -24l-8 71q287 10 402 31l42 -58q-105 -54 -247 -139q86 26 154 26q87 0 137.5 -38t50.5 -101q0 -83 -79 -126.5t-214 -43.5q-15 0 -41 2
q-75 -47 -104 -67q60 30 108 30q70 0 73 -88q87 106 173 106zM326 352q0 -35 80 -41q45 32 45 54q0 12 -14 21.5t-42 9.5q-31 0 -50 -13.5t-19 -30.5z" />
    <glyph glyph-name="uni3092" unicode="&#x3092;" horiz-adv-x="827" 
d="M499 -5q-131 0 -202 36.5t-71 106.5q0 109 216 216q-20 46 -52 46q-88 0 -178 -78q-47 -45 -84 -90l-65 53q106 99 190 273h-167v74h201q21 49 35 111l86 -16q-9 -38 -32 -95h272v-74h-303q-36 -78 -79 -138q79 47 140 47q76 0 107 -80q44 20 121 50.5t100 40.5l31 -75
q-168 -60 -235 -88q11 -72 11 -167h-81q2 28 2 41q0 49 -5 92q-148 -75 -148 -140q0 -72 189 -72q134 0 221 18l8 -77q-77 -15 -228 -15z" />
    <glyph glyph-name="uni3093" unicode="&#x3093;" horiz-adv-x="851" 
d="M800 303q-25 -168 -83.5 -237.5t-151.5 -69.5q-71 0 -111.5 46.5t-40.5 137.5q0 86 -13 117.5t-42 31.5q-38 0 -82 -48q-27 -31 -41 -61q-45 -85 -101 -226l-82 33q60 122 143.5 343.5t124.5 359.5l89 -25q-117 -314 -130 -346q56 50 108 50q58 0 81 -43.5t23 -163.5
q0 -72 20 -99.5t60 -27.5q56 0 94 57.5t55 193.5z" />
    <glyph glyph-name="uni3094" unicode="&#x3094;" 
d="M808 635q-35 70 -79 119l45 29q49 -53 81 -116zM605 588q-252 45 -360 81l27 80q125 -45 347 -82zM714 568q-28 66 -74 121l43 30q40 -43 81 -120zM253 -15l-26 82q200 14 294.5 67.5t94.5 155.5q0 73 -41 110t-114 37q-123 0 -328 -57l-23 83q240 54 353 54
q114 0 178 -57t64 -167q0 -268 -452 -308z" />
    <glyph glyph-name="uni3095" unicode="&#x3095;" horiz-adv-x="746" 
d="M330 432q149 0 149 -158q0 -159 -44 -235q-29 -49 -99 -49q-46 0 -101 11l2 71q37 -11 84 -11q30 0 44 19q34 50 34 192q0 49 -17 69t-58 20h-43q-56 -211 -143 -341l-71 35q82 110 135 298q-93 -13 -124 -20l-13 72q134 17 154 19q19 80 26 155l79 -10q-8 -62 -25 -138
q6 0 16.5 0.5t14.5 0.5zM547 471q64 -55 93.5 -126.5t43.5 -167.5l-80 -15q-11 92 -35.5 156.5t-82.5 111.5z" />
    <glyph glyph-name="uni3096" unicode="&#x3096;" horiz-adv-x="721" 
d="M418 -16l-68 50q72 47 96 112.5t24 187.5v15h-204v73h201q-4 84 -11 147l86 4q1 -26 3.5 -76.5t3.5 -74.5h86v-73h-85q0 -3 0.5 -8t0.5 -8q-1 -136 -29 -215t-104 -134zM139 20q-37 104 -37 262q0 148 24 287l83 -12q-27 -130 -27 -269q0 -144 39 -245z" />
    <glyph glyph-name="uni309B" unicode="&#x309b;" vert-adv-y="799" 
d="M171 764q43 -38 92 -103l-39 -30q-38 56 -89 103zM70 693q48 -47 88 -107l-41 -28q-39 65 -84 106z" />
    <glyph glyph-name="uni309C" unicode="&#x309c;" vert-adv-y="799" 
d="M121 764q38 0 64 -25.5t26 -62.5t-26 -63t-64 -26q-36 0 -62 26t-26 63t26 62.5t62 25.5zM121 616q25 0 42.5 18t17.5 42t-17.5 41.5t-42.5 17.5q-23 0 -40.5 -18t-17.5 -41q0 -24 17.5 -42t40.5 -18z" />
    <glyph glyph-name="uni30A1" unicode="&#x30a1;" horiz-adv-x="648" 
d="M416 247l-58 51q45 27 83.5 72t56.5 90h-446v73h491l65 -31q-30 -79 -80 -146t-112 -109zM142 -7l-56 57q100 48 134.5 114.5t34.5 178.5v69h81v-70q0 -126 -42 -210.5t-152 -138.5z" />
    <glyph glyph-name="uni30A2" unicode="&#x30a2;" horiz-adv-x="763" 
d="M510 317l-60 55q63 39 111 96.5t69 114.5h-579v80h627l72 -35q-87 -212 -240 -311zM164 -10l-57 64q66 31 109 69.5t65.5 89t30.5 102.5t8 124v73h88v-74q0 -76 -9.5 -135t-35 -118.5t-75.5 -108.5t-124 -86z" />
    <glyph glyph-name="uni30A3" unicode="&#x30a3;" horiz-adv-x="608" 
d="M549 535q-54 -77 -183 -182v-359h-85v299q-111 -75 -213 -120l-46 65q127 53 259 150.5t203 194.5z" />
    <glyph glyph-name="uni30A4" unicode="&#x30a4;" horiz-adv-x="700" 
d="M678 684q-88 -116 -238 -231v-459h-90v393q-154 -104 -279 -159l-50 71q159 66 326 189.5t261 247.5z" />
    <glyph glyph-name="uni30A5" unicode="&#x30a5;" horiz-adv-x="611" 
d="M560 452q-5 -190 -80 -302.5t-243 -156.5l-43 63q100 25 162.5 77t87 115.5t27.5 147.5h-330v-154h-81v226h197v112h82v-112h148z" />
    <glyph glyph-name="uni30A6" unicode="&#x30a6;" horiz-adv-x="787" 
d="M716 568q-4 -111 -26.5 -199.5t-69 -165.5t-126 -131t-189.5 -83l-44 72q348 85 357 454h-437v-206h-89v282h253v149h89v-149h200z" />
    <glyph glyph-name="uni30A7" unicode="&#x30a7;" horiz-adv-x="649" 
d="M588 116v-73h-545v73h228v302h-179v73h447v-73h-183v-302h232z" />
    <glyph glyph-name="uni30A8" unicode="&#x30a8;" horiz-adv-x="803" 
d="M749 132v-79h-696v79h300v408h-236v79h568v-79h-241v-408h305z" />
    <glyph glyph-name="uni30A9" unicode="&#x30a9;" horiz-adv-x="629" 
d="M579 374h-156v-281q0 -51 -25 -75t-77 -24q-63 0 -110 8l2 73q40 -6 86 -6q44 0 44 37v190q-52 -71 -124 -136.5t-142 -107.5l-50 58q79 45 155 117.5t123 146.5h-265v72h303v127h80v-127h156v-72z" />
    <glyph glyph-name="uni30AA" unicode="&#x30aa;" horiz-adv-x="815" 
d="M755 490h-209v-367q0 -64 -30 -95t-93 -31q-73 0 -141 12l2 79q56 -10 120 -10q54 0 54 52v272q-66 -93 -160 -181.5t-188 -145.5l-56 63q106 61 205 157.5t158 194.5h-351v78h392v172h88v-172h209v-78z" />
    <glyph glyph-name="uni30AB" unicode="&#x30ab;" horiz-adv-x="780" 
d="M697 556q0 -359 -45 -468q-20 -50 -52 -70.5t-89 -20.5q-54 0 -133 14l2 77q56 -10 118 -10q52 0 71 43q38 73 38 355h-200q-24 -164 -92.5 -278.5t-199.5 -201.5l-58 63q117 75 178 173.5t83 243.5h-253v80h263q6 65 6 178h88q0 -101 -7 -178h282z" />
    <glyph glyph-name="uni30AC" unicode="&#x30ac;" horiz-adv-x="802" 
d="M728 616q-30 81 -71 137l51 26q41 -54 78 -136zM607 581q-22 69 -67 138l53 25q41 -55 73 -136zM98 -4l-58 63q117 75 178 173t84 243h-253v79h261q8 72 8 180h86q0 -114 -6 -180h282q0 -360 -44 -466q-20 -50 -52 -70.5t-90 -20.5q-56 0 -132 14l2 77q55 -10 118 -10
q52 0 71 43q38 76 38 354h-203q-24 -164 -91.5 -278t-198.5 -201z" />
    <glyph glyph-name="uni30AD" unicode="&#x30ad;" horiz-adv-x="832" 
d="M476 257l39 -257l-87 -12l-38 258l-321 -38l-9 76l318 38l-27 173l-267 -32l-10 77l266 32l-24 160l88 12l24 -161l261 31l9 -76l-259 -31l27 -175l297 35l8 -74z" />
    <glyph glyph-name="uni30AE" unicode="&#x30ae;" horiz-adv-x="807" 
d="M706 632q-32 82 -71 136l53 24q41 -57 76 -134zM578 617q-25 71 -68 136l52 23q45 -60 74 -134zM410 -11l-38 253l-316 -39l-10 76l316 37l-27 173l-265 -32l-9 76l264 32l-24 161l86 11l24 -162l258 31l8 -75l-255 -32l27 -173l293 35l9 -72l-292 -36l38 -253z" />
    <glyph glyph-name="uni30AF" unicode="&#x30af;" horiz-adv-x="740" 
d="M674 577q-37 -211 -159.5 -367.5t-316.5 -220.5l-51 72q172 54 283.5 185.5t137.5 281.5h-274q-86 -131 -206 -235l-67 55q95 79 171.5 182.5t119.5 212.5l85 -20q-26 -66 -56 -117h263z" />
    <glyph glyph-name="uni30B0" unicode="&#x30b0;" horiz-adv-x="841" 
d="M744 788q44 -58 75 -133l-56 -25q-33 82 -71 135zM620 767q44 -59 75 -132l-58 -26q-23 65 -68 133zM620 593l69 -28q-36 -207 -157.5 -359.5t-314.5 -216.5l-49 71q170 53 280.5 182t135.5 274h-275q-88 -131 -201 -226l-65 54q94 79 170 181.5t118 209.5l84 -20
q-19 -52 -58 -122h263z" />
    <glyph glyph-name="uni30B1" unicode="&#x30b1;" horiz-adv-x="844" 
d="M798 479h-186q-22 -181 -102.5 -305t-244.5 -189l-49 67q149 57 219.5 164t87.5 263h-234q-78 -137 -169 -225l-66 53q81 80 149.5 199.5t101.5 235.5l85 -16q-22 -86 -60 -168h468v-79z" />
    <glyph glyph-name="uni30B2" unicode="&#x30b2;" horiz-adv-x="845" 
d="M768 625q-25 72 -71 135l53 26q43 -58 76 -134zM645 593q-24 70 -66 134l50 25q42 -58 75 -133zM249 -16l-48 66q147 57 216.5 162t86.5 259h-232q-71 -128 -165 -219l-66 51q80 79 147.5 197.5t99.5 233.5l86 -17q-22 -80 -61 -167h464v-79h-185q-22 -177 -101.5 -299.5
t-241.5 -187.5z" />
    <glyph glyph-name="uni30B3" unicode="&#x30b3;" horiz-adv-x="770" 
d="M680 623v-579h-589v83h498v413h-498v83h589z" />
    <glyph glyph-name="uni30B4" unicode="&#x30b4;" horiz-adv-x="801" 
d="M707 793q43 -58 75 -134l-55 -26q-36 85 -72 135zM578 776q44 -57 74 -130l-58 -27q-27 77 -68 134zM57 607h583v-564h-583v82h493v402h-493v80z" />
    <glyph glyph-name="uni30B5" unicode="&#x30b5;" horiz-adv-x="842" 
d="M792 487h-166v-92q0 -74 -11.5 -131t-41.5 -111.5t-87.5 -95.5t-142.5 -69l-48 69q76 22 125.5 54t75.5 76.5t35.5 92t9.5 114.5v93h-242v-222h-86v222h-162v80h162v169h86v-169h242v170h85v-170h166v-80z" />
    <glyph glyph-name="uni30B6" unicode="&#x30b6;" horiz-adv-x="844" 
d="M760 637q-31 82 -71 135l51 24q41 -55 74 -134zM650 611q-26 73 -68 135l50 23q44 -62 72 -132zM295 -12l-47 68q75 22 124 53.5t75 76t35.5 92t9.5 114.5v93h-235v-226h-84v226h-161v79h161v150h84v-150h235v144h85v-144h172v-79h-172v-93q0 -74 -12 -130.5
t-41.5 -110.5t-87 -95t-141.5 -68z" />
    <glyph glyph-name="uni30B7" unicode="&#x30b7;" horiz-adv-x="813" 
d="M412 523q-114 71 -227 110l39 72q118 -40 231 -108zM178 8l-39 79q187 30 341.5 147t230.5 280l57 -67q-82 -164 -242.5 -285.5t-347.5 -153.5zM316 329q-100 64 -227 110l38 72q138 -51 231 -106z" />
    <glyph glyph-name="uni30B8" unicode="&#x30b8;" horiz-adv-x="823" 
d="M733 604q-27 76 -70 135l52 24q43 -56 75 -133zM619 557q-25 68 -68 133l52 26q45 -61 73 -133zM387 518q-110 70 -224 108l40 70q112 -38 227 -106zM157 7l-40 79q186 29 339.5 144.5t227.5 277.5l56 -65q-80 -162 -239 -282.5t-344 -153.5zM292 325q-102 65 -224 109
l38 70q128 -45 229 -105z" />
    <glyph glyph-name="uni30B9" unicode="&#x30b9;" horiz-adv-x="752" 
d="M450 307q135 -110 265 -248l-72 -62q-112 133 -244 244q-143 -165 -323 -244l-55 67q173 74 299.5 218.5t171.5 294.5h-412v78h457l67 -31q-52 -179 -154 -317z" />
    <glyph glyph-name="uni30BA" unicode="&#x30ba;" horiz-adv-x="825" 
d="M755 636q-30 79 -71 134l52 24q41 -55 75 -131zM629 621q-25 72 -67 134l51 24q42 -57 72 -131zM100 -4l-55 67q170 72 297 215t169 287h-408v76h453l65 -32q-46 -162 -150 -307q142 -117 262 -244l-72 -61q-105 124 -240 241q-142 -162 -321 -242z" />
    <glyph glyph-name="uni30BB" unicode="&#x30bb;" horiz-adv-x="827" 
d="M442 97q35 -3 106 -3q87 0 191 13v-85q-87 -7 -191 -7q-77 0 -138 4q-84 5 -120.5 40.5t-36.5 116.5v251l-184 -27l-13 79l197 28v234h88v-221l367 53l64 -35q-71 -197 -180 -310l-67 46q89 91 134 214l-318 -49v-254q0 -49 22 -67.5t79 -20.5z" />
    <glyph glyph-name="uni30BC" unicode="&#x30bc;" horiz-adv-x="841" 
d="M759 623q-25 69 -71 135l52 25q40 -52 76 -134zM636 593q-25 72 -67 134l52 25q45 -63 73 -133zM529 14q-69 0 -136 3q-84 5 -120 41t-36 116v246l-182 -28l-11 80l193 28v232h88v-219l362 52l64 -35q-70 -195 -178 -306l-65 45q90 96 131 210l-314 -46v-251
q0 -47 22 -65.5t78 -22.5q70 -2 104 -2q72 0 189 13v-84q-85 -7 -189 -7z" />
    <glyph glyph-name="uni30BD" unicode="&#x30bd;" horiz-adv-x="730" 
d="M685 653q-9 -140 -63 -269.5t-157.5 -234.5t-239.5 -151l-51 72q125 42 220 134t145 208t59 246zM198 351q-57 144 -140 260l77 42q94 -126 149 -262z" />
    <glyph glyph-name="uni30BE" unicode="&#x30be;" horiz-adv-x="821" 
d="M753 644q-30 71 -70 128l49 24q44 -56 76 -128zM624 635q-23 62 -66 129l49 24q46 -62 73 -127zM189 346q-51 135 -137 258l75 41q89 -124 149 -261zM216 -3l-51 70q183 61 295.5 218.5t125.5 340.5l86 -5q-6 -94 -40 -189t-90.5 -180t-141 -153t-184.5 -102z" />
    <glyph glyph-name="uni30BF" unicode="&#x30bf;" horiz-adv-x="777" 
d="M700 610q-40 -223 -166.5 -389t-319.5 -235l-52 70q169 57 284 191q-96 79 -197 133l49 62q109 -58 200 -126q76 113 102 246h-269q-91 -152 -226 -265l-65 56q92 77 168 181t114 207l86 -21q-24 -61 -34 -81h261z" />
    <glyph glyph-name="uni30C0" unicode="&#x30c0;" horiz-adv-x="853" 
d="M783 644q-27 67 -70 128l51 24q45 -60 75 -128zM657 633q-22 66 -66 127l50 25q46 -63 73 -126zM218 -15l-52 69q162 55 276 183q-90 75 -196 131l49 62q115 -61 198 -126q79 113 105 244h-268q-92 -150 -220 -254l-65 55q91 75 167 178.5t113 205.5l85 -20
q-20 -54 -37 -87h261l63 -30q-38 -218 -162.5 -380t-316.5 -231z" />
    <glyph glyph-name="uni30C1" unicode="&#x30c1;" horiz-adv-x="831" 
d="M776 340h-297q-6 -133 -67.5 -218.5t-210.5 -129.5l-48 71q91 27 142.5 66.5t71 88t23.5 122.5h-332v79h332v164q-112 -19 -226 -27l-27 75q133 7 277.5 35t237.5 65l37 -72q-96 -35 -210 -59v-181h297v-79z" />
    <glyph glyph-name="uni30C2" unicode="&#x30c2;" horiz-adv-x="812" 
d="M189 -8l-48 69q132 41 181 102.5t55 169.5h-329v78h330v176q-118 -21 -226 -28l-26 74q131 7 274.5 35.5t237.5 64.5l37 -72q-80 -29 -208 -57v-193h296v-78h-297q-7 -130 -68.5 -214t-208.5 -127zM723 468q-29 78 -69 134l50 24q44 -59 75 -133zM601 441q-26 74 -66 133
l50 23q46 -61 73 -131z" />
    <glyph glyph-name="uni30C3" unicode="&#x30c3;" horiz-adv-x="660" 
d="M310 301q-25 114 -67 203l69 27q46 -96 73 -205zM229 -2l-45 64q155 48 237 166t94 274l79 -7q-7 -109 -46.5 -205t-121.5 -176t-197 -116zM139 272q-23 101 -69 201l69 27q50 -104 74 -203z" />
    <glyph glyph-name="uni30C4" unicode="&#x30c4;" horiz-adv-x="779" 
d="M363 386q-33 151 -84 260l79 29q57 -118 92 -261zM252 1l-52 74q199 60 310 215t125 354l87 -8q-10 -139 -62.5 -263t-158 -225.5t-249.5 -146.5zM148 352q-31 133 -88 258l78 29q63 -127 95 -259z" />
    <glyph glyph-name="uni30C5" unicode="&#x30c5;" horiz-adv-x="827" 
d="M759 644q-30 72 -69 128l50 24q43 -56 74 -126zM633 636q-21 57 -68 127l51 24q49 -69 72 -125zM347 380q-32 146 -84 259l78 28q55 -114 91 -258zM133 348q-31 138 -86 254l77 29q59 -122 94 -256zM236 -1l-50 74q131 39 227 124.5t144.5 193t56.5 230.5l88 -8
q-14 -204 -135.5 -376t-330.5 -238z" />
    <glyph glyph-name="uni30C6" unicode="&#x30c6;" horiz-adv-x="818" 
d="M663 602h-510v78h510v-78zM761 386h-283q-2 -58 -8.5 -102.5t-24 -91t-46.5 -82t-76 -67t-111 -54.5l-53 71q132 42 179 118.5t50 207.5h-334v79h707v-79z" />
    <glyph glyph-name="uni30C7" unicode="&#x30c7;" horiz-adv-x="824" 
d="M770 641q-28 74 -70 131l49 24q50 -67 75 -131zM662 602q-31 86 -66 133l49 22q44 -57 72 -131zM135 596v78h470v-78h-470zM194 -11l-53 70q55 18 95.5 42.5t65.5 52.5t40 65.5t21 75.5t7 89h-333v77h703v-77h-281q-2 -58 -8.5 -103t-24.5 -91t-46.5 -80.5t-75 -66
t-110.5 -54.5z" />
    <glyph glyph-name="uni30C8" unicode="&#x30c8;" horiz-adv-x="650" 
d="M571 214q-148 97 -335 179v-399h-88v742h88v-251q207 -88 385 -194z" />
    <glyph glyph-name="uni30C9" unicode="&#x30c9;" horiz-adv-x="678" 
d="M556 590q-27 72 -72 138l53 25q45 -60 77 -136zM136 -6v742h88v-257q209 -88 385 -193l-49 -78q-161 103 -336 179v-393h-88zM439 548q-27 78 -68 138l52 25q41 -57 74 -137z" />
    <glyph glyph-name="uni30CA" unicode="&#x30ca;" horiz-adv-x="825" 
d="M770 442h-278q-1 -75 -7.5 -128.5t-24.5 -105t-49.5 -88.5t-82.5 -69t-123 -58l-54 70q65 22 109 48t72 56t43.5 73.5t21 89t6.5 112.5h-348v80h348v211h89v-211h278v-80z" />
    <glyph glyph-name="uni30CB" unicode="&#x30cb;" horiz-adv-x="814" 
d="M657 531h-502v85h502v-85zM757 155v-85h-702v85h702z" />
    <glyph glyph-name="uni30CC" unicode="&#x30cc;" horiz-adv-x="749" 
d="M633 87q-69 70 -178 147q-144 -169 -340 -239l-51 69q188 66 323 219q-137 91 -236 139l45 66q120 -57 243 -137q75 110 106 241h-454v82h493l67 -33q-37 -183 -143 -338q109 -76 187 -149z" />
    <glyph glyph-name="uni30CD" unicode="&#x30cd;" horiz-adv-x="807" 
d="M709 117q-111 81 -256 152v-275h-89v250q-133 -86 -263 -127l-46 69q157 49 307 152t211 201h-466v82h257v118h89v-118h184l63 -44q-65 -122 -208 -241q151 -72 272 -150z" />
    <glyph glyph-name="uni30CE" unicode="&#x30ce;" horiz-adv-x="630" 
d="M588 680q-26 -226 -162.5 -412t-348.5 -258l-56 76q137 45 240 138.5t160.5 212t72.5 253.5z" />
    <glyph glyph-name="uni30CF" unicode="&#x30cf;" horiz-adv-x="878" 
d="M732 44q-66 287 -225 570l79 35q169 -279 240 -576zM131 26l-82 46q78 101 137.5 257t80.5 303l90 -14q-22 -155 -83 -318t-143 -274z" />
    <glyph glyph-name="uni30D0" unicode="&#x30d0;" horiz-adv-x="875" 
d="M782 627q-28 75 -69 134l50 23q39 -51 74 -132zM668 591q-30 79 -67 134l50 22q43 -59 71 -131zM709 39q-65 286 -223 566l78 34q169 -281 239 -572zM115 24l-81 46q78 99 136.5 254t79.5 302l90 -15q-22 -153 -82.5 -315t-142.5 -272z" />
    <glyph glyph-name="uni30D1" unicode="&#x30d1;" horiz-adv-x="867" 
d="M730 580q-41 0 -70.5 29.5t-29.5 71.5t29.5 71t70.5 29q42 0 71.5 -29t29.5 -71t-30 -71.5t-71 -29.5zM730 624q24 0 40.5 17t16.5 40t-16.5 39.5t-40.5 16.5q-23 0 -39 -16.5t-16 -39.5t16.5 -40t38.5 -17zM706 39q-67 288 -224 566l78 34q169 -281 239 -572zM111 24
l-81 46q78 99 136.5 254t79.5 302l90 -15q-22 -153 -82.5 -315t-142.5 -272z" />
    <glyph glyph-name="uni30D2" unicode="&#x30d2;" horiz-adv-x="766" 
d="M460 92q123 0 232 14v-86q-99 -10 -223 -10q-82 0 -148 2q-97 6 -143.5 49t-46.5 139v506h88v-278q244 57 415 142l43 -76q-184 -85 -458 -145v-142q0 -59 27 -83t90 -29q81 -3 124 -3z" />
    <glyph glyph-name="uni30D3" unicode="&#x30d3;" horiz-adv-x="773" 
d="M706 620q-22 62 -70 134l52 26q43 -61 76 -134zM584 593q-29 77 -69 134l53 25q39 -53 72 -132zM436 9q-95 0 -146 3q-96 6 -142 48t-46 136v503h87v-284q244 57 411 140l42 -74q-169 -80 -453 -145v-132q0 -59 26.5 -82.5t88.5 -27.5q39 -3 125 -3q127 0 230 13v-86
q-105 -9 -223 -9z" />
    <glyph glyph-name="uni30D4" unicode="&#x30d4;" horiz-adv-x="790" 
d="M683 576q-42 0 -71 29t-29 70q0 43 29 72.5t71 29.5t71.5 -29.5t29.5 -72.5q0 -41 -29.5 -70t-71.5 -29zM683 620q24 0 40.5 16t16.5 39q0 24 -16.5 40.5t-40.5 16.5q-23 0 -39.5 -16.5t-16.5 -40.5q0 -23 16.5 -39t39.5 -16zM450 9q-94 0 -145 3q-96 6 -142.5 48
t-46.5 136v503h87v-284q244 57 411 140l42 -74q-169 -80 -453 -145v-132q0 -59 26.5 -82.5t88.5 -27.5q41 -3 126 -3q126 0 229 13v-86q-103 -9 -223 -9z" />
    <glyph glyph-name="uni30D5" unicode="&#x30d5;" horiz-adv-x="777" 
d="M699 602q-31 -230 -153 -386t-334 -222l-50 76q195 59 302 187.5t130 294.5h-515v83h553z" />
    <glyph glyph-name="uni30D6" unicode="&#x30d6;" horiz-adv-x="797" 
d="M726 642q-29 70 -70 130l50 24q44 -60 75 -130zM599 630q-21 60 -68 129l50 24q46 -60 73 -128zM169 -7l-49 73q191 59 299 186.5t130 285.5h-511v83h550l66 -33q-30 -223 -153.5 -377t-331.5 -218z" />
    <glyph glyph-name="uni30D7" unicode="&#x30d7;" horiz-adv-x="783" 
d="M685 796q41 0 70.5 -29t29.5 -71q0 -41 -29.5 -70.5t-70.5 -29.5t-70 29.5t-29 70.5q0 42 29 71t70 29zM685 640q24 0 40 16.5t16 39.5t-16 39.5t-40 16.5q-23 0 -39 -16.5t-16 -39.5t16 -39.5t39 -16.5zM576 619l76 -42q-32 -219 -155 -369t-327 -215l-51 73
q191 59 298.5 185t132.5 287h-513v81h539z" />
    <glyph glyph-name="uni30D8" unicode="&#x30d8;" horiz-adv-x="908" 
d="M469 516q191 -228 393 -384l-61 -72q-176 148 -366 361q-42 47 -61 47q-17 0 -57 -52q-11 -13 -83 -101.5t-112 -135.5l-75 62q115 122 238 278q48 61 88 61q45 0 96 -64z" />
    <glyph glyph-name="uni30D9" unicode="&#x30d9;" horiz-adv-x="895" 
d="M711 529q-31 80 -71 137l53 26q43 -58 77 -136zM596 486q-29 77 -70 138l54 25q43 -58 74 -136zM787 59q-194 167 -365 361q-43 48 -61 48q-17 0 -58 -53q-17 -20 -86 -105t-108 -131l-75 61q115 125 237 278q51 62 89 62q45 0 96 -64q189 -226 392 -385z" />
    <glyph glyph-name="uni30DA" unicode="&#x30da;" horiz-adv-x="823" 
d="M652 448q-42 0 -71.5 30t-29.5 72t29.5 71t71.5 29q41 0 70.5 -29t29.5 -71t-29.5 -72t-70.5 -30zM652 606q-24 0 -40.5 -16.5t-16.5 -39.5q0 -24 16.5 -40.5t40.5 -16.5q23 0 39 16.5t16 40.5q0 23 -16 39.5t-39 16.5zM426 516q191 -230 392 -385l-61 -72
q-194 167 -365 361q-43 48 -61 48q-17 0 -58 -53q-129 -159 -194 -236l-75 61q104 112 238 278q49 62 88 62q45 0 96 -64z" />
    <glyph glyph-name="uni30DB" unicode="&#x30db;" horiz-adv-x="885" 
d="M372 -7q-46 0 -108 6v84q35 -7 85 -7q31 0 41.5 11t10.5 40v353h-313v82h313v175h89v-175h312v-82h-312v-363q0 -67 -27.5 -95.5t-90.5 -28.5zM760 95q-61 120 -177 249l72 43q108 -122 182 -248zM117 87l-69 48q53 47 103.5 115.5t74.5 128.5l78 -32q-67 -143 -187 -260
z" />
    <glyph glyph-name="uni30DC" unicode="&#x30dc;" horiz-adv-x="864" 
d="M766 623q-26 73 -71 137l53 25q43 -56 76 -136zM647 586q-26 75 -67 138l52 25q45 -62 74 -137zM358 -7q-47 0 -107 6v84q34 -7 85 -7q30 0 41 11.5t11 39.5v353h-312v80h312v177h88v-177h312v-80h-312v-363q0 -66 -27.5 -95t-90.5 -29zM748 95q-62 120 -177 249l71 43
q106 -121 183 -248zM104 87l-68 48q53 47 103.5 115.5t73.5 128.5l79 -32q-70 -147 -188 -260z" />
    <glyph glyph-name="uni30DD" unicode="&#x30dd;" horiz-adv-x="861" 
d="M710 588q-42 0 -71.5 29t-29.5 71q0 43 29 72t72 29q42 0 71 -29.5t29 -71.5q0 -41 -29.5 -70.5t-70.5 -29.5zM710 632q23 0 39.5 16.5t16.5 39.5t-16.5 39.5t-39.5 16.5q-24 0 -40.5 -16.5t-16.5 -39.5t16.5 -39.5t40.5 -16.5zM358 -7q-47 0 -107 6v84q34 -7 85 -7
q30 0 41 11.5t11 39.5v349h-312v80h312v181h88v-181h312v-80h-312v-359q0 -66 -27.5 -95t-90.5 -29zM748 95q-62 120 -177 249l71 43q106 -121 183 -248zM104 87l-68 48q53 47 103.5 115.5t73.5 128.5l79 -32q-70 -147 -188 -260z" />
    <glyph glyph-name="uni30DE" unicode="&#x30de;" horiz-adv-x="806" 
d="M442 196q72 -71 124 -128l-70 -60q-155 191 -354 331l58 57q89 -60 181 -142q82 68 154 152t112 159h-589v80h647l67 -45q-56 -110 -144 -215.5t-186 -188.5z" />
    <glyph glyph-name="uni30DF" unicode="&#x30df;" horiz-adv-x="727" 
d="M638 525q-99 39 -236 71.5t-260 45.5l18 82q129 -14 267 -45.5t238 -69.5zM578 281q-86 35 -204 67t-220 47l18 82q256 -43 435 -115zM611 -7q-249 109 -545 161l21 81q315 -58 555 -159z" />
    <glyph glyph-name="uni30E0" unicode="&#x30e0;" horiz-adv-x="801" 
d="M694 -4q-23 58 -43 98q-287 -39 -588 -66l-19 87l88 6q122 323 193 597l91 -22q-64 -231 -188 -566q175 15 381 40q-54 93 -128 181l74 41q155 -182 226 -360z" />
    <glyph glyph-name="uni30E1" unicode="&#x30e1;" horiz-adv-x="777" 
d="M127 0l-57 69q194 83 334 284q-134 91 -258 151l48 67q131 -64 256 -145q84 141 116 292l88 -17q-36 -166 -130 -325q130 -93 215 -171l-61 -71q-88 85 -202 168q-147 -211 -349 -302z" />
    <glyph glyph-name="uni30E2" unicode="&#x30e2;" horiz-adv-x="809" 
d="M400 331v-144q0 -51 18.5 -70t72.5 -22q23 -1 80 -1q91 0 157 6v-81q-57 -4 -158 -4h-84q-98 4 -136 41.5t-38 126.5v148h-253v80h253v181h-211v78h606v-78h-307v-181h352v-80h-352z" />
    <glyph glyph-name="uni30E3" unicode="&#x30e3;" horiz-adv-x="677" 
d="M633 436q-48 -166 -130 -262l-72 34q68 82 98 178l-228 -43l81 -335l-81 -21l-82 341l-155 -30l-16 76l154 28l-38 155l81 19l39 -160l290 53z" />
    <glyph glyph-name="uni30E4" unicode="&#x30e4;" horiz-adv-x="833" 
d="M788 566q-62 -206 -168 -334l-72 45q83 100 125 228l-309 -56l105 -437l-87 -22l-107 443l-208 -37l-17 81l206 37l-50 207l87 19l51 -210l380 68z" />
    <glyph glyph-name="uni30E5" unicode="&#x30e5;" horiz-adv-x="620" 
d="M592 119v-72h-565v72h348l30 298h-303v74h395l-38 -372h133z" />
    <glyph glyph-name="uni30E6" unicode="&#x30e6;" horiz-adv-x="820" 
d="M770 145v-82h-719v82h449l41 396h-393v82h494l-50 -478h178z" />
    <glyph glyph-name="uni30E7" unicode="&#x30e7;" horiz-adv-x="616" 
d="M526 515v-486h-442v71h357v142h-322v70h322v131h-354v72h439z" />
    <glyph glyph-name="uni30E8" unicode="&#x30e8;" horiz-adv-x="749" 
d="M654 654v-622h-565v82h477v195h-444v82h444v182h-472v81h560z" />
    <glyph glyph-name="uni30E9" unicode="&#x30e9;" horiz-adv-x="779" 
d="M648 614h-492v81h492v-81zM724 461q-36 -175 -152 -302.5t-300 -165.5l-42 73q162 34 261 130t123 216h-542v81h585z" />
    <glyph glyph-name="uni30EA" unicode="&#x30ea;" horiz-adv-x="729" 
d="M614 713v-305q0 -154 -72.5 -260t-247.5 -160l-48 73q157 44 218 130t61 218v304h89zM127 700h88v-415h-88v415z" />
    <glyph glyph-name="uni30EB" unicode="&#x30eb;" horiz-adv-x="878" 
d="M517 30l-65 38v621h89v-548q66 25 134.5 85t107.5 128l43 -75q-45 -74 -127.5 -141.5t-181.5 -107.5zM95 6l-63 61q109 74 145.5 171.5t36.5 240.5v196h88v-196q0 -160 -43.5 -275t-163.5 -198z" />
    <glyph glyph-name="uni30EC" unicode="&#x30ec;" horiz-adv-x="766" 
d="M705 322q-72 -112 -201 -197t-281 -121l-70 39v656h89v-590q116 22 233 102.5t186 193.5z" />
    <glyph glyph-name="uni30ED" unicode="&#x30ed;" horiz-adv-x="802" 
d="M712 639v-590h-622v590h622zM623 557h-446v-427h446v427z" />
    <glyph glyph-name="uni30EE" unicode="&#x30ee;" horiz-adv-x="625" 
d="M567 502q-2 -208 -73 -331t-246 -177l-44 65q77 21 132 59t85 90t44 108.5t15 126.5h-328v-175h-82v250h424z" />
    <glyph glyph-name="uni30EF" unicode="&#x30ef;" horiz-adv-x="779" 
d="M708 632q-5 -256 -100.5 -412.5t-311.5 -222.5l-47 73q190 56 275 184.5t88 318.5h-439v-222h-89v304h549z" />
    <glyph glyph-name="uni30F0" unicode="&#x30f0;" horiz-adv-x="825" 
d="M775 199h-237v-205h-86v205h-407v78h138v239h-96v77h365v146h86v-146h197v-77h-197v-239h237v-78zM452 277v239h-184v-239h184z" />
    <glyph glyph-name="uni30F1" unicode="&#x30f1;" horiz-adv-x="798" 
d="M516 337l-62 54q125 78 166 174h-526v80h570l69 -39q-67 -176 -217 -269zM49 52v79h298v345h91v-345h311v-79h-700z" />
    <glyph glyph-name="uni30F2" unicode="&#x30f2;" horiz-adv-x="801" 
d="M698 670q-29 -556 -442 -675l-44 72q245 73 338 290h-448v81h475q20 72 24 152h-511v80h608z" />
    <glyph glyph-name="uni30F3" unicode="&#x30f3;" horiz-adv-x="790" 
d="M318 439q-99 83 -238 153l49 73q146 -70 245 -150zM132 3l-34 83q181 26 339 139t240 280l58 -65q-91 -173 -255 -291.5t-348 -145.5z" />
    <glyph glyph-name="uni30F4" unicode="&#x30f4;" horiz-adv-x="795" 
d="M719 624q-30 81 -74 144l55 26q53 -73 81 -142zM590 602q-27 77 -71 142l56 26q40 -53 77 -141zM269 -11l-45 72q349 85 358 448h-436v-203h-89v278h251v152h89v-152h200l82 -21q-4 -108 -26.5 -196t-69 -164t-125.5 -131t-189 -83z" />
    <glyph glyph-name="uni30F5" unicode="&#x30f5;" horiz-adv-x="613" 
d="M559 441q0 -284 -36 -370q-18 -43 -45.5 -60t-78.5 -17q-47 0 -103 10l1 73q48 -8 93 -8q40 0 56 33q29 65 29 266h-146q-18 -128 -71 -217t-155 -157l-60 56q91 59 138.5 133.5t65.5 184.5h-192v73h201q4 52 4 129h82q0 -64 -5 -129h222z" />
    <glyph glyph-name="uni30F6" unicode="&#x30f6;" horiz-adv-x="659" 
d="M622 367h-139q-18 -139 -80.5 -234.5t-188.5 -146.5l-53 59q116 44 170.5 124t68.5 198h-168q-54 -99 -131 -173l-66 42q64 64 118.5 157.5t78.5 182.5l79 -16q-16 -64 -42 -118h353v-75z" />
    <glyph glyph-name="uni30FB" unicode="&#x30fb;" horiz-adv-x="449" vert-adv-y="799" 
d="M232 437q30 0 51 -21t21 -50q0 -30 -21 -51t-51 -21t-50.5 21t-20.5 51q0 29 20.5 50t50.5 21z" />
    <glyph glyph-name="uni30FC" unicode="&#x30fc;" horiz-adv-x="781" vert-adv-y="799" 
d="M743 409v-90h-705v90h705z" />
    <glyph glyph-name="uni4E00" unicode="&#x4e00;" 
d="M829 418v-87h-796v87h796z" />
    <glyph glyph-name="uni4E01" unicode="&#x4e01;" 
d="M814 624h-339v-542q0 -66 -29 -90.5t-101 -24.5q-48 0 -108 2l-21 88q32 -4 111 -4q36 0 48.5 8t12.5 33v530h-341v80h767v-80z" />
    <glyph glyph-name="uni4E03" unicode="&#x4e03;" 
d="M628 79q26 0 38.5 3t21.5 20t11 42.5t4 79.5l84 -16q-7 -98 -20.5 -139.5t-41.5 -56t-92 -14.5h-216q-91 0 -126 38.5t-35 146.5v223l-213 -34l-15 77l228 37v276h86v-262l476 74l16 -78l-492 -78v-234q0 -63 17.5 -84t62.5 -21h206z" />
    <glyph glyph-name="uni4E07" unicode="&#x4e07;" 
d="M396 633q-5 -81 -18 -170h351q-8 -143 -17.5 -231t-20 -143.5t-30.5 -80.5t-40 -32t-58 -7q-77 0 -114 2l-14 82q37 -2 116 -2q27 0 39.5 15.5t25.5 88.5t23 230h-275q-63 -291 -255 -417l-75 54q67 40 117 100t78.5 120t46.5 135t24.5 132t9.5 124h-270v76h782v-76h-426
z" />
    <glyph glyph-name="uni4E08" unicode="&#x4e08;" 
d="M90 -33l-63 67q191 55 285 160q-91 100 -142 245l80 25q40 -123 110 -203q56 99 67 257h-394v79h400q3 78 3 168l85 -1q-2 -138 -4 -167h313v-79h-319q-18 -201 -90 -317q139 -117 413 -156l-56 -77q-255 46 -404 168q-96 -107 -284 -169z" />
    <glyph glyph-name="uni4E09" unicode="&#x4e09;" 
d="M93 617v79h676v-79h-676zM155 342v79h550v-79h-550zM41 35v80h780v-80h-780z" />
    <glyph glyph-name="uni4E0A" unicode="&#x4e0a;" 
d="M825 88v-77h-789v77h331v677h84v-262h309v-77h-309v-338h374z" />
    <glyph glyph-name="uni4E0B" unicode="&#x4e0b;" 
d="M451 638v-106q209 -116 344 -234l-60 -66q-110 103 -284 210v-475h-85v671h-326v75h783v-75h-372z" />
    <glyph glyph-name="uni4E0D" unicode="&#x4e0d;" 
d="M383 -32v475q-117 -135 -286 -237l-61 59q264 148 392 378h-386v75h778v-75h-300q-29 -54 -53 -89v-586h-84zM761 212q-110 117 -289 257l60 49q175 -133 295 -248z" />
    <glyph glyph-name="uni4E0E" unicode="&#x4e0e;" 
d="M513 -33q-45 0 -125 2l-14 81q53 -4 126 -4q25 0 38.5 8t27.5 43t25 104h-558v74h569l12 114h-370l-12 -42l-89 6q64 195 108 411l87 -6l-21 -91h443v-74h-461q-5 -19 -16.5 -62t-17.5 -67h440q-6 -77 -19 -189h144v-74h-153q-12 -79 -26.5 -126.5t-36 -71t-43 -30
t-58.5 -6.5z" />
    <glyph glyph-name="uni4E11" unicode="&#x4e11;" 
d="M665 335q-14 -125 -35 -263h174v-77h-747v77h161q22 93 50 263h-235v78h248q18 115 35 239h-211v77h600q-8 -103 -31 -316h156v-78h-165zM403 652q-18 -135 -36 -239h221q14 113 24 239h-209zM543 72q14 77 35 263h-225q-7 -37 -23.5 -130t-24.5 -133h238z" />
    <glyph glyph-name="uni4E14" unicode="&#x4e14;" 
d="M828 72v-74h-792v74h139v659h510v-659h143zM255 656v-144h347v144h-347zM602 441h-347v-147h347v147zM255 72h347v150h-347v-150z" />
    <glyph glyph-name="uni4E16" unicode="&#x4e16;" 
d="M386 210v278h-141v-396h553v-79h-553v-45h-83v520h-129v79h129v187h83v-187h141v196h80v-196h148v195h83v-195h133v-79h-133v-278h-311zM466 488v-202h148v202h-148z" />
    <glyph glyph-name="uni4E18" unicode="&#x4e18;" 
d="M829 72v-74h-796v74h142v579h62q116 13 246.5 45.5t206.5 68.5l49 -67q-86 -38 -223 -72.5t-257 -49.5v-95h539v-75h-157v-334h188zM259 72h299v334h-299v-334z" />
    <glyph glyph-name="uni4E19" unicode="&#x4e19;" 
d="M827 656h-364v-99h309v-490q0 -57 -23.5 -77.5t-85.5 -20.5q-65 0 -92 1l-17 79q24 -2 90 -2q27 0 36 5.5t9 23.5v408h-223q51 -217 216 -285l-51 -66q-134 64 -199 215q-49 -122 -190 -216l-60 58q193 115 201 294h-211v-516h-82v589h293v99h-347v74h791v-74z" />
    <glyph glyph-name="uni4E1E" unicode="&#x4e1e;" 
d="M379 105h-81l-13 70q21 -1 73 -1q19 0 26 4.5t7 18.5v377h36q50 36 117 95h-364v71h464l52 -31q-57 -58 -141 -125q12 -61 37 -118q115 89 175 153l60 -56q-81 -74 -207 -160q79 -149 220 -219l-54 -62q-215 117 -295 416l-17 -13v-336q0 -49 -20.5 -66.5t-74.5 -17.5z
M76 117l-53 57q175 93 237 284h-216v72h254l56 -15q-29 -132 -102 -234t-176 -164zM50 -7v72h762v-72h-762z" />
    <glyph glyph-name="uni4E21" unicode="&#x4e21;" 
d="M466 662v-108h304v-493q0 -54 -22 -73.5t-80 -19.5q-13 0 -43 0.5t-42 0.5l-15 77q33 -3 81 -3q24 0 32.5 5.5t8.5 22.5v411h-224v-293h89v231h67v-299h-318v-50h-67v349h67v-231h85v293h-218v-515h-80v587h298v108h-353v71h791v-71h-361z" />
    <glyph glyph-name="uni4E26" unicode="&#x4e26;" 
d="M555 77h275v-78h-797v78h265v441h-235v77h194q-32 78 -74 137l71 31q53 -72 82 -147l-49 -21h218q66 92 100 170l85 -30q-32 -54 -93 -140h203v-77h-245v-441zM473 77v441h-92v-441h92zM652 144l-68 26q81 170 118 292l84 -28q-49 -130 -134 -290zM156 458
q76 -143 107 -289l-76 -24q-28 142 -104 287z" />
    <glyph glyph-name="uni4E2D" unicode="&#x4e2d;" 
d="M383 -33v271h-228v-39h-80v401h308v164h84v-164h320v-401h-83v39h-237v-271h-84zM155 315h228v208h-228v-208zM467 315h237v208h-237v-208z" />
    <glyph glyph-name="uni4E32" unicode="&#x4e32;" 
d="M384 -33v161h-226v-34h-80v282h306v71h-268v237h268v80h83v-80h280v-237h-280v-71h319v-282h-83v34h-236v-161h-83zM195 513h189v106h-189v-106zM467 513h198v106h-198v-106zM158 196h226v112h-226v-112zM467 196h236v112h-236v-112z" />
    <glyph glyph-name="uni4E38" unicode="&#x4e38;" 
d="M108 -31l-66 59q153 86 225 252q-67 51 -150 102l53 54q50 -30 125 -80q16 59 31 155h-250v76h256q5 81 7 177l83 -1q-2 -95 -7 -176h250l-20 -462q-3 -40 2 -52t21 -13h59q9 0 13 2.5t7.5 14.5t4.5 32t3 62l78 -14q-7 -82 -17.5 -116.5t-28 -45t-58.5 -12.5
q-38 -2 -71 0q-63 3 -81.5 30t-14.5 112l16 386h-171q-15 -116 -43 -204q73 -56 130 -114l-60 -61q-43 48 -101 95q-76 -167 -225 -258z" />
    <glyph glyph-name="uni4E39" unicode="&#x4e39;" 
d="M105 -33l-74 47q131 122 149 315h-147v77h151v328h505v-328h141v-77h-141v-258q0 -60 -26.5 -82t-91.5 -22q-37 0 -87 2l-17 80q38 -3 87 -3q30 0 40.5 7t10.5 30v246h-343q-19 -226 -157 -362zM265 406h340v253h-340v-253zM462 430q-50 84 -141 162l57 42
q100 -85 149 -162z" />
    <glyph glyph-name="uni4E3B" unicode="&#x4e3b;" 
d="M470 74h354v-77h-786v77h346v203h-259v76h259v174h-313v76h378q-64 56 -153 112l54 53q111 -65 178 -128l-43 -37h304v-76h-319v-174h263v-76h-263v-203z" />
    <glyph glyph-name="uni4E3C" unicode="&#x4e3c;" 
d="M118 -35l-70 53q115 81 152 197h-167v78h183q4 25 4 79v169h-172v77h172v146h82v-146h256v146h84v-146h174v-77h-174v-248h188v-78h-188v-248h-84v248h-273q-37 -153 -167 -250zM299 293h259v248h-256v-169q0 -42 -3 -79zM446 323q-32 71 -108 155l59 35q79 -80 117 -155
z" />
    <glyph glyph-name="uni4E43" unicode="&#x4e43;" 
d="M791 454q-7 -117 -14.5 -195t-18.5 -134t-21 -86t-29 -46.5t-36.5 -20.5t-48.5 -4q-72 0 -107 1l-12 82q33 -3 106 -3q20 0 30.5 7.5t22.5 38.5t20.5 99.5t16.5 184.5h-131l-13 -44l-87 5q38 129 80 304h-172q-6 -95 -18.5 -174t-40.5 -178t-84 -182.5t-135 -139.5
l-68 60q62 40 109.5 100.5t73.5 121t43.5 136.5t23.5 132t9 124h-213v75h527l50 -5q-32 -137 -65 -259h202z" />
    <glyph glyph-name="uni4E45" unicode="&#x4e45;" 
d="M546 392q71 -260 291 -354l-59 -70q-199 97 -289 328q-146 -215 -400 -327l-58 66q389 158 501 554h-208q-78 -156 -211 -277l-73 43q199 168 264 410l82 -18q-10 -36 -28 -82h220l60 -15q-34 -145 -92 -258z" />
    <glyph glyph-name="uni4E4B" unicode="&#x4e4b;" 
d="M99 -33l-74 47q34 42 80 113.5t78 132.5l60 -43l-25 -53q13 -17 30 -30q116 83 218.5 184t171.5 201h-560v78h308v168h83v-168h253l57 -34q-82 -124 -202.5 -248t-256.5 -223q65 -28 164 -30q27 -1 172.5 -0.5t178.5 3.5l-16 -81q-39 -1 -174 -1.5t-175 0.5
q-99 2 -167 28t-121 88q-51 -88 -83 -132z" />
    <glyph glyph-name="uni4E4E" unicode="&#x4e4e;" 
d="M351 -33q-44 0 -100 2l-18 85q36 -4 100 -4q33 0 44.5 8t11.5 32v191h-356v77h356v273q-143 -18 -266 -20l-29 73q143 0 322.5 23.5t285.5 55.5l43 -68q-107 -32 -270 -54v-283h355v-77h-355v-204q0 -63 -27.5 -86.5t-96.5 -23.5zM616 380l-68 30q71 118 105 209l81 -31
q-52 -112 -118 -208zM229 381q-24 98 -81 190l71 31q58 -96 83 -192z" />
    <glyph glyph-name="uni4E4F" unicode="&#x4e4f;" 
d="M484 59q29 -1 173.5 -0.5t179.5 1.5l-15 -78h-351q-99 2 -168 27.5t-122 86.5q-43 -76 -83 -130l-72 48q33 39 79 108.5t78 128.5l59 -42l-25 -50q17 -22 41 -40q233 152 371 330h-551v74h308v101q-188 -19 -313 -19l-20 74q164 -3 372.5 22t333.5 62l33 -70
q-121 -35 -323 -61v-109h246l57 -35q-78 -107 -193 -214t-243 -193q55 -20 148 -22z" />
    <glyph glyph-name="uni4E57" unicode="&#x4e57;" 
d="M518 227q59 -54 144.5 -99.5t172.5 -72.5l-53 -71q-189 75 -312 198v-214h-83v210q-125 -123 -312 -196l-49 65q88 28 173.5 76t142.5 104h-273v65h111v83h-147v67h147v79h-111v66h318v61q-131 -10 -262 -10l-23 69q143 -4 324.5 12.5t288.5 43.5l36 -65
q-99 -23 -281 -42v-69h325v-66h-110v-79h145v-67h-145v-83h110v-65h-277zM260 521v-79h127v79h-127zM470 521v-79h133v79h-133zM260 375v-83h127v83h-127zM470 375v-83h133v83h-133z" />
    <glyph glyph-name="uni4E58" unicode="&#x4e58;" 
d="M387 -32v209q-130 -121 -312 -190l-49 66q104 33 205.5 92.5t155.5 126.5v265h-354v63h354v55q-139 -11 -260 -9l-23 64q139 -4 318.5 11.5t284.5 41.5l35 -61q-109 -24 -272 -40v-62h360v-63h-360v-264q56 -68 156.5 -125t207.5 -89l-53 -70q-186 72 -311 187v-208h-83z
M250 221v42q-49 -10 -188 -41l-14 64q66 8 202 33v85h-188v58h188v49h75v-290h-75zM629 229q-58 0 -77.5 19.5t-19.5 78.5v184h74v-77q94 19 163 58l35 -49q-78 -45 -198 -68v-48q0 -24 6 -31t25 -7h84q20 0 24.5 9t5.5 51l70 -11q-6 -72 -22.5 -90.5t-71.5 -18.5h-98z" />
    <glyph glyph-name="uni4E59" unicode="&#x4e59;" 
d="M785 225q-7 -90 -22 -133.5t-41.5 -59t-81.5 -17.5q-62 -2 -195.5 -2t-193.5 2q-167 7 -167 103q0 25 8 49t35.5 64.5t76 90t135 124t207.5 168.5h-446v79h576l53 -42q-146 -105 -252 -190t-161.5 -136.5t-88 -91.5t-40 -58t-7.5 -34q0 -39 80 -42q55 -1 186 -1t188 1
q26 1 38 10.5t19.5 39.5t9.5 93z" />
    <glyph glyph-name="uni4E5D" unicode="&#x4e5d;" 
d="M87 -31l-65 59q235 131 282 458h-266v79h275q5 54 7 199l84 -1q-4 -132 -10 -198h271l-19 -436q-2 -40 2.5 -51t21.5 -12h57q17 1 21.5 17t8.5 93l78 -14q-5 -50 -10 -79.5t-11.5 -49.5t-18.5 -29t-26 -12t-39 -4q-38 -2 -72 0q-62 2 -81 29t-15 112l15 357h-192
q-51 -368 -298 -517z" />
    <glyph glyph-name="uni4E5E" unicode="&#x4e5e;" 
d="M99 425l-64 46q147 125 204 293l78 -19q-10 -28 -36 -82h534v-77h-578q-62 -94 -138 -161zM285 -8q-78 2 -115 25t-37 71q0 25 11.5 48.5t46 61.5t109.5 93.5t190 127.5h-317v74h467l49 -36q-125 -70 -215 -127t-137 -91.5t-73.5 -63t-32.5 -41.5t-6 -26q0 -20 16.5 -27
t53.5 -9q53 -2 178.5 -2t178.5 2q32 2 43.5 23t14.5 97l80 -15q-10 -114 -35 -148.5t-97 -36.5q-58 -2 -187 -2t-186 2z" />
    <glyph glyph-name="uni4E5F" unicode="&#x4e5f;" 
d="M828 171q-11 -119 -41.5 -150t-133.5 -31h-298q-104 0 -143.5 40t-39.5 151v183l-123 -44l-24 74l147 54v237h82v-207l157 56v230h83v-200l167 61l77 -10q-2 -104 -3.5 -168.5t-7 -113t-10.5 -71.5t-17.5 -37t-23.5 -16t-33 -2q-56 0 -82 1l-11 77q36 -3 71 -3
q11 0 16 4.5t10 29.5t7.5 76t4.5 147l-165 -58v-316h-83v286l-157 -57v-213q0 -66 23 -88t84 -22h286q64 0 80 18.5t19 97.5z" />
    <glyph glyph-name="uni4E71" unicode="&#x4e71;" 
d="M623 -21q-66 0 -89 33t-23 131v621h82v-621q0 -51 7.5 -66.5t28.5 -15.5h91q23 0 28 15.5t6 89.5l77 -13q-5 -79 -15 -114.5t-29 -47.5t-62 -12h-102zM70 -32v348h145v127h-182v72h182v118q-87 -15 -152 -19l-30 69q92 4 204 27.5t178 52.5l46 -63q-59 -24 -165 -51v-134
h178v-72h-178v-127h148v-348h-79v31h-216v-31h-79zM149 73h216v169h-216v-169z" />
    <glyph glyph-name="uni4E73" unicode="&#x4e73;" 
d="M53 645l-24 63q95 2 213.5 18t187.5 38l35 -61q-78 -22 -198 -39t-214 -19zM622 -23q-67 0 -90 33.5t-23 133.5v620h83v-620q0 -52 7.5 -67.5t28.5 -15.5h88q23 0 28.5 17t6.5 94l78 -13q-5 -84 -14.5 -120.5t-29 -49t-62.5 -12.5h-101zM208 -33q-57 0 -80 1l-14 75
q60 -3 72 -3q17 0 23 4t6 15v134l-176 -23l-15 77q168 17 191 19v67h25q44 35 84 78h-252v67h232q66 104 100 186l71 -27q-42 -81 -99 -167l32 8l51 -26q-66 -77 -161 -156v-23l175 20l2 -67l-177 -24v-152q0 -48 -19.5 -65.5t-70.5 -17.5zM225 500q-3 61 -35 134l58 21
q35 -74 43 -139zM93 487q-10 64 -43 131l55 22q38 -65 53 -133z" />
    <glyph glyph-name="uni4E7E" unicode="&#x4e7e;" 
d="M830 581h-287q-27 -58 -62 -109h281l51 -32q-285 -263 -285 -348q0 -27 40 -29h156q17 1 22 17t6 75l74 -13q-4 -94 -23 -122.5t-74 -31.5q-25 -1 -87.5 -1t-88.5 1q-57 3 -82.5 23t-25.5 63q0 45 44 116.5t178 209.5h-211v65l-37 21v-250h-145v-64h157v-67h-157v-137
h-79v137h-162v67h162v64h-135v318h134v60h-157v65h157v85h79v-85h157v-65h-157v-60h146v-42q79 124 104 253l75 -14q-17 -69 -27 -97h259v-73zM345 425v66h-214v-66h214zM345 299v68h-214v-68h214z" />
    <glyph glyph-name="uni4E80" unicode="&#x4e80;" 
d="M752 96l78 -14q-7 -65 -30 -82.5t-98 -17.5h-179q-73 0 -102.5 24t-33.5 90h-210v-48h-81v295h289v42h-254v154q-6 -4 -17 -11t-20 -12.5t-17 -9.5l-53 47q169 94 240 212l82 -7l-22 -34h216l47 -27q-35 -42 -73 -76h217v-236h-265v-42h303v-247h-301q3 -31 16.5 -41.5
t44.5 -10.5h166q38 0 47 8t10 44zM280 670q-15 -18 -48 -49h185q39 36 50 49h-187zM385 523v50h-177v-50h177zM651 573h-185v-50h185v50zM385 433v50h-177v-50h177zM651 433v50h-185v-50h185zM385 242v52h-208v-52h208zM687 294h-221v-52h221v52zM385 146v53h-208v-53h208z
M687 146v53h-221v-53h221z" />
    <glyph glyph-name="uni4E82" unicode="&#x4e82;" 
d="M153 657q-28 -75 -75 -134l-56 29q60 76 84 166l23 -4q80 3 174 17.5t148 32.5l31 -54q-82 -24 -201 -40q22 -55 26 -80l-63 -13q-4 35 -23 84l7 2q-39 -4 -75 -6zM753 164l77 -14q-4 -79 -13.5 -114.5t-27 -47.5t-56.5 -12h-82q-62 0 -83 31.5t-21 129.5v627h81v-627
q0 -49 6 -63t24 -14h68q18 0 22 15.5t5 88.5zM449 546q-55 -58 -143 -119v-1h185v-387q0 -42 -16 -56.5t-59 -14.5h-54l-10 61l-31 -22q-16 19 -46 45q-43 -34 -95 -58l-38 39q50 19 93 51q-27 21 -66 46l34 29q29 -17 67 -44q27 27 46 60h-160v45h192l39 -8
q-20 -70 -77 -129q30 -24 52 -47l-6 -4q7 0 21.5 -0.5t19.5 -0.5q13 0 17 3.5t4 12.5v321h-152q-4 -7 -10.5 -21t-12.5 -26t-12 -23l102 7q-5 6 -15 19t-15 19l35 20q50 -51 75 -103l-43 -18q-3 6 -7.5 14.5t-6.5 12.5l-205 -20l-9 46l38 1q8 17 31 72h-85v-400h-71v458h170
q-20 16 -62 44l41 31q54 -37 61 -42q29 19 71 58h-218v55h296l32 -19q-23 48 -69 109l55 29q57 -69 84 -129l-62 -28q-1 2 -2.5 6t-2.5 6z" />
    <glyph glyph-name="uni4E86" unicode="&#x4e86;" 
d="M776 675q-124 -122 -299 -246v-357q0 -60 -25 -82t-90 -22q-18 0 -56 0.5t-53 0.5l-18 84q90 -3 107 -3q29 0 39.5 7t10.5 26v409h44q92 68 177 145h-522v74h627z" />
    <glyph glyph-name="uni4E88" unicode="&#x4e88;" 
d="M364 -33q-42 0 -102 2l-17 81q28 -2 98 -2q27 0 36 5.5t9 22.5v327h-355v73h368q-73 63 -157 114l57 48q73 -42 126 -82q88 64 137 112h-408v71h511l56 -34q-99 -96 -242 -194q6 -5 17 -16l17 -17l-3 -2h252l52 -8q-60 -113 -169 -238l-88 25q67 68 122 148h-208v-339
q0 -56 -23.5 -76.5t-85.5 -20.5z" />
    <glyph glyph-name="uni4E89" unicode="&#x4e89;" 
d="M727 396h103v-68h-103v-155h-257v-111q0 -55 -22.5 -75t-81.5 -20q-38 0 -90 2l-14 77q23 -2 84 -2q24 0 32.5 5.5t8.5 22.5v101h-262v66h262v89h-354v68h354v84h-236v22q-32 -26 -50 -38l-66 41q79 52 144 121.5t100 137.5l86 -7q-16 -25 -28 -47h227l50 -29
q-49 -67 -110 -134h223v-151zM405 547q54 61 81 97h-197q-41 -53 -86 -97h202zM644 396v84h-174v-84h174zM644 239v89h-174v-89h174z" />
    <glyph glyph-name="uni4E8B" unicode="&#x4e8b;" 
d="M360 -33q-34 0 -78 2l-14 74q28 -4 74 -4q26 0 35.5 6.5t9.5 25.5v44h-287v55h287v58h-354v57h354v53h-284v57h284v45h-257v162h257v45h-354v59h354v58h83v-58h360v-59h-360v-45h263v-162h-263v-45h275v-110h85v-57h-85v-113h-275v-52q0 -55 -24 -75.5t-86 -20.5z
M210 490h177v63h-177v-63zM470 490h181v63h-181v-63zM470 285h193v53h-193v-53zM470 170h193v58h-193v-58z" />
    <glyph glyph-name="uni4E8C" unicode="&#x4e8c;" 
d="M733 595h-604v81h604v-81zM825 141v-82h-789v82h789z" />
    <glyph glyph-name="uni4E91" unicode="&#x4e91;" 
d="M131 635v77h603v-77h-603zM717 -31q-19 41 -52 98q-284 -33 -582 -59l-20 81l112 8q71 146 121 290h-254v78h778v-78h-429q-60 -151 -127 -285q296 25 357 31q-55 76 -113 140l70 37q152 -161 220 -300z" />
    <glyph glyph-name="uni4E92" unicode="&#x4e92;" 
d="M35 -1v75h494l27 148h-310l-12 -43l-89 5q71 212 126 470h-200v75h718v-75h-429l-27 -114h358q-26 -220 -73 -466h210v-75h-793zM268 296h300q11 62 27 170h-281z" />
    <glyph glyph-name="uni4E94" unicode="&#x4e94;" 
d="M33 23v75h225q32 114 67 270h-209v75h225q24 111 37 187h-293v74h695v-74h-311l-39 -187h259v-345h141v-75h-797zM348 98h256v270h-191q-37 -166 -65 -270z" />
    <glyph glyph-name="uni4E95" unicode="&#x4e95;" 
d="M830 233h-210v-266h-84v266h-226q-35 -161 -170 -268l-72 53q122 88 157 215h-192v78h207q3 38 3 75v129h-195v79h195v170h84v-170h209v170h84v-170h196v-79h-196v-204h210v-78zM536 311v204h-209v-129q0 -38 -3 -75h212z" />
    <glyph glyph-name="uni4E98" unicode="&#x4e98;" 
d="M65 654v73h733v-73h-733zM164 132v443h534v-443h-83v26h-369v-26h-82zM246 404h369v99h-369v-99zM246 231h369v105h-369v-105zM36 0v73h792v-73h-792z" />
    <glyph glyph-name="uni4E99" unicode="&#x4e99;" 
d="M35 -3v75h493q39 191 68 410h-280q-36 -145 -85 -305l-88 5q72 216 128 474h-200v75h718v-75h-430q-3 -11 -11 -46t-13 -55h357q-29 -251 -76 -483h212v-75h-793zM490 304q-56 52 -160 103l42 48q115 -57 168 -102zM452 154q-53 53 -158 112l44 45q104 -54 166 -109z" />
    <glyph glyph-name="uni4E9B" unicode="&#x4e9b;" 
d="M52 290l-21 77l59 10v311h72v-298l69 15v359h79v-122h123v-68h-123v-153l123 26l6 -65q-186 -49 -387 -92zM587 329q-69 0 -92 25.5t-23 105.5v304h79v-154q136 37 213 91l44 -60q-45 -30 -118 -59t-139 -44v-77q0 -34 9 -45t34 -11h118q27 0 33.5 12.5t7.5 69.5l76 -12
q-7 -96 -26.5 -121t-83.5 -25h-132zM159 191v72h543v-72h-543zM41 -6v76h781v-76h-781z" />
    <glyph glyph-name="uni4E9C" unicode="&#x4e9c;" 
d="M830 71v-76h-797v76h257v157h-199v300h199v130h-233v74h749v-74h-240v-130h206v-300h-206v-157h264zM370 528h115v130h-115v-130zM290 299v159h-120v-159h120zM485 458h-115v-159h115v159zM566 458v-159h124v159h-124zM370 71h115v157h-115v-157z" />
    <glyph glyph-name="uni4E9E" unicode="&#x4e9e;" 
d="M33 -5v76h251v152h-192v303h192v132h-227v74h749v-74h-237v-132h201v-303h-201v-152h261v-76h-797zM366 71h121v221h202v164h-202v202h-121v-202h-195v-164h195v-221z" />
    <glyph glyph-name="uni4EA1" unicode="&#x4ea1;" 
d="M218 533v-394q0 -37 23.5 -51.5t90.5 -15.5q186 -4 382 0q45 2 58 5l7 -78q-32 -5 -64 -5q-198 -4 -391 0q-110 1 -151 32.5t-41 108.5v398h-99v77h352v155h85v-155h359v-77h-611z" />
    <glyph glyph-name="uni4EA4" unicode="&#x4ea4;" 
d="M36 574v75h352v115h82v-115h358v-75h-792zM746 313q-83 106 -223 222l71 35q142 -114 233 -220zM111 309l-72 46q146 88 226 212l76 -27q-80 -129 -230 -231zM85 -32l-55 71q212 48 343 160q-82 93 -129 204l76 27q40 -99 111 -176q69 78 111 181l80 -29
q-50 -117 -132 -207q129 -109 342 -156l-56 -75q-207 56 -344 175q-139 -119 -347 -175z" />
    <glyph glyph-name="uni4EA5" unicode="&#x4ea5;" 
d="M470 675h358v-71h-369l8 -3q-70 -87 -165 -179q35 -28 69 -64q110 87 175 196l68 -36q-147 -243 -483 -370l-65 53q136 45 238 111q-77 83 -200 167l53 49q38 -24 89 -62q67 68 123 138h-333v71h351v89h83v-89zM707 364q-61 -93 -137 -161q133 -102 220 -188l-77 -48
q-84 90 -205 186q-161 -119 -408 -184l-65 62q212 49 362 138.5t241 237.5z" />
    <glyph glyph-name="uni4EA6" unicode="&#x4ea6;" 
d="M160 -33l-67 55q52 33 90.5 81t61 97.5t36.5 115.5t19.5 122t7.5 130h-275v74h355v122h85v-122h357v-74h-270v-508q0 -53 -22 -73t-78 -20q-31 0 -77 2l-14 78q21 -2 72 -2q22 0 30 5t8 22v496h-90q-5 -101 -15.5 -178t-34 -161t-68.5 -150t-111 -112zM748 181
q-43 130 -128 283l74 26q90 -154 136 -277zM105 174l-78 31q99 125 139 279l78 -15q-42 -161 -139 -295z" />
    <glyph glyph-name="uni4EA8" unicode="&#x4ea8;" 
d="M830 688v-66h-797v66h354v76h83v-76h360zM701 397h-538v178h538v-178zM617 521h-373v-71h373v71zM730 317q-99 -78 -256 -160v-106q0 -49 -20 -66.5t-75 -17.5q-73 0 -105 1l-15 75q81 -3 97 -3q20 0 27 4.5t7 15.5v149h41q72 35 131 75h-443v65h559z" />
    <glyph glyph-name="uni4EAB" unicode="&#x4eab;" 
d="M39 629v63h348v72h83v-72h353v-63h-784zM163 413v172h538v-172h-538zM244 465h373v67h-373v-67zM379 -33q-71 0 -102 1l-14 74q24 -3 93 -3q20 0 27 4t7 16v84h-357v63h357v36h36q55 25 117 65h-401v61h513l51 -29q-73 -56 -223 -132v-1h346v-63h-355v-92
q0 -49 -20 -66.5t-75 -17.5z" />
    <glyph glyph-name="uni4EAC" unicode="&#x4eac;" 
d="M33 600v67h353v98h84v-98h360v-67h-797zM379 -33q-33 0 -81 2l-15 75q21 -1 75 -1q17 0 23 3.5t6 14.5v221h-242v255h574v-255h-249v-229q0 -50 -19 -68t-72 -18zM226 347h408v124h-408v-124zM753 10q-67 86 -195 200l70 35q129 -110 202 -197zM103 4l-71 43
q122 85 193 196l75 -26q-68 -112 -197 -213z" />
    <glyph glyph-name="uni4EAD" unicode="&#x4ead;" 
d="M39 636v62h348v66h83v-66h353v-62h-784zM165 425v169h536v-169h-536zM245 476h372v64h-372v-64zM54 225v156h755v-156h-81v93h-597v-93h-77zM380 -33q-38 0 -96 2l-14 73q24 -3 88 -3q18 0 24.5 4.5t6.5 15.5v148h-220v62h521v-62h-216v-157q0 -48 -20 -65.5t-74 -17.5z
" />
    <glyph glyph-name="uni4EAE" unicode="&#x4eae;" 
d="M39 632v63h348v69h83v-69h353v-63h-784zM165 419v171h536v-171h-536zM245 472h372v64h-372v-64zM56 218v158h750v-158h-83v96h-586v-96h-81zM584 -21q-69 0 -92 23t-23 92v188h80v-188q0 -26 8.5 -34.5t33.5 -8.5h118q27 0 32.5 12.5t7.5 69.5l76 -13q-7 -93 -26 -117
t-84 -24h-131zM84 -33l-49 62q75 15 123 36t75.5 53.5t39 69t15.5 92.5l78 -2q-12 -134 -70.5 -204t-211.5 -107z" />
    <glyph glyph-name="uni4EBA" unicode="&#x4eba;" 
d="M466 602q28 -236 116.5 -369t255.5 -190l-64 -75q-128 52 -212.5 149.5t-131.5 247.5q-36 -133 -117 -232t-225 -164l-65 66q57 23 104 52.5t81.5 60t62 71t46 76t31.5 85.5t20 88.5t11 96t5 97t2 101.5h86q-2 -109 -6 -161z" />
    <glyph glyph-name="uni4EC0" unicode="&#x4ec0;" 
d="M169 -32v432q-35 -50 -88 -112l-57 64q164 178 233 413l82 -21q-37 -110 -88 -207v-569h-82zM524 -33v429h-223v81h223v287h85v-287h220v-81h-220v-429h-85z" />
    <glyph glyph-name="uni4EC1" unicode="&#x4ec1;" 
d="M147 -32v416q-31 -49 -70 -100l-54 69q141 183 197 412l85 -20q-29 -102 -74 -204v-573h-84zM328 564v79h454v-79h-454zM272 25v79h558v-79h-558z" />
    <glyph glyph-name="uni4ECA" unicode="&#x4eca;" 
d="M468 768q159 -196 377 -295l-54 -70q-79 40 -158 98v-72h-403v70q-74 -57 -160 -100l-52 68q212 91 371 301h79zM235 503h395q-113 84 -202 191q-88 -109 -193 -191zM111 347h578l54 -25q-39 -103 -113.5 -200t-165.5 -165l-72 53q155 107 237 262h-518v75z" />
    <glyph glyph-name="uni4ECB" unicode="&#x4ecb;" 
d="M789 388q-211 100 -362 302q-150 -201 -356 -301l-49 67q213 86 366 307h79q152 -211 375 -307zM538 -33v510h84v-510h-84zM141 -34l-66 55q87 53 123.5 117.5t36.5 144.5v193h82v-194q0 -195 -176 -316z" />
    <glyph glyph-name="uni4ECF" unicode="&#x4ecf;" 
d="M166 -32v429q-41 -59 -85 -109l-57 64q163 178 230 413l81 -21q-31 -99 -87 -209v-567h-82zM749 -33q-12 43 -30 90q-244 -34 -430 -54l-21 81l71 5q101 346 155 666l86 -13q-62 -314 -161 -645q157 14 271 28q-47 100 -105 189l74 29q120 -181 174 -342z" />
    <glyph glyph-name="uni4ED4" unicode="&#x4ed4;" 
d="M318 746q-28 -96 -86 -217v-562h-83v423q-36 -55 -73 -99l-56 62q155 183 218 412zM830 326h-239v-265q0 -55 -22 -75t-82 -20q-37 0 -89 2l-17 78q24 -2 86 -2q25 0 33.5 5.5t8.5 22.5v254h-239v76h239v119h27q67 63 119 131h-306v74h392l51 -30q-80 -110 -201 -220v-74
h239v-76z" />
    <glyph glyph-name="uni4ED5" unicode="&#x4ed5;" 
d="M158 -32v434q-42 -62 -88 -114l-52 65q79 88 139.5 195.5t91.5 216.5l79 -20q-33 -105 -87 -207v-570h-83zM304 -1v78h209v338h-231v77h231v272h83v-272h234v-77h-234v-338h210v-78h-502z" />
    </font>
</defs>
</svg>
